<svg width="188" height="188" viewBox="0 0 188 188" fill="none" xmlns="http://www.w3.org/2000/svg">
<path d="M56.2195 48.9172C55.7401 48.4377 55.171 48.0575 54.5446 47.798C53.9183 47.5386 53.2469 47.405 52.569 47.405C51.891 47.405 51.2196 47.5386 50.5933 47.798C49.9669 48.0575 49.3978 48.4377 48.9184 48.9172C47.9502 49.8853 47.4062 51.1985 47.4062 52.5677C47.4062 53.937 47.9502 55.2501 48.9184 56.2183L131.185 138.485C131.663 138.967 132.232 139.349 132.858 139.61C133.485 139.871 134.157 140.006 134.836 140.006C135.514 140.006 136.186 139.871 136.813 139.61C137.44 139.349 138.008 138.967 138.486 138.485C138.968 138.007 139.351 137.438 139.612 136.812C139.873 136.185 140.007 135.513 140.007 134.834C140.007 134.156 139.873 133.484 139.612 132.857C139.351 132.23 138.968 131.662 138.486 131.184L56.2195 48.9172Z" fill="white"/>
<path d="M118.95 104.395L126.354 111.799C130.247 106.443 132.313 99.9779 132.248 93.3577C132.184 86.7374 129.991 80.3137 125.994 75.0357C125.135 73.972 123.888 73.2932 122.529 73.1486C121.169 73.0039 119.808 73.4053 118.744 74.2644C117.681 75.1235 117.002 76.37 116.857 77.7296C116.712 79.0892 117.114 80.4505 117.973 81.5142C120.386 84.8015 121.767 88.7318 121.941 92.8058C122.115 96.8798 121.074 100.914 118.95 104.395Z" fill="white"/>
<path d="M139.972 93.7002C139.865 102.107 136.597 110.165 130.82 116.272L138.121 123.573C145.813 115.518 150.151 104.837 150.256 93.7002C150.161 86.9758 148.56 80.3582 145.57 74.3342C142.58 68.3102 138.278 63.0331 132.98 58.8912C132.46 58.459 131.86 58.1335 131.214 57.9332C130.569 57.733 129.89 57.6618 129.216 57.7239C128.543 57.786 127.889 57.98 127.291 58.295C126.692 58.61 126.162 59.0397 125.73 59.5596C125.298 60.0795 124.972 60.6794 124.772 61.3251C124.572 61.9708 124.501 62.6497 124.563 63.3229C124.625 63.9961 124.819 64.6505 125.134 65.2487C125.449 65.8469 125.879 66.3772 126.398 66.8093C130.522 69.9965 133.881 74.0653 136.23 78.718C138.578 83.3707 139.857 88.4896 139.972 93.7002Z" fill="white"/>
<path d="M101.413 125.065L75.1904 107.069C74.3247 106.487 73.3026 106.182 72.2596 106.195H49.9962V81.2062H66.6552L56.3719 70.9229H44.8546C43.4909 70.9229 42.1831 71.4646 41.2188 72.4288C40.2546 73.3931 39.7129 74.7009 39.7129 76.0645V111.336C39.7129 112.7 40.2546 114.008 41.2188 114.972C42.1831 115.936 43.4909 116.478 44.8546 116.478H70.5629L103.521 139.101C104.394 139.666 105.411 139.97 106.452 139.975C107.815 139.975 109.123 139.434 110.087 138.469C111.052 137.505 111.593 136.197 111.593 134.834V126.247L101.31 115.964L101.413 125.065Z" fill="white"/>
<path d="M101.416 62.3362V86.862L111.699 97.1453V52.5671C111.707 51.6247 111.456 50.6983 110.973 49.8891C110.49 49.0798 109.794 48.4189 108.961 47.9784C108.128 47.538 107.189 47.335 106.249 47.3916C105.308 47.4482 104.401 47.7623 103.627 48.2995L79.4609 64.9071L86.8649 72.3111L101.416 62.3362Z" fill="white"/>
<rect x="3" y="3" width="182" height="182" rx="91" stroke="white" stroke-width="6"/>
</svg>
