<svg id="Group_54" data-name="Group 54" xmlns="http://www.w3.org/2000/svg" xmlns:xlink="http://www.w3.org/1999/xlink" width="266.418" height="226.404" viewBox="0 0 266.418 226.404">
  <defs>
    <clipPath id="clip-path">
      <rect id="Rectangle_24" data-name="Rectangle 24" width="266.418" height="226.404" fill="none"/>
    </clipPath>
  </defs>
  <g id="Group_53" data-name="Group 53" clip-path="url(#clip-path)">
    <path id="Path_3192" data-name="Path 3192" d="M39.537,219.974c0,2-1.752,3.432-4.653,4.4a31.8,31.8,0,0,1-6.461,1.271,77.791,77.791,0,0,1-8.477.409c-7.363,0-13.779-.739-17.122-2.626C1.251,222.544.355,221.4.355,219.974c0-4.479,8.774-10.151,19.591-10.151.325,0,.655.005.974.017,10.364.324,18.617,5.789,18.617,10.134" fill="#97acad"/>
    <path id="Path_3193" data-name="Path 3193" d="M34.881,224.369a31.863,31.863,0,0,1-6.461,1.271,7.181,7.181,0,0,0-.924-3.175c-1.68-2.435-9.535-6.036-9.535-6.036l2.553-1.271c9.871,2.985,13.382,6.434,14.367,9.211" fill="#2c2d30"/>
    <path id="Path_3194" data-name="Path 3194" d="M21.394,210.035s-17.363,5.246-18.214,10.9c-.134.907-.257,1.735-.358,2.491C1.254,222.543.358,221.4.358,219.973c0-4.479,8.774-10.151,19.591-10.151q.488,0,.975.017c.3.129.47.2.47.2" fill="#f0e4cd"/>
    <path id="Path_3195" data-name="Path 3195" d="M19.948,226.4C10.848,226.4,0,225.29,0,219.977c0-4.762,8.9-10.512,19.948-10.512S39.9,215.215,39.9,219.977c0,5.313-10.848,6.428-19.948,6.428m0-16.224c-10.357,0-19.231,5.386-19.231,9.8,0,3.683,6.829,5.711,19.231,5.711s19.231-2.028,19.231-5.711c0-4.41-8.874-9.8-19.231-9.8" fill="#2c2d30"/>
    <path id="Path_3196" data-name="Path 3196" d="M38.742,219.416a6.547,6.547,0,0,1-1.871,1.54,14.146,14.146,0,0,1-2.235.981,29.648,29.648,0,0,1-4.742,1.11,68.535,68.535,0,0,1-9.692.67,71.312,71.312,0,0,1-9.694-.6,32.314,32.314,0,0,1-4.759-1.031,10.417,10.417,0,0,1-4.248-2.3,8.7,8.7,0,0,0,2.062,1.225,16.07,16.07,0,0,0,2.283.737,32.452,32.452,0,0,0,4.732.821A81.715,81.715,0,0,0,20.2,223a77.934,77.934,0,0,0,9.617-.5,29.831,29.831,0,0,0,4.713-.9,13.86,13.86,0,0,0,2.252-.816,7.155,7.155,0,0,0,1.959-1.372" fill="#2c2d30"/>
    <path id="Path_3197" data-name="Path 3197" d="M81.761,120.834H62.136l-2.408,3.2-5.739,7.62L24.566,170.732l-7.793,43.147a2.439,2.439,0,0,0,2.4,2.877,2.414,2.414,0,0,0,1.416-.453,2.438,2.438,0,0,0,.89-1.187l13.724-39.658,48.241-38.74ZM20.35,209.825l6.467-35.795L32,176.158Zm12.721-36.248-5.453-2.24L39.7,155.29l7.312,7.094Zm24.143-19.384-8,6.422L41.4,153.034l15.571-20.683.246-.33Zm2.8-2.251V128.3l1.8-2.391,1.719-2.279H79.241l1.26,11.859Z" fill="#f0e4cd"/>
    <path id="Path_3198" data-name="Path 3198" d="M81.964,122.747q-1.317,1.158-2.561,2.4l1.1,10.34L60.014,151.941v-9.049q-1.392,1.013-2.8,2.008v9.292l-8,6.422-5.98-5.8-2.324,1.648,6.1,5.922L33.072,173.576l-1.767-.725q-.719,1.217-1.44,2.43l2.132.876L20.351,209.824l3.168-17.535c-1.363,2.4-2.769,4.782-4.143,7.178l-2.6,14.411a2.44,2.44,0,0,0,2.4,2.878,2.412,2.412,0,0,0,1.416-.454,2.437,2.437,0,0,0,.891-1.186l13.723-39.659,48.241-38.739Z" fill="#97acad"/>
    <path id="Path_3199" data-name="Path 3199" d="M61.812,125.912l-1.8,2.391v4.753c-.975-.218-1.915-.442-2.8-.643v-.392l-.247.33c-1.109-.258-2.117-.5-2.979-.7l5.74-7.62c.677.6,1.376,1.232,2.083,1.881" fill="#2c2d30"/>
    <path id="Path_3200" data-name="Path 3200" d="M19.176,217.112a2.8,2.8,0,0,1-2.754-3.3l7.809-43.229.051-.068,37.677-50.041H82.084l1.741,16.4-48.314,38.8L21.822,215.23a2.8,2.8,0,0,1-1.022,1.363,2.758,2.758,0,0,1-1.624.519m5.73-46.235-7.779,43.062a2.081,2.081,0,0,0,2.049,2.456,2.048,2.048,0,0,0,1.207-.385,2.081,2.081,0,0,0,.762-1.016L34.9,175.24l48.17-38.682L81.44,121.189H62.316Zm-4.372,38.674a.444.444,0,0,1-.108-.014.411.411,0,0,1-.3-.473l6.42-35.536,5.9,2.424-11.525,33.32a.411.411,0,0,1-.388.279m.3-.362v0m6.263-34.662-5.564,30.8,10.019-28.966Zm6.039-.542-6.078-2.5L39.66,154.747l7.9,7.66Zm-4.947-2.806,4.829,1.983,13.46-10.805-6.73-6.53ZM49.193,161.09l-8.271-8.022,16.652-22.122v23.415Zm-7.318-8.1,7.362,7.141,7.621-6.117V133.089Zm17.782-.307V128.18l3.7-4.907H79.565l1.314,12.373Zm.717-24.267v22.772l19.751-15.86L78.92,123.989H63.71Z" fill="#2c2d30"/>
    <path id="Path_3201" data-name="Path 3201" d="M20.59,209.356a.431.431,0,0,1-.112-.015.427.427,0,0,1-.314-.492l6.381-35.321,5.9,2.425L20.993,209.066a.427.427,0,0,1-.4.29m6.5-34.828-5.564,30.8,10.02-28.966Z" fill="#2c2d30"/>
    <path id="Path_3202" data-name="Path 3202" d="M33.132,173.986l-6.078-2.5,12.607-16.743,7.894,7.66Zm-4.947-2.807,4.829,1.983,13.46-10.805-6.73-6.529Z" fill="#2c2d30"/>
    <path id="Path_3203" data-name="Path 3203" d="M49.192,161.09l-8.27-8.022,16.652-22.122v23.415Zm-7.317-8.1,7.362,7.141,7.62-6.117V133.09Z" fill="#2c2d30"/>
    <path id="Path_3204" data-name="Path 3204" d="M20.745,209.782l-.367-.059a.393.393,0,0,1-.29-.455l6.457-35.74,5.9,2.425Zm-.568-.548v0Zm6.916-34.706-5.564,30.795,10.02-28.964Z" fill="#2c2d30"/>
    <path id="Path_3205" data-name="Path 3205" d="M33.132,173.986l-6.078-2.5,12.607-16.743,7.894,7.66Zm-4.947-2.807,4.829,1.983,13.46-10.805-6.73-6.529Z" fill="#2c2d30"/>
    <path id="Path_3206" data-name="Path 3206" d="M49.192,161.09l-8.27-8.022,16.652-22.122v23.415Zm-7.317-8.1,7.362,7.141,7.62-6.117V133.09Z" fill="#2c2d30"/>
    <path id="Path_3207" data-name="Path 3207" d="M266.06,219.974c0,1.428-.9,2.57-2.464,3.449a11.265,11.265,0,0,1-1.254.6,26.475,26.475,0,0,1-6.383,1.5,75.468,75.468,0,0,1-9.49.526c-10.817,0-19.591-1.59-19.591-6.075,0-4.345,8.253-9.81,18.617-10.134.324-.012.649-.017.974-.017,10.817,0,19.591,5.672,19.591,10.151" fill="#97acad"/>
    <path id="Path_3208" data-name="Path 3208" d="M262.342,224.022a26.475,26.475,0,0,1-6.383,1.5c-.745-6.333-9.664-8.769-9.664-8.769l2.755-2.4c11.427,3.444,13.348,7.352,13.292,9.664" fill="#2c2d30"/>
    <path id="Path_3209" data-name="Path 3209" d="M247.914,210.035s-17.363,5.246-18.214,10.9c-.134.907-.257,1.735-.358,2.491-1.568-.879-2.464-2.021-2.464-3.449,0-4.479,8.774-10.151,19.591-10.151q.488,0,.975.017c.3.129.47.2.47.2" fill="#f0e4cd"/>
    <path id="Path_3210" data-name="Path 3210" d="M246.471,226.4c-9.1,0-19.949-1.115-19.949-6.428,0-4.762,8.9-10.512,19.949-10.512s19.947,5.75,19.947,10.512c0,5.313-10.848,6.428-19.947,6.428m0-16.224c-10.358,0-19.231,5.386-19.231,9.8,0,3.683,6.828,5.711,19.231,5.711s19.23-2.028,19.23-5.711c0-4.41-8.874-9.8-19.23-9.8" fill="#2c2d30"/>
    <path id="Path_3211" data-name="Path 3211" d="M227.676,219.416a7.155,7.155,0,0,0,1.959,1.372,13.86,13.86,0,0,0,2.252.816,29.831,29.831,0,0,0,4.713.9,77.934,77.934,0,0,0,9.617.5,81.715,81.715,0,0,0,9.623-.433,32.451,32.451,0,0,0,4.732-.821,16.071,16.071,0,0,0,2.283-.737,8.7,8.7,0,0,0,2.062-1.225,10.416,10.416,0,0,1-4.248,2.3,32.314,32.314,0,0,1-4.759,1.031,71.312,71.312,0,0,1-9.694.6,68.535,68.535,0,0,1-9.692-.67,29.648,29.648,0,0,1-4.742-1.11,14.147,14.147,0,0,1-2.235-.981,6.547,6.547,0,0,1-1.871-1.54" fill="#2c2d30"/>
    <path id="Path_3212" data-name="Path 3212" d="M249.643,213.879l-7.794-43.146-25.711-34.149-11.859-15.75H184.655l-1.686,15.884,4.34,3.489,43.9,35.251,13.723,39.658a2.442,2.442,0,0,0,4.709-1.237M206.4,151.942,191.4,139.893l-5.481-4.4,1.259-11.859h15.711l3.516,4.67Zm2.8,2.251V132.021l3.874,5.145,11.943,15.868-7.816,7.581Zm10.2,8.191,7.313-7.094L238.8,171.337l-5.453,2.24Zm15.017,13.774,5.179-2.128,6.467,35.795Z" fill="#97acad"/>
    <path id="Path_3213" data-name="Path 3213" d="M216.138,136.584c-1.008.2-2.032.4-3.063.582l-3.874-5.145v5.8q-1.4.219-2.8.415V128.3l-3.516-4.67H187.174l-1.26,11.859,5.482,4.4c-1.49.123-2.867.23-4.087.314l-4.34-3.488,1.686-15.885h19.624Z" fill="#2c2d30"/>
    <path id="Path_3214" data-name="Path 3214" d="M247.242,217.112a2.8,2.8,0,0,1-2.644-1.879l-13.691-39.562-48.313-38.8,1.74-16.4H204.46l37.728,50.108.015.085L250,213.813a2.8,2.8,0,0,1-2.755,3.3m-63.894-80.553,48.169,38.682L245.274,215a2.069,2.069,0,0,0,.759,1.011,2.043,2.043,0,0,0,1.209.388,2.082,2.082,0,0,0,2.05-2.455l-7.779-43.063L204.1,121.19H184.979Zm62.537,72.992a.408.408,0,0,1-.388-.279l-11.526-33.319,5.9-2.425,6.421,35.536a.411.411,0,0,1-.3.474.433.433,0,0,1-.106.013M234.87,176.359l10.02,28.965-5.564-30.8Zm-1.584-2.373-14.423-11.579,7.895-7.659,12.606,16.742Zm-13.341-11.629,13.46,10.806,4.828-1.984-11.559-15.351Zm-2.719-1.267-8.382-6.728V130.947L225.5,153.069Zm-7.665-7.071,7.62,6.117,7.362-7.141-14.982-19.9Zm-2.8-1.332-21.222-17.04,1.314-12.374h16.213l3.7,4.908Zm-20.468-17.354,19.751,15.859V128.421l-3.336-4.432H187.5Z" fill="#2c2d30"/>
    <path id="Path_3215" data-name="Path 3215" d="M245.829,209.355a.425.425,0,0,1-.4-.29l-11.455-33.113,5.9-2.424,6.381,35.32a.434.434,0,0,1-.426.507m-10.959-33,10.02,28.966-5.564-30.8Z" fill="#2c2d30"/>
    <path id="Path_3216" data-name="Path 3216" d="M233.285,173.986l-14.422-11.579,7.895-7.66,12.605,16.743Zm-13.34-11.629L233.4,173.162l4.829-1.983-11.559-15.351Z" fill="#2c2d30"/>
    <path id="Path_3217" data-name="Path 3217" d="M217.225,161.09l-8.382-6.729V130.946l16.652,22.122Zm-7.664-7.072,7.619,6.117,7.362-7.141-14.981-19.9Z" fill="#2c2d30"/>
    <path id="Path_3218" data-name="Path 3218" d="M245.938,209.736a.394.394,0,0,1-.373-.267l-11.594-33.517,5.9-2.424L246.39,209.6l-.35.128a.4.4,0,0,1-.1.013M234.87,176.358l10.02,28.966-5.564-30.8Z" fill="#2c2d30"/>
    <path id="Path_3219" data-name="Path 3219" d="M233.285,173.986l-14.422-11.579,7.895-7.66,12.605,16.743Zm-13.34-11.629L233.4,173.162l4.829-1.983-11.559-15.351Z" fill="#2c2d30"/>
    <path id="Path_3220" data-name="Path 3220" d="M217.225,161.09l-8.382-6.729V130.946l16.652,22.122Zm-7.664-7.072,7.619,6.117,7.362-7.141-14.981-19.9Z" fill="#2c2d30"/>
    <path id="Path_3221" data-name="Path 3221" d="M108.838,18.957l-1.458.345.2,5.864-3.955,1.274L89.527,11.1l-1.757.943,14.056,15.022S87.034,32.842,76.711,44.12l-.435-.255s.128-2.683-2.217-3.271a6.713,6.713,0,0,0-3.929.071,3.329,3.329,0,0,0-1.879-3.635c-2.486-1.49-4.659-.288-5.795,1.715s.168,4.531,1.295,5.644A44.892,44.892,0,0,0,53.072,57.266l-.724.658-24.8-8.653s-1.587-.666-1.445.043,1.389,1.439,1.389,1.439L49.484,63.64l.1.437S45.421,75.042,45.5,80.947s2.032,9.6,4.5,9.543,5.978-3.865,5.978-3.865l-.506,7.5a157.386,157.386,0,0,0-25.027,7.826c-12.766,5.283-10.832,11.549-8.432,13.663s15.02,9.017,41.488,14.344c0,0,7.9,17.733,25,28.293,0,0,17.661,11.948,38.148,12.9s37.43-8.564,41.3-10.531,20.127-12.484,27.241-27.964l1.4-3.481s26.273-4.574,39.023-12.767-6.722-15.658-6.722-15.658-14.7-5.616-24.288-7.367l-.355-2.955s8.835-10.183,12.546-22.723l.225.386,22.812,5.421s.348,3.586,3.518,2.93a3.18,3.18,0,0,0,2.4-4.759c-.719-1.337-2.894-2.917-5.45-.47L218.145,63.22a64.882,64.882,0,0,0,2.349-21.475c-.837-11.269-2.392-9.088-5.386-7.109A80.167,80.167,0,0,0,198.833,50.68l-4.053,5.6-.821.475-1.3-.905s-7.623-15.8-29.83-26.716L173.443,9.871l-2.452-.005-9.927,18.357-9-3.26-.186-6.182Z" fill="#97acad"/>
    <path id="Path_3222" data-name="Path 3222" d="M92.042,138.242s4.513,27.77,40.6,32.9c0,0-44.484,2.765-67.4-37.827Z" fill="#f0e4cd"/>
    <path id="Path_3223" data-name="Path 3223" d="M69.72,101.908s-33.822,10.77-23.237,23.56c0,0-12.9-2.31-20.832-7.547S19.88,112,22.327,107.4,48.536,94.522,55.475,94.122s14.245,7.786,14.245,7.786" fill="#f0e4cd"/>
    <path id="Path_3224" data-name="Path 3224" d="M107.381,19.3l-.037,3.8c0,.011.011.021.015.033a1.7,1.7,0,0,1,.055.832l.389.673c-.264.075-.525.156-.787.235a1.85,1.85,0,0,1-.992.689,11.027,11.027,0,0,0-1.142.426c-.181.068-.366.123-.548.187-.1.031-.188.067-.281.1-.022.014-.068.039-.155.085a2.163,2.163,0,0,1-.447.184,28.549,28.549,0,0,0,2.739,2.97,20.273,20.273,0,0,1,2.253,2.238,60.533,60.533,0,0,1,8.17-4.444l.477-5.749c-4.579.1-9.709-2.257-9.709-2.257" fill="#f0e4cd"/>
    <path id="Path_3225" data-name="Path 3225" d="M102.036,27.084c-.008.005-.015.013-.023.018a15.122,15.122,0,0,1-1.731.742c-.495.216-1.154.523-1.727.762a1.475,1.475,0,0,1-.977.043A77.559,77.559,0,0,0,74.091,47.08a31.089,31.089,0,0,1,3.651,3.367A15.511,15.511,0,0,1,79.305,48.9a36.679,36.679,0,0,1,4.583-3.132.619.619,0,0,1,.593-.048.656.656,0,0,1,.492-.616,1.742,1.742,0,0,0,.875-.569.718.718,0,0,1,1.008.014.556.556,0,0,1,.056.087q.763-.441,1.533-.889c2.31-1.351,5.325-2.874,8.077-2.915a87.574,87.574,0,0,1,10.721-8.309,28.179,28.179,0,0,0-2.506-2.4,36.131,36.131,0,0,1-2.7-3.045" fill="#f0e4cd"/>
    <path id="Path_3226" data-name="Path 3226" d="M70.1,90.145c-1.668-.914-2.65-3-3.632-4.537a14.732,14.732,0,0,1-2.13-4.2c-.352-1.394-.137-2.847-.426-4.255a.679.679,0,0,1,.147-.594,13.946,13.946,0,0,1,.139-2.606,20.592,20.592,0,0,1,.535-3.712.672.672,0,0,1,0-.142,29.451,29.451,0,0,1,5.18-11.5c1.328-1.844,3.124-5.1,5.474-5.914a8.326,8.326,0,0,1-2.059-1.817,19,19,0,0,1-1.646-1.811c-18.714,25.089-16.211,44.581-16.2,46.563a3.66,3.66,0,0,0,.764,2.662c2.789,1.844,12.807,3.457,12.807,3.457A95.534,95.534,0,0,1,70.1,90.145" fill="#f0e4cd"/>
    <path id="Path_3227" data-name="Path 3227" d="M179.8,7.506C179.781,3.359,157.161.1,129.275.217S78.8,3.8,78.816,7.946s22.639,7.41,50.525,7.288,50.476-3.581,50.458-7.728m-50.466,6.013c-21.515.094-38.968-2.424-38.982-5.624s17.416-5.869,38.932-5.962,38.968,2.424,38.982,5.623-17.417,5.869-38.932,5.963" fill="#f0e4cd"/>
    <path id="Path_3228" data-name="Path 3228" d="M80.494,10.328Q78.74,9.3,78.733,8.132C78.711,2.995,104.92.111,129.59,0A256.433,256.433,0,0,1,165.362,2.05C175.408,3.5,180.506,5.4,180.517,7.691c.022,5.137-26.187,8.022-50.857,8.129a256.264,256.264,0,0,1-35.772-2.047c-6.639-.959-11.118-2.111-13.394-3.445m97.909-4.1c-1.888-1.106-5.959-2.344-13.155-3.383A255.679,255.679,0,0,0,129.594.8C99.631.935,79.519,4.7,79.534,8.13c0,1.336,3.811,3.31,14.468,4.85a255.509,255.509,0,0,0,35.654,2.04c29.963-.132,50.075-3.893,50.06-7.327,0-.434-.4-.935-1.313-1.467" fill="#2c2d30"/>
    <path id="Path_3229" data-name="Path 3229" d="M91.677,9.846q-1.4-.822-1.408-1.764C90.261,6.26,94.207,4.733,102,3.54a197.6,197.6,0,0,1,27.6-1.821A197.882,197.882,0,0,1,157.212,3.3c7.8,1.127,11.759,2.623,11.769,4.442s-3.94,3.35-11.732,4.542a197.562,197.562,0,0,1-27.6,1.822,197.505,197.505,0,0,1-27.613-1.581c-5.116-.739-8.581-1.634-10.362-2.678m75.546-3.17c-1.425-.835-4.552-1.781-10.127-2.585A197.227,197.227,0,0,0,129.6,2.519a197.31,197.31,0,0,0-27.48,1.811C93.965,5.58,91.066,7.085,91.07,8.08s2.916,2.474,11.084,3.652a197.014,197.014,0,0,0,27.493,1.573,197.129,197.129,0,0,0,27.481-1.813c8.157-1.249,11.056-2.755,11.052-3.749,0-.314-.3-.679-.957-1.067" fill="#2c2d30"/>
    <path id="Path_3230" data-name="Path 3230" d="M152.154,18.748c.008,1.831-9.967,3.359-22.279,3.412s-22.3-1.387-22.308-3.218,9.967-3.359,22.279-3.412,22.3,1.387,22.308,3.218" fill="#f0e4cd"/>
    <path id="Path_3231" data-name="Path 3231" d="M107.83,19.969c-.849-.5-.851-.923-.852-1.136,0-.423-.007-1.718,6.859-2.769a113.118,113.118,0,0,1,15.818-1.044,113.139,113.139,0,0,1,15.828.906c6.875.993,6.882,2.285,6.882,2.711s.008,1.718-6.858,2.769a113.271,113.271,0,0,1-15.819,1.045,113.469,113.469,0,0,1-15.827-.906c-3.454-.5-5.174-1.074-6.031-1.576m43.243-1.8c-.653-.383-2.173-.94-5.705-1.45a112.512,112.512,0,0,0-15.708-.9,112.7,112.7,0,0,0-15.7,1.035c-6.113.936-6.179,1.965-6.179,1.976s.073,1.036,6.2,1.92a112.673,112.673,0,0,0,15.708.9,112.679,112.679,0,0,0,15.7-1.036c6.112-.936,6.179-1.965,6.179-1.976s-.014-.191-.492-.471" fill="#2c2d30"/>
    <path id="Path_3232" data-name="Path 3232" d="M240.357,111.311a7.662,7.662,0,0,0-2.594-5.436c-4.926-4.957-16.848-9.267-33.158-12.491a4.237,4.237,0,0,1-.136.756c12.516,2.468,22.409,5.575,28.468,9.126a20.9,20.9,0,0,1,4.257,3.173,6.9,6.9,0,0,1,2.362,4.863c-.094,7.913-47.445,23.934-109.376,24.205-62.108.268-109.521-15.34-109.582-23.246a7.055,7.055,0,0,1,2.4-4.917c4.81-4.866,16.381-9.169,32.233-12.47a4.024,4.024,0,0,1,.01-.9c-16.1,3.341-27.807,7.747-32.813,12.812a7.811,7.811,0,0,0-2.63,5.484c.014,1.871,2,3.948,5.635,6.08C40.2,127,82.227,136.515,130.184,136.307c58.525-.255,110.063-15.76,110.173-25" fill="#2c2d30"/>
    <path id="Path_3233" data-name="Path 3233" d="M152.385,24.32c-.282.088-.565.171-.85.251-.564,1.043-8.018,2.824-21.826,2.885-14.378.061-21.9-1.807-21.9-2.82v0c-.256-.092-.508-.2-.762-.3a.964.964,0,0,0-.039.3c0,.419.322.794.9,1.131,3.174,1.858,14.091,2.521,21.815,2.487,9.122-.041,22.688-1.089,22.677-3.813,0-.035,0-.077-.006-.123" fill="#2c2d30"/>
    <rect id="Rectangle_22" data-name="Rectangle 22" width="0.801" height="5.806" transform="translate(106.978 18.834) rotate(-0.247)" fill="#2c2d30"/>
    <path id="Path_3234" data-name="Path 3234" d="M112.15,26.817l-.025-5.806.8,0,.026,5.806Z" fill="#2c2d30"/>
    <path id="Path_3235" data-name="Path 3235" d="M124.085,28.02l-.025-5.806.8,0,.026,5.806Z" fill="#2c2d30"/>
    <path id="Path_3236" data-name="Path 3236" d="M151.59,24.445l-.025-5.806.8,0,.026,5.806Z" fill="#2c2d30"/>
    <path id="Path_3237" data-name="Path 3237" d="M145.492,26.662l-.025-5.8.8,0,.025,5.8Z" fill="#2c2d30"/>
    <path id="Path_3238" data-name="Path 3238" d="M135.813,27.749l-.025-5.8.8,0,.025,5.8Z" fill="#2c2d30"/>
    <path id="Path_3239" data-name="Path 3239" d="M191.162,54.158a3.53,3.53,0,0,1,.862-.168,74.844,74.844,0,0,0-40.243-29.541,4.6,4.6,0,0,1-.5.682,74.042,74.042,0,0,1,39.885,29.027" fill="#2c2d30"/>
    <path id="Path_3240" data-name="Path 3240" d="M197.441,129.247a3.483,3.483,0,0,1-.849-.07c-.775,1.575-1.591,3.138-2.493,4.676a74.211,74.211,0,0,1-130.242-3.876,3.578,3.578,0,0,1-.956-.134,75,75,0,0,0,131.89,4.415c.965-1.647,1.829-3.323,2.65-5.011" fill="#2c2d30"/>
    <path id="Path_3241" data-name="Path 3241" d="M121.911,47.328c-3.8-5.223-10.234-8.038-18.129-7.924-7.844.114-16.2,3.107-23.526,8.429q-1.4,1.017-2.706,2.116c-.017.035-.042.064-.06.1-.109.22.529-.064.388.136.474-.312-.109.226.468.159.666-.542,1.677-1.35,2.38-1.86,7.195-5.226,15.387-8.166,23.068-8.277a23.449,23.449,0,0,1,12.27,2.911,16.983,16.983,0,0,1,5.2,4.684c7.541,10.381,1.626,27.58-13.184,38.339-7.2,5.227-15.389,8.166-23.07,8.278-7.628.109-13.834-2.586-17.469-7.6s-4.283-11.74-1.82-18.961a38.649,38.649,0,0,1,9.593-14.775c.146-.467-.256-.238.03-.637-.3.2,0-.3-.344-.189A39.576,39.576,0,0,0,64.963,67.6c-2.551,7.474-1.866,14.468,1.929,19.692a17.773,17.773,0,0,0,5.443,4.9,24.234,24.234,0,0,0,12.686,3.02c7.844-.114,16.2-3.108,23.528-8.43,15.169-11.019,21.163-28.721,13.362-39.46" fill="#2c2d30"/>
    <path id="Path_3242" data-name="Path 3242" d="M121.262,47.8a16.983,16.983,0,0,0-5.2-4.684,23.44,23.44,0,0,0-12.27-2.911c-7.681.111-15.873,3.051-23.068,8.276-.7.511-1.714,1.319-2.38,1.861l-.211.191a16.069,16.069,0,0,1,2.148,2.059c1.2,1.267,2.506,2.406,3.79,3.587,2.58,2.373,5.2,4.659,7.838,6.958,1.364,1.187,2.629,2.481,3.955,3.71,1.025.95,2.2,1.762,3.191,2.747a4.534,4.534,0,0,1,1.285,2.308c.173.137.342.281.518.415.807.615.961,2.24-.321,2.459a3.016,3.016,0,0,1-1.552-.145c-1.672.929-3.775.1-5.151-1a35.368,35.368,0,0,1-3.212-3.311c-1.182-1.223-2.362-2.406-3.444-3.724-2.021-2.46-4.344-4.732-6.171-7.343-1.617-2.309-3.861-4.047-5.6-6.254l-.091.083A38.638,38.638,0,0,0,65.72,67.86c-2.464,7.22-1.818,13.954,1.82,18.961s9.84,7.705,17.469,7.6c7.681-.111,15.873-3.05,23.069-8.277C122.889,75.38,128.8,58.181,121.262,47.8" fill="#f0e4cd"/>
    <path id="Path_3243" data-name="Path 3243" d="M188.466,75.324a70.275,70.275,0,0,0-1.9-9.277,2.959,2.959,0,0,1-.785-.794c-.392.168-.816.285-1.2.452-.4.176-.756.369-1.118.515-.9,1.235-2.63,1.659-3.934,2.365-2.486,1.348-5.068,2.578-7.676,3.682-2.739,1.159-5.155,2.734-7.823,4-1.6.763-3.676,1.532-5.121.273-.408.187-.816.374-1.22.561-1.563.725-2.927-1.6-1.358-2.323q.717-.333,1.443-.663a2.27,2.27,0,0,1,1.018-1.523,1.05,1.05,0,0,1,.7-1.057c2.937-1.289,6.057-2,8.86-3.6,2.717-1.549,5.942-2.161,8.863-3.227,1.418-.518,3.259-1.638,4.791-1.787a2.31,2.31,0,0,1,.528.007c.146-.093.295-.181.447-.259.582-.3,1.191-.6,1.8-.866-.005-.021-.008-.043-.013-.065-3.389-6.684-9.411-14.1-14.612-16.07-7.135-2.7-13.038-3.53-18.163-.061s-8.028,9.579-8.172,17.207c-.144,7.681,2.521,15.966,7.506,23.332,10.261,15.16,26.989,16.279,33.789,5.322,1.242-2,4.214-9.4,3.349-16.146" fill="#719094"/>
    <path id="Path_3244" data-name="Path 3244" d="M49.632,64.192,26.042,50.368a.882.882,0,0,1,.733-1.594l26.042,8.97-.261.757L26.514,49.532a.066.066,0,0,0-.1.041c-.032.068.006.09.031.1L50.037,63.5Z" fill="#2c2d30"/>
    <path id="Path_3245" data-name="Path 3245" d="M71.07,50.415s-1.125-3.065-3.108-3.376-10.837,4.17-16.955,21.936c0,0,8.156-13.323,10.851-13.368S54.978,66.08,58.85,73.571c0,0,4.158-13.523,12.22-23.156" fill="#2c2d30"/>
    <path id="Path_3246" data-name="Path 3246" d="M56.5,82.981a41.827,41.827,0,0,1-5.147,4.144c-1.423.713-4.275-.889-2.577-8.67,0,0-.133,4.451,1.721,4.455s7.191-5.335,7.191-5.335Z" fill="#2c2d30"/>
    <path id="Path_3247" data-name="Path 3247" d="M51.042,61.253,34,53.514l16.208,9.5Z" fill="#2c2d30"/>
    <path id="Path_3248" data-name="Path 3248" d="M63.859,44.525A4.544,4.544,0,1,1,70.076,42.9a4.548,4.548,0,0,1-6.217,1.623m4.19-7.15A3.743,3.743,0,1,0,69.385,42.5a3.747,3.747,0,0,0-1.336-5.122" fill="#2c2d30"/>
    <path id="Path_3249" data-name="Path 3249" d="M70.2,41.162a8.032,8.032,0,0,1,3.573-.356,2.488,2.488,0,0,1,2.04,2.079,6.062,6.062,0,0,1,.067,1.486l.8.065a6.777,6.777,0,0,0-.074-1.683,3.282,3.282,0,0,0-2.707-2.738,8.784,8.784,0,0,0-3.805.335Z" fill="#2c2d30"/>
    <path id="Path_3250" data-name="Path 3250" d="M55.68,86.209a47.871,47.871,0,0,1-4.274,3.466,2.431,2.431,0,0,1-3.37-.459c-3.751-5.007-2.147-17.065,3.811-28.672,3.578-6.971,8.18-12.716,12.63-16.195l-.723-.484c-4.465,3.548-9.007,9.276-12.619,16.312-6.19,12.058-7.728,24.2-3.74,29.519a3.086,3.086,0,0,0,.914.814,3.273,3.273,0,0,0,3.567-.187A48.158,48.158,0,0,0,56.224,86.8Z" fill="#2c2d30"/>
    <path id="Path_3251" data-name="Path 3251" d="M93.7,73.743a3.619,3.619,0,0,1-.863-.7L67.394,44.705l.6-.535L93.435,72.5a2.762,2.762,0,1,0,3.924-3.88l-27.9-25.63L70,42.4,97.9,68.033a3.565,3.565,0,0,1-4.2,5.71" fill="#2c2d30"/>
    <path id="Path_3252" data-name="Path 3252" d="M190.955,64.13a4.4,4.4,0,1,1,1.76.574,4.384,4.384,0,0,1-1.76-.574m4.035-6.884a3.588,3.588,0,0,0-5.386,2.72,3.587,3.587,0,1,0,5.386-2.72" fill="#2c2d30"/>
    <path id="Path_3253" data-name="Path 3253" d="M160.461,76.737a3.564,3.564,0,0,1,.505-6.394l28.157-10.511.28.751L161.252,71.092a2.762,2.762,0,1,0,2.255,5.035l26.482-13.754.369.71L163.872,76.839a3.556,3.556,0,0,1-2.923.135,3.435,3.435,0,0,1-.488-.237" fill="#2c2d30"/>
    <path id="Path_3254" data-name="Path 3254" d="M241.161,76.417a3.6,3.6,0,0,1-.657-5.73,3.6,3.6,0,1,1,.657,5.73m3.23-5.53a2.8,2.8,0,1,0,1.388,2.5,2.8,2.8,0,0,0-1.388-2.5" fill="#2c2d30"/>
    <path id="Path_3255" data-name="Path 3255" d="M217.956,63.616l22.5,8.258.276-.753L218.246,62.87a4.606,4.606,0,0,1-.29.746" fill="#2c2d30"/>
    <path id="Path_3256" data-name="Path 3256" d="M239.926,73.119l-23.131-5.412a4.491,4.491,0,0,1-.431.713c.018.005.032.016.049.02l23.329,5.46Z" fill="#2c2d30"/>
    <path id="Path_3257" data-name="Path 3257" d="M103.467,42.317s14.887-2.725,18.586,11.82S106.155,87.778,95.171,91.3s-15.423-3.778-13.589-7.963-4.349-6.571-7.041-1.187,5.431,6.364,1.844,6.385-6.7-2.887-5.289-7.784,6.049-8.06,12.732-6c0,0,.532-1.7,3.923-1.414s4.178-1.1,4.178-1.1-.212-.95.737.008,2.149,2.175,3.515,1.494,3.379-2.492,2.044-4.66S97.249,65.9,99,66.289s1.913-.1.5-2.435-1.987-6.212,2.329-9.717,4.929-3.262,2.3-5.613-2.393-6.032-.659-6.207" fill="#2c2d30"/>
    <path id="Path_3258" data-name="Path 3258" d="M156.777,45.9s-14.6,7.689-9.288,28.324S172.855,96.283,171.526,94s5.476-6.073.185-9.174-10.144-6.028-8.285-8.349c0,0-4.161.626-4.331-2.45s3.214-3.99,3.214-3.99,1.1-2.669-2.668-3.772-1.962-4.573.2-7.076,3.484-5.153.528-6.247-3.291-1.406-2.453-3.236-1.14-3.8-1.14-3.8" fill="#2c2d30"/>
    <path id="Path_3259" data-name="Path 3259" d="M186.47,65.206c-.342-.238-.456-.04-.684-.327.016.254-.151.048-.185.3,5.13,13.659,1.965,27.645-7.6,31.981-10.155,4.6-23.73-3.381-30.258-17.8s-3.577-29.879,6.579-34.48c5.067-2.3,10.984-1.459,16.454,1.746a35.175,35.175,0,0,1,13.314,15.062c.306.222.54.17.751.432a1.793,1.793,0,0,1,.061-.6c-6.852-14.285-20.554-22.066-30.91-17.375-10.559,4.783-13.689,20.726-6.979,35.54A36.239,36.239,0,0,0,161.136,96.09c5.695,3.337,11.885,4.2,17.19,1.8,9.882-4.477,13.254-18.731,8.144-32.685" fill="#2c2d30"/>
    <path id="Path_3260" data-name="Path 3260" d="M189.937,51.074s3.1,3.743,3.57,5.409l-.914.079s-.993-1.805-1.805-2.943a5.137,5.137,0,0,1-.851-2.545" fill="#2c2d30"/>
    <path id="Path_3261" data-name="Path 3261" d="M220.3,35.158a2.634,2.634,0,0,0-1.6-2.093,2.594,2.594,0,0,0-2.574.3c-5.141,3.79-14.82,11.822-21.891,23.043l.678.426c7-11.108,16.593-19.068,21.688-22.825a1.8,1.8,0,0,1,1.786-.206,1.832,1.832,0,0,1,1.116,1.463,71.819,71.819,0,0,1-15.371,54.719,5.722,5.722,0,0,1,.049.952l.1.091c.206-.218,20.551-22.231,16.019-55.87" fill="#2c2d30"/>
    <path id="Path_3262" data-name="Path 3262" d="M195.19,56.9s7.783-10.568,16.671-17.3a1.226,1.226,0,0,1,1.972.788c.813,5.877,2.028,24.115-9.751,44.474l-4.4-15.24-3.157-7.1s1.94-3.76-1.33-5.621" fill="#2c2d30"/>
    <path id="Path_3263" data-name="Path 3263" d="M66.317,134.447s67.85,17.487,127.782-.594l3.092-4.606s-34.487,6.6-64.7,7.042l-28.514-1.174s-20.4-1.292-28.733-3.146A80.7,80.7,0,0,0,63.5,129.955a10.793,10.793,0,0,0,2.814,4.492" fill="#2c2d30"/>
    <path id="Path_3264" data-name="Path 3264" d="M123.676,171.107s2,3.7,5.51,4.251,6.4-4.628,6.4-4.628Z" fill="#2c2d30"/>
    <path id="Path_3265" data-name="Path 3265" d="M82.949,111.389l4.742-5.128,1.094-.011-4.428,4.795c5.617,1.931,51.541,16.7,93.206-.429l-2.478-5.02h.926l2.645,5.434-.392.163c-44.639,18.581-94.258.587-94.754.4Z" fill="#2c2d30"/>
    <path id="Path_3266" data-name="Path 3266" d="M91.823,113.833l-.691-.4,3.508-5.985.978-.087Z" fill="#2c2d30"/>
    <rect id="Rectangle_23" data-name="Rectangle 23" width="0.801" height="9.359" transform="translate(131.64 109.907) rotate(-1.476)" fill="#2c2d30"/>
    <path id="Path_3267" data-name="Path 3267" d="M171.372,113.417l-3.359-6.349.858-.092,3.209,6.065Z" fill="#2c2d30"/>
    <path id="Path_3268" data-name="Path 3268" d="M205.005,96.186s19.265,3.455,27.232,8.594,6.057,7.882.228,10.964-24.6,10.03-42.272,12.2c0,0,17.041-4.268,23.041-10.412S196.465,100,196.465,100Z" fill="#2c2d30"/>
    <path id="Path_3269" data-name="Path 3269" d="M54.973,96.179A59.436,59.436,0,0,0,40.6,100.357c-7.06,3.173.74,1.942-4.367,4.518s-8.7,3.37-9.649,6.762,2.575,6.5,10.7,8.475.187-.355-3.631-4.217-4.593-6.288,4.956-8.235,15.428-4.652,9.2-5.514,7.761-3.623,7.761-3.623Z" fill="#2c2d30"/>
    <path id="Path_3270" data-name="Path 3270" d="M57.9,99a51.243,51.243,0,0,0-7.826,1.97c-2.74,1.094,3.344-.361,3.282,1.923s-5.73,3.837-8.365,4.671,4.591-.21,8.377-1.821,5.493-2.641,3.154-3.9,6.1-1.194,6.1-1.194Z" fill="#2c2d30"/>
    <path id="Path_3271" data-name="Path 3271" d="M39.166,109.378s-5.618,1-5.6,2.985,2.673,4.583,7.757,6.4-5.034-1.9-4.978-4.773,2.82-4.614,2.82-4.614" fill="#2c2d30"/>
    <path id="Path_3272" data-name="Path 3272" d="M193.872,64.325a3.81,3.81,0,0,1-2.433-.547,4.049,4.049,0,0,1-1.122-.981l-3.85,1.912c0,.014,0,.028,0,.042,7.951,18.35,6.218,34.182,6.218,34.182l8.452-2.865a78.015,78.015,0,0,0-7.267-31.743" fill="#2c2d30"/>
    <path id="Path_3273" data-name="Path 3273" d="M189.606,59.827a4.57,4.57,0,0,1,.812-1.875,71.044,71.044,0,0,0-36.166-29.325c15.827,9.629,25.2,21.613,30.747,32.946Z" fill="#2c2d30"/>
    <path id="Path_3274" data-name="Path 3274" d="M111.39,161.332l-.1-.069c-.114-.079-11.373-8.111-13.49-24.808l.795-.1c1.97,15.54,11.981,23.381,13.06,24.183l5.683.171c-7.134-12.153-7.855-21.67-7.861-21.766l.8-.054c.006.1.746,9.762,8.122,22.035l.378.629Z" fill="#2c2d30"/>
    <path id="Path_3275" data-name="Path 3275" d="M138.891,162.414l.351-.665c5.053-9.588,6.754-21.592,6.771-21.712l.793.11c-.016.119-1.658,11.715-6.513,21.31l6.879-.737c.876-1.385,7.153-11.553,8.8-21.355l.791.133c-1.8,10.66-8.954,21.708-9.027,21.818l-.1.16Z" fill="#2c2d30"/>
    <path id="Path_3276" data-name="Path 3276" d="M169.821,155.053l1.154-1.322a73.608,73.608,0,0,0,11.991-18.193l.742.3a72.824,72.824,0,0,1-10.783,16.836A42.841,42.841,0,0,0,189.8,133.642l.728.336c-6.971,15.056-18.972,20.333-19.092,20.385Z" fill="#2c2d30"/>
    <path id="Path_3277" data-name="Path 3277" d="M108.9,31.574,91.874,13.14a6.676,6.676,0,0,1-1.167-.082l17.607,19.059a.492.492,0,0,1,.132.357.5.5,0,0,1-.86.317L88.968,12.638c-.276-.088-.552-.18-.825-.276A4.972,4.972,0,0,1,87.2,11.9L107,33.335a1.3,1.3,0,0,0,1.906-1.761" fill="#2c2d30"/>
    <path id="Path_3278" data-name="Path 3278" d="M163.054,29.264l9.811-17.545a5.719,5.719,0,0,1-1.135.389l-9.307,16.644a3.406,3.406,0,0,1,.631.512" fill="#2c2d30"/>
    <path id="Path_3279" data-name="Path 3279" d="M161.527,28.32l8.992-16.08a6.2,6.2,0,0,1-.893-.044l-8.911,15.935a4.4,4.4,0,0,1,.812.189" fill="#2c2d30"/>
    <path id="Path_3280" data-name="Path 3280" d="M103.941,26.8c1.393-.52,2.795-1.015,4.215-1.451a3.673,3.673,0,0,1-.672-.629c-1.383.434-2.749.923-4.106,1.436Z" fill="#2c2d30"/>
    <path id="Path_3281" data-name="Path 3281" d="M74.565,46.873a73.974,73.974,0,0,1,27.623-19.4l-.558-.635A74.773,74.773,0,0,0,73.914,46.4a4.508,4.508,0,0,1,.651.474" fill="#2c2d30"/>
    <path id="Path_3282" data-name="Path 3282" d="M205.005,96.186a76.833,76.833,0,0,0-8.15-33.926,4.682,4.682,0,0,1-.486.8,74.9,74.9,0,0,1,7.836,32.5,1.038,1.038,0,0,1-.654.971c-66.5,26.337-135.784,5.308-146.615,1.708a1.706,1.706,0,0,1-1.169-1.6A73.865,73.865,0,0,1,72.285,49.559c.015-.047.022-.1.035-.151a4.17,4.17,0,0,1-.566-.461A74.579,74.579,0,0,0,54.98,97.287a1.654,1.654,0,0,0,1.138,1.553c9.676,3.2,80.742,25.146,148.109-1.72,0,.017.085-.008.21-.055a1,1,0,0,0,.568-.879" fill="#2c2d30"/>
    <path id="Path_3283" data-name="Path 3283" d="M152.163,27.44s-7.612,3.682-24.709,3.157a37.18,37.18,0,0,0,15.295,3.769c8.812.24,9.126,4.259,8.013,6.157s1.749-.407,3.342-5.7-1.941-7.38-1.941-7.38" fill="#2c2d30"/>
  </g>
</svg>
