<svg width="188" height="188" viewBox="0 0 188 188" fill="none" xmlns="http://www.w3.org/2000/svg">
<path d="M125.986 75.0354C125.127 73.9718 123.881 73.293 122.521 73.1483C121.161 73.0037 119.8 73.4051 118.736 74.2642C117.673 75.1233 116.994 76.3697 116.849 77.7293C116.705 79.0889 117.106 80.4503 117.965 81.5139C120.563 85.0458 121.964 89.3154 121.964 93.6997C121.964 98.084 120.563 102.354 117.965 105.885C117.352 106.641 116.966 107.555 116.852 108.521C116.738 109.488 116.9 110.466 117.32 111.344C117.74 112.222 118.4 112.962 119.225 113.48C120.049 113.997 121.003 114.27 121.976 114.266C122.744 114.269 123.503 114.099 124.197 113.77C124.891 113.441 125.502 112.96 125.986 112.364C130.065 106.996 132.273 100.441 132.273 93.6997C132.273 86.9585 130.065 80.4029 125.986 75.0354Z" fill="white"/>
<path d="M132.98 58.8909C132.461 58.4588 131.861 58.1333 131.215 57.933C130.569 57.7327 129.89 57.6616 129.217 57.7236C128.544 57.7857 127.89 57.9798 127.291 58.2947C126.693 58.6097 126.163 59.0394 125.731 59.5593C125.299 60.0792 124.973 60.6792 124.773 61.3249C124.573 61.9706 124.501 62.6494 124.563 63.3226C124.626 63.9958 124.82 64.6502 125.135 65.2484C125.449 65.8466 125.879 66.3769 126.399 66.8091C130.523 69.9962 133.882 74.065 136.231 78.7178C138.579 83.3705 139.858 88.4894 139.973 93.7C139.858 98.9106 138.579 104.03 136.231 108.682C133.882 113.335 130.523 117.404 126.399 120.591C125.878 121.023 125.448 121.553 125.133 122.151C124.817 122.749 124.623 123.404 124.561 124.077C124.499 124.751 124.57 125.43 124.771 126.075C124.972 126.721 125.298 127.321 125.731 127.841C126.214 128.421 126.82 128.888 127.504 129.208C128.188 129.528 128.934 129.693 129.69 129.692C130.891 129.694 132.055 129.276 132.98 128.509C138.279 124.367 142.581 119.09 145.571 113.066C148.56 107.042 150.162 100.424 150.256 93.7C150.162 86.9756 148.56 80.358 145.571 74.334C142.581 68.31 138.279 63.0329 132.98 58.8909Z" fill="white"/>
<path d="M109.122 48.0421C108.341 47.5908 107.454 47.3533 106.551 47.3533C105.649 47.3533 104.762 47.5908 103.98 48.0421L70.6625 70.9225H44.9542C43.5905 70.9225 42.2827 71.4642 41.3185 72.4285C40.3542 73.3927 39.8125 74.7006 39.8125 76.0642V111.336C39.8125 112.7 40.3542 114.007 41.3185 114.972C42.2827 115.936 43.5905 116.478 44.9542 116.478H70.6625L103.621 139.101C104.494 139.666 105.511 139.969 106.551 139.975C107.915 139.975 109.223 139.433 110.187 138.469C111.151 137.505 111.693 136.197 111.693 134.833V52.5668C111.706 51.6521 111.474 50.7506 111.022 49.9552C110.57 49.1598 109.914 48.4994 109.122 48.0421ZM101.564 125.167L75.1872 107.068C74.3215 106.487 73.2994 106.182 72.2564 106.194H49.993V81.2059H72.2564C73.2994 81.2185 74.3215 80.9137 75.1872 80.3318L101.41 62.336L101.564 125.167Z" fill="white"/>
<rect x="3" y="3" width="182" height="182" rx="91" stroke="white" stroke-width="6"/>
</svg>
