<svg id="Group_724" data-name="Group 724" xmlns="http://www.w3.org/2000/svg" xmlns:xlink="http://www.w3.org/1999/xlink" width="420.302" height="119.272" viewBox="0 0 420.302 119.272">
  <defs>
    <clipPath id="clip-path">
      <rect id="Rectangle_586" data-name="Rectangle 586" width="420.302" height="119.272" fill="none"/>
    </clipPath>
  </defs>
  <path id="Path_4997" data-name="Path 4997" d="M225.585,15.625,221.411.787l-4.174,14.838L199.32,20.41l17.917,4.785,4.174,14.838,4.174-14.838L243.5,20.41Z" fill="#ebe1d8"/>
  <g id="Group_723" data-name="Group 723">
    <g id="Group_722" data-name="Group 722" clip-path="url(#clip-path)">
      <path id="Path_4998" data-name="Path 4998" d="M244.289,20.41a.787.787,0,0,1-.584.76l-17.483,4.67-4.053,14.406a.787.787,0,0,1-1.516,0L216.6,25.84l-17.483-4.67a.787.787,0,0,1,0-1.521L216.6,14.98,220.653.574a.787.787,0,0,1,1.516,0l4.053,14.406,17.483,4.669a.788.788,0,0,1,.584.761M221.411,37.126l3.416-12.144a.789.789,0,0,1,.555-.548l15.07-4.024-15.07-4.025a.789.789,0,0,1-.555-.547L221.411,3.693l-3.416,12.145a.789.789,0,0,1-.555.547L202.37,20.41l15.07,4.024a.789.789,0,0,1,.555.548Z" fill="#0d0b21"/>
      <path id="Path_4999" data-name="Path 4999" d="M194.66,43.266l-2.838-10.089-2.838,10.089L176.8,46.52l12.183,3.253,2.838,10.089,2.838-10.089,12.183-3.253Z" fill="#ebe1d8"/>
      <path id="Path_5000" data-name="Path 5000" d="M207.629,46.519a.788.788,0,0,1-.584.761L195.3,50.418l-2.717,9.657a.787.787,0,0,1-1.516,0l-2.717-9.657L176.6,47.28a.787.787,0,0,1,0-1.521l11.749-3.138,2.717-9.657a.787.787,0,0,1,1.516,0l2.717,9.657,11.749,3.138a.787.787,0,0,1,.584.76M191.821,56.955l2.08-7.4a.789.789,0,0,1,.555-.548l9.335-2.493-9.335-2.493a.786.786,0,0,1-.555-.547l-2.08-7.4-2.08,7.4a.786.786,0,0,1-.555.547l-9.335,2.493,9.335,2.493a.789.789,0,0,1,.555.548Z" fill="#0d0b21"/>
      <!-- <text id="Did_someone_say_magnetic_" data-name="Did someone say magnetic?" transform="translate(0 109.984)" fill="#ebe1d8" font-size="27" font-family="Futura-Bold, Futura" font-weight="700"><tspan x="0" y="0" letter-spacing="0.019em">Di</tspan><tspan y="0" letter-spacing="0.02em">d</tspan><tspan y="0" letter-spacing="0.019em"> </tspan><tspan y="0" letter-spacing="0.02em">someone s</tspan><tspan y="0" letter-spacing="0.03em">a</tspan><tspan y="0" letter-spacing="0.02em">y magn</tspan><tspan y="0" letter-spacing="0.027em">e</tspan><tspan y="0" letter-spacing="0.034em">t</tspan><tspan y="0" letter-spacing="0.02em">ic</tspan><tspan y="0">?</tspan></text> -->
    </g>
  </g>
</svg>