
<svg id="Group_728" data-name="Group 728" xmlns="http://www.w3.org/2000/svg" xmlns:xlink="http://www.w3.org/1999/xlink" width="278.319" height="116.352" viewBox="0 0 278.319 116.352">
  <defs>
    <clipPath id="clip-path">
      <rect id="Rectangle_587" data-name="Rectangle 587" width="278.319" height="116.352" transform="translate(0 0)" fill="none"/>
    </clipPath>
  </defs>
  <path id="Path_5001" data-name="Path 5001" d="M154.594,15.625,150.42.787l-4.174,14.838L128.329,20.41,146.246,25.2l4.174,14.838L154.594,25.2l17.917-4.785Z" fill="#ebe1d8"/>
  <g id="Group_727" data-name="Group 727">
    <g id="Group_726" data-name="Group 726" clip-path="url(#clip-path)">
      <path id="Path_5002" data-name="Path 5002" d="M173.3,20.411a.787.787,0,0,1-.584.76l-17.483,4.67-4.053,14.406a.787.787,0,0,1-1.516,0l-4.053-14.406-17.483-4.67a.787.787,0,0,1,0-1.521l17.483-4.669L149.662.575a.787.787,0,0,1,1.516,0l4.053,14.406,17.483,4.669a.788.788,0,0,1,.584.761M150.42,37.127l3.416-12.144a.789.789,0,0,1,.555-.548l15.07-4.024-15.07-4.025a.789.789,0,0,1-.555-.547L150.42,3.694,147,15.839a.789.789,0,0,1-.555.547l-15.07,4.025,15.07,4.024a.789.789,0,0,1,.555.548Z" fill="#0d0b21"/>
      <path id="Path_5003" data-name="Path 5003" d="M123.668,43.266,120.83,33.177l-2.838,10.089L105.809,46.52l12.183,3.253,2.838,10.089,2.838-10.089,12.183-3.253Z" fill="#ebe1d8"/>
      <path id="Path_5004" data-name="Path 5004" d="M136.638,46.519a.788.788,0,0,1-.584.761l-11.749,3.138-2.717,9.657a.787.787,0,0,1-1.516,0l-2.717-9.657L105.606,47.28a.787.787,0,0,1,0-1.521l11.749-3.138,2.717-9.657a.787.787,0,0,1,1.516,0l2.717,9.657,11.749,3.138a.787.787,0,0,1,.584.76M120.83,56.955l2.08-7.4a.789.789,0,0,1,.555-.548l9.335-2.493-9.335-2.493a.786.786,0,0,1-.555-.547l-2.08-7.4-2.08,7.4a.786.786,0,0,1-.555.547l-9.335,2.493,9.335,2.493a.789.789,0,0,1,.555.548Z" fill="#0d0b21"/>
      <text id="Time_to_spin_that_totem_" data-name="Time to spin that totem!" transform="translate(0 109.985)" fill="#ede3ce" font-size="27" font-family="Helvetica"><tspan x="0" y="0">Time to spin that totem!</tspan></text>
    </g>
  </g>
</svg>
