<svg id="Group_368" data-name="Group 368" xmlns="http://www.w3.org/2000/svg" xmlns:xlink="http://www.w3.org/1999/xlink" width="591.412" height="133.458" viewBox="0 0 591.412 133.458">
  <defs>
    <clipPath id="clip-path">
      <rect id="Rectangle_258" data-name="Rectangle 258" width="570.085" height="133.458" fill="none"/>
    </clipPath>
    <clipPath id="clip-path-2">
      <rect id="Rectangle_259" data-name="Rectangle 259" width="591.412" height="133.458" fill="none"/>
    </clipPath>
  </defs>
  <path id="Path_2669" data-name="Path 2669" d="M297.375,11.324,294.349.571l-3.025,10.753L278.34,14.792l12.985,3.468,3.025,10.753,3.025-10.753,12.985-3.468Z" fill="#ebe1d8"/>
  <g id="Group_365" data-name="Group 365">
    <g id="Group_364" data-name="Group 364" clip-path="url(#clip-path)">
      <path id="Path_2670" data-name="Path 2670" d="M310.93,14.792a.57.57,0,0,1-.424.551l-12.67,3.385L294.9,29.168a.57.57,0,0,1-1.1,0l-2.937-10.44-12.671-3.385a.57.57,0,0,1,0-1.1l12.671-3.384L293.8.416a.57.57,0,0,1,1.1,0l2.938,10.441,12.67,3.384a.571.571,0,0,1,.424.551M294.349,26.907l2.476-8.8a.569.569,0,0,1,.4-.4l10.921-2.917-10.921-2.916a.571.571,0,0,1-.4-.4l-2.476-8.8-2.476,8.8a.571.571,0,0,1-.4.4L280.55,14.792l10.921,2.917a.569.569,0,0,1,.4.4Z" fill="#0d0b21"/>
      <path id="Path_2671" data-name="Path 2671" d="M274.961,31.356,272.9,24.044l-2.057,7.312-8.829,2.358,8.829,2.358,2.057,7.312,2.057-7.312,8.829-2.358Z" fill="#ebe1d8"/>
      <path id="Path_2672" data-name="Path 2672" d="M284.362,33.714a.57.57,0,0,1-.424.551l-8.515,2.274-1.969,7a.57.57,0,0,1-1.1,0l-1.969-7-8.515-2.274a.57.57,0,0,1,0-1.1l8.515-2.274,1.969-7a.57.57,0,0,1,1.1,0l1.969,7,8.515,2.274a.571.571,0,0,1,.424.551M272.9,41.277l1.508-5.36a.57.57,0,0,1,.4-.4l6.765-1.807-6.765-1.807a.57.57,0,0,1-.4-.4l-1.508-5.36-1.508,5.36a.57.57,0,0,1-.4.4l-6.765,1.807,6.765,1.807a.57.57,0,0,1,.4.4Z" fill="#0d0b21"/>
    </g>
  </g>
  <!-- <text id="Quite_impressive_" data-name="Quite impressive!" transform="translate(149.613 89.091)" fill="#ebe1d8" font-size="27" font-family="Futura-Bold, Futura" font-weight="700"><tspan x="0" y="0" letter-spacing="0.02em">Qu</tspan><tspan y="0" letter-spacing="0.019em">i</tspan><tspan y="0" letter-spacing="0.029em">t</tspan><tspan y="0" letter-spacing="0.02em">e </tspan><tspan y="0" letter-spacing="0.019em">i</tspan><tspan y="0" letter-spacing="0.038em">m</tspan><tspan y="0" letter-spacing="0.02em">p</tspan><tspan y="0" letter-spacing="0.026em">r</tspan><tspan y="0" letter-spacing="0.02em">ess</tspan><tspan y="0" letter-spacing="0.029em">i</tspan><tspan y="0" letter-spacing="-0.004em">v</tspan><tspan y="0" letter-spacing="0.02em">e</tspan><tspan y="0">!</tspan></text>
  <text id="_" data-name=" " transform="translate(412.51 89.091)" fill="#ede3ce" font-size="27" font-family="Helvetica"><tspan x="0" y="0"> </tspan></text>
  <g id="Group_367" data-name="Group 367">
    <g id="Group_366" data-name="Group 366" clip-path="url(#clip-path-2)">
      <text id="That_ll_show_the_monster_to_not_harass_travellers_" data-name="That’ll show the monster to not harass travellers!" transform="translate(-0.001 127.091)" fill="#ede3ce" font-size="27" font-family="Helvetica"><tspan x="0" y="0">Tha</tspan><tspan y="0" letter-spacing="0.027em">t</tspan><tspan y="0">’ll show the monster to not harass travellers!</tspan></text>
    </g>
  </g> -->
</svg>
