<svg xmlns="http://www.w3.org/2000/svg" xmlns:xlink="http://www.w3.org/1999/xlink" width="298.199" height="157.27" viewBox="0 0 298.199 157.27">
  <defs>
    <clipPath id="clip-path">
      <rect id="Rectangle_463" data-name="Rectangle 463" width="298.199" height="157.27" fill="none"/>
    </clipPath>
  </defs>
  <g id="Group_486" data-name="Group 486" transform="translate(-534 -306)">
    <g id="Group_485" data-name="Group 485" transform="translate(534 306)">
      <path id="Path_3944" data-name="Path 3944" d="M198.673,15.624,194.5.786l-4.174,14.838-17.917,4.785,17.917,4.785L194.5,40.032l4.174-14.838,17.917-4.785Z" fill="#ebe1d8"/>
      <g id="Group_484" data-name="Group 484">
        <g id="Group_483" data-name="Group 483" clip-path="url(#clip-path)">
          <path id="Path_3945" data-name="Path 3945" d="M217.377,20.41a.787.787,0,0,1-.584.76L199.31,25.84l-4.053,14.406a.787.787,0,0,1-1.516,0L189.688,25.84l-17.483-4.67a.787.787,0,0,1,0-1.521l17.483-4.669L193.741.574a.787.787,0,0,1,1.516,0L199.31,14.98l17.483,4.669a.788.788,0,0,1,.584.761M194.5,37.126l3.416-12.144a.789.789,0,0,1,.555-.548l15.07-4.024-15.07-4.025a.789.789,0,0,1-.555-.547L194.5,3.693l-3.416,12.145a.789.789,0,0,1-.555.547l-15.07,4.025,15.07,4.024a.789.789,0,0,1,.555.548Z" fill="#0d0b21"/>
          <path id="Path_3946" data-name="Path 3946" d="M167.747,43.265l-2.838-10.089-2.838,10.089-12.183,3.254,12.183,3.253,2.838,10.089,2.838-10.089,12.183-3.253Z" fill="#ebe1d8"/>
          <path id="Path_3947" data-name="Path 3947" d="M180.717,46.518a.788.788,0,0,1-.584.761l-11.749,3.138-2.717,9.657a.787.787,0,0,1-1.516,0l-2.717-9.657-11.749-3.138a.787.787,0,0,1,0-1.521l11.749-3.138,2.717-9.657a.787.787,0,0,1,1.516,0l2.717,9.657,11.749,3.138a.787.787,0,0,1,.584.76M164.909,56.954l2.08-7.4a.789.789,0,0,1,.555-.548l9.335-2.493-9.335-2.493a.786.786,0,0,1-.555-.547l-2.08-7.4-2.08,7.4a.786.786,0,0,1-.555.547l-9.335,2.493,9.335,2.493a.789.789,0,0,1,.555.548Z" fill="#0d0b21"/>
          <text id="Nothing_getting_past_you_" data-name="Nothing getting past you," transform="translate(0 109.982)" fill="#ede3ce" font-size="27" font-family="Helvetica"><tspan x="0" y="0">Nothing getting past you,</tspan></text>
          <text id="you_Wizard_" data-name="you Wizard!" transform="translate(56.133 147.971)" fill="#ebe1d8" font-size="27" font-family="Futura-Bold, Futura" font-weight="700"><tspan x="0" y="0" letter-spacing="-0.006em">y</tspan><tspan y="0" letter-spacing="0.02em">ou</tspan><tspan y="0" letter-spacing="0.019em"> </tspan><tspan y="0" letter-spacing="0.036em">W</tspan><tspan y="0" letter-spacing="0.019em">i</tspan><tspan y="0" letter-spacing="0.02em">za</tspan><tspan y="0" letter-spacing="0.026em">r</tspan><tspan y="0" letter-spacing="0.02em">d</tspan><tspan y="0">!</tspan></text>
        </g>
      </g>
    </g>
  </g>
</svg>
