<svg id="Group_568" data-name="Group 568" xmlns="http://www.w3.org/2000/svg" xmlns:xlink="http://www.w3.org/1999/xlink" width="492.38" height="119.272" viewBox="0 0 492.38 119.272">
  <defs>
    <clipPath id="clip-path">
      <rect id="Rectangle_494" data-name="Rectangle 494" width="492.38" height="119.272" fill="none"/>
    </clipPath>
  </defs>
  <path id="Path_4360" data-name="Path 4360" d="M295.762,15.625,291.588.787l-4.174,14.838L269.5,20.41l17.917,4.785,4.174,14.838,4.174-14.838,17.917-4.785Z" fill="#ebe1d8"/>
  <g id="Group_567" data-name="Group 567">
    <g id="Group_566" data-name="Group 566" clip-path="url(#clip-path)">
      <path id="Path_4361" data-name="Path 4361" d="M314.466,20.41a.787.787,0,0,1-.584.76L296.4,25.84l-4.053,14.406a.788.788,0,0,1-1.516,0L286.777,25.84l-17.483-4.67a.787.787,0,0,1,0-1.521l17.483-4.669L290.83.574a.788.788,0,0,1,1.516,0L296.4,14.98l17.483,4.669a.788.788,0,0,1,.584.761M291.588,37.126,295,24.982a.789.789,0,0,1,.555-.548l15.07-4.024-15.07-4.025a.789.789,0,0,1-.555-.547L291.588,3.693l-3.416,12.145a.789.789,0,0,1-.555.547l-15.07,4.025,15.07,4.024a.789.789,0,0,1,.555.548Z" fill="#0d0b21"/>
      <path id="Path_4362" data-name="Path 4362" d="M264.836,43.266,262,33.177,259.16,43.266,246.977,46.52l12.183,3.253L262,59.862l2.838-10.089,12.183-3.253Z" fill="#ebe1d8"/>
      <path id="Path_4363" data-name="Path 4363" d="M277.806,46.519a.788.788,0,0,1-.584.761l-11.749,3.138-2.717,9.657a.788.788,0,0,1-1.516,0l-2.717-9.657L246.774,47.28a.787.787,0,0,1,0-1.521l11.749-3.138,2.717-9.657a.788.788,0,0,1,1.516,0l2.717,9.657,11.749,3.138a.787.787,0,0,1,.584.76M262,56.955l2.08-7.4a.789.789,0,0,1,.555-.548l9.335-2.493-9.335-2.493a.786.786,0,0,1-.555-.547l-2.08-7.4-2.08,7.4a.786.786,0,0,1-.555.547l-9.335,2.493,9.335,2.493a.789.789,0,0,1,.555.548Z" fill="#0d0b21"/>
      <!-- <text id="Decided_like_a_pro_-_" data-name="Decided like a pro - " transform="translate(0 109.984)" fill="#ede3ce" font-size="27" font-family="Helvetica"><tspan x="0" y="0">Decided like a pro - </tspan></text>
      <text id="nicely_done_Cap_" data-name="nicely done Cap!" transform="translate(242.488 109.984)" fill="#ebe1d8" font-size="27" font-family="Futura-Bold, Futura" font-weight="700"><tspan x="0" y="0" letter-spacing="0.02em">nice</tspan><tspan y="0" letter-spacing="0.029em">l</tspan><tspan y="0" letter-spacing="0.02em">y done Cap</tspan><tspan y="0">!</tspan></text> -->
    </g>
  </g>
</svg>
