<svg id="Group_698" data-name="Group 698" xmlns="http://www.w3.org/2000/svg" xmlns:xlink="http://www.w3.org/1999/xlink" width="762" height="116.351" viewBox="0 0 762 116.351">
  <defs>
    <clipPath id="clip-path">
      <rect id="Rectangle_571" data-name="Rectangle 571" width="762" height="116.351" fill="none"/>
    </clipPath>
  </defs>
  <path id="Path_4866" data-name="Path 4866" d="M426.386,15.625,422.212.787l-4.174,14.838L400.121,20.41l17.917,4.785,4.174,14.838,4.174-14.838L444.3,20.41Z" fill="#ebe1d8"/>
  <g id="Group_697" data-name="Group 697">
    <g id="Group_696" data-name="Group 696" clip-path="url(#clip-path)">
      <path id="Path_4867" data-name="Path 4867" d="M445.09,20.41a.787.787,0,0,1-.584.76l-17.483,4.67L422.97,40.246a.787.787,0,0,1-1.516,0L417.4,25.84l-17.483-4.67a.787.787,0,0,1,0-1.521L417.4,14.98,421.454.574a.787.787,0,0,1,1.516,0l4.053,14.406,17.483,4.669a.788.788,0,0,1,.584.761M422.212,37.126l3.416-12.144a.789.789,0,0,1,.555-.548l15.07-4.024-15.07-4.025a.789.789,0,0,1-.555-.547L422.212,3.693,418.8,15.838a.789.789,0,0,1-.555.547l-15.07,4.025,15.07,4.024a.789.789,0,0,1,.555.548Z" fill="#0d0b21"/>
      <path id="Path_4868" data-name="Path 4868" d="M395.461,43.266l-2.838-10.089-2.838,10.089L377.6,46.52l12.183,3.253,2.838,10.089,2.838-10.089,12.183-3.253Z" fill="#ebe1d8"/>
      <path id="Path_4869" data-name="Path 4869" d="M408.43,46.519a.788.788,0,0,1-.584.761L396.1,50.418l-2.717,9.657a.787.787,0,0,1-1.516,0l-2.717-9.657L377.4,47.28a.787.787,0,0,1,0-1.521l11.749-3.138,2.717-9.657a.787.787,0,0,1,1.516,0l2.717,9.657,11.749,3.138a.787.787,0,0,1,.584.76M392.622,56.955l2.08-7.4a.789.789,0,0,1,.555-.548l9.335-2.493-9.335-2.493a.786.786,0,0,1-.555-.547l-2.08-7.4-2.08,7.4a.786.786,0,0,1-.555.547l-9.335,2.493,9.335,2.493a.789.789,0,0,1,.555.548Z" fill="#0d0b21"/>
      <text id="ET_phone_home_to_tell_them_about_this_amazing_decision_maker_" data-name="ET phone home to tell them about this amazing decision maker!" transform="translate(0 109.984)" fill="#ede3ce" font-size="27" font-family="Helvetica"><tspan x="0" y="0">ET phone home to tell them about t</tspan><tspan y="0" letter-spacing="-0.001em">h</tspan><tspan y="0">is amazing decision maker!</tspan></text>
    </g>
  </g>
</svg>
