<svg id="Group_266" data-name="Group 266" xmlns="http://www.w3.org/2000/svg" xmlns:xlink="http://www.w3.org/1999/xlink" width="386.353" height="374.05" viewBox="0 0 386.353 374.05">
  <defs>
    <clipPath id="clip-path">
      <rect id="Rectangle_110" data-name="Rectangle 110" width="386.353" height="374.05" fill="none"/>
    </clipPath>
  </defs>
  <g id="Group_263" data-name="Group 263">
    <g id="Group_262" data-name="Group 262" clip-path="url(#clip-path)">
      <path id="Path_383" data-name="Path 383" d="M379.3,61.934a61.338,61.338,0,0,1,3.17,25.773c-2.325,25.506-21.834,53.9-53.911,65.088-38.363,13.38-82.319,10.868-123.045,6.085-59.182-6.95-135.043-4.119-182.879-35.49C3.34,110.736-2.187,93.882.73,75.576,7.16,35.22,49.972,25.432,99.115,23.526c26.092-1.012,52.552-.419,77.969-4.882C204.83,13.771,230.558,2.99,258.889.557,315.874-4.336,366.027,23.54,379.3,61.934" fill="#98d5f4"/>
    </g>
  </g>
  <text id="Initiate_communication" data-name="Initiate communication" transform="translate(72.546 64.126)" fill="#1d1c1f" font-size="24" font-family="Helvetica"><tspan x="0" y="0">Initiate communication</tspan></text>
  <text id="with_the_drones_to_find_out" data-name="with the drones to find out" transform="translate(54.714 92.59)" fill="#1d1c1f" font-size="24" font-family="Helvetica"><tspan x="0" y="0">with the drones to find out</tspan></text>
  <text id="more_about_them" data-name="more about them" transform="translate(100.579 121.054)" fill="#1d1c1f" font-size="24" font-family="Helvetica"><tspan x="0" y="0">more about them</tspan></text>
  <text id="Ask_your_AI_assistant_to_" data-name="Ask your AI assistant to " transform="translate(82.458 275.71)" fill="#98d5f4" font-size="24" font-family="Helvetica"><tspan x="0" y="0">Ask your AI assistant to </tspan></text>
  <text id="find_out_more_about_them" data-name="find out more about them" transform="translate(71.707 304.174)" fill="#98d5f4" font-size="24" font-family="Helvetica"><tspan x="0" y="0">find out more about them</tspan></text>
  <g id="Group_265" data-name="Group 265">
    <g id="Group_264" data-name="Group 264" clip-path="url(#clip-path)">
      <ellipse id="Ellipse_1" data-name="Ellipse 1" cx="182.138" cy="85.05" rx="182.138" ry="85.05" transform="translate(21.078 202.95)" fill="none" stroke="#98d5f4" stroke-miterlimit="10" stroke-width="2"/>
    </g>
  </g>
</svg>
