<svg id="Group_270" data-name="Group 270" xmlns="http://www.w3.org/2000/svg" xmlns:xlink="http://www.w3.org/1999/xlink" width="560.279" height="157.125" viewBox="0 0 560.279 157.125">
  <defs>
    <clipPath id="clip-path">
      <rect id="Rectangle_112" data-name="Rectangle 112" width="560.279" height="157.125" fill="none"/>
    </clipPath>
  </defs>
  <path id="Path_384" data-name="Path 384" d="M277.575,11.323,274.55.57l-3.025,10.753L258.54,14.791l12.985,3.468,3.025,10.753,3.025-10.753,12.985-3.468Z" transform="translate(15.454)" fill="#ebe1d8"/>
  <g id="Group_269" data-name="Group 269">
    <g id="Group_268" data-name="Group 268" clip-path="url(#clip-path)">
      <path id="Path_385" data-name="Path 385" d="M292.994,14.791a.576.576,0,0,1-.448.551l-13.382,3.385-3.1,10.44a.612.612,0,0,1-1.16,0l-3.1-10.44-13.383-3.385a.563.563,0,0,1,0-1.1L271.8,10.856,274.9.415a.612.612,0,0,1,1.16,0l3.1,10.441,13.382,3.384a.577.577,0,0,1,.448.551M275.481,26.906l2.615-8.8a.587.587,0,0,1,.425-.4l11.534-2.917-11.534-2.916a.588.588,0,0,1-.425-.4l-2.615-8.8-2.615,8.8a.589.589,0,0,1-.425.4l-11.534,2.916,11.534,2.917a.587.587,0,0,1,.425.4Z" transform="translate(14.489)" fill="#0d0b21"/>
      <path id="Path_386" data-name="Path 386" d="M255.889,31.356l-2.173-7.312-2.173,7.312-9.325,2.358,9.325,2.358,2.173,7.312,2.173-7.312,9.325-2.358Z" transform="translate(13.604)" fill="#ebe1d8"/>
      <path id="Path_387" data-name="Path 387" d="M265.849,33.714a.576.576,0,0,1-.448.551l-8.993,2.274-2.08,7a.612.612,0,0,1-1.16,0l-2.08-7L242.1,34.265a.563.563,0,0,1,0-1.1l8.993-2.274,2.08-7a.612.612,0,0,1,1.16,0l2.08,7,8.993,2.274a.577.577,0,0,1,.448.551m-12.1,7.563,1.593-5.36a.587.587,0,0,1,.425-.4l7.145-1.807-7.145-1.807a.587.587,0,0,1-.425-.4l-1.593-5.36-1.593,5.36a.587.587,0,0,1-.425.4l-7.145,1.807,7.145,1.807a.587.587,0,0,1,.425.4Z" transform="translate(13.572)" fill="#0d0b21"/>
      <text id="Well_done_" data-name="Well done!" transform="translate(194.791 147.837)" fill="#ebe1d8" font-size="27" font-family="Futura-Bold, Futura" font-weight="700"><tspan x="0" y="0" letter-spacing="-0.014em">W</tspan><tspan y="0" letter-spacing="0.02em">e</tspan><tspan y="0" letter-spacing="0.019em">l</tspan><tspan y="0" letter-spacing="0.02em">l d</tspan><tspan y="0" letter-spacing="0.019em">o</tspan><tspan y="0" letter-spacing="0.02em">ne</tspan><tspan y="0">!</tspan></text>
      <text id="That_was_a_show_of_REAL_intelligence_there." data-name="That was a show of REAL intelligence there." transform="translate(-0.005 89.085)" fill="#ede3ce" font-size="27" font-family="Helvetica"><tspan x="0" y="0" letter-spacing="0.02em">T</tspan><tspan y="0" letter-spacing="0.019em">h</tspan><tspan y="0" letter-spacing="0.02em">at wa</tspan><tspan y="0" letter-spacing="0.019em">s</tspan><tspan y="0" xml:space="preserve" letter-spacing="0.02em"> a </tspan><tspan y="0" letter-spacing="0.019em">sh</tspan><tspan y="0" letter-spacing="0.02em">ow o</tspan><tspan y="0" letter-spacing="0.019em">f</tspan><tspan y="0" letter-spacing="0.02em"> </tspan><tspan y="0" letter-spacing="0.019em">R</tspan><tspan y="0" letter-spacing="0.02em">E</tspan><tspan y="0" letter-spacing="0.019em">AL</tspan><tspan y="0" letter-spacing="0.02em"> </tspan><tspan y="0" letter-spacing="0.019em">in</tspan><tspan y="0" letter-spacing="0.02em">t</tspan><tspan y="0" letter-spacing="0.019em">elli</tspan><tspan y="0" letter-spacing="0.02em">g</tspan><tspan y="0" letter-spacing="0.019em">ence</tspan><tspan y="0" xml:space="preserve" letter-spacing="0.02em"> t</tspan><tspan y="0" letter-spacing="0.019em">here</tspan><tspan y="0">.</tspan></text>
    </g>
  </g>
</svg>
