<svg id="Group_625" data-name="Group 625" xmlns="http://www.w3.org/2000/svg" xmlns:xlink="http://www.w3.org/1999/xlink" width="374.368" height="603.9" viewBox="0 0 374.368 603.9">
  <defs>
    <clipPath id="clip-path">
      <rect id="Rectangle_524" data-name="Rectangle 524" width="374.368" height="603.9" fill="none"/>
    </clipPath>
  </defs>
  <g id="Group_624" data-name="Group 624" clip-path="url(#clip-path)">
    <path id="Path_4749" data-name="Path 4749" d="M192.9,454.976a1.06,1.06,0,1,1-1-1.115,1.06,1.06,0,0,1,1,1.115" fill="#f4e3d8"/>
    <path id="Path_4750" data-name="Path 4750" d="M374.226,201.641a1.061,1.061,0,1,1-1.449-.388,1.061,1.061,0,0,1,1.449.388" fill="#f4e3d8"/>
    <path id="Path_4751" data-name="Path 4751" d="M114.877,413.821c8.346,2.488,13.667,9.35,11.885,15.325s-9.991,8.8-18.337,6.316-13.667-9.35-11.885-15.326,9.991-8.8,18.337-6.315" fill="#1c1c1e"/>
    <path id="Path_4752" data-name="Path 4752" d="M121.614,408.26a16.885,16.885,0,1,1-15.969-17.753,16.884,16.884,0,0,1,15.969,17.753" fill="#2b5f91"/>
    <path id="Path_4753" data-name="Path 4753" d="M103.855,424.347a17,17,0,1,1,17.876-16.081,17.021,17.021,0,0,1-17.876,16.081m1.783-33.722A16.767,16.767,0,1,0,121.5,408.254a16.786,16.786,0,0,0-15.858-17.629" fill="#1c1c1e"/>
    <path id="Path_4754" data-name="Path 4754" d="M98.711,395.344c.893.993.435,2.86-1.022,4.171s-3.363,1.569-4.256.577-.435-2.861,1.022-4.172,3.363-1.569,4.256-.576" fill="#7897cb"/>
    <path id="Path_4755" data-name="Path 4755" d="M94.79,400.806a2.038,2.038,0,0,1-1.445-.636c-.935-1.039-.472-2.985,1.031-4.337a4.607,4.607,0,0,1,2.4-1.182,2.217,2.217,0,0,1,2.019.614c.935,1.04.473,2.985-1.031,4.338a4.309,4.309,0,0,1-2.977,1.2m2.552-5.945a2.846,2.846,0,0,0-.532.024,4.687,4.687,0,0,0-3.633,3.268,1.992,1.992,0,0,0,.343,1.86c.849.942,2.684.68,4.09-.585s1.861-3.063,1.013-4.005a1.8,1.8,0,0,0-1.281-.562" fill="#1c1c1e"/>
    <path id="Path_4756" data-name="Path 4756" d="M129.382,53.737Q144.455,47.122,159,40.656q14.585-6.45,28.654-12.72,27.312-12.15,52.976-23.69c7.859-3.54,18.069.54,22.692,9,7.533,13.782,14.928,27.584,22.053,41.364q10.627,20.55,20.6,41.1,9.9,20.4,19.082,40.806,9.176,20.3,17.821,40.634c3.469,8.178-.107,18.7-7.946,23.4-17.17,10.283-35.48,22.149-53.878,32.931-19.053,11.167-37.339,22.939-58.005,34.671-9.85,5.591-21.651,1.138-24.8-7.906-5.213-14.973-10.694-30-16.461-44.965q-8.709-22.592-18.373-45.249c-6.47-15.175-13.366-30.4-20.5-45.6-7.171-15.283-14.666-30.59-22.339-45.913a17.985,17.985,0,0,1,8.8-24.774" fill="#353435" fill-rule="evenodd"/>
    <path id="Path_4757" data-name="Path 4757" d="M131.156,50.49Q146.3,43.9,160.919,37.48q14.652-6.417,28.789-12.653,27.441-12.083,53.227-23.561c7.894-3.522,18.105.577,22.808,8.97,7.523,13.756,15.014,27.471,22.181,41.195q10.689,20.464,20.724,40.93Q318.6,112.674,327.842,133q9.232,20.213,17.93,40.465c3.491,8.145-.1,18.62-7.974,23.29q-25.878,15.347-53.619,31.43-28.716,16.663-59.833,34.164c-9.9,5.564-20.709,2.785-23.877-6.222-5.246-14.911-10.761-29.875-16.563-44.777-5.841-15-12.1-30-18.485-45.061-6.6-15.069-13.446-30.271-20.622-45.413-7.213-15.22-14.752-30.464-22.469-45.723a17.822,17.822,0,0,1,8.826-24.662" fill="#353435" fill-rule="evenodd"/>
    <path id="Path_4758" data-name="Path 4758" d="M213.279,134.894c3.114-.9,3.306,1.169.66,2.064-3.205,1.069-3.348-1.284-.66-2.064m-10.708-2.427c2.245-2.614,6.014-.518,2.307.963-2.688,1.072-3.546.485-2.307-.963m-29.723-2.926c-2.605.617-2.853.333-2.324-1.057.216-.587,2.455-1.062,3.068-.787.65.293.331,1.592-.744,1.844m-.438-3.228c-3.2.591-2.56-.639-.147-2.227,1.727-1.132,2.4-2.2,3.835-2.443,1.055-.175,2.694.066,2.2.691-1.169,1.48-3.4,3.517-5.885,3.979m3.538-10.792c2.7-.061-.189,1.885-2.517,2.243-.768.119-1.316-2.159,2.517-2.243M156.9,121.146c-3.852,1.478-3.6-1.583-.1-2.086,2.333-.332,2.316,1.236.1,2.086M343.92,190.794a18.651,18.651,0,0,1-6.123,5.96q-25.877,15.347-53.62,31.43-28.715,16.663-59.832,34.166c-9.9,5.562-20.708,2.783-23.876-6.224-5.246-14.91-10.761-29.875-16.563-44.777q-7.182-18.444-15.019-36.943a12.481,12.481,0,0,0-4.932-11.5c-6.082-13.989-12.516-28.015-19.157-42.027l-1.481-3.116c2.709.121,4.367-.333,4.211-1.769-.4-3.685-3.753-5.991-8.641-7.447q-1.831-3.78-3.686-7.564l.467.175c3.1,1.178,5.227,3.281,9.462,3.426,1.078.034,3.079-.675,5.72-1.908,1.457.206,4.694-1.761,6.781-2.184.418.172.836.344,1.259.516-.856.767-4.2,2.061-4.4,2.965s1.7,1.512,3.3,1.053c1.682-.474,2.705-1.887,4.008-2.821l4.756,1.957c-5.93.724-7.49,4.4-1.028,8.154-1.045.635-1.169,1.642.134,1.83,2.228.324,2.345.539,3.092-.242l.069.025c6.879,2.876,13.793,1.121,15.613-1.716a.921.921,0,0,1,.5.5c.371,1.106-.571,2.7-2.025,4-1.082.976-4.446,1.147-4.826,2.132-.409,1.044,1.682,2.034,3.45,1.382,2.646-.971,3.714-5.4,5.267-4.605,2.928,1.507,2.313,3.824,2.574,6.478.082.864-2.494,2.063-4.439,3.081l-1.272-1.021c-3.819-3.086-3.866,5.614-2.478,7.177,1.966,2.254,6.223,4.154,9.806,5.054.205.282.709.433,1.609.348a9.809,9.809,0,0,0,3.091.142c-1.268,1.707-1.531,2.136,1.511,1.528,2.745-.548,2.924-1.007,1.811-2.253-.253-.284-1.332-.2-2.191.06A1.378,1.378,0,0,0,196.54,135c.805-.85.8-1.725-.586-1.919a3.878,3.878,0,0,0-1.215.03l-.376-.312-2.746-2.22c.617-.2,1.286-.4,2.05-.6,1.174-.3.292-1.669-.8-1.653a13.044,13.044,0,0,0-3.2.675l-2.608-2.114c3.152-.666,7.009-2.144,9.56-1.876,3.149.33,2.918,6.081,5.45,3.953,3.63-3.055-1.176-5.577.206-8.715.231-.507,1.557-.564,2.524-.352l.913.37a.511.511,0,0,1,.125.194c.141.72-3.491,1.744-3.044,2.36,2.32,3.251,1.633,3.391,4.294,6.377,1.278,1.441,8.2-3.164,10.63-2.4,11.465,3.582,22.752,8.889,33.242,13.294,5.013,2.1,11.224,4.742,17.31,5.976.081.013.164.034.248.049q27.012,11.115,54.02,22.232,1.511,2.27,3.011,4.536c-1.11.795-1.526,1.607.2,1.689a2.377,2.377,0,0,0,.825-.137q3.752,5.646,7.495,11.288c-.354.4-.575.762-.519,1.082a7.09,7.09,0,0,0,5.119,5.883c1.161.344,3.27-1.276,5-2.025Z" fill="#353435" fill-rule="evenodd"/>
    <path id="Path_4759" data-name="Path 4759" d="M196.983,235.643a3.232,3.232,0,0,0,.188.534.262.262,0,0,1-.193-.223,1.468,1.468,0,0,1,.005-.311m32.843,21.951c1.62-.93,3.24-1.885,4.886-2.838a.959.959,0,0,1-.636-1.328c-1.765,1-3.508,2.019-5.25,3.016l.334.183a1.269,1.269,0,0,1,.666.967m-4.488,2.559c.637-.361,1.3-.722,1.962-1.109-.222-.434-.463-.871-.732-1.309-.907.522-1.791,1.045-2.673,1.543a12.534,12.534,0,0,0,1.443.875M199.678,247.7c.3.909.62,1.793.943,2.68a6.926,6.926,0,0,0,1.354-.563c-.244-.7-.488-1.419-.729-2.141-.516.009-1.1-.014-1.568.024m-1.5-4.338c.168.508.335,1.016.527,1.5.57.178,1.163.332,1.731.536-.285-.778-.571-1.557-.829-2.358-.184.531-.694.747-1.429.322m-1.565-4.422c.187.562.374,1.1.562,1.634a1.8,1.8,0,0,1,1.623.136c-.36-.993-.718-2.009-1.078-3-.338.413-.724.848-1.107,1.232M281.6,46.985c.241.488.48.975.744,1.441.7-.617,1.759-.373,1.816,1.166a3.387,3.387,0,0,1-.312,1.767c.239.489.483.95.721,1.413q10.38,20.252,20.235,40.829,9.648,20.118,18.719,40.521,8.958,20.057,17.473,40.363c2.91,6.955-.364,15.757-6.644,19.562q-26.228,15.894-52.614,31.5-22.564,13.378-45.307,26.524a1.245,1.245,0,0,1,.83,1.213q22.676-13.1,45.209-26.453,26.391-15.639,52.638-31.5c6.919-4.193,10.447-13.8,7.245-21.435q-8.527-20.326-17.494-40.391-9.12-20.43-18.738-40.574c-1.522-3.174-3.041-6.314-4.6-9.46-.846.344-1.762-.149-.9-1.844q-7.226-14.842-14.765-29.554-1.806-3.54-3.609-7.037c-.579-.049-.554,1.305-.655,1.947M277.989,40c.9,1.739,1.808,3.48,2.689,5.218a8.851,8.851,0,0,1,.214-2.815c-.6-1.144-1.188-2.259-1.768-3.4a2.643,2.643,0,0,1-1.135,1m-3.663-6.964c.645,1.224,1.31,2.477,1.954,3.7a1.953,1.953,0,0,1,1.636-.018c-.846-1.606-1.691-3.21-2.514-4.814-.276-.048-.507-.067-.664.126a1.315,1.315,0,0,0-.412,1.006m-8.487-15.923c.461.9.925,1.767,1.412,2.64a5.154,5.154,0,0,0,1.249.131c.139.012.117.271.269.414,2.154,1.871,1.086,3.184.64,3.485.869,1.607,1.717,3.186,2.562,4.792.418-.251.857-.475,1.295-.7q-2.959-5.592-5.991-11.19a5.2,5.2,0,0,0-1.436.425M243.493,4.389c.267-.107.535-.241.826-.372a12.482,12.482,0,0,1,2.661-.842c-.386-.4-.747-.816-1.176-1.269a12.86,12.86,0,0,0-2.072.761L243.005,3c.17.457.34.939.488,1.393M134.023,52.051A16.548,16.548,0,0,0,126.046,74.7c7.485,15.147,14.886,30.369,22,45.709,6.956,15.012,13.723,30.149,20.151,45.425Q177.6,188.2,186.272,210.9q4.444,11.682,8.694,23.454c.244-.4.463-.793.705-1.163a3.149,3.149,0,0,1,.289-.391q-4.058-11.259-8.312-22.434c-5.77-15.15-10.7-30.1-16.985-45.027-6.44-15.307-14.338-30.53-21.307-45.574C142.24,104.4,134.869,89.166,127.365,74a14.989,14.989,0,0,1,7.243-20.579c9.75-4.326,19.481-8.706,29.209-13.06q14.157-6.333,28.268-12.7Q216.83,16.523,241.55,5.292c-.345-.342-.711-.71-1.1-1.055-.022,0-.045-.03-.065-.058l-5.172,2.373a2.285,2.285,0,0,1-1.557,1.558,1.206,1.206,0,0,1-1.381-.22q-20.39,9.24-40.775,18.429-14.112,6.355-28.268,12.7-14.592,6.531-29.207,13.034" fill="#353435" fill-rule="evenodd"/>
    <path id="Path_4760" data-name="Path 4760" d="M118.82,303.928A4.951,4.951,0,0,1,118,303.3c-.282-.256-.576-.55-.87-.846-1.653,2.089-1.716,2.809-1.125,2.83a6.66,6.66,0,0,0,2.82-1.358m11.305-3.65c-1.041-.6-1.217-.693-1.325-.505a2.346,2.346,0,0,1-.936,1.234c.782.444,1.071.547,1.3.393s.4-.556.959-1.122m-7.591,14.1a3.532,3.532,0,0,0-3.959,1.281c.782.446,1,.881,1.4.827s1-.6,2.562-2.108m-8.16,16.306c-1.99-.758-3.759-1.893-4.894-2.226s-1.639.142-1.083,2.6c.487-.858,1.358-.363,2.415.052a3.034,3.034,0,0,0,3.562-.428m-10.017,35.69c-.7-.4-.335-.823.043-1.239s.785-.812.175-1.16c-1.307,2.282-1.163,1.228-1.048.221s.2-1.967-1.211.507c-2.295-.425-2.126-.012-1.213.506a9.857,9.857,0,0,0,3.254,1.165m4.026-7.045a11.322,11.322,0,0,1-1.149-4c-.22-1.073-.548-1.513-1.765-.185-1.3-.747-1.847-.3-2.042.347a2.472,2.472,0,0,0,.044,1.542,19.564,19.564,0,0,0,2.04,1.572c1.088.716,2.316,1.291,2.872.725m8.587-8.986c-.443-.634-.684-1.027-.655-1.421s.31-.8.92-1.464c-5.26.079-5.162,1.367-2.863,3.2.43.343,1.893-.091,2.6-.313m-2.262,6.786c-1.37-1.034-1.838-1.932-2.321-2.145s-.983.261-2.417,1.966a15.047,15.047,0,0,0,2.117.227,10.279,10.279,0,0,0,2.621-.048m-5.137,12.217a2.346,2.346,0,0,1-1.138-2.542c.05-.6.052-.6-1.468,1.057a13.545,13.545,0,0,1,1.464,1.216c.49.4.924.651,1.142.269m0,0a5.03,5.03,0,0,1,2.379-.38c-.122-.037-1.029-.365-2.333-2.118-.436.761-.387.981-.258,1.21a1.6,1.6,0,0,1,.212,1.288m30.1-43.425a3.045,3.045,0,0,1-1.661-2.082,7.038,7.038,0,0,0-.682-2.284c-.437.761-1.059,1.857-1.495,2.618s-.682,1.191-.356.619c.694.4,1.23,1.081,1.845,1.466s1.318.467,2.349-.337M126.427,353.96c-3.39-1.934-3.816-.789-3.351.364s1.827,2.3,2,.383c-1.6-.028-1.331-.192-.632-.363s1.838-.338,1.98-.384M123.92,364.4a13.787,13.787,0,0,1-3.395-3.39c-.923-1.158-1.6-1.985-1.929-1.413-1.648-.943-2.367.416-2.235,1.594s1.114,2.185,2.864.533c.707.778.066,1.8-.36,2.853s-.64,2.128.924,3.021a6.385,6.385,0,0,1,1.871-1.715c.8-.547,1.676-1.064,2.26-1.483m14.6-18.693a5.474,5.474,0,0,1,.106-1.3,12.267,12.267,0,0,1,.607-1.573c-1.734-.991-2.5.148-2.539,1.326s.65,2.389,1.826,1.544m-10.7,19.145c.217-.381-.208-.752-.669-1.205a2.2,2.2,0,0,1-.895-1.706c-2.827.911-2.463,1.688-1.379,2.209a7.876,7.876,0,0,0,2.943.7m4.5-6.271a11.319,11.319,0,0,0-2.005-2.6c-.806-.646-1.591-.59-1.842,1.665a9.686,9.686,0,0,1,2.036,1.477c.219.127.4-.089,1.811-.546m13.009-20.353c-.575-.2-1.151-.4-1.741-.583a14.692,14.692,0,0,0-1.82-.439c-.654,1.142-.349,1.817.411,2a4.286,4.286,0,0,0,3.15-.98m14.467-17.252c-.173-.1-.283-1.422-.619-2.245s-.9-1.146-1.99.761c1.3.742.77,1.068.505,1.233s-.266.165,2.1.251m-12.58,25.649a13.2,13.2,0,0,0-1.255-.779c-.4-.164-.764-.119-1.092.449-2.346-1.336-3.059.216-2.537,1.363s2.286,1.9,4.884-1.033m2.259-5.012c-.521-.3.127-1.079.4-1.555s.5-.978-.2-1.371c-2.071.311-2.76,2.009-1.322,3.727.51.612.487,1.6,1.318.084.085-.153-.313-.679-.2-.885M141.622,354.8a1.881,1.881,0,0,0,.315.4,1.6,1.6,0,0,0,.271.185c.846-.276.493-1.17.076-1.754s-.889-.855-.292.114c-.327.57-.546.446-.887.537s-.8.4-1.614,1.826c.866.5,1.094-.007,1.259-.544s.26-1.112.872-.768m-1.634,6.9c-1.306-.743-2.305-1.314-3.044-1.736s-1.217-.693-1.48-.845c.489-.856.039-.669-.227-.1a1.624,1.624,0,0,0,.861,2.228c-.489.859.211,1.446,1.17,1.584a2.7,2.7,0,0,0,2.72-1.131m2.218-6.308a1.552,1.552,0,0,1-.269-.185,1.831,1.831,0,0,1-.315-.4c-.707,1.238.438,1.955,1.261,2.081s1.324-.351-.677-1.492m-4.81,13.669c-1.6-.029-2.1-1.265-2.681-1.972s-1.221-.886-3.1,1.2a1.519,1.519,0,0,1,.267.185,2.018,2.018,0,0,1,.32.4c-1.251,2.191-.273,2.494,1.176,2.122a13.678,13.678,0,0,0,4.019-1.935m13.069-28.074c.434.247.231.753.705.931s.964.325,1.454.48a2.245,2.245,0,0,0-.433-2.269c-.543-.559-.746-.857-1.726.858m21.085-29.705c-4.551-2.6-2.564-2.522-3.126-1.542-.109.189.5,1.306.388,1.495-2.38-.472-1.268.855-.183,1.127s2.139-.518,2.921-1.08m7.811-12.462c-.456-.007-.824-.975-1.3-1.561s-1.048-.787-1.92.735c.521.3.548,1.26.836,1.771s.828.568,2.381-.945M139.023,374.27a33.036,33.036,0,0,0-3.345-1.813c-.761-.276-.75.112,1.3,2.164a6.31,6.31,0,0,1,.959-.213c.346-.055.717-.1,1.086-.138m25.538-43.5c-.323-.436-.691-.9-1.084-1.376s-.8-.963-1.215-1.449c-1.5,1.417-1.4,2.042-.686,2.355a16.391,16.391,0,0,0,2.985.47m3.485-6.093c-.4-.1-1.712-1.543-2.757-2.232s-1.828-.634-1.175,2.261a4.439,4.439,0,0,0,2.177.674,2.492,2.492,0,0,0,1.755-.7M183.4,298.6c-.229-.005-.667-.95-1.229-1.584s-1.237-.961-1.946.275c.784.449.574.514.6.719s.295.551,2.032,1.542c.056-.1.138-.239.23-.406s.2-.357.314-.546m-33.7,59.8c-2.868-1.635-3.209-1.137-2.775-.479s1.635,1.469,1.864.464a1.812,1.812,0,0,0,.636.3c.113,0,.169-.089.275-.282M173.809,316.6c-.422.138-1.1-.188-1.917-.526a5.95,5.95,0,0,0-2.734-.609c.749,3.327.7,3.109.3,2.344s-1.149-2.071-1.8-.93a3.2,3.2,0,0,1,.971,2.731c-.021.337.155-.068,2.134-1.716.619.733,1.162.788,1.661.473a5.181,5.181,0,0,0,1.382-1.767m-31.09,55.232a3.846,3.846,0,0,0-1.068-.293,18.7,18.7,0,0,1-2.668-.828c-2.119.684-1.983,1.455-.92,1.811a6.081,6.081,0,0,0,4.656-.69m16.3-27.317c-.519-.295-.766-.371-.952-.349a4.96,4.96,0,0,0-.592.227c-1.216-.691-1.369-.018-.95.5s1.415.9,2.494-.38m-4.2,8.97a5.124,5.124,0,0,1-2.117-2.849c-.371-.969-.577-1.718-1.141-1.536-1.357,2.379-1.463,3.772-.768,4.422s2.19.556,4.026-.037m14.794-21.861c-2.086-1.191-3.279.089-3.46,1.058s.655,1.635,2.608-.787c.142-.043.285-.091.427-.136s.284-.091.425-.135m3.477-4.073a35.439,35.439,0,0,1-3.574-2.42,10.788,10.788,0,0,1-1.033,2.819,5.137,5.137,0,0,0,2.565.705,2.28,2.28,0,0,0,2.042-1.1m4.984-7.515a3.447,3.447,0,0,0-2.066-.419c-.576.11-.868.515-.3,1.343.98-1.717.946-.849.983-.105s.136,1.374,1.387-.819m2.391-4.187a20.539,20.539,0,0,0-3.176-1.75c-1.043-.342-1.518.083.239,2.852a5.018,5.018,0,0,1,1.437-.192c.372-.043.753-.2,1.5-.91m11.095-19.424a6.3,6.3,0,0,1-1.284.086c-.524-.044-.8-.269.178-.975-1.391-.79-2.234.687-2.172,1.733s1.042,1.668,3.278-.844m-41.423,77.363a6.47,6.47,0,0,1-4.96.865c-1.479-.183-2.583-.371-2.694.828,1.132.648.746,1.627.818,2.2s.607.758,3.573-.2c-.521-.3.017-.937.824-1.646s1.885-1.483,2.439-2.048m1.958-3.429a2.366,2.366,0,0,1-1.14-1.533,2.764,2.764,0,0,0-1.4-1.68,4.168,4.168,0,0,0,.512,2.782,1.385,1.385,0,0,0,2.031.431m9.527-14.257c-.172-.1-.675-.83-1.167-1.236s-.962-.484-1.071.715c-1.392-.79-1.234-.261-.526.267s1.962,1.059,2.764.254m5.264-7.6c-.085-.049-1.168.029-2.017-.046s-1.47-.3-.634-.956c-1.391-.8-2.159.848-1.862,1.991s1.656,1.8,4.513-.989m4.547-6.748c-3.607-3.573-5.566-2.668-6.16-1.37s.162,3,1.988,1.012c.289,1.3,1.308,1.435,2.263,1.226a5.022,5.022,0,0,0,1.909-.868m3.261-5.713a.946.946,0,0,1-.545-1.26c.093-.263.134-.238-.844.468-1.825-1.042-2.012-.2-1.476.574a1.7,1.7,0,0,0,2.865.218m3.265-5.714a3.933,3.933,0,0,0-2.571-.644,3.294,3.294,0,0,0-1.754.955,6.1,6.1,0,0,0,2.668,1.079c.642-.017,1.115-.44,1.657-1.39m14.273-24.174c-.173-.1-.347-.2-.544-.313l-.673-.384c.186-1.535-.641-1-.948-.257s-.1,1.681,2.165.954m-2.4,6.206a18.876,18.876,0,0,1-2.859-.845,4.049,4.049,0,0,0-3.6.446c1.566.894,2.172,1.743,2.893,2s1.553-.093,3.564-1.6m-3.153,7.542c-1.435-.315-1.724-.415-1.543-.629a5.33,5.33,0,0,0,1.257-1.3c-2.218.251-2.709.917-2.367,1.426a2.555,2.555,0,0,0,2.653.5m-2.286,4c-2.782-1.587-5.06-.925-6.128.135s-.927,2.533,1.127,2.566c-.38.667.331.632,1.407.108a11.685,11.685,0,0,0,3.594-2.809m-6.962,14.2a4.535,4.535,0,0,1-.1-.779c-.035-.6-1.114-1.508-.6-1.671.1-.034-.07.374-2.236,1.536.676.636,1.036,1.22,1.413,1.467s.774.157,1.524-.553M163.049,366.51c-.479-.777-.919-1.218-1.377-1.227s-.93.416-1.475,1.369c.782.448,1.121.763,1.45.794s.65-.229,1.4-.936m9.588-13.967c.6-1.048-.345-1.212-1.18-1.309s-1.565-.135-.535-.937c-2.671-.765-2.705.605-1.839,1.761s2.632,2.1,3.554.485m-10.81,21.35c-.61-.347-1.63-.677-2.393-1.112s-1.259-.968-.822-1.731c-1.741-.992-1.686.428-.823,1.74s2.54,2.519,4.038,1.1m15.451-37.137a3.794,3.794,0,0,1,.049.567,4.548,4.548,0,0,0,.1.779c-.979,1.719.587,2.1,1.871,1.921s2.292-.936.2-1.5c.814-1.429.436-2.085-.232-2.278a2.185,2.185,0,0,0-1.988.509M157.5,382.28c-1.652-.942.243-1.617.966-2.278s.272-1.308-1.6-1.865c-.487.855-1.912.422-3.091.317s-2.112.122-1.625,2.295c1.476.84,2.123.512,2.64.112s.9-.871,1.857-.327c-.976.7-.848,1.285-.433,1.614s1.118.417,1.283.132M180.514,338.3a8.965,8.965,0,0,0,1.37.226c.549.093.344-3.229-1.37-.226m-10.16,22.276c-.965-.928-2.052-2.561-3.076-3.646-2.8-2.979-2.9.707-.6,1.618.259.15-1.042.6-1.133,1.714s.515,1.777,3.546.1c.259.147.354.39.491.5s.326.091.77-.287M184.392,323.9c.172.1.19,1.181.394,1.833s.6.877,1.519-.741c1.444,1.706,3.249-.041,4.1-1.636s.756-3.042-1.6-.725c-3.043-1.733-4.032-1.415-4.319-.666s.13,1.938-.1,1.935m-1.853,13.333a1.221,1.221,0,0,0,.437.094c.193.013.422.018.648.021.544-.95,1.5-.4,2.092.025s.81.745-.112-.665c1.5-1.416.452-1.7-.831-1.421s-2.8,1.118-2.234,1.946m19.989-25.711c-1.414.454-2.067-.422-2.364-1.413a7.052,7.052,0,0,1-.243-2.1c-2.414-.616-3.03,1.178-2.413,2.664s2.478,2.674,5.02.844m-31.12,66.895c-.171-.1-1.157.416-1.758.607s-.815.072.542-1.3c-1.044-.593-1.681.621-1.586,1.463s.921,1.314,2.8-.771m-1.1-7.261c-.261-.148-.566-.323-.891-.509s-.675-.381-1.021-.58c-.543.951-.558,1.576-.188,1.787s1.121.007,2.1-.7M184.712,341.5c-.11.191-.943.536-1.243.965s-.075.938,1.935,1.453a4.545,4.545,0,0,1,1.1-2.087c.265-.414.05-.539-1.8-.331m8.328-10.144a3.549,3.549,0,0,0-2.772-.445c-.569.243-.552.82.749,1.567-.654,1.142-.6.85-.219.378s1.114-1.135,1.81-.738c.052-.1.1-.192.174-.31s.15-.261.258-.452m-12.031,24.7a14.634,14.634,0,0,1-4.119-2.123c-.99-.537-1.859-.525-3.383,1.131a12.715,12.715,0,0,0,2.543,2.457c1.386.853,3.172,1.054,4.959-1.465M164.645,385.1a3.977,3.977,0,0,0-2.058-.736c-.553.065-.939.539-1.049,1.738.955.547,1.43.625,1.814.407a8.719,8.719,0,0,0,1.293-1.409m20.472-35.033c-2.661-2.4-2.779-3.1-2.769-3.222s.155.34-1.987.256c-.262-.15-1.484-.53-2.456-1.052s-1.686-1.182-.939-1.89c-2.519-1.439-4.022-1.224-4.267-.291s.77,2.586,3.286,4.024c-.322.57,1.549,1.134,3.7,1.542a33.458,33.458,0,0,0,5.429.633m-11.1,29.84a2.533,2.533,0,0,0-1.534-.087c-.328.031-.321-.087.536-.985-.953-.546-1.455.431-1.341,1.186s.842,1.3,2.339-.114m4.383-17.261a2.667,2.667,0,0,0-2.147.222c-.734.278-1.4.533-1.724.1.326-.568.934-1.74,1.234-2.359s-1.05-1.715-1.971-.1c-2.641-2.64-2.548.647-2.1,2.575s2.592,3.531,6.705-.436m20.446-35.8a17.84,17.84,0,0,0-2.559-1.461c-.731-.23-1.067.151-.153,2.185.977-.7,1.3-.772,1.562-.72a1.514,1.514,0,0,0,1.15,0m-2.869,5.433c-.346-.2-.559-.131-.739.082a8.257,8.257,0,0,0-.541.957c-2.021-.9-2.815.285-2.546.973s1.6.882,3.826-2.012m16.249-22.8c-.779-.444-.954-2.062-1.493-2.935s-1.44-1.01-3.681,1.5c1.132.646,2.072,1.623,2.9,2.129s1.562.54,2.27-.695m-6.9,12.478c-.9-.638-1.675-1.4-2.449-2.063a6.7,6.7,0,0,0-2.437-1.482,2.283,2.283,0,0,0-1.209,2.467c.1.877.629,1.369,1.337.131a20.48,20.48,0,0,0,2.232,1.337,2.113,2.113,0,0,0,2.526-.39m4.349-7.619c.329-.57-.085-.555-.643-.429s-1.266.353-1.529.2c.871-1.527-.167-.411-.632.552s-.354,1.782,2.8-.327M170.409,385.1a2.189,2.189,0,0,0-1.757-.3,4.275,4.275,0,0,0-1.919,1.492c.783.444.927.9,1.258.875s.862-.55,2.418-2.063m16.856-25.476a33.348,33.348,0,0,0-3.023-1.725,5.991,5.991,0,0,0-2.5.09c.291,1.305.4,1.616.859,1.974a26.55,26.55,0,0,1,2.965,2.227,19.442,19.442,0,0,1,.977-1.965,1.611,1.611,0,0,1,.718-.6m-3.567,9.071a10.955,10.955,0,0,0-1.083-2.951c-.271-.534-.364-.775,0-1.2-1.9-.709-2.777-.888-3.341-.61s-.81,1.022-1.465,2.164a2.4,2.4,0,0,1-.556-.381,1.143,1.143,0,0,1-.266-.593c-.546.95.818,1.791,2.476,2.42a26.646,26.646,0,0,0,4.239,1.155m-2.7,5.53a3.378,3.378,0,0,0-1.995-.538c-.486-.06-1.077-.333-2.634-1.848-1.576,2.762-1.082,4.112.138,4.4s3.166-.5,4.491-2.014m11.967-20.948a10.664,10.664,0,0,1-2.974-.847c-.578-.295-1-.663-2.046-1.258-1.144,2-.3,3.24,1.041,3.623a3.568,3.568,0,0,0,3.979-1.518" fill="#d0393e" fill-rule="evenodd"/>
    <path id="Path_4761" data-name="Path 4761" d="M178.983,603.359l-149.628-12.6c15.991-24.715,33.262-48.384,48.032-90.608,2.59-30.242,10.726-33.91,16.765-41.113,5.294-6.326,4.638-8.7,2.28-15.847-7.795-23.742-14.828-47.635-23.547-71.848-3.524-9.781-9.229-18.8-15.629-27C44.433,327.923,28.825,311.16,18.608,295.19,13.307,286.721,7.2,278.57,1.9,270.1c-2.115-3.374-2.47-4.953-1.038-9.012a9.97,9.97,0,0,1,5.6-5.946c4.9-2.2,7.339-1.742,11.595.954,7.762,4.906,13.7,11.516,19.509,21.834,5.05,1.742,10.939,7.358,18.582,14.977-17.005-29.716-35.464-64.645-40.164-95.965-3.643-12.533-6.805-25.176-10.8-37.619-1.075-3.37-1.9-4.455-.651-7.861,3.094-8.513,8.774-12.484,14.938-11.249,4.53.914,6.55,3.119,8.8,6.769a126.754,126.754,0,0,1,15.927,38.33c5.6,10.514,11.065,22.553,16.449,35.619-5.488-26.6-12.561-56.2-15.256-77.528-1.487-8.986-2.994-17.948-8.029-24.795-4.023-7.542-6.88-14.014-10.477-21.163-1.686-3.345-2.891-4.809-2.285-8.6,1.538-9.689,9.444-14.7,19.983-11.709,3.167.892,4.381,2.219,6.586,4.632,8.055,8.77,15.51,20.3,22.056,35.974,6.832,17.683,13.6,35.372,18.108,52.869,7.1,15.9,10.293,31.467,13.16,47.008,2.049,5.985,4.724,2.6,4.565,1.17-.246-16.943-2.536-35.123,1.075-49.706-1.227-19.3-1.47-39.688-2.695-58.986-1.543-9.465-4.061-17.831-5.6-27.295-6.757-21.248,20.423-22.874,27.307-10.145,13.207,27.351,21.081,57.133,21.17,90.475,4.489,16.5,6.077,34.154,5.682,52.6,3.626,10.979,7.089,21.99,9.618,33.241,1.4,6.26,2.545,11.058,7.73,14.987,17.985,13.621,37.882,21.495,60.309,13.255,13.153-4.823,20.016-20.321,29.447-30.674,11.192-15.721,26.619-29.418,53.729-37.494,27.115-4.8,35.3,21.656,18.9,34.267-12.285,10.378-26.909,24.918-36.123,32.972-8.472,7.4-13.907,16.539-20.9,25.252-8.91,16.113-17.963,32.238-18.01,47.495-5.461,22.106-5.511,39.246-19.463,59.844-11.809,17.425-19.7,41.37-29.438,58.958-.55,11.372-3.835,22.286-7.507,33.607-10.881,33.612-17.811,67.822-25.312,101.915" fill="#353435" fill-rule="evenodd"/>
    <path id="Path_4762" data-name="Path 4762" d="M299.217,181.98c-.279-.912.444-.328.5.354.035.449-.341.172-.5-.354m10.491-2.3c-.226.1.033.73.253.578.138-.094-.131-.632-.253-.578m-12-11.124c-.843-2.222-3.674.843-2.245,2.3,2.009,2.05,3.445.846,2.245-2.3m-34.766-17.577c1.914.028,1.868-2.281-.087-3.974-1.455-1.27-1.836,3.945.087,3.974m-10.652-3.144c-1.536,1.8-3.727.171-5.054-3.039-.5-1.2,2.165.574,2.99.852,3.207,1.087,2.593,1.565,2.064,2.187m5.9-.548c-.782.45-1.367,1.829-2.344,1.357-1.247-.6-2.22-2.737-3.33-4.1-3.136-3.863,9.709.406,5.674,2.746m7.421.626c-.741-.34-1.4-2.536-.032-1.38,1.31,1.1,1.156,1.893.032,1.38m-1.818,11.539c-1.707-1.011-1.4-5.18,1.009-3.042,2.035,1.8,1.286,4.4-1.009,3.042m3.378,3.05c-.583.589-.971,1.893-1.594,2.343l9.023,10.31,7.135,4.25c-.026-.084,7.633,3.125,11.927,3.962a3.758,3.758,0,0,0,3-1.106c-.079-.646,1.234,1.116,1.567,1.8.059.121.116.228.17.328l2.03,1.208a1.18,1.18,0,0,1,.286-.33l.005-.005c-.17-.266-.119-.249,0-.567.069-.189.309.01.44.3,1.015-.433,1.86.48,1.921,1.61l.553-.46a6.252,6.252,0,0,1-.6-1.176c-.077-.351.1-.569.315-.375a9,9,0,0,1,.623,1.267c.049-.038.1-.08.149-.12a10.685,10.685,0,0,1-.395-1.534,4.113,4.113,0,0,1-.345-1.3c.115-.692.656-.683,1-1,.354-.334.665-.767,1.029-1.085-.676-1.89.182-4.781,1.277-2.891.467.8.978,1.578,1.5,2.344.118,0,.239.007.36.006-.083-.358-.281-.88-.166-.955.143-.1.5.75.727.907.149.1.311.029.256-.233a2.812,2.812,0,0,0-.547-1.072c-.27-.284-.767.011-.688-.235.209-.65.55-1.185,1.115-1.1.219.033.517,1.388.723,1.383.179-.005-.175-.757-.269-1.192-.451-.317-.937-.639-1.486-.953a1.016,1.016,0,0,1,.065.124c.315.661.064.847-.246.208-.112-.239-.136-.4-.1-.479-.542-.219-1.851-.167-2.129-.817-3.144-7.384-.75,8.346-5.187,5.438-1.79-1.177,3.617-5.969.943-6.381-.974-.147-2.426-1.43-2.937-.449-.375.725,1.8,2.042,1.626,2.98-.22,1.194-1.421,1.386-2.361,1.03-.476-.178-.415-1.434-.62-2.155-1.537-5.323-3.239-5.995-6.738-5.964-.676.007-1.467.938-2.031.019-.617-1.005.724-2.657-.026-3.361s-1.669.736-1.492,1.937c.338,2.3,3.906,5.75,2.76,6.623-1.449,1.1-4.945-1.464-5.713-4.377-.831-3.155,1.885-4.394,2.823-6.59.831-1.927-6.009-8.887-7.455-7.3-.627.688-.944,2.426-1.887,2.066-.721-.268-.741-2.132-1.112-3.2-3.053-8.811-5.448-.311.445,8.827,1.122,1.745-2.227.5-3.468-.709q-2.779-2.7-5.564-5.417c-2.022-1.97-1.47-2.41-1.769-2.836-1.665-2.368-3.712-.108-5.479-4.673-2.347-6.055,4.436-5.919-.284-8.068-4.007-1.825-8.042-4.214-12.02-5.471-.481-.157-1.092.791-.729,1.433.731,1.288,2.544.853,2.859,2.325.284,1.31-1.41.733-2.117,1.1a.936.936,0,0,1-.356-.015c-.347-.045-.694-.09-1.033-.136-1.47-.2.135.727-1.5-1-1.518-1.6.592-.731-1.9-1.858-3.721-1.694-1.14,1.293-4.583.132-1.943-.656-4.144-2.539-5.829-1.969-1.7.575-1.74,4.613-3.47,5.118-.857.246.06-2.753.083-4.135.046-2.337-.566.99-2.238.256-4.009-1.765-3.234-1.081-5.116-1.612l1.135,2.3,11.055,6.582c-.851-2.908-.842-5.4.66-5.887,2.865-.919,9.613,9.56,10.916,12.448.064.138.124.287.18.442l3.01,1.79c.535-.81,1.068-1.629,1.675-1.19.285.213.219,1.211.058,2.225l12.523,7.454c-.679-1.09-1.257-2.6-1.941-3.66-1.381-2.153,1.409.884,2.465,1.34,1.352.588,4.567-.294,3.1,1.189m16.107,3.1c-1.485-1.354-1.965-2.718-.9-3.537,1.252-.974,1.776,4.336.9,3.537m-14.948-9.125c-.4-3.01,3.486-1.938,3.924,1.281.3,2.183-.674,2.8-1.736,2.3a4.6,4.6,0,0,1-2.188-3.586" fill="#f3ede2" fill-rule="evenodd"/>
    <path id="Path_4763" data-name="Path 4763" d="M116.256,455.922c-.74-3.351,9.59-5.632,7.885.362-1.633,5.734-6.761,4.72-7.885-.362m-38.1,76.252c2.417-6.466,8.588-8.205,17.214-2.917,10.18,6.228-18.651,6.712-17.214,2.917M13.615,287.565C9.682,281.754,5.595,276.005,1.9,270.1l-.233-.377a14.2,14.2,0,0,0,2.054.428c3.158.423,5.6-.612,4.649-4.657l-.03-.093c1.382-.309,2.093-2.866.381-2.455a5.774,5.774,0,0,0-1.049.339c-.1-.243-.2-.475-.311-.706L19,256.918c3.8,8.637,4.929,5.256,9.331,23.4,1.829,7.559,23.345,11.666,9.627,10.586-6.542-.512-21.316-4.13-24.345-3.337M92.073,429.693q-1.725-5.4-3.437-10.826a41.924,41.924,0,0,1,4.2,2.494c28.254,19.782,6.188-38.842-4.775-25.575a35.891,35.891,0,0,1-5.279,4.726c-3.13-9.678-6.375-19.4-9.894-29.171s-9.23-18.8-15.63-27c-2.616-3.35-5.348-6.716-8.126-10.085,4.025-6.738,4.929-13.351-.648-18.219-4.891-4.269-11.967-6.344-19.782-6.73-3.686-4.754-7.117-9.47-10.091-14.119q-1.51-2.416-3.1-4.8c10.18,7.1,31.527,9.044,40.5,16.758,9.447,8.093,6.559,17.718,9.847,26.582,5.817,15.72,13.715,4.715,17.466,21.532,2.535,11.264-.083,1.7-3.846,8.223-4.034,7.014-4.54-.158-.323,6.649.983,1.582,1.97,3.183,2.985,4.78a6.342,6.342,0,0,0,1.217,1.68c4.682,3.448,7.533,11.168,14.088,10.341,7.369-.954-1.751-9.6,3.043-12.552,2.393-1.468,10.114,1.758,10.973,3.954,7.187,18.178,8.063,36.211,12.114,54.32,3.877,17.395-11.35-.528-31.507-2.968m5.939,19.045a42.729,42.729,0,0,0-1.579-5.549q-1.027-3.126-2.036-6.253c7.427-.26,18.305,2.6,17.1,6.414-1.706,5.406-7.633,7.125-13.481,5.388M79.894,483.427c1.8-7.562,4.147-12.24,6.631-15.706,8.379,4.672,9.791,15.025-3.073,15.691q-1.857.1-3.558.015M62.909,534.932a313.21,313.21,0,0,0,14.479-34.783c.243-2.841.536-5.447.871-7.843,30-8.9,61.78,2.21,29.469,11.139-4.862,1.345-15.575.751-14.525,4.023,1.374,4.28,12.574,6.4,18.875,9.611,14.439,7.369-.941,36.845-15.14,32.242-11.208-3.622-22.854-11.07-34.029-14.389m3.6,58.955-37.151-3.129c6.469-10,13.148-19.826,19.786-30.779,6.953-.972,13.375-11.072,23.1-11.669,6.314-.387,18.042,4.407,16.666,7.726-1.353,3.254-15.837-3.654-19.389-1.137-3.285,2.3,5.013,6.359,7.512,9.528,12.942,16.425,15.249,24.148-10.016,29.37-.161.032-.329.062-.507.09m48.581,4.091-21.575-1.817a7.017,7.017,0,0,1-1.389-8.812c3.036-5.75,27.732,6.44,22.964,10.629" fill="#404041" fill-rule="evenodd"/>
    <path id="Path_4764" data-name="Path 4764" d="M30.014,276.386a48.3,48.3,0,0,0-15-15.482c-2.727-1.728-3.251-1.906-6.218-.571a4.322,4.322,0,0,0-2.569,2.65c-.786,2.225-.753,2.105.5,4.1q.551.879,1.111,1.754l.1.06c7.762,4.906,13.7,11.517,19.51,21.834,5.048,1.742,19.631.3,27.274,7.918-5.35-9.348-19.537-12.154-24.7-22.26M41.9,193.227q-1.332-2.637-2.716-5.24l-.339-.636-.169-.7A122.825,122.825,0,0,0,23.436,149.97c-1.446-2.344-2.3-3.618-5.077-4.178-4.347-.87-7.072,3.9-8.376,7.359,4.09.99,6.023,3.153,8.167,6.63A126.758,126.758,0,0,1,34.076,198.11c5.6,10.515,11.065,22.552,16.45,35.618-2.728-13.223-5.848-27.183-8.627-40.5m56.459,22.5c-2.787-14.756-6.024-28.935-12.214-42.794l-.195-.437-.119-.463c-4.578-17.756-11.276-35.08-17.877-52.167C62.779,107.5,56.092,95.533,46.978,85.61c-1.35-1.478-2-2.454-3.939-3-6.249-1.772-11.4.033-12.706,6.542a22.463,22.463,0,0,1,4.128.781c3.168.893,4.381,2.219,6.587,4.633,8.054,8.77,15.509,20.3,22.056,35.972,6.833,17.684,13.6,35.372,18.107,52.87,7.1,15.9,10.293,31.467,13.162,47.007,2.047,5.987,4.723,2.6,4.563,1.171-.076-5.218-.347-10.552-.578-15.862m135.648,67.4a57.176,57.176,0,0,1-29.728,2.051c-12.68-2.481-24.154-8.956-34.358-16.684-6.486-4.916-8.15-10.723-9.844-18.273-2.49-11.08-5.912-21.93-9.47-32.705l-.307-.929.021-.978c.366-17.1-.98-34.434-5.484-50.985l-.2-.726v-.753c-.083-30.961-7.122-60.047-20.54-87.882a7.546,7.546,0,0,0-.985-1.364,11.315,11.315,0,0,0-5.467-3.142c-2.913-.774-7.075-.728-9.461,1.386-1.542,1.369-1.862,3.411-1.67,5.428,5.11.679,10.081,3.381,12.515,7.882,13.2,27.35,21.08,57.132,21.169,90.475,4.489,16.5,6.078,34.154,5.682,52.6,3.626,10.979,7.09,21.99,9.619,33.242,1.405,6.259,2.544,11.056,7.73,14.986,17.985,13.622,37.881,21.494,60.309,13.255a29.922,29.922,0,0,0,10.468-6.885m99.869-45.722c3.708-3.648,5.647-8.846,4.062-14.036-2.609-8.555-12.085-10.053-19.793-8.772-11.579,3.48-21.591,8.181-30.4,14.656a116.547,116.547,0,0,1,18.97-7.408c16.37-2.9,25.835,5.6,27.161,15.56m-108.1,186.22c1.933-4.61,22.573-41.45,23.839-46.64,3.516-14.413,3.859-29.547,6.925-44-3.346,7.9-12.187,34.757-12.21,42.335-2.655,10.75-16.237,38.94-18.554,48.309M122.141,602.717l50.191,1.183c7.172-32.779,16.2-72.237,26.55-104.21,2.813-8.676,5.6-17.614,6.757-26.72-1.3,2.655-2.612,5.223-3.965,7.666-.552,11.37-20.912,27.767-24.584,39.09-1.312,4.058-18.257,68.278-27.327,64.747,6.24-17.068,16.219-48.849,13.006-44.43-15.241,20.962-36.365,43.139-40.628,62.674" fill="#f3ede2" fill-rule="evenodd"/>
    <path id="Path_4765" data-name="Path 4765" d="M114.123,598.417c9.238-15.68,19.976-30.716,31.08-45.595-15.546,14.278-29.365,29.508-39.379,46.825l8.3-1.23" fill="#f3ede2" fill-rule="evenodd"/>
    <path id="Path_4766" data-name="Path 4766" d="M211.734,301.371a5.239,5.239,0,0,1-.532.612c-.209.212-.445.429-.678.646,1.045,1.277,1.49,1.333,1.6.888a4.789,4.789,0,0,0-.392-2.146m-.438-8.585c-.547.779-.638.909-.538.995a1.146,1.146,0,0,1,.626.724c.411-.587.522-.8.464-.977s-.284-.316-.552-.742m7.653,5.919a3,3,0,0,0-.367,1.447,1.945,1.945,0,0,0,.521,1.56c.412-.585.722-.74.755-1.044s-.212-.765-.909-1.963m-1.256-10.725c-.809,1.492-1.816,2.809-2.215,3.662s-.183,1.239,1.463.854c-.46-.38,0-1.031.432-1.823a2.663,2.663,0,0,0,.32-2.693M206.83,314.652c-.366.52-.575.243-.775-.052s-.384-.6-.7-.146c1.225,1.017.584.895-.034.795s-1.209-.178.119.922c-.645,1.725-.358,1.6.121.921a10.292,10.292,0,0,0,1.273-2.44m-7.637,10.4a7.443,7.443,0,0,1-2.717.813c-.715.152-1.048.394-.409,1.329-.688.974-.493,1.39-.116,1.546a1.346,1.346,0,0,0,.979-.013,19,19,0,0,0,1.33-1.518c.633-.81,1.2-1.73.933-2.157m-27.855,13.6c-.472.325-.758.5-1,.477s-.455-.246-.774-.715c-.819,3.969.009,3.913,1.547,2.2.289-.318.257-1.429.231-1.964m8.815-1.429c-.88,1.021-1.524,1.36-1.738,1.723s0,.747.842,1.852a15.613,15.613,0,0,0,.493-1.6,9.692,9.692,0,0,0,.4-1.98m-26.5-37.4a1.677,1.677,0,0,1-1.8.824c-.368-.047-.371-.047.426,1.122a14.62,14.62,0,0,1,1.007-1.09c.341-.364.568-.688.362-.856m0,0a4.5,4.5,0,0,1,.153-1.8,5.374,5.374,0,0,1-1.722,1.731c.407.338.553.308.72.214a.983.983,0,0,1,.849-.144m10.908,18.131a2.634,2.634,0,0,1-1.591,1.224,4.691,4.691,0,0,0-1.554.487l1.406,1.163c.409.338.641.529.333.278.365-.52.886-.916,1.23-1.375a1.613,1.613,0,0,0,.176-1.777m13.005,8.094c-1.782,2.532-1.128,2.871-.325,2.534s1.759-1.348.575-1.508c-.283,1.208-.344,1.005-.336.474s.089-1.393.086-1.5m8.705,4.314a13.156,13.156,0,0,1-2.7,2.517c-.885.682-1.521,1.186-1.214,1.44-.867,1.227-.127,1.79.637,1.708s1.564-.814.811-2.158c.61-.524,1.15-.024,1.743.311s1.241.513,2.061-.655a3.526,3.526,0,0,1-.772-1.436c-.214-.614-.394-1.28-.563-1.727m-9.4-11.267a2.665,2.665,0,0,1-.8-.1,5.085,5.085,0,0,1-.9-.478c-.911,1.3-.318,1.891.42,1.934s1.616-.457,1.276-1.355m10.327,8.334c-.2-.168-.509.147-.873.491s-.782.713-1.225.65c.108,2.148.658,1.882,1.168,1.071a8.117,8.117,0,0,0,.93-2.212m-3.218-3.48a10.1,10.1,0,0,0-1.972,1.476c-.543.6-.636,1.2.747,1.414a9.8,9.8,0,0,1,1.27-1.516c.116-.164.01-.3-.045-1.374m-10.711-10.092c-.22.429-.443.862-.654,1.307s-.409.894-.579,1.367c.616.51,1.091.288,1.334-.283a3.42,3.42,0,0,0-.1-2.391m-8.5-11.153c-.091.133-.946.2-1.522.442s-.871.661.15,1.508c.687-.972.8-.566.864-.361s.062.2.508-1.589m14.125,9.84c-.23.326-.529.64-.7.936a.578.578,0,0,0,.1.831c-1.233,1.754-.37,2.313.443,1.935s1.579-1.7.154-3.7m-2.794-1.77c-.272.387-.661-.111-.915-.321s-.537-.39-.9.125c-.146,1.571.813,2.112,2.136,1.05.473-.377,1.091-.347.273-.993-.084-.065-.482.227-.594.139m7.034,6.1a1.635,1.635,0,0,0,.308-.234,1.926,1.926,0,0,0,.161-.2c-.035-.644-.658-.391-1.094-.085s-.691.661.022.224c.307.256.191.419.193.675s.117.61.885,1.244c.457-.646.178-.827-.133-.957s-.662-.213-.342-.669m4.087,1.326c-.686.976-1.211,1.721-1.6,2.272s-.636.911-.778,1.109c-.46-.383-.416-.041-.1.17s.911.289,1.55-.62c.463.38.949-.14,1.194-.862a1.975,1.975,0,0,0-.265-2.069m-3.618-1.758a1.926,1.926,0,0,1-.161.2,1.562,1.562,0,0,1-.308.234c.663.553,1.306-.3,1.522-.921s0-1.007-1.053.489m7.84,3.811a3.329,3.329,0,0,1-1.689,2c-.541.424-.761.911.243,2.358a1.352,1.352,0,0,1,.162-.2,1.708,1.708,0,0,1,.306-.232c1.18.971,1.533.237,1.537-.864a9.7,9.7,0,0,0-.559-3.059M175.866,310.01c.227-.322.514-.159.7-.518s.368-.724.546-1.089a1.37,1.37,0,0,0-1.507.3c-.443.4-.665.553.258,1.31M160.584,293.7c-2.4,3.4-2.015,1.9-1.492,2.339.1.089.908-.358,1.009-.272-.693,1.79.329.968.683.153a2.906,2.906,0,0,0-.2-2.22M154,287.638c-.077.344-.751.607-1.2.958s-.668.779.148,1.458c.275-.389.886-.4,1.257-.607s.5-.617-.205-1.809M195.007,319.1c-.547.78-1.4,1.929-1.7,2.5s-.057.569,1.581-.953a6.1,6.1,0,0,1,.021-.723c.026-.262.06-.542.1-.824m-23.263-19.86c-.328.238-.683.511-1.049.8s-.74.592-1.117.9c.647,1.152,1.059,1.085,1.376.548a16.971,16.971,0,0,0,.79-2.246m-3.273-2.711c-.131.3-1.26,1.271-1.869,2.052s-.7,1.371,1.236.919a4.649,4.649,0,0,0,.786-1.636,1.848,1.848,0,0,0-.153-1.335m-13.939-11.941c-.041.172-.711.49-1.2.9s-.814.921-.149,1.471c.412-.585.419-.423.554-.441s.4-.215,1.309-1.513l-.218-.182c-.089-.074-.192-.158-.294-.24m32.212,26.238c-1.507,2.143-1.248,2.409-.762,2.091s1.2-1.217.6-1.4a2.114,2.114,0,0,0,.3-.477c.02-.088-.03-.127-.134-.211m-22.422-18.755a3.738,3.738,0,0,1-.65,1.44,6.193,6.193,0,0,0-.837,2.056c2.226-.522,2.082-.487,1.533-.2s-1.5.838-.889,1.346a2.128,2.128,0,0,1,1.89-.7c.209.019-.018-.119-.734-1.635.567-.459.693-.868.576-1.248a2.608,2.608,0,0,0-.889-1.067m29.757,24.2a4.311,4.311,0,0,0-.363.8,18.744,18.744,0,0,1-.963,2c.08,1.608.591,1.519.991.721a5.38,5.38,0,0,0,.335-3.528m-14.563-12.666a1.83,1.83,0,0,0-.38.714,3.377,3.377,0,0,0,.047.451c-.638.909-.241,1.033.159.724a1.3,1.3,0,0,0,.174-1.889m4.972,3.292a4.417,4.417,0,0,1-2.153,1.56c-.67.266-1.18.412-1.158.841,1.278,1.058,2.143,1.158,2.666.639a4.223,4.223,0,0,0,.645-3.04M173.12,295.439c-1.1,1.557-.487,2.477.1,2.624s1.14-.47-.064-1.978c0-.108-.012-.217-.015-.324s-.009-.216-.017-.322m-2-2.679c-1.462,2.074-2.1,2.525-2.119,2.665s.586-.029,1.608.817a5.307,5.307,0,0,0,.871-1.928,1.538,1.538,0,0,0-.36-1.554M167.2,288.9a3.513,3.513,0,0,0-.6,1.555c-.026.437.18.66.8.247-.922-.762-.379-.726.1-.744s.891-.085-.289-1.058m-2.248-1.86a21.069,21.069,0,0,0-1.63,2.373c-.392.782-.2,1.146,1.84-.142a4.46,4.46,0,0,1,.116-1.087,1.746,1.746,0,0,0-.326-1.144M154.51,278.4a5.889,5.889,0,0,1-.159.973c-.115.391-.3.6-.585-.147-.729,1.037.063,1.693.736,1.659s1.225-.762.008-2.485m42.033,32.3a5.6,5.6,0,0,1-.277,3.755c-.358,1.116-.66,1.946.081,2.048.6-.848,1.148-.544,1.525-.591s.577-.445.463-2.7c-.273.389-.591-.025-.9-.644s-.625-1.443-.888-1.87M194.7,309.18a2.015,2.015,0,0,1-1.156.84,2.441,2.441,0,0,0-1.294,1.037,2.564,2.564,0,0,0,1.843-.35,1.334,1.334,0,0,0,.607-1.527m-7.433-7.384c-.089.131-.633.5-.973.868s-.466.718.275.816c-.73,1.04-.368.926.082.4s.993-1.467.616-2.084m-3.932-4.074c-.045.066-.177.884-.363,1.524s-.433,1.1-.711.464c-.731,1.04.183,1.64.954,1.433s1.409-1.226.12-3.421M179.82,294.2c-2.854,2.673-2.608,4.165-1.884,4.63s1.919-.079.97-1.485a1.592,1.592,0,0,0,1.147-1.692,3.605,3.605,0,0,0-.233-1.453m-3.069-2.539c-.413.585-.737.471-.888.395s-.128-.1.157.644c-.961,1.364-.461,1.517.118,1.124s1.242-1.335.613-2.163m-3.071-2.541a4.06,4.06,0,0,0-.833,1.933,2.239,2.239,0,0,0,.314,1.337,6.406,6.406,0,0,0,1.123-2c.1-.487-.093-.849-.6-1.271m-12.915-11.1c-.089.13-.184.263-.286.41l-.355.5c-.938-.159-.734.473-.32.714s1.049.093.961-1.624m3.527,1.893a20.207,20.207,0,0,1-1.007,2.148,3.592,3.592,0,0,0-.314,2.721c.823-1.17,1.461-1.618,1.739-2.158s.2-1.172-.418-2.711m4.244,2.481c-.437,1.081-.548,1.3-.654,1.16a2.794,2.794,0,0,0-.613-.967c-.208,1.673.131,2.056.509,1.8a2.566,2.566,0,0,0,.758-2m2.145,1.779c-1.458,2.078-1.42,3.809-.926,4.628s1.445.735,1.807-.817c.359.3.455-.24.3-1.06a6.909,6.909,0,0,0-1.183-2.751m7.827,5.448a2.675,2.675,0,0,1-.51.064c-.389.019-1.137.821-1.155.433,0-.079.227.054.6,1.705.515-.5.943-.765,1.161-1.045s.227-.581-.1-1.157m15.568,11.236c-.567.347-.92.676-1,1.02s.11.711.622,1.133a5.9,5.9,0,0,0,.739-1.083c.076-.248-.034-.495-.36-1.07m-7.238-7.427c-.563-.466-.821.245-1.021.873s-.346,1.181-.681.393c-.925,2.006-.065,2.049.808,1.411s1.765-1.959.894-2.677m11.7,8.446c-.322.455-.7,1.222-1.1,1.791s-.82.938-1.227.6c-.916,1.3-.01,1.28.96.646s2.012-1.884,1.367-3.035m-20.91-12.159a2.2,2.2,0,0,1,.366-.032,2.675,2.675,0,0,0,.51-.064c.924.761,1.424-.416,1.524-1.39s-.214-1.74-.916-.166c-.768-.635-1.246-.359-1.478.144a1.777,1.777,0,0,0-.006,1.508m25.49,15.544c-.866,1.231-.979-.21-1.276-.764s-.782-.225-1.444,1.181c.46.379-.05,1.446-.31,2.337s-.275,1.6,1.181,1.255c.775-1.1.675-1.591.507-1.988a1.118,1.118,0,0,1,.1-1.407c.282.747.672.658.949.349s.447-.837.292-.963M179.143,287.3a9.181,9.181,0,0,0,.37-1.03c.15-.414-1.983-.306-.37,1.03m12.395,7.968c-.748.718-1.958,1.515-2.813,2.272-2.346,2.075-.03,2.2.924.474.136-.2.208.795.9.876s1.205-.361.646-2.673c.139-.193.309-.262.4-.366s.112-.242-.053-.583m-20.857-11.089c.093-.127.78-.126,1.225-.271s.652-.437-.215-1.158c1.317-1.068.51-2.454-.358-3.117s-1.795-.614-.722,1.2c-1.6,2.271-1.562,3.024-1.134,3.25s1.244-.071,1.2.1m8.12,1.579a1.285,1.285,0,0,0,.13-.332c.042-.142.082-.315.121-.485-.51-.424-.006-1.139.363-1.58s.605-.6-.441.076c-.645-1.149-1-.364-1.034.608s.244,2.13.861,1.713m-12.94-15.432a1.644,1.644,0,0,1-1.284,1.763,4.039,4.039,0,0,1-1.365.157c-.787,1.814.244,2.3,1.285,1.856a2.834,2.834,0,0,0,1.364-3.776M202.984,294.7a6.3,6.3,0,0,0,.09,1.336c.025.455-.088.617-.732-.425a.724.724,0,0,0,.664,1.218c.548-.062.984-.678-.022-2.129m-4.773.736c-.135.2-.3.423-.467.665l-.536.764c.511.423.9.441,1.1.165a1.888,1.888,0,0,0-.1-1.594m-16.355-11.273c.1.086.183.719.4.953s.581.07,1.238-1.44c-.592-.082-.916-.66-1.134-.863s-.332-.046-.508,1.35m-5.031-6.421a3.56,3.56,0,0,0-.742,2.086c.06.435.428.426,1.112-.543.615.509.442.466.206.169a1.133,1.133,0,0,1-.167-1.376l-.168-.135-.241-.2m13.613,9.413a15.171,15.171,0,0,1-2.024,3.078c-.5.742-.638,1.4.156,2.572a12.241,12.241,0,0,0,1.975-1.888,2.673,2.673,0,0,0-.107-3.762m15.646,12.74a4.178,4.178,0,0,0-.8,1.544c-.049.418.189.716.926.815.5-.713.63-1.069.554-1.363s-.355-.529-.675-1m-18.749-15.923c-1.957,1.978-2.419,2.057-2.494,2.049s.24-.112-.166,1.5c-.139.2-.58,1.115-1.071,1.842s-1.027,1.255-1.35.683c-1.324,1.881-1.439,3.019-.889,3.213s1.76-.544,3.086-2.424c.306.251.97-1.153,1.586-2.774a33.265,33.265,0,0,0,1.3-4.09m17.019,8.783a2.448,2.448,0,0,0-.309,1.155c-.034.249-.107.242-.535-.417-.5.714.033,1.105.529,1.029s.961-.619.315-1.767m-10.182-3.54a2.41,2.41,0,0,0-.214,1.625c.053.555.105,1.061-.227,1.3-.3-.256-.942-.73-1.288-.964s-1.255.769-.386,1.486c-2.1,1.956-.012,1.932,1.282,1.615s2.66-1.909.833-5.065m-19.243-15.914a18.589,18.589,0,0,0-1.348,1.913c-.265.549-.078.8,1.357.146-.285-.748-.27-.995-.2-1.192a1.439,1.439,0,0,0,.187-.867m2.962,2.238c-.184.26-.177.421-.072.561a4.073,4.073,0,0,0,.513.422c-.9,1.513-.284,2.128.194,1.934s.821-1.194-.635-2.917m-11.721-12.57c-.41.583-1.459.694-2.1,1.088s-.877,1.075.339,2.8c.6-.845,1.369-1.541,1.824-2.162s.6-1.174-.062-1.723m6.744,5.374c-.554.672-1.162,1.247-1.709,1.821a6.913,6.913,0,0,0-1.341,1.822,1.125,1.125,0,0,0,1.361.945c.572-.066.968-.456.3-1.009a20.442,20.442,0,0,0,1.213-1.668,1.822,1.822,0,0,0,.172-1.911m-4.093-3.387c-.307-.254-.366.059-.38.484a3.069,3.069,0,0,1-.123,1.155c-.819-.677-.288.119.241.485s1.071.291.262-2.124m38.218,30.591a2.19,2.19,0,0,0-.483,1.322,2.568,2.568,0,0,0,.625,1.468c.412-.59.722-.688.763-.941s-.205-.658-.9-1.849M193.73,282.485c-.958,1.365-1.378,1.841-1.59,2.257a5.712,5.712,0,0,0-.356,1.886c.869-.2,1.089-.279,1.388-.621a27.082,27.082,0,0,1,1.9-2.209,8.776,8.776,0,0,1-1.081-.764.945.945,0,0,1-.26-.549m5.144,2.815a7.918,7.918,0,0,0-2.049.776c-.38.2-.548.265-.758-.014-.763,1.429-1.022,2.085-.941,2.515s.514.627,1.129,1.133a2.414,2.414,0,0,1-.334.417.874.874,0,0,1-.421.193c.512.426,1.27-.6,1.94-1.836a28.31,28.31,0,0,0,1.434-3.184m3.046,2.111a3.488,3.488,0,0,0-.672,1.5c-.116.363-.388.807-1.6,1.963,1.486,1.225,2.422.871,2.8-.045a3.847,3.847,0,0,0-.528-3.419M190.662,278.1a11.225,11.225,0,0,1-1.027,2.235c-.283.434-.585.747-1.133,1.527,1.073.889,2,.267,2.459-.737a2.671,2.671,0,0,0-.3-3.025" fill="#f3ede2" fill-rule="evenodd"/>
    <path id="Path_4767" data-name="Path 4767" d="M231.82,87.213c-.173-.362-.2-.606.146-.618,1.028-.041,1.793.939,2.578,1.873a6.278,6.278,0,0,0-.648-.321c-.865-.389-1.542-.679-2.076-.934m5.27,2.912c.73-.22,1.361-1.216,2.062-1.68,1.275-.85.952,1.738.831,4.087-.917-.817-1.9-1.656-2.893-2.407m5.31,4.549c.987-1.206,2.054-2.91,2.914-2.659,1.145.337,1.222,3.827,2.311,3.231,1.785-.986,1.089-5.515,2.968-6.147,1.526-.52,1.82,3.464,3.318,4.032,1.37.5,3.476-2.72,4.211-1.243.9,1.819-.524,4.592-1.829,6.041-.689.754.16-2.9-.71-3.245-1.265-.5-2.549.98-3.822,1.473-2.742,1.05,1.891,2.238,4.239,3.309.558.255-2.6,1.849-2.984,2.484l-.127.224a34.721,34.721,0,0,1-3.823-2.242,1.782,1.782,0,0,0,.206-.88c-.01-.553-.34-1-1.151-.547a1.935,1.935,0,0,0-.536.389c-1.478-1.088-3.183-2.457-5.185-4.22m12.348,8.382c.477-.585,1.069-1.227,1.82-1.99,1.432-1.4.858.651,1.765,1.665.73.828.416,1.4.263,2.133-1.352-.738-2.558-1.233-3.848-1.808m7.963,4.478c-.2-1.169-.451-2.431.3-2.721,1.38-.518,2.48,1.737,3.716,2.6,1.577,1.094-.9,1.426.424,2.788.058.062.24.2.3.261,1.836,1.751,3.527.77,4.6,2.264a10.635,10.635,0,0,1-4.384-2.016c-5.369-4.983-2.147-1.332-4.955-3.181m10.09,7.357c.271,2.067-.514,3.991.466,4.273a1.553,1.553,0,0,1-.827.814c-1.871.665-5.729-.3-5.377-2.621a2.018,2.018,0,0,1,.465-1.064,5.366,5.366,0,0,0,1.563,1.078c.431.221,2.522,4.983,2.474,1.253,0-.529-.012-1.075-.018-1.613a18.17,18.17,0,0,0-.09-1.865,7.815,7.815,0,0,0,1.344-.255m5.434,5.206a15.047,15.047,0,0,0,1.711,3.561c-1.2.887-3.413.061-2.679-1.81a10.926,10.926,0,0,1,.968-1.751m2.5,4.417.116.085c1.512,1.176,4.219,1.8,5.428.15.952-1.3-1.7-2.709-2.548-4.074a.556.556,0,0,1-.08-.154,3.15,3.15,0,0,0,.118-.348c1.113-.691,8.684,1.746,7.287,3.609-.256-2.084-2.941-2.169-4.159-.049-1.471,2.591.495,3.331,2.2,2.66.869.61,2.171.618,3.137,1.1.337.164.614.3.834.421a8,8,0,0,0-.362,1.2c-.367,1.526-.743,3.039-1.1,4.554-1.376,5.632,1.13-7.332-2.716-5.99-.793.267-1.64-.716-2.212.009-.531.676-.276,1.833-.419,2.742-.237,1.6-.3.251-1.419-.89-2.707-2.735-8.756,1.17-4.837-4.133.225-.3.474-.6.731-.893m-5.032-.974c-.989,2.984-2.479,1-1.466-.351,1.828-2.433,1.55.1,1.466.351m7.787,9.023a1.114,1.114,0,0,1-1.585.826c-.359-.249-.536-.858-.185-1.948.764-2.342,2.244-1.181,1.77,1.122M206.8,54.994c1.678-.547,2.436,1.526.587,2.357-1.652.741-2.132-1.844-.587-2.357M195.16,70.857c.666.867,2.181,1.446,1.986,2.621-.26,1.6-1.5,2.628-2.518,3.789a15.763,15.763,0,0,1-3.615-3.183,28.32,28.32,0,0,1-4.6-7.3c1.6-2.475,3.65-3.08,5.134,1.625q.949,3,1.906,6c1.487,4.694-.256-6.157,1.706-3.557m36.2-34.9c.213-2.355,2.771-.941,1.852,1.2-.885,2.06-2.165,2.129-1.852-1.2m-7.845,38.8c1.193-.211,1.922.739,1.647,1.517a1.424,1.424,0,0,1-1.05.848,1.439,1.439,0,0,1-.987-.025c-.173-.211-.342-.429-.515-.645a1.368,1.368,0,0,1,.9-1.695m16.139-31.5c2.285-.189,2.588,3.162.654,2.92-2.471-.3-2.387-2.788-.654-2.92M235.748,77.7c.69.438.594,2.338-.492,1.1-1.029-1.175-.576-1.775.492-1.1m.27,4.793c-.935,1.84-1.8,1.635-2.021.493a4.474,4.474,0,0,1,.063-1.732c.389-1.835,3.3-1.38,1.958,1.239m-1.634,1.751c1.732,1.241.588,3.843-1.006,2.286-2.018-1.988-.593-3.422,1.006-2.286m3.665-8.144c.871-.859,1.525.405,1.648,1.877.117,1.349-.213,2.865-1.223,3.123-1.142.282-1.737-.479-1.8-1.568a4.673,4.673,0,0,1,1.374-3.432m3.644,17.4c-.5.122-.4-2.829-.226-3.4a2.585,2.585,0,0,1,1.654-1.756c.6-.148,1.872.2,1.665.908-.386,1.273-2,3.969-3.093,4.251M257.661,69.38a1.322,1.322,0,0,1-2.157.23c-.734-1.23-1.671-2.891-1.165-4.312,1.144-3.192.544.061,1.945,2.091.462.657,1.666,1.177,1.377,1.991m-5.251,6.95c1.141.733,1.045,2.866,1.568,4.295.321.894-1.85,1.306-1.726-1.092.047-1.064-.617-3.678.158-3.2m2.106-1.627c.218-2.355,2.772-.937,1.86,1.194-.887,2.064-2.164,2.137-1.86-1.194m10.295.969c-.876,2.328-3.164,2.38-3.852.184-.693-2.27.586-1.471,1.736-1.379,2.113.182,2.883-.849,2.116,1.195m2.516-4.579c-1.235,2.4-2.311-.343-1.644-1.367.8-1.217,2.952-1.167,1.644,1.367m-6.57,18.718c.686.431.606,2.335-.487,1.1-1.031-1.178-.585-1.78.487-1.1m1.834,9.3c-1.508-.94-1.844-.293-3.357-1.249-1.718-1.086-.028-3.812,2.379-2.644,1.68.814,2.434,4.823.978,3.893m3.015-5.608c-1.839-.374-.437-1.551-1.653-2.811-.075-.077-.246-.2-.314-.281-.557-.6-1.111-1.181-1.663-1.782-2.179-2.332,1.959-.584,4.332,2.247.917,1.089,2.267,3.227-.7,2.627m22.524,7.724c.483,2.409-2.211,3.388-2.4.925-.257-3.2,1.991-2.9,2.4-.925m-9.224-.176c1.417-3.511,6.213.117,4.534,3.553-1.8,3.689-6.071.245-4.534-3.553m-2.467,9.793c.114-1.613,5.343,1,4.336,2.746-1.332,2.287-4.534.2-4.336-2.746m4.126,10.391a1.754,1.754,0,0,1-1.3-2.46,1.815,1.815,0,0,1,.958-1.011c-.36.9.133,2.245.345,3.471M289,104.885c1.615,3-.706,10.138-2.192,5.154-.492-1.677-1.827-3.289-1.487-5.048.193-.982,1.459.991,2.183,1.486,1.556,1.041.371-3.7,1.5-1.592m.292,13.156c2.011,1.712-7.7.81-5.549-.994,4.551-3.787,1.823-2.168,5.549.994m4.216-6.752c.908.276,1.815,2.472,1.06,3.187a2.273,2.273,0,0,1-3.346-1.054c-.359-1.067,1.369-2.421,2.286-2.133m.706,18.813a.809.809,0,0,1,1.029.1c.448.643,1.01,1.589.342,1.861a.987.987,0,0,1-.484.032,8.679,8.679,0,0,1-.887-2m9.844-6.27c.732,2.031-.529,3.961-2.377,1.018-1.542-2.458,1.652-3.055,2.377-1.018m-1.966,3.386c1.478,1.167,3.93,1.442,4.452,3.5.328,1.335-2.322.273-3.476.414-.148.01-.142-.255-.307-.386-2.674-2.093-.764-3.594-.669-3.529m5.691-1.763a29.016,29.016,0,0,1,1.707-5.7,33.109,33.109,0,0,1,1.767,4.516c-.37.51-3.442,1.84-3.474,1.18M325.306,140.2c.3.2.265.864.039,1.46-.29.748-.9,1.367-1.513.684-1.04-1.19.412-2.818,1.474-2.144m-4.042-1.059c-3.642,2.844-7.719-4.15-4.247-8.2,2.746-3.21,2.264-.74,2.244,2.06-.006,2.665,7.451,1.911,2,6.142m-24.321-22.179c.61-.5,1.344.666,1.931.136a16.8,16.8,0,0,0,2.419-3.042c.6-.855,2.318-2.074,2.633-1.041.446,1.488-1.626,2.783-1.634,4.373-.008.7,1.995.235,1.606.764a17.852,17.852,0,0,1-10.289,6.766c-1.966.376-.206-3.121.553-5.365.248-.765,1.489.3,1.983-.258.861-.96-.171-1.55.8-2.333M279,131.85l-3.82-2.255c.027-.093.058-.194.085-.305.457-1.693,4.492.586,3.867,2.211l-.132.349m53,20.184q3.314,7.5,6.554,15l-5.837-3.449c-1.112-3.007-2.153-6.1-5.039-2.972l-8.637-5.106a37.034,37.034,0,0,0-7.063-4.822,5.7,5.7,0,0,0-1.882-.457l-10.168-6.009c.513-.714.782-1.582-.022-3.236-.022-1.166.208-3.15,2.915-.783.422.37.859.748,1.289,1.123,1.242,1.083,1.892.15.77-2.075-.787-1.578-1.338-3.106-3.233-1.9-.122.089-2.495.751-2.573.876-.072.1-.192.263-.325.476a28.312,28.312,0,0,0-1.323-3.552,6.261,6.261,0,0,1,.412-.865c4.584-7.965,1.3,3.744,9.3-1.159.317-.2.762-.22.952-.586a51.646,51.646,0,0,0,2.074-5c1.528-3.7.275-.274,2.364,4.954.512,1.3-4.054,6.688-1.184,4.819.883-.563,2.071-2.679,2.642-1.708.988,1.682-.01,4.154-.023,6.242,0,2.4,2.026-1.561,4.574-.714,2.72.91-2.035.383,4.476,3.731,2.468,1.27,3.2,2.769,5.488,4.467.426.32,2.062.585,2.13,1.193.228,2.073.7,2.2,1.369,1.515m-1.766-3.985.524,1.184a1.031,1.031,0,0,1-.326-.551c-.061-.211-.128-.423-.2-.633m-9.791-21.671q1.327,2.89,2.641,5.778c-1.155,1.138-2.546,1.427-2.887-.294a14.446,14.446,0,0,1-.029-4.942.823.823,0,0,1,.275-.542" fill="#ecdac6" fill-rule="evenodd"/>
  </g>
</svg>
