<svg id="Group_633" data-name="Group 633" xmlns="http://www.w3.org/2000/svg" xmlns:xlink="http://www.w3.org/1999/xlink" width="278.03" height="255.155" viewBox="0 0 278.03 255.155">
  <defs>
    <clipPath id="clip-path">
      <path id="Path_4822" data-name="Path 4822" d="M183.007,3.519,55.528,16.424,0,36.367,10.949,146.641,49.271,180.27l86.159,38.061s26.852-7.559,28.416-8.082,102.062-49.141,102.062-49.141L278.03,0Z" fill="none"/>
    </clipPath>
    <clipPath id="clip-path-2">
      <rect id="Rectangle_526" data-name="Rectangle 526" width="278.03" height="255.155" fill="none"/>
    </clipPath>
  </defs>
  <g id="Group_630" data-name="Group 630">
    <g id="Group_629" data-name="Group 629" clip-path="url(#clip-path)">
      <path id="Path_4768" data-name="Path 4768" d="M214.422,276.631a3.9,3.9,0,0,1-3.887.99,15.946,15.946,0,0,0-5.321-.44,6.955,6.955,0,0,1-4.628-.712c-1.5-.876-1.941-2.6-1.968-4.709-.03-2.277.3-4.6.5-6.876l.681-7.777q.67-7.638,1.339-15.278,2.728-31.121,5.455-62.243,2.711-30.944,5.423-61.883l2.739-31.261c.134-1.533.182-3.055.266-4.591.066-1.23.068-3.12.768-4.117.82-1.17,2.71-1.356,3.793-1.452a23.716,23.716,0,0,1,5.213.247c2.521.328,6.651-.643,7.512,3.473.649,3.1-.391,7.135-.669,10.314q-1.361,15.527-2.721,31.052l-5.421,61.848-4.239,48.372q-1.066,12.163-2.132,24.328-.507,5.785-1.014,11.571c-.153,1.753-.246,3.484-.341,5.236a5.905,5.905,0,0,1-1.346,3.907c-.126.131,1.655-1.7,0,0" transform="translate(-60.693 -23.292)" fill="#a27d56"/>
      <path id="Path_4769" data-name="Path 4769" d="M213.906,272.09a6.706,6.706,0,0,1-1.161,3.858.065.065,0,0,1-.019.031,2.777,2.777,0,0,1-2.519,1.132,4.06,4.06,0,0,1-.756-.1c-.28-.058-.56-.122-.833-.179a9.611,9.611,0,0,0-3.624-.188,4.992,4.992,0,0,1-3.871-.64,2.959,2.959,0,0,1-.884-.966,7.361,7.361,0,0,1-.7-3.669c0-2.256.311-4.567.508-6.823L215.557,87.608c.133-1.52.192-3.022.284-4.545.067-1.224.1-3.1.7-4.093.7-1.169,2.287-1.38,3.193-1.488a16.549,16.549,0,0,1,4.334.176l.041,0c2.109.291,5.587-.732,6.25,3.333.5,3.067-.425,7.075-.7,10.227L214.262,266.9c-.152,1.738-.254,3.456-.356,5.19" transform="translate(-60.976 -23.653)" fill="#caae8b"/>
      <path id="Path_4770" data-name="Path 4770" d="M208.92,270.864a7.77,7.77,0,0,1-1.026,3.858.075.075,0,0,1-.016.031,2.261,2.261,0,0,1-2.126,1.162,2.859,2.859,0,0,1-.633-.088c-.233-.053-.467-.114-.694-.165a8.173,8.173,0,0,0-2.3-.243,8.412,8.412,0,0,1-.533-3.646c.033-2.247.324-4.553.521-6.8L217.575,88.527c.133-1.516.2-3.012.3-4.531a12.139,12.139,0,0,1,.644-4.086,3.378,3.378,0,0,1,2.7-1.527,11.636,11.636,0,0,1,3.628.115,4.979,4.979,0,0,1,.531,1.809c.38,3.047-.455,7.052-.731,10.2L209.292,265.689c-.152,1.734-.26,3.446-.372,5.175" transform="translate(-61.601 -23.922)" fill="#d7c3a8"/>
      <path id="Path_4771" data-name="Path 4771" d="M214.214,338.931c-.117-.9-.327-1.845-.458-2.769-.226-1.519-.212-3.074-.337-4.616a24.077,24.077,0,0,0-.659-2.7,27.627,27.627,0,0,1-.237-3.442c-.074-1.2-.131-2.407-.154-3.622-.045-2.18.334-4.289.444-6.47a7.283,7.283,0,0,1,.13-1.024,12.486,12.486,0,0,0,.008-1.571,9.079,9.079,0,0,0-1,1.892c-.624,2.185-.974,4.51-1.558,6.714L208.4,344.075a8.7,8.7,0,0,0,.209-1.448,6.471,6.471,0,0,1,.11-.977c.242-1.281.117-.869.441-2.339a20.069,20.069,0,0,0,.376-3.551,29.107,29.107,0,0,1,.56-4.155,8.857,8.857,0,0,0,.206-1.6,9.864,9.864,0,0,1,.321-1.8,7,7,0,0,1,.72-2.551c.126.149.009.644.014.865.014.4.006.766,0,1.157a8.867,8.867,0,0,0,.131,1.754c.038.224.109.433.147.649a3.743,3.743,0,0,1-.03.9c-.031.534-.013,1.065-.051,1.592a14.282,14.282,0,0,0,.179,2.7c.09.651.517.974.665,1.605a9.47,9.47,0,0,1-.006,2.957c-.117,1.333.325,2.611.123,3.994a38.194,38.194,0,0,1-1.051,4.461c-.046.151-.082.294-.137.444.273.057.552.122.832.179a4.078,4.078,0,0,0,.757.1c.147-.378.3-.765.435-1.151a18.272,18.272,0,0,0,.864-8.934" transform="translate(-63.684 -95.559)" fill="#d7c3a8"/>
      <path id="Path_4772" data-name="Path 4772" d="M227.6,204.51a9.115,9.115,0,0,0-.652-2.037,12.609,12.609,0,0,0-.266,1.55,7.281,7.281,0,0,1-.05,1.03c-.271,2.167-.263,4.31-.687,6.448-.235,1.193-.5,2.367-.783,3.539a27.7,27.7,0,0,1-.831,3.349,23.848,23.848,0,0,0-1.119,2.549c-.392,1.5-.649,3.03-1.135,4.487-.29.887-.662,1.783-.933,2.648a18.269,18.269,0,0,0-.7,8.947c.327,1.846.723,3.648,1.058,5.494.32,1.74.8,3.378,1.168,5.072a33.345,33.345,0,0,0,1.042,3.544,15.447,15.447,0,0,1,.571,2.323l.4-4.608c0-.065-.013-.131-.015-.2-.044-.526-.224-.973-.276-1.5a9.616,9.616,0,0,0-.537-3.085c-.19-.433-.41-.794-.61-1.21a12.153,12.153,0,0,1-.576-2.633,21.1,21.1,0,0,1-.445-2.451,38.044,38.044,0,0,1-.258-4.576c.041-1.4.7-2.578.815-3.912a9.49,9.49,0,0,1,.508-2.912c.256-.6.733-.84.935-1.467a14.318,14.318,0,0,0,.646-2.631c.053-.525.165-1.044.228-1.576a3.673,3.673,0,0,1,.127-.894c.075-.2.181-.4.257-.612a8.835,8.835,0,0,0,.435-1.706c.058-.385.115-.747.2-1.14.044-.216.015-.724.165-.849a7,7,0,0,1,.266,2.638,9.8,9.8,0,0,1,0,1.833,8.856,8.856,0,0,0-.075,1.606,28.893,28.893,0,0,1-.172,4.188,20.149,20.149,0,0,0-.247,3.563c.064,1.5.012,1.076.028,2.38a6.73,6.73,0,0,1-.061.981,8.568,8.568,0,0,0-.047,1.462l1.994-22.755c-.192-2.274-.133-4.623-.367-6.883" transform="translate(-67.28 -61.872)" fill="#c3a47f"/>
      <path id="Path_4773" data-name="Path 4773" d="M237.988,83.064a9.113,9.113,0,0,0-.652-2.037,12.619,12.619,0,0,0-.266,1.55,7.267,7.267,0,0,1-.05,1.029c-.271,2.168-.263,4.311-.687,6.449-.235,1.193-.5,2.367-.783,3.539a27.687,27.687,0,0,1-.831,3.348,23.845,23.845,0,0,0-1.119,2.549c-.392,1.5-.649,3.031-1.135,4.487-.29.887-.662,1.783-.933,2.648a18.271,18.271,0,0,0-.7,8.948c.327,1.846.723,3.648,1.058,5.494.32,1.739.8,3.377,1.168,5.071a33.358,33.358,0,0,0,1.042,3.545,15.434,15.434,0,0,1,.571,2.322l.4-4.607c0-.065-.013-.131-.015-.2-.044-.526-.224-.972-.276-1.5a9.619,9.619,0,0,0-.537-3.085c-.19-.433-.41-.794-.61-1.21a12.234,12.234,0,0,1-.576-2.633,21.08,21.08,0,0,1-.445-2.45,38.209,38.209,0,0,1-.258-4.577c.041-1.4.7-2.578.815-3.912a9.495,9.495,0,0,1,.508-2.912c.256-.6.733-.84.935-1.466a14.378,14.378,0,0,0,.646-2.632c.053-.525.165-1.044.228-1.576a3.666,3.666,0,0,1,.127-.893c.075-.206.181-.4.257-.612a8.813,8.813,0,0,0,.435-1.705c.058-.385.115-.747.2-1.14.044-.216.015-.724.165-.849a6.994,6.994,0,0,1,.266,2.638,9.79,9.79,0,0,1,0,1.833,8.856,8.856,0,0,0-.075,1.606,28.885,28.885,0,0,1-.172,4.188,20.156,20.156,0,0,0-.247,3.563c.064,1.5.012,1.076.028,2.381a6.735,6.735,0,0,1-.061.98,8.571,8.571,0,0,0-.047,1.462l1.994-22.755c-.192-2.274-.133-4.623-.367-6.883" transform="translate(-70.455 -24.76)" fill="#d7c3a8"/>
      <path id="Path_4774" data-name="Path 4774" d="M208.823,234.134c.833-10.557-.079-21.242.669-31.818.8-11.285,3.237-22.458,4.1-33.753s.142-22.7,1.1-33.983c.653-7.648,2.612-15.293,2.978-23.048.144-3.051.04-6.119-.092-9.185a3.754,3.754,0,0,1-1.81.357c0,3.2,1.106,6.493.937,9.759-.215,4.142-2.246,8.1-2.731,12.187s.572,8.363.078,12.47c-.945,7.862-3.027,15.64-3.4,23.547-.374,7.933.967,15.957.392,23.82-.487,6.661-2.63,13.212-3.176,19.89s.506,13.468-.064,20.131c-.255,4.476-2.175,8.852-2.5,13.341s.933,9.112.568,13.575c-.422,5.152-2.443,10.173-2.842,15.321s.827,10.35.427,15.5c.441-2.735.849-5.364,1.238-8.14.385-2.742-.866-5.714-.534-8.5,1.255-10.541,3.83-20.924,4.662-31.473" transform="translate(-62.017 -31.276)" fill="#e6dac9"/>
      <path id="Path_4775" data-name="Path 4775" d="M217.16,187.557c.833-10.557-.079-21.242.669-31.818.8-11.285,3.237-22.458,4.1-33.752s.142-22.7,1.1-33.983c.122-1.42.3-2.839.49-4.26a41.846,41.846,0,0,1-.951-4.612,7.578,7.578,0,0,0-.374,1.289c-.01,3.36.6,6.8.2,10.125-.945,7.862-3.027,15.64-3.4,23.547-.374,7.933.967,15.956.392,23.819-.487,6.661-2.63,13.212-3.176,19.89s.506,13.468-.064,20.131c-.255,4.476-2.175,8.853-2.5,13.341s.933,9.112.567,13.575c-.421,5.151-2.442,10.172-2.842,15.32s.826,10.35.426,15.5c.441-2.734.85-5.364,1.239-8.141.384-2.742-.866-5.714-.534-8.5,1.255-10.54,3.829-20.923,4.662-31.473" transform="translate(-64.565 -24.181)" fill="#d1b899"/>
      <path id="Path_4776" data-name="Path 4776" d="M229.152,216.911a14.3,14.3,0,0,1-.226,3.491,23.165,23.165,0,0,0-.085,4.035c.026,2.593-.755,5.138-1.035,7.692-.237,2.165-.414,4.345-.583,6.521-.22,1.45-.367,2.921-.494,4.375-.149,1.68-.321,3.355-.486,5.032a26.146,26.146,0,0,1-.165-2.738,84.055,84.055,0,0,1,.837-10.329c.424-3.667.817-7.34,1.1-11.023.2-2.493.928-5,1.042-7.51a1.989,1.989,0,0,1,.092.454" transform="translate(-69.085 -66.145)" fill="#dfceb8"/>
      <path id="Path_4777" data-name="Path 4777" d="M215.968,265.8a14.3,14.3,0,0,1-.226,3.491,23.165,23.165,0,0,0-.085,4.035c.026,2.592-.755,5.138-1.035,7.691-.237,2.165-.414,4.345-.583,6.521-.22,1.45-.367,2.921-.494,4.375-.149,1.68-.321,3.356-.486,5.032a26.13,26.13,0,0,1-.165-2.738,84.058,84.058,0,0,1,.837-10.329c.424-3.667.817-7.34,1.1-11.023.2-2.493.928-5,1.042-7.509a1.989,1.989,0,0,1,.092.454" transform="translate(-65.056 -81.085)" fill="#c3a47f"/>
      <path id="Path_4778" data-name="Path 4778" d="M224.636,90.364a14.3,14.3,0,0,1-.226,3.491,23.163,23.163,0,0,0-.085,4.035c.026,2.592-.755,5.138-1.035,7.691-.237,2.165-.414,4.346-.583,6.521-.22,1.45-.367,2.921-.494,4.375-.149,1.68-.321,3.356-.486,5.032a26.13,26.13,0,0,1-.165-2.738,84.059,84.059,0,0,1,.837-10.329c.424-3.667.817-7.34,1.1-11.023.2-2.492.928-5,1.042-7.509a1.989,1.989,0,0,1,.092.454" transform="translate(-67.705 -27.475)" fill="#c3a47f"/>
      <path id="Path_4779" data-name="Path 4779" d="M221.088,299.071q-.1,1.616-.354,3.218l-.072,0a16.769,16.769,0,0,0-.992-4.6q.016-1.232.06-2.466c1.018-5.193,2.677-10.34,3.286-15.6a5.4,5.4,0,0,1,.126,1.126,37.213,37.213,0,0,1-1.136,8.485c-.747,3.224-.709,6.538-.918,9.842" transform="translate(-67.127 -85.446)" fill="#bc9a72"/>
      <path id="Path_4780" data-name="Path 4780" d="M223.12,212.175q-.1,1.616-.354,3.218l-.072,0a16.776,16.776,0,0,0-.992-4.6q.016-1.232.06-2.466c1.018-5.193,2.677-10.34,3.286-15.6a5.4,5.4,0,0,1,.126,1.126,37.17,37.17,0,0,1-1.136,8.485c-.747,3.224-.709,6.538-.918,9.842" transform="translate(-67.748 -58.892)" fill="#bc9a72"/>
      <path id="Path_4781" data-name="Path 4781" d="M223.789,241.173a14.331,14.331,0,0,1-.226,3.491,23.157,23.157,0,0,0-.085,4.035c.026,2.592-.756,5.138-1.035,7.691-.237,2.165-.414,4.346-.584,6.521-.219,1.45-.366,2.921-.493,4.375-.149,1.68-.322,3.356-.486,5.032a25.937,25.937,0,0,1-.165-2.738,83.921,83.921,0,0,1,.837-10.329c.424-3.667.817-7.34,1.1-11.023.2-2.492.928-5,1.042-7.509a2.029,2.029,0,0,1,.092.454" transform="translate(-67.446 -73.559)" fill="#bc9a72"/>
      <path id="Path_4782" data-name="Path 4782" d="M229.269,111.339a14.311,14.311,0,0,1,.051-3.5,23.178,23.178,0,0,0-.119-4.034c-.156-2.588.5-5.17.646-7.734.128-2.174.2-4.361.256-6.542.147-1.46.219-2.936.273-4.394.063-1.685.151-3.368.231-5.051a25.881,25.881,0,0,1,.3,2.727,83.855,83.855,0,0,1-.315,10.357c-.239,3.684-.447,7.372-.549,11.066-.069,2.5-.676,5.044-.662,7.553a2.042,2.042,0,0,1-.115-.449" transform="translate(-70.032 -24.473)" fill="#bc9a72"/>
      <path id="Path_4783" data-name="Path 4783" d="M239.538,88.566a14.3,14.3,0,0,1-.226,3.491,23.157,23.157,0,0,0-.085,4.035c.026,2.592-.755,5.138-1.035,7.691-.237,2.165-.414,4.346-.583,6.521-.22,1.45-.367,2.921-.494,4.375-.149,1.68-.321,3.356-.486,5.032a26.134,26.134,0,0,1-.165-2.738,84.058,84.058,0,0,1,.837-10.329c.424-3.667.817-7.34,1.1-11.023.2-2.492.928-5,1.042-7.509a1.989,1.989,0,0,1,.092.454" transform="translate(-72.258 -26.925)" fill="#dfceb8"/>
      <path id="Path_4784" data-name="Path 4784" d="M211.468,278.142A7.333,7.333,0,0,1,210.1,278l-.272-.052a14.54,14.54,0,0,0-4.821-.382,7.628,7.628,0,0,1-5.076-.8c-2.028-1.183-2.291-3.592-2.313-5.3a46.106,46.106,0,0,1,.329-5.192c.06-.587.119-1.171.17-1.753L213.755,86.077c.093-1.069.146-2.158.2-3.212.022-.451.043-.9.068-1.357l.021-.437a8.035,8.035,0,0,1,.872-4.042c1.02-1.455,3.236-1.651,4.3-1.744a24.473,24.473,0,0,1,5.364.25,16.207,16.207,0,0,0,1.64.088c2.39.051,5.665.122,6.462,3.932.485,2.321.092,5.01-.287,7.611-.15,1.029-.292,2-.372,2.905L216.494,267.243c-.147,1.678-.236,3.3-.33,5.023l-.01.191a8.664,8.664,0,0,1-.588,2.9l.238.231-.483.5c-.159.165-.3.31-.424.434l-.285.292a4.181,4.181,0,0,1-3.144,1.332m-5.276-2.049a20.674,20.674,0,0,1,3.9.488l.27.051a3.189,3.189,0,0,0,3.258-.79l0,0,.008-.008a5.2,5.2,0,0,0,1.142-3.452l.01-.19c.09-1.655.184-3.368.333-5.068L230.637,89.95c.083-.944.227-1.935.381-2.985.362-2.48.737-5.046.3-7.126-.532-2.54-2.378-2.769-5.133-2.828a17.091,17.091,0,0,1-1.79-.1,23.2,23.2,0,0,0-5.062-.244c-.857.076-2.637.233-3.287,1.159a7.386,7.386,0,0,0-.621,3.306l-.021.449c-.026.451-.047.9-.068,1.349-.051,1.067-.1,2.17-.2,3.267L199.5,264.64c-.051.587-.111,1.178-.172,1.771a45.055,45.055,0,0,0-.322,5.035c.028,2.21.529,3.479,1.624,4.118a6.221,6.221,0,0,0,4.18.624,9.746,9.746,0,0,1,1.381-.1" transform="translate(-60.387 -22.987)"/>
      <path id="Path_4785" data-name="Path 4785" d="M210.153,277.508c-.1,0-.2,0-.3-.01a4.636,4.636,0,0,1-.856-.113l-.826-.178a9,9,0,0,0-3.361-.184,5.644,5.644,0,0,1-4.382-.748,3.691,3.691,0,0,1-1.1-1.19,7.886,7.886,0,0,1-.792-4.025c0-1.7.175-3.439.342-5.12.058-.589.117-1.176.168-1.76L214.559,87.242c.091-1.037.149-2.09.2-3.109.026-.471.051-.943.081-1.417l.018-.359a9.4,9.4,0,0,1,.78-4.049c.884-1.483,2.791-1.71,3.707-1.82a17.279,17.279,0,0,1,4.511.178,11.469,11.469,0,0,0,1.392.066c1.94.017,4.869.041,5.489,3.848a26.511,26.511,0,0,1-.343,7.51c-.14,1.023-.273,1.989-.351,2.889l-15.4,175.677c-.154,1.762-.256,3.495-.355,5.171h0a7.762,7.762,0,0,1-1.18,4.078l-.006.076-.178.167a3.441,3.441,0,0,1-2.777,1.362m-4.27-1.966a13.213,13.213,0,0,1,2.564.3l.837.18a3.477,3.477,0,0,0,.635.085,2.065,2.065,0,0,0,1.847-.739v0l.136-.167a5.939,5.939,0,0,0,1.006-3.459c.1-1.685.2-3.428.358-5.209l15.4-175.678c.082-.933.217-1.916.359-2.956a25.566,25.566,0,0,0,.349-7.1c-.433-2.652-2.146-2.667-4.13-2.683a12.2,12.2,0,0,1-1.528-.075,16.227,16.227,0,0,0-4.2-.178c-.751.09-2.146.256-2.681,1.154a8.782,8.782,0,0,0-.585,3.4l-.019.371c-.028.476-.053.944-.079,1.412-.056,1.031-.114,2.1-.206,3.155L200.436,264.3c-.052.589-.111,1.181-.17,1.776-.164,1.647-.334,3.351-.335,4.986a6.645,6.645,0,0,0,.6,3.32,2.261,2.261,0,0,0,.676.742,4.274,4.274,0,0,0,3.351.531,7.4,7.4,0,0,1,1.321-.115" transform="translate(-60.671 -23.347)"/>
      <path id="Path_4786" data-name="Path 4786" d="M270.6,121.116a1.37,1.37,0,0,0-.3-.187c-.393-.176-.759-.451-1.15-.642-.412-.2-.833-.379-1.257-.545-.835-.326-1.684-.6-2.518-.931a32.146,32.146,0,0,1-5.607-2.567c3.594-1.084,8.764,0,11.343-3.545a4.813,4.813,0,0,0,.7-3.49,7.079,7.079,0,0,1,.024-1.928,8.5,8.5,0,0,0,.381-2.244c-.1-1.421-1.448-1.964-2.547-2.08a12.307,12.307,0,0,0-3.548.072c-2.623.445-5.276-.376-7.91-.492-3.083-.137-6.189-.312-9.27-.369a74.291,74.291,0,0,0-9.707.249,21.98,21.98,0,0,1-6.957-.481,62.5,62.5,0,0,0-7.844-1.346c-3.26-.25-6.533-.351-9.793-.341-13.356.041-26.676-.776-40.028-1.54-2.664-.153-5.364-.143-8.015-.53-1.143-.167-2.279-.417-3.424-.562-1.525-.192-3.067-.112-4.595-.174-3.134-.126-6.2-.381-9.329-.7-3.231-.326-24.842,1.294-28.078,1.146-2.819-.128,12.748-1.629,9.93-1.8a15.7,15.7,0,0,0-3.83.176c-.716.135-1.481-.024-2.214.062-.844.068-1.678.143-2.521.251a4.771,4.771,0,0,0-3.281,1.4,9.182,9.182,0,0,0-1.536,3.339c-.765,2.521-.338,5.6-.262,8.238.031,1.062.052,2.128.117,3.19.04.66,5.544,1.026,6.229,1.074,10.249.72,2.466-.817,12.541,2.646-6.453,1.445,5.331.764-1.274.99-3.3.113-6.6.137-9.9.139-1.593,0-3.186.007-4.78-.008-.343,0-1.014-.143-1.258.134-.08.026-.082.161-.187.168a3.467,3.467,0,0,0-.9.146c-.6-.008-.45,1.174-.477,1.641-.212,3.576-.227,7.168-.417,10.746a10.885,10.885,0,0,1-.217,2.31c4.662,1.483,9.6.33,14.249,1.874a67.108,67.108,0,0,1-7.193.75q-.808.04-1.619.061c.063.024-.083.008-.019.038-.086,0-.05.051-.135.053-.066,0-.1.077-.159.1a1.155,1.155,0,0,1-.182.033,1.634,1.634,0,0,0-.387.176.648.648,0,0,0-.285.479c0,.181.221.249.35.278a.863.863,0,0,1,.278.116c.153.088.3.1.451.18.1.051.2.106.306.158.065.033.211.144.28.137-1.565.14-3.321-.152-4.744.594-.558.292-1.075.389-1.105,1.14s-.046,1.48-.055,2.222c-.019,1.621,0,3.244-.03,4.866-.024,1.474-.081,2.949-.227,4.411-.083.829-.711,2.473.026,3.124.524.463,1.6.422,2.231.506,1.4.183,2.8.107,4.2.228-1.43.019-3.174-.21-4.387.673-.208.147-.386.346-.6.491a5.786,5.786,0,0,0-.729.6c-.949.937-.654,3.031-.532,4.28a18.364,18.364,0,0,0,.534,4.5c.961,2.6,4.292,3.051,6.464,3.06,3.035.014,6.035-.626,9.068-.717a171.123,171.123,0,0,1,20.39.978c6.783.612,13.567,1.356,20.364,1.542,6.826.187,13.654-.092,20.479-.05,6.809.041,13.614.4,20.424.609,6.745.211,13.464.4,20.2,1.092,3.306.341,6.616.456,9.925.749,1.566.14,3.161.2,4.717.469,1.721.3,3.386.906,5.1,1.241a19.59,19.59,0,0,0,4.721.269,20.224,20.224,0,0,1,4.429-.177,23.128,23.128,0,0,0,3.281.616,3.144,3.144,0,0,0,2.767-1.663c1.479-2.069,2.192-5.57.022-7.478-.233-.22-.451-.483-.7-.682a2.831,2.831,0,0,0-2.518-.459,38.873,38.873,0,0,1-4.553.151,3.813,3.813,0,0,0-1.66.656,3.379,3.379,0,0,1-1.825.167c.534-.733,1.765-.769,2.558-.831.864-.067,1.7-.608.837-1.592a9.793,9.793,0,0,0-.7-.71,3.626,3.626,0,0,0-1.815-1.29,12.591,12.591,0,0,0-2.822-.224,43.17,43.17,0,0,1-4.553-.356c1.886-.031,3.764-.182,5.652-.189,1.955-.008,3.9.183,5.852.258,1.875.072,3.61-.473,5.454-.594.464-.031,1.265.1,1.619-.3.386-.437.376-1.528.479-2.109a26.656,26.656,0,0,0-.058-5.486,9.525,9.525,0,0,0-.693-3.719,3.088,3.088,0,0,0-1-1.246c-.262-.18-.6-.21-.808-.46-1.237-1.479-2.978-.769-4.55-1.025a4.189,4.189,0,0,0,1.444-.388c.511-.155,1.047-.28,1.551-.449.647-.219-.512-1.276-.812-1.326-2.788-.455-5.623-.583-8.427-.783,3.15-.228,6.325-.378,9.466-.7a5.468,5.468,0,0,0,3.423-1.247A5.717,5.717,0,0,0,272,137c.319-2.712-.115-5.447.353-8.146a15,15,0,0,0,.251-3.3,5.984,5.984,0,0,0-1.779-4.247c-.081-.073-.154-.138-.228-.2" transform="translate(-35.559 -29.354)" fill="#835f41" fill-rule="evenodd"/>
      <path id="Path_4787" data-name="Path 4787" d="M271.815,125.335l0,.146a12.582,12.582,0,0,1-.092,1.4c-.068.628-.165,1.249-.283,1.843a15.661,15.661,0,0,0-.161,3.138c.011.86.035,1.76.024,2.636l-.009.145a9.8,9.8,0,0,1-.565,3.476,4.085,4.085,0,0,1-.877,1.369c-1.47,1.479-4.6,1.233-6.47,1.42-2.816.272-5.644.429-8.457.661q-1.233.1-2.467.223c.812.1,1.646.192,2.5.273,3.982.367,8.271.5,12.221,1.123-1.855.455-3.627,1.287-5.752,1.365.977-.035,2.321.637,3.348.759a18.526,18.526,0,0,1,3.217.137,3.4,3.4,0,0,1,2,2.8,11.335,11.335,0,0,1,.222,1.64c.037.577.051,1.129.053,1.591,0,.373.027.731.044,1.089l.006.09a21.1,21.1,0,0,1,.1,2.251c0,.081,0,.162-.01.242a7.722,7.722,0,0,1-.187,1.256c-.109.416-.1,1.333-.385,1.66-.308.342-1.32.237-1.787.312a32.659,32.659,0,0,1-4.026.571c-1.369.04-2.787-.14-4.162-.206-1.678-.079-3.269-.066-4.875-.012-.91.029-1.828.075-2.776.127-3.31.192-6.737-.749-10.025-.451-.621,1.551,3.467,1.308,4.228,1.344a40.8,40.8,0,0,1,5.161.228,27.3,27.3,0,0,0,2.984.361c.835.072,1.67.111,2.5.151,1.116.053,4.227-.2,4.588,1.564.208,1-1.01.86-1.789.961-.7.1-2.685.513-1.746,1.7.436.556,2.035.519,2.621.36.453-.116.828-.52,1.289-.66a7.656,7.656,0,0,1,1.828-.076,25.319,25.319,0,0,1,2.628-.118,11.948,11.948,0,0,1,2.362-.124c1.992.4,1.61,4.057,1.131,5.518a8.811,8.811,0,0,1-1.151,1.924c-.09.126-.181.235-.256.337-1.679,2.223-4.6.138-6.759.352a24.086,24.086,0,0,1-8.49-.184,33.716,33.716,0,0,0-5.385-1.2c-2.549-.21-5.149-.5-7.692-.608-4.207-.167-8.371-.86-12.585-1.06-6.913-.328-13.792-.419-20.7-.747-9.419-.447-18.758-.3-28.169-.21-3.618.039-7.233-.133-10.848-.393-3-.215-5.993-.5-8.985-.776h-.008c-4.573-.428-9.14-.863-13.709-1.081a101.116,101.116,0,0,0-13.219-.108c-3.451.29-7.43,1.31-10.713-.5l-.132-.071c-1.447-.8-1.9-2.239-1.938-3.894,0-.187-.01-.365-.015-.56-.055-.854-.176-1.735-.238-2.622a11.03,11.03,0,0,1-.016-1.558,7.717,7.717,0,0,1,.115-.846c.332-1.581,1.4-1.441,2.639-1.512a33.526,33.526,0,0,1,3.752-.057,29.13,29.13,0,0,0,3.9-.342,6,6,0,0,0-1.894-.52,23.162,23.162,0,0,0-2.57-.34c-1.4-.1-2.855-.022-4.228-.258a4.878,4.878,0,0,1-1.815-.435c-.57-.506-.319-1.053-.215-1.616l.031-.152c.172-1.192.262-2.387.322-3.585.02-.4.033-.817.039-1.222s.018-.785.023-1.174c.008-.527.007-1.037.014-1.564,0-.73,0-1.46.008-2.2.006-1.021.02-2.05.063-3.085l.01-.186c.075-.078.15-.147.217-.225.1,0,.215,0,.318.007,2.33.029,4.555-.351,6.849-.421a7.555,7.555,0,0,1-1.237-.432c-.956-.41-1.88-.949-2.271-1.1a67.427,67.427,0,0,0,7.3-.585c1.252-.168,2.505-.376,3.751-.617-4.707-2.072-10.207-.7-15.024-2.237a13.377,13.377,0,0,0,.189-1.945c.028-.452.05-.962.079-1.5l0-.146c.033-.769.058-1.6.092-2.46.04-1.344.081-2.736.128-3.991.022-.5.043-.987.064-1.432a11.787,11.787,0,0,1,.261-2.906c12.413.006,6.167,1.539,18.339-1.394-11.55-4.221-6.77-.692-18.514-3.721-.008,0-.013-.2-.03-.528s-.034-.772-.056-1.308c-.019-.787-.051-1.754-.074-2.752-.01-.333-.013-.674-.024-1.007-.021-1.176-.035-2.336-.023-3.235a9.189,9.189,0,0,1,.1-1.69l.038-.128c.565-1.871,1.144-4.137,2.974-4.877a12.8,12.8,0,0,1,2.944-.566,7.741,7.741,0,0,1,2.072-.048,12.908,12.908,0,0,0,2.549-.284,25.834,25.834,0,0,1,3.26.171,115.681,115.681,0,0,0,12.327.4,33.491,33.491,0,0,1,6.667.447c2.34.346,4.768.283,7.118.394a41.513,41.513,0,0,1,4.591.2,43.823,43.823,0,0,0,4.962.722c6.639.315,13.268.767,19.915,1.148l.037,0c1.959.109,3.925.219,5.891.312,4.607.219,9.2.307,13.793.4,3.771.081,7.518-.1,11.288.081,1.3.062,2.61.108,3.911.186h.015a33.922,33.922,0,0,1,5.391.661c.656.145,1.328.29,1.992.427l.036.01c1.586.343,3.187.678,4.737.9a12.432,12.432,0,0,0,2.856-.01l.1,0c.637-.067,1.245-.152,1.874-.2,2.355-.156,4.706-.052,7.067-.135s4.747.176,7.105.289c.178.008.356.017.54.017,1.523.048,3.108-.015,4.621.162l.044,0c.185.017.34.04.517.073a43.178,43.178,0,0,0,4.337.458c1.826.094,4.539-1.349,5.945.736a2.229,2.229,0,0,1,.228,1.705c-.1.579-.3,1.161-.356,1.661-.164,1.24.374,3.026-.159,4.176-.93,2-2.783,2.835-4.86,3.28h-.008c-1.936.41-4.068.48-5.8.819a9.772,9.772,0,0,0-.966.238,32.431,32.431,0,0,0,4.036,1.935c1.119.45,2.237.868,3.341,1.318h.007c.824.331,1.634.678,2.428,1.064a4.736,4.736,0,0,1,2.618,3.343,8.749,8.749,0,0,1,.2,1.9" transform="translate(-36.211 -29.339)" fill="#caae8b" fill-rule="evenodd"/>
      <path id="Path_4788" data-name="Path 4788" d="M258.292,116.194c-.735-.359-1.478-.678-2.236-.982h-.008c-1.022-.422-2.053-.8-3.09-1.217a31.393,31.393,0,0,1-3.72-1.79,7.936,7.936,0,0,1,.891-.217c1.6-.313,3.571-.381,5.352-.759h.007c1.922-.411,3.634-1.181,4.5-3.03.428-.934.1-2.308.119-3.4-28.584,3.281-56.424-5.154-85.569-1.475l-.468.059c-3.07.583-6.884-.579-10.186.3-.254.067-.5.147-.759.237-4.55,2.2-9.714,1.144-14.172,2.553,2.946.951-13.252,4.768-9.968,5.36.289.093.587.185.887.278a14,14,0,0,1,4.276,1.869,5.668,5.668,0,0,1,.612.492,3.364,3.364,0,0,1,1.185,2.609,3.191,3.191,0,0,1-.2.465,1.681,1.681,0,0,1-.526.632c-3.481,2.1-7.526,3.555-11.21,5.1l-.738.311c-1.56,1.521,14.639.577,12.52.72-.3.02-.6.037-.9.052-3.587.392-7.283.216-11,1.661.718,1.656,3.686.985,4.655,3.823a4.713,4.713,0,0,1-.541.387,14.634,14.634,0,0,1-3.451,1.5c2.185,2.536,5.893,1.9,7.022,4.908.042.181.083.365.126.551a23.285,23.285,0,0,0,.683,2.353c.085.247.176.5.271.753-.089.733-.1,1.544.64,1.578-2.862.646-7.059-1.787-9.4,2.3-.086.152-.173.312-.272.481,1.5.071,2.237.106,2.965.951-.634,1.321-2.794,1.444-3.08,2.405a1.027,1.027,0,0,0,.075.7c1.472.881,3.69.985,4.419,1.83,1.446,2.5-4.457,1.41-2.989,2.291a13.137,13.137,0,0,0,2.878,1.54q.374.145.753.269c3.729.972,7.4,2.768,10.361,2.908,11.136-.234,22.9,1.713,34.488,1.273.251,0,.431,0,.623,0,20.317,2.98,40.3,2.308,61.292,5.639.262.035.524.061.785.081a31.02,31.02,0,0,0,5.464-.215c2-.2,4.689,1.73,6.241-.32.076-.093.158-.2.241-.312a10.871,10.871,0,0,0,.907-1.408,27.306,27.306,0,0,1-2.984-.36,40.8,40.8,0,0,0-5.161-.229c-.761-.036-4.848.208-4.228-1.343,3.288-.3,6.716.643,10.025.451.948-.053,1.866-.1,2.776-.128.206-1.546.085-3.571-1.316-3.857a11.431,11.431,0,0,0-2.184.115,24.1,24.1,0,0,0-2.428.111,7.417,7.417,0,0,0-1.688.067c-.423.133-.768.506-1.184.608-.542.153-2.022.188-2.422-.326-.865-1.1.967-1.487,1.612-1.569.719-.1,1.842.031,1.654-.894-.333-1.621-3.206-1.392-4.242-1.442a40.041,40.041,0,0,1-5.061-.467,37.415,37.415,0,0,0-4.762-.217c-.7-.033-4.478.192-3.9-1.24,3.037-.278,6.2.594,9.257.415a67.5,67.5,0,0,1,7.059-.1c1.271.06,2.586.228,3.844.19a29.489,29.489,0,0,0,3.721-.528c.43-.069,1.36.024,1.646-.287.262-.3.26-1.147.353-1.532a7.328,7.328,0,0,0,.178-1.159c.008-.081.009-.153.01-.226.017-.688-.048-1.372-.1-2.08,0-.024-.006-.049-.006-.081-.017-.333-.035-.658-.038-1.007s-.012-.738-.035-1.161c-.85-.081-1.685-.169-2.5-.272q1.233-.124,2.467-.224a8.912,8.912,0,0,0-.19-1.322,3.148,3.148,0,0,0-1.851-2.594,18.342,18.342,0,0,0-2.973-.125,26.38,26.38,0,0,0-3.089-.7c1.961-.069,3.6-.843,5.313-1.265-4.421-.7-9.3-.725-13.587-1.285,3.349-.344,6.724-.492,10.087-.818,1.726-.169,4.616.057,5.973-1.305a3.872,3.872,0,0,0,.809-1.267,9.011,9.011,0,0,0,.517-3.211.838.838,0,0,0,.009-.138c.01-.8-.008-1.637-.019-2.433a6.83,6.83,0,0,1,.015-.784c.744-2.31,5.9-.443,4.462-3.754.022-1.621-3.685-.986-4.339-3.861-.091-.21-.179-.408-.281-.6a4.249,4.249,0,0,0-1.967-1.861" transform="translate(-40.693 -31.284)" fill="#d1b899" fill-rule="evenodd"/>
      <path id="Path_4789" data-name="Path 4789" d="M173.961,112.167c-25.086-4.643-33.241-3.609-21.9-1.915-10.579-1.588-21.208-2.863-31.838-4.04-.1-.013-.192-.026-.288-.03a9.142,9.142,0,0,1,.1-1.69c.015-.04.024-.088.039-.128,2.961.408,5.915.8,8.877,1.142,7.394.862,15.147.274,22.41,2.053,3.79.926-10.9,3.444-6.971,3.679,3.452.212,25.1-.678,28.378.369a5.378,5.378,0,0,1,1.2.559" transform="translate(-36.649 -31.892)" fill="#c3a47f"/>
      <path id="Path_4790" data-name="Path 4790" d="M319.028,179.21c0,.081,0,.162-.01.243-6.509-.163-13.011-.236-19.515-.148-7.221.1-14.71-1.979-21.929-1.543a4.2,4.2,0,0,1,1.258-.533,29.387,29.387,0,0,1,10.088-.34c3.937.422,7.739-.556,11.6-1.1,6.07-.847,12.282.518,18.4,1.166a21.09,21.09,0,0,1,.1,2.25" transform="translate(-84.821 -53.637)" fill="#d7c3a8"/>
      <path id="Path_4791" data-name="Path 4791" d="M324.405,151.521a9.785,9.785,0,0,1-.565,3.476c-3.2-.022-6.391-.019-9.589.024-7.221.1-14.71-1.98-21.936-1.544a4.352,4.352,0,0,1,1.265-.531,29.363,29.363,0,0,1,10.088-.34c3.93.422,7.731-.557,11.6-1.1a38.186,38.186,0,0,1,9.136.012" transform="translate(-89.326 -46.215)" fill="#d7c3a8"/>
      <path id="Path_4792" data-name="Path 4792" d="M128.565,117.721c-7.205-1.121,3.651-1.04-3.559-1.82q-2.472-.275-4.943-.5c-.03-1.047-.071-2.419-.1-3.758a29.991,29.991,0,0,1,4.119.658c3.842.9,7.612,2.242,11.548,2.194,3.448-.047-11.654,1.455-8.31,2.578a4.426,4.426,0,0,1,1.242.651" transform="translate(-36.659 -34.115)" fill="#d7c3a8"/>
      <path id="Path_4793" data-name="Path 4793" d="M176.608,186.046c-7.243-.522-14.638,1.47-21.871,1.281-10.671-.281-21.356-.131-32.013.15-1.1.028-2.2.058-3.293.1-.056-.854-.176-1.735-.238-2.622,4,.069,8,.1,11.984.026,7.423-.134,14.938-2.307,22.4-1.174,3.883.59,7.724,1.608,11.643,1.234a29.461,29.461,0,0,1,10.107.464,4.516,4.516,0,0,1,1.28.547" transform="translate(-36.423 -56.067)" fill="#d7c3a8"/>
      <path id="Path_4794" data-name="Path 4794" d="M213.744,141.3a17.21,17.21,0,0,0-5.9-.269c-2.286.217-4.53-.38-6.8-.724-4.355-.66-8.745.61-13.078.689-3.673.067-7.366-.015-11.048-.113-2.471.188-4.964.2-7.426.165-2.846-.036-5.688-.008-8.53,0a32.567,32.567,0,0,0,4.582,1.024c5.832.86,11.652.542,17.486.387,6.225-.165,12.459-.251,18.694-.089,4.22.11,8.541-1.051,12.772-.744a2.6,2.6,0,0,0-.749-.321" transform="translate(-49.186 -42.817)" fill="#d7c3a8"/>
      <path id="Path_4795" data-name="Path 4795" d="M263.97,163.808a28.432,28.432,0,0,1-7.6-.271c-2.937-.426-5.839-.035-8.768.1-5.62.261-11.246-1.409-16.823-1.885-4.728-.4-9.484-.659-14.227-.9-3.178-.415-6.387-.651-9.557-.844-3.664-.224-7.322-.512-10.982-.776a51.207,51.207,0,0,1,5.919-.6c7.525-.326,15.011.525,22.519,1.213,8.012.734,16.036,1.39,24.066,1.8,5.435.276,10.976,1.833,16.428,1.912a3.71,3.71,0,0,1-.971.252" transform="translate(-59.897 -48.453)" fill="#c3a47f"/>
      <path id="Path_4796" data-name="Path 4796" d="M326.344,170.88a11.425,11.425,0,0,1,.222,1.64c-1.035-.058-2.07-.115-3.105-.163-3.183-.419-6.39-.653-9.561-.851-3.66-.223-7.318-.51-10.984-.774a50.858,50.858,0,0,1,5.92-.6,129.163,129.163,0,0,1,17.508.75" transform="translate(-92.565 -51.967)" fill="#d7c3a8"/>
      <path id="Path_4797" data-name="Path 4797" d="M141.861,136.2a3.906,3.906,0,0,1-.973.254,28.444,28.444,0,0,1-7.6-.272c-2.939-.423-5.844-.034-8.768.1-5.619.26,7.135-2.69,1.556-3.166q-3.026-.253-6.06-.442c.022-.5.043-.987.064-1.432,7.9.715-2.563,2.639,5.355,3.048,5.434.274,10.976,1.826,16.427,1.907" transform="translate(-36.674 -40.107)" fill="#c3a47f"/>
      <path id="Path_4798" data-name="Path 4798" d="M195.736,172.784a11.974,11.974,0,0,1-3.187-.114,19.172,19.172,0,0,0-3.676.042c-2.356.109-4.714-.591-7.053-.79-1.981-.168-3.975-.276-5.963-.376-1.332-.174-2.677-.273-4.006-.354-1.536-.094-3.069-.215-4.6-.325a21.569,21.569,0,0,1,2.481-.253,70.087,70.087,0,0,1,9.439.508c3.359.308,6.722.583,10.088.754,2.278.116,4.6.768,6.887.8a1.648,1.648,0,0,1-.407.106" transform="translate(-51.108 -52.127)" fill="#bc9a72"/>
      <path id="Path_4799" data-name="Path 4799" d="M317.3,200.908a11.975,11.975,0,0,1-3.187-.114,19.223,19.223,0,0,0-3.675.042c-2.357.109-4.714-.591-7.053-.79-1.981-.168-3.976-.276-5.964-.376-1.331-.174-2.676-.272-4.006-.354-1.536-.094-3.069-.215-4.6-.325a21.567,21.567,0,0,1,2.481-.253,70.1,70.1,0,0,1,9.44.508c3.358.308,6.721.583,10.087.754,2.278.116,4.6.768,6.887.8a1.662,1.662,0,0,1-.408.106" transform="translate(-88.257 -60.721)" fill="#bc9a72"/>
      <path id="Path_4800" data-name="Path 4800" d="M320.427,110.341a11.974,11.974,0,0,1-3.187-.114,19.167,19.167,0,0,0-3.675.042c-2.357.109-4.714-.591-7.053-.79-1.981-.168-3.976-.276-5.964-.376-1.331-.174-2.676-.273-4.006-.354-1.536-.094-3.069-.215-4.6-.325a21.569,21.569,0,0,1,2.481-.253,70.1,70.1,0,0,1,9.44.508c3.358.308,6.721.583,10.087.754,2.278.116,4.6.768,6.887.8a1.661,1.661,0,0,1-.408.106" transform="translate(-89.211 -33.046)" fill="#bc9a72"/>
      <path id="Path_4801" data-name="Path 4801" d="M150.463,192.712a11.886,11.886,0,0,1-3.187,0,19.238,19.238,0,0,0-3.669.169c-2.35.19-4.724-.429-7.064-.549-1.984-.1-3.978-.14-5.966-.172-1.335-.128-2.68-.181-4.011-.217-1.537-.042-3.071-.109-4.606-.167a21.408,21.408,0,0,1,2.47-.338,69.95,69.95,0,0,1,9.442.185c3.362.192,6.728.353,10.094.408,2.279.038,4.618.61,6.9.566a1.683,1.683,0,0,1-.4.119" transform="translate(-37.269 -58.467)" fill="#bc9a72"/>
      <path id="Path_4802" data-name="Path 4802" d="M324.9,153.644a11.885,11.885,0,0,1-3.187,0,19.228,19.228,0,0,0-3.668.169c-2.351.19-4.725-.429-7.066-.549-1.983-.1-3.977-.14-5.966-.172-1.334-.128-2.68-.181-4.011-.217-1.536-.042-3.071-.109-4.606-.167a21.42,21.42,0,0,1,2.471-.338,69.942,69.942,0,0,1,9.441.185c3.363.192,6.729.353,10.095.408,2.278.038,4.617.61,6.9.566a1.683,1.683,0,0,1-.4.119" transform="translate(-90.574 -46.529)" fill="#bc9a72"/>
      <path id="Path_4803" data-name="Path 4803" d="M131.486,117.851a11.885,11.885,0,0,1-3.187,0c-1.235-.135,15.939-1.211,14.715-1.112-2.351.19-4.725-.429-7.066-.548-1.983-.1-3.977-.14-5.966-.172-1.334-.128-2.68-.181-4.011-.217-1.536-.042-3.071-.109-4.606-.167a21.728,21.728,0,0,1,2.471-.338,70.052,70.052,0,0,1,9.441.185c3.363.193-11.654,1.635-8.289,1.69,2.278.038,4.617.61,6.9.566a1.683,1.683,0,0,1-.4.119" transform="translate(-37.087 -35.2)" fill="#bc9a72"/>
      <path id="Path_4804" data-name="Path 4804" d="M317.62,198.667a11.886,11.886,0,0,1-3.187,0,19.23,19.23,0,0,0-3.668.169c-2.564.207-4.5-.419-7.066-.549-1.983-.1-3.977-.14-5.966-.172-1.334-.128-2.68-.181-4.011-.217-1.536-.042-3.071-.109-4.606-.167a21.57,21.57,0,0,1,2.471-.338,69.939,69.939,0,0,1,9.441.185c3.363.193,6.729.353,10.095.408,2.278.038,4.617.61,6.9.566a1.682,1.682,0,0,1-.4.119" transform="translate(-88.349 -60.287)" fill="#d7c3a8"/>
      <path id="Path_4805" data-name="Path 4805" d="M147.136,143.654a3.481,3.481,0,0,1-2.988-.116c-1.153-.469-2.294.139-3.446.411-2.209.523-4.417-1.5-6.607-1.956a48.97,48.97,0,0,0-5.588-.733,17.26,17.26,0,0,0-3.753-.812c-1.44-.18-2.876-.444-4.314-.676a7.583,7.583,0,0,1,2.327-.985c2.958-.669,5.9.217,8.847.887a72.057,72.057,0,0,0,9.452,1.612c2.135.192,4.309,2.072,6.451,2a1.056,1.056,0,0,1-.382.363" transform="translate(-36.804 -42.338)" fill="#d7c3a8"/>
      <path id="Path_4806" data-name="Path 4806" d="M320.961,127.644c-2.831.385-5.665-.163-8.5-.581-3.153-.45-6.307-.843-9.464-1.009-2.137-.11-4.332-1.365-6.471-1.3a.909.909,0,0,1,.374-.249,5,5,0,0,1,2.988.053,8.042,8.042,0,0,0,3.444-.307c2.2-.366,4.426.981,6.618,1.271,1.861.242,3.731.355,5.595.444a18.5,18.5,0,0,0,2.074.358c1.118.451,2.237.869,3.341,1.318" transform="translate(-90.613 -37.95)" fill="#d7c3a8"/>
      <path id="Path_4807" data-name="Path 4807" d="M305.277,107.745c-7.224.3-14.477-.128-21.737-.408-10.677-.409-21.364-.69-32.034-.547-7.222.1-14.7-1.979-21.929-1.544a4.293,4.293,0,0,1,1.258-.532,29.413,29.413,0,0,1,10.1-.34c3.908.421,7.693-.551,11.534-1.09a.134.134,0,0,0,.059,0c.674-.09,1.341-.163,2.015-.2a55.531,55.531,0,0,1,10.732.656.055.055,0,0,1,.038.01c2.54.331,5.072.694,7.593.887l.1,0c.665.048,1.324.079,1.982.1,6.4.2,12.826.131,19.226.037l.044,0c.185.017.34.041.517.074a43.167,43.167,0,0,0,4.336.457c1.826.094,4.538-1.349,5.946.736a2.236,2.236,0,0,1,.228,1.705" transform="translate(-70.155 -31.478)" fill="#d7c3a8"/>
      <path id="Path_4808" data-name="Path 4808" d="M315.629,176.256a23.041,23.041,0,0,1,.109,2.34c-9.009-.679-18.027-1.237-27.041-1.486-7.233-.2-14.651-2.584-21.887-2.449a4.289,4.289,0,0,1,1.279-.483,29.316,29.316,0,0,1,10.1.083c3.92.583,7.756-.232,11.638-.616,7.453-.724,14.986,1.855,22.413,2.385,1.131.078,2.255.156,3.385.226" transform="translate(-81.532 -53.024)" fill="#c3a47f"/>
      <path id="Path_4809" data-name="Path 4809" d="M234.519,101.645q-1.625.251-3.262.429a.209.209,0,0,1-.074,0c-.667.082-1.342.147-2.015.2a.553.553,0,0,1-.111.01c-7.289.66-14.633.562-21.98.6-10.67.069-21.348.276-31.987.906-7.2.428-14.749-1.317-21.942-.547a4.29,4.29,0,0,1,1.236-.6,29.369,29.369,0,0,1,10.057-.8c3.94.252,7.7-.9,11.534-1.617,7.357-1.377,15.039.552,22.461.442.385-.006.776-.012,1.162-.026.007.008.022,0,.037,0,1.959.109,3.926.219,5.892.312,4.607.219,9.2.307,13.793.4,3.771.082,7.517-.1,11.288.082,1.3.062,2.61.108,3.912.185" transform="translate(-46.799 -30.481)" fill="#c3a47f"/>
      <path id="Path_4810" data-name="Path 4810" d="M145.941,171.5c-7.253-.392-14.613,1.739-21.839,1.68-1.8-.012-3.6-.017-5.393,0a.986.986,0,0,0,.031-.152c.172-1.192.262-2.387.322-3.585a28.823,28.823,0,0,1,3.821.238c3.892.517,7.748,1.47,11.653,1.024a29.457,29.457,0,0,1,10.117.277,4.77,4.77,0,0,1,1.287.523" transform="translate(-36.275 -51.778)" fill="#c3a47f"/>
      <path id="Path_4811" data-name="Path 4811" d="M266.813,116.228c-.228-.619.016-.664.244-.531,1.312-.806,7-.308,7.66-.277,2.95.14,5.892.272,8.844.266,3.019,0,5.3,1.183,8.156,1.967,5.97,1.637,12.254.833,18.188,2.526.449.126.9.269,1.34.42-1.936.411-4.068.48-5.8.819a22.239,22.239,0,0,0-4.537-.872c-3.008-.313-6-.22-9.007-.281-3.114-.059-5.914-1.44-8.977-1.919-2.658-.417-5.339-.7-7.966-1.286a17.809,17.809,0,0,0-3.328-.571,34.208,34.208,0,0,1-4.812-.261" transform="translate(-81.505 -35.215)" fill="#c3a47f"/>
      <path id="Path_4812" data-name="Path 4812" d="M313.866,137.208a8.6,8.6,0,0,0-.194-1.71c-2.043.073-4.1.008-6.14-.024-2.071-.033-4.042.708-6.113.748a60.463,60.463,0,0,0-9.081.761,53.9,53.9,0,0,1-9.849.708c-2.98-.052-5.932-.614-8.759.557-5.461,2.254-11.8,1.306-17.59.86,1.433.724,3.034,1.06,4.5,1.7,1.125.491,2.466-.158,3.627-.16,2.8,0,5.587-.124,8.371-.308,6-.4,11.847-1.853,17.81-2.51,6.521-.72,12.959-.35,19.5-.2.717.018,1.443.012,2.176-.01a.025.025,0,0,1,.022-.007c.558-.013,1.123-.035,1.687-.07.006-.113.015-.226.03-.337" transform="translate(-78.272 -41.398)" fill="#c3a47f"/>
      <path id="Path_4813" data-name="Path 4813" d="M222.664,189.808c-1.474.149-3-.078-4.5.03-3.258.242-6.644.625-9.914.551-6.545-.149-12.984-.519-19.5.2-2.542.277-5.062.7-7.583,1.132-3-.215-5.994-.5-8.986-.775,2.782-1.093,5.682-.55,8.61-.5a53.845,53.845,0,0,0,9.849-.708,60.368,60.368,0,0,1,9.08-.76c2.072-.04,4.043-.781,6.114-.748a67.753,67.753,0,0,0,9.169-.2c.719-.079,2.221-.113,2.675-.878.507-.844-5.7-2.185-6.4-2.291a15.443,15.443,0,0,1-6.943-2.559c-2.394-1.89-5.485-2.53-8.359-2.821-3.007-.313-6-.22-9.007-.282-3.114-.058-5.914-1.44-8.977-1.918-2.658-.418-5.339-.7-7.965-1.286a17.829,17.829,0,0,0-3.329-.572,34.1,34.1,0,0,1-4.812-.26c-.228-.619.016-.665.244-.54,1.313-.8,7-.3,7.661-.269,2.95.14,5.892.272,8.844.265,3.019,0,5.3,1.184,8.155,1.968,5.971,1.637,12.255.833,18.188,2.525a74.107,74.107,0,0,1,8.824,3.451c1.383.593,2.719,1.3,4.087,1.937,1.162.533,2.9.819,3.8,1.85a4.491,4.491,0,0,1,.981,3.452" transform="translate(-49.439 -53.225)" fill="#c3a47f"/>
      <path id="Path_4814" data-name="Path 4814" d="M202.409,119.415c.37-.994-4.77-.878-5.285-.887-1.976-.035-3.942-.077-5.918-.207-2.018-.132-3.544.558-5.456.958-4,.836-8.2.024-12.168.9-2.023.445-22.341,2.5-24.289,3.206-.926.337-1.824.75-2.738,1.116-.774.309-1.94.422-2.544,1.075a2.854,2.854,0,0,0-.659,2.264c.985.163,2.008.077,3,.217,2.18.306,22.83-.574,25.017-.481a98.6,98.6,0,0,1,13.041.984c3.989.7,7.892,1.924,11.907,2.454,1.863.246,3.73.451,5.6.574.777.052,1.674.542,2.425.262.982-.365,2.052-.522,3.009-.944-3.876.047-8.114.4-11.763-1.341-1.886-.9-3.862-.656-5.856-.754a36.358,36.358,0,0,1-6.582-.9,41.078,41.078,0,0,0-6.073-.9c-1.387-.117-2.7-.7-4.09-.767-2.042-.1-22.489,1.127-24.514.751-.48-.089-1.486-.177-1.786-.7-.337-.587,3.819-1.215,4.288-1.253,1.5-.119,21.78-1.791,23.03-2.694a10.136,10.136,0,0,1,5.593-1.522c2.01-.075,4.015.117,6.023.208,2.085.094,3.956-.709,6.006-.9,1.778-.162,3.574-.233,5.329-.51a11.569,11.569,0,0,1,2.226-.238,23.319,23.319,0,0,0,3.221.037c.358-.965-1.035.127,0,0" transform="translate(-43.799 -36.152)" fill="#c3a47f"/>
      <path id="Path_4815" data-name="Path 4815" d="M260.994,182.246c.343,1.028-4.788.424-5.3.385-1.975-.153-3.939-.3-5.916-.355-2.019-.06-3.525-.894-5.424-1.474-3.969-1.214-8.186-.8-12.128-2.05a50.111,50.111,0,0,1-5.845-2.483c-.917-.424-1.8-.922-2.705-1.374-.765-.382-1.925-.606-2.512-1.315a3,3,0,0,1-.6-2.324c.989-.069,2.008.114,3.007.069,2.185-.1,4.461-.285,6.648-.17a97.974,97.974,0,0,0,13.051.253c4-.32,7.934-1.171,11.958-1.321,1.867-.068,3.737-.1,5.607-.042.778.023,1.686-.382,2.428-.031.971.458,2.036.716,2.98,1.228-3.87-.415-8.093-1.173-11.784.224-1.908.724-3.874.29-5.869.2a35.724,35.724,0,0,0-6.6.278,40.191,40.191,0,0,1-6.09.324c-1.389-.015-2.717.443-4.1.378a45.4,45.4,0,0,0-6.139-.052c-.481.043-1.489.035-1.8.533-.352.556,3.782,1.576,4.249,1.659a10.343,10.343,0,0,1,4.6,1.851,10.733,10.733,0,0,0,5.545,2.051c2,.266,4.012.265,6.021.363,2.085.1,3.932,1.083,5.975,1.464,1.771.331,3.562.572,5.308,1.015a12.03,12.03,0,0,0,2.217.45,23.174,23.174,0,0,1,3.219.268c.332,1-1.03-.225,0,0" transform="translate(-67.39 -51.909)" fill="#d7c3a8"/>
      <path id="Path_4816" data-name="Path 4816" d="M268.784,126.863a8.158,8.158,0,0,0-1.69-.324,25.9,25.9,0,0,0-4.523-.875,21.843,21.843,0,0,1-3.488-.5,32.388,32.388,0,0,0-4.382-.521c-1.366-.076-2.7-.12-4.059-.157-1.4-.038-2.862-.319-4.264-.434-3.164-.259-6.306-.584-9.456-.817-2.115-.155-4.222-.342-6.337-.48a37.96,37.96,0,0,0-4.144.147q-5.082.232-10.164.465c-1.706.078-3.409.124-5.08.354-2.944.407-6.053.25-9.024.59a9.047,9.047,0,0,0-2.27.808,12.705,12.705,0,0,0,1.753.325,7.941,7.941,0,0,1,1.163.066c2.45.331,4.864.319,7.3.844,1.347.291,2.68.628,4.012.975a28.738,28.738,0,0,1,3.8,1.025,27.536,27.536,0,0,0,2.915,1.382c1.694.48,3.432.8,5.087,1.4,1.009.362,2.037.821,3.018,1.161a19.032,19.032,0,0,0,10.106.866c2.074-.406,4.095-.893,6.161-1.312,1.949-.394,3.78-.984,5.675-1.45a33.646,33.646,0,0,0,3.967-1.279,26.1,26.1,0,0,1,4.537-1.078,55,55,0,0,1,7.714-1.085,9.058,9.058,0,0,0,1.677-.1m-12.443.07c-.1.292-1.149.156-1.512.325a8.778,8.778,0,0,1-1.285.442,7.821,7.821,0,0,1-1.524.24c-.584.048-1.083.272-1.679.335a10,10,0,0,0-3.462.664c-.474.235-.882.507-1.344.76a12.618,12.618,0,0,1-2.947.71,21.835,21.835,0,0,1-2.746.546,37.459,37.459,0,0,1-5.145.322c-1.578-.05-2.934-.86-4.439-1.006a9.98,9.98,0,0,1-3.3-.625c-.681-.315-.969-.909-1.681-1.152a14.63,14.63,0,0,0-2.983-.8c-.6-.072-1.19-.208-1.785-.287a3.718,3.718,0,0,1-1.011-.153c-.24-.094-.462-.224-.7-.319a9.758,9.758,0,0,0-1.933-.54c-.436-.072-.851-.144-1.292-.242-.251-.056-.813-.019-.96-.2.662-.448,2.149-.288,2.962-.326a9.7,9.7,0,0,1,2.062-.007,9.264,9.264,0,0,0,1.82.1,29.961,29.961,0,0,1,4.722.209,21.625,21.625,0,0,0,4.021.307c1.7-.083,1.215-.015,2.683-.038a6.42,6.42,0,0,1,1.108.076,10.825,10.825,0,0,0,2.2.027c1.078-.051,2.159-.1,3.237-.151,1.273-.063,2.557-.03,3.835-.088,1.356-.062,2.7-.1,4.051-.1a18.064,18.064,0,0,1,3.512.541c.737.158,1.518.126,2.271.25a18.991,18.991,0,0,0,1.966.215,5.248,5.248,0,0,1,1.28-.025" transform="translate(-61.086 -37.505)" fill="#d7c3a8"/>
      <path id="Path_4817" data-name="Path 4817" d="M157.478,160.226a51.376,51.376,0,0,1-6.814-1.612,24.3,24.3,0,0,1-4-1.341,32.566,32.566,0,0,0-3.487-1.462c-1.671-.574-3.275-1.25-5-1.769-1.82-.541-3.6-1.144-5.43-1.677a14.857,14.857,0,0,0-2.162-.475,67.414,67.414,0,0,1-7.3.585c.39.156,1.315.694,2.271,1.1a11.671,11.671,0,0,1,3.187-.44,40.463,40.463,0,0,1,5.4.848,23.821,23.821,0,0,1,2.867.849,13.879,13.879,0,0,1,3.078,1.038c.476.315.894.634,1.385.933a11.065,11.065,0,0,0,3.619,1.039c.627.127,1.141.411,1.753.521a8.049,8.049,0,0,1,1.592.408,9.6,9.6,0,0,1,1.339.591c.374.212,1.485.176,1.576.488-.386.1-.937-.142-1.337-.153a19.627,19.627,0,0,0-2.072.031c-.8.059-1.612-.052-2.4.04a18.862,18.862,0,0,1-3.7.213c-1.419-.132-2.83-.312-4.247-.51-1.344-.194-2.7-.281-4.026-.474-1.137-.168-2.267-.327-3.4-.486a11.784,11.784,0,0,0-2.321-.191,6.872,6.872,0,0,1-1.16-.031c-.946-.1-1.877-.169-2.822-.3a22.406,22.406,0,0,0-4.23-.079l-.3.01c-.01.737,0,1.467-.007,2.2.665.1,1.329.184,1.994.281a35.277,35.277,0,0,0,3.67.474c1.878.057,3.75.072,5.628.113,2.8.06,5.593.031,8.4.067,1.251.019,2.554-.106,3.8-.023,1.2.081,2.387.154,3.6.2a28.414,28.414,0,0,0,3.9-.09,18.7,18.7,0,0,1,3.1-.153,21.442,21.442,0,0,0,4.03-.393,7.244,7.244,0,0,0,1.511-.139,7.676,7.676,0,0,0-1.484-.233m-37.851-5.8c-.067.078-.142.147-.217.224,0,.065-.009.122-.01.186.186-.129.358-.275.545-.4-.1,0-.215,0-.318-.007" transform="translate(-36.464 -46.414)" fill="#bc9a72"/>
      <path id="Path_4818" data-name="Path 4818" d="M309.31,142.991a9.388,9.388,0,0,0,2.04-.374c.26-.076.5-.187.751-.265a3.917,3.917,0,0,1,1.066-.062c.628-.019,1.251-.1,1.88-.122a14.874,14.874,0,0,0,3.159-.54c.75-.183,1.076-.783,1.8-1.042a10.1,10.1,0,0,1,3.489-.328,15.5,15.5,0,0,0,2.862-.464c.033-.262.054-.528.069-.8a4.515,4.515,0,0,1-.118-.735c-.528.045-1.053.11-1.583.2a.026.026,0,0,0-.022.007,13.889,13.889,0,0,0-1.492.31c-.883.217-1.8.539-2.7.771-1.485.392-3.033.529-4.546.814a22.276,22.276,0,0,0-2.617.978,24.2,24.2,0,0,1-3.4.593c-1.186.2-2.38.381-3.58.527-2.164.262-4.306.047-6.49.13a6.236,6.236,0,0,1-1.028-.041,11.039,11.039,0,0,0-1.563.145,8.761,8.761,0,0,0,1.993.906c2.626.554,5.384.677,7.987,1.287,1.475.346,2.982.522,4.5.74q4.5.639,9,1.27a34.641,34.641,0,0,0,3.671.474c.5.016,1,.031,1.5.031.012-.876-.012-1.776-.023-2.636-.865-.09-1.737-.156-2.6-.278a22.357,22.357,0,0,0-4.23-.079,30.956,30.956,0,0,1-4.968-.252,9.534,9.534,0,0,0-1.915-.083,10.286,10.286,0,0,1-2.164-.208c-.85-.122-2.418-.1-3.1-.642.158-.179.748-.078,1.015-.114.467-.059.9-.1,1.363-.13" transform="translate(-90.845 -42.251)" fill="#bc9a72"/>
      <path id="Path_4819" data-name="Path 4819" d="M255.736,130.07a2.323,2.323,0,0,0-.419-.074,7.47,7.47,0,0,0-1.124-.2,6.387,6.387,0,0,1-.866-.117,9.514,9.514,0,0,0-1.087-.125c-.339-.021-.668-.035-1.006-.047s-.71-.077-1.058-.106c-.785-.066-1.564-.145-2.346-.206-.524-.04-1.047-.086-1.571-.123-.339-.024-.693.008-1.027.017l-2.519.063c-.424.011-.844.015-1.26.058-.728.076-1.5.032-2.235.093a2.486,2.486,0,0,0-.562.163,3.752,3.752,0,0,0,.435.074,2.357,2.357,0,0,1,.289.018c.608.078,1.207.085,1.811.2.333.066.665.142,1,.219a8.4,8.4,0,0,1,.944.23,7.447,7.447,0,0,0,.724.3c.422.108.853.182,1.265.313.251.08.506.181.75.256a5.516,5.516,0,0,0,2.508.217c.513-.078,1.013-.174,1.525-.256.483-.076.934-.2,1.4-.287a9.147,9.147,0,0,0,.981-.256,7.343,7.343,0,0,1,1.124-.212,15.824,15.824,0,0,1,1.91-.2,2.657,2.657,0,0,0,.416-.015m-2.126-.06c-.028.073-.337.034-.443.075a2.752,2.752,0,0,1-.376.106,2.584,2.584,0,0,1-.447.053c-.172.01-.318.064-.493.077a3.354,3.354,0,0,0-1.015.152c-.138.057-.258.123-.393.185a4.26,4.26,0,0,1-.865.165,7.377,7.377,0,0,1-.8.125,12.806,12.806,0,0,1-1.51.06c-.464-.019-.863-.227-1.306-.27a3.393,3.393,0,0,1-.971-.169c-.2-.082-.288-.231-.5-.3a4.957,4.957,0,0,0-.878-.212c-.176-.021-.349-.058-.524-.079a1.259,1.259,0,0,1-.3-.043c-.072-.024-.137-.058-.208-.083a3.3,3.3,0,0,0-.569-.143c-.128-.019-.249-.039-.378-.066-.074-.015-.24-.008-.283-.055a2.4,2.4,0,0,1,.869-.069,3.331,3.331,0,0,1,.606.007,3.2,3.2,0,0,0,.535.032,10.329,10.329,0,0,1,1.387.072,7.457,7.457,0,0,0,1.181.094c.262-.008.524,0,.788,0a2.153,2.153,0,0,1,.326.023,3.74,3.74,0,0,0,.647.016l.95-.024c.374-.011.751,0,1.126-.006.4-.01.794-.015,1.19-.009a6.138,6.138,0,0,1,1.033.149c.216.042.446.037.667.072.2.031.381.049.577.062a1.844,1.844,0,0,1,.376,0" transform="translate(-72.928 -39.439)" fill="#bc9a72"/>
      <path id="Path_4820" data-name="Path 4820" d="M266.909,175.072l-.125,0a10.6,10.6,0,0,1-2.242-.386c-.375-.093-.75-.187-1.128-.254a10.122,10.122,0,0,0-2.82.045c-.482.051-.96.1-1.435.123a19.8,19.8,0,0,1-4.868-.3c-.826-.165-1.643-.393-2.433-.613-.864-.241-1.758-.49-2.635-.647-1.09-.194-2.231-.285-3.335-.372-.437-.035-.873-.069-1.306-.11-1.449-.135-2.926-.238-4.355-.337-1.814-.126-3.689-.256-5.539-.456-6.388-.688-12.891-.919-19.181-1.144l-.883-.031c-2.119-.076-4.239-.165-6.359-.255-4.576-.194-9.308-.394-13.957-.442-2.762-.028-5.578,0-8.3.019-3.964.035-8.064.072-12.1-.058-5.494-.175-11.061-.724-16.443-1.255q-1.941-.191-3.881-.378a167.828,167.828,0,0,0-20.22-1.063c-1.35.035-2.73.185-4.064.332a40.751,40.751,0,0,1-4.984.347c-2.644-.024-6.021-.657-7.095-3.542a11.171,11.171,0,0,1-.509-3.377c-.022-.442-.042-.877-.085-1.294l-.029-.274c-.147-1.38-.372-3.466.74-4.569a6.287,6.287,0,0,1,.816-.674,2.566,2.566,0,0,0,.233-.2.1.1,0,0,0,.012-.012,3.067,3.067,0,0,1-1.765-.608c-.856-.76-.585-2.086-.387-3.055.051-.246.1-.472.116-.654.119-1.258.182-2.642.2-4.353.009-.871.006-1.744,0-2.617,0-.749,0-1.5,0-2.246s.017-1.5.044-2.242a1.733,1.733,0,0,1,1.222-1.606c.079-.037.161-.076.244-.119a6.161,6.161,0,0,1,2.72-.6.934.934,0,0,1-.035-.222,1.3,1.3,0,0,1,.264-.761l-1.934-.749,3.508-.075c.533-.011,1.064-.03,1.6-.053q1.33-.06,2.671-.178c-.88-.072-1.775-.11-2.689-.149a26.666,26.666,0,0,1-7.2-.974l-.633-.2.178-.642a7.128,7.128,0,0,0,.162-1.621c0-.183.01-.362.019-.536.081-1.676.123-3.389.164-5.045.047-1.87.094-3.8.2-5.705,0-.076,0-.173,0-.281a2.329,2.329,0,0,1,.415-1.713,1.033,1.033,0,0,1,.628-.3,4.452,4.452,0,0,1,.719-.133c.015-.012.03-.025.047-.037a1.918,1.918,0,0,1,1.475-.289c.081.008.157.015.219.015,1.262.018,2.524.022,3.786.026l.965,0c2.538.01,5.478.009,8.469-.06a1.063,1.063,0,0,1,.348-.3c-2.112-.781-3.046-1.216-3.6-1.476a2.442,2.442,0,0,0-1.446-.283c-.793-.019-2.269-.054-5.2-.274-6.766-.5-6.807-1.135-6.848-1.747-.058-.879-.086-1.76-.115-2.639l-.018-.575c-.02-.574-.056-1.168-.092-1.773a19.722,19.722,0,0,1,.34-6.687,9.552,9.552,0,0,1,1.648-3.583,5.364,5.364,0,0,1,3.7-1.625c.9-.113,1.791-.186,2.541-.243a7.176,7.176,0,0,1,1.086-.013,4.873,4.873,0,0,0,1.044-.03,16.01,16.01,0,0,1,3.983-.17c.24.015.967.062.99.74.01.306.017.493-.33.654l1.358-.075c7-.385,14.245-.783,16.082-.59,3.64.385,6.492.611,9.248.734.511.023,1.025.029,1.539.036a26.479,26.479,0,0,1,3.1.162c.654.086,1.308.206,1.94.322.494.091.989.182,1.485.257a53.577,53.577,0,0,0,5.581.441c.781.034,1.562.068,2.339.117l2.324.144C189.1,98.4,201.8,99.192,214.3,99.208c3.413,0,6.712.134,9.806.386a52.849,52.849,0,0,1,6.807,1.157l1.1.235a21.161,21.161,0,0,0,6.708.5,74.209,74.209,0,0,1,9.754-.212c2.346.054,4.738.178,7.051.3l2.2.112c.97.048,1.942.187,2.882.324a15.848,15.848,0,0,0,4.848.212,12.8,12.8,0,0,1,3.726-.062c1.836.2,3.048,1.248,3.158,2.729a5.705,5.705,0,0,1-.24,1.826c-.049.2-.1.4-.138.6a6.43,6.43,0,0,0-.006,1.715,5.543,5.543,0,0,1-.8,3.975c-1.914,2.655-5.132,2.944-7.971,3.2-.656.059-1.294.117-1.9.2,1.06.524,2.174.963,3.262,1.393l.624.247c.415.165.834.317,1.254.47s.84.306,1.256.472c.508.2.923.383,1.306.573.2.1.39.215.581.331a5.241,5.241,0,0,0,.544.306,2.04,2.04,0,0,1,.451.277l0,0c.085.067.167.142.258.225a6.773,6.773,0,0,1,2.02,4.731,15.529,15.529,0,0,1-.242,3.45,23.909,23.909,0,0,0-.2,4.308,30.4,30.4,0,0,1-.108,3.8,6.211,6.211,0,0,1-1.55,3.817,5.938,5.938,0,0,1-3.828,1.435c-.34.034-.681.065-1.023.094l.043.008a2.464,2.464,0,0,1,1.583,1.7.912.912,0,0,1-.252.715,3.207,3.207,0,0,1,1.46,1.02,1.12,1.12,0,0,0,.2.1,2.491,2.491,0,0,1,.464.239,3.777,3.777,0,0,1,1.238,1.526,10.2,10.2,0,0,1,.774,3.992c.02.494.058,1,.1,1.51a16.786,16.786,0,0,1-.022,4.123c-.025.139-.04.31-.058.5a3.5,3.5,0,0,1-.571,1.951,2.186,2.186,0,0,1-1.781.528c-.112,0-.219,0-.308,0-.715.044-1.408.156-2.141.273a16.38,16.38,0,0,1-3.357.3c-.725-.031-1.449-.078-2.172-.125l-.358-.023a7.748,7.748,0,0,1,.782.78l.032.028a9.311,9.311,0,0,1,.681.7,1.746,1.746,0,0,1,.526,1.353h.307a23.19,23.19,0,0,0,3.174-.124,3.494,3.494,0,0,1,3.037.617,5.352,5.352,0,0,1,.5.48c.079.083.158.165.238.242,2.32,2.05,1.88,5.878.106,8.384a3.831,3.831,0,0,1-3.21,1.946m-4.528-2.115a7.327,7.327,0,0,1,1.278.1c.408.073.813.173,1.219.274a9.387,9.387,0,0,0,1.949.346c.872.033,1.43-.328,2.159-1.358,1.2-1.7,2.022-4.85.091-6.557-.115-.108-.21-.206-.3-.3a4.188,4.188,0,0,0-.371-.359c-.6-.483-1.066-.446-1.981-.322a24.115,24.115,0,0,1-3.367.136c-.418,0-.834,0-1.246,0a1.864,1.864,0,0,0-.907.338c-.144.081-.29.164-.447.24a3.985,3.985,0,0,1-2.21.224l-1.158-.148.683-.947c.681-.944,2.008-1.035,2.885-1.094l.169-.012a.951.951,0,0,0,.562-.181c-.024.024-.062-.092-.208-.258-.178-.208-.388-.41-.592-.606l-.069-.065a3.135,3.135,0,0,0-1.506-1.126,9.267,9.267,0,0,0-2.161-.2l-.5-.011a43.818,43.818,0,0,1-4.608-.381l.084-1.383c.843-.01,1.685-.046,2.526-.08,1.009-.042,2.052-.085,3.089-.085,1.264.03,2.516.081,3.735.16.713.047,1.426.093,2.142.124a15.065,15.065,0,0,0,3.079-.283c.734-.117,1.492-.238,2.274-.287.121-.008.264-.006.415,0a2.1,2.1,0,0,0,.726-.065,3.7,3.7,0,0,0,.222-1.16c.022-.223.043-.431.072-.6a15.736,15.736,0,0,0,.006-3.78c-.041-.528-.081-1.051-.1-1.562a9,9,0,0,0-.642-3.452,2.442,2.442,0,0,0-.773-.978,1.335,1.335,0,0,0-.209-.1,1.777,1.777,0,0,1-.735-.49c-.614-.736-1.354-.756-2.522-.735a8.54,8.54,0,0,1-1.594-.069l.229-1.37a3.717,3.717,0,0,0,.708-.215c.152-.059.294-.113.412-.148.213-.064.43-.123.648-.181l.307-.085a1.493,1.493,0,0,0-.212-.167c-2.211-.367-4.5-.53-6.709-.687-.519-.037-1.037-.074-1.554-.113l.006-1.385c.992-.067,1.986-.128,2.981-.188,2.111-.127,4.294-.26,6.419-.468a4.774,4.774,0,0,0,2.976-1.029,4.915,4.915,0,0,0,1.157-3,29.109,29.109,0,0,0,.1-3.626,25.237,25.237,0,0,1,.215-4.557,14.189,14.189,0,0,0,.226-3.144,5.431,5.431,0,0,0-1.565-3.777c-.071-.064-.133-.121-.2-.172a.707.707,0,0,0-.155-.1,6.263,6.263,0,0,1-.7-.387c-.156-.1-.312-.192-.473-.272-.348-.172-.729-.34-1.2-.526-.4-.16-.813-.309-1.221-.458-.432-.157-.864-.315-1.292-.485l-.62-.245a28.83,28.83,0,0,1-5.094-2.407l-1.272-.817,1.449-.433a20.526,20.526,0,0,1,3.942-.609c2.79-.251,5.426-.487,6.968-2.628a4.148,4.148,0,0,0,.547-3.026,7.649,7.649,0,0,1,.025-2.117c.043-.223.1-.446.154-.669a4.54,4.54,0,0,0,.2-1.388c-.084-1.128-1.378-1.392-1.929-1.453a11.5,11.5,0,0,0-3.342.051,17.067,17.067,0,0,1-5.274-.207c-.908-.131-1.847-.267-2.751-.31l-2.2-.112c-2.3-.119-4.686-.243-7.012-.3a73.246,73.246,0,0,0-9.569.2,22.821,22.821,0,0,1-7.144-.522l-1.105-.237a51.79,51.79,0,0,0-6.626-1.131c-3.058-.249-6.319-.377-9.695-.381-12.542-.015-25.269-.806-37.576-1.57l-2.323-.144c-.77-.048-1.542-.082-2.315-.115a54.382,54.382,0,0,1-5.728-.456c-.51-.076-1.019-.17-1.528-.264-.615-.113-1.25-.23-1.869-.31a25,25,0,0,0-2.934-.151c-.528-.006-1.056-.013-1.582-.037-2.785-.124-5.663-.353-9.332-.74-1.721-.183-9.233.231-15.859.6-5.721.315-10.663.589-12.138.512-.214-.011-.819-.041-.967-.529a2.493,2.493,0,0,0-.286.288,8.459,8.459,0,0,0-1.377,3.083,18.728,18.728,0,0,0-.285,6.207c.037.617.074,1.224.094,1.81l.019.576c.025.767.049,1.534.094,2.3a27.546,27.546,0,0,0,5.527.743c2.951.221,4.4.255,5.185.274a3.527,3.527,0,0,1,2,.412,54.133,54.133,0,0,0,5.459,2.135l2.309.806-1.07.236a.786.786,0,0,1,.114.436l.051.661-.683.087a10.136,10.136,0,0,1-2.232.032c-3.431.1-6.852.1-9.752.092l-.962,0c-1.268,0-2.535-.008-3.8-.026-.091,0-.2-.01-.319-.02a2.934,2.934,0,0,0-.464-.017l-.062.07a.787.787,0,0,1-.539.262,2.867,2.867,0,0,0-.691.1,5.008,5.008,0,0,0-.021.649c0,.146,0,.276,0,.378-.1,1.88-.149,3.8-.2,5.664-.041,1.664-.083,3.385-.165,5.077-.008.165-.013.335-.017.508a12.554,12.554,0,0,1-.081,1.283,27.662,27.662,0,0,0,6.246.733,26.07,26.07,0,0,1,7.369,1.03l2.694.908-2.809.436c-2.023.314-4.069.537-6.1.665l.328.153h-2.968l-.011,0-.045.031a1.6,1.6,0,0,1,.152.068l.307.16c.034.018.076.043.124.073l.06.036a.549.549,0,0,0-.279-.044l.119,1.384h0c-.485.042-.984.044-1.465.046a6.521,6.521,0,0,0-2.989.451c-.1.053-.2.1-.3.146-.417.2-.418.208-.425.4-.026.734-.037,1.468-.043,2.2s0,1.488,0,2.233c0,.879,0,1.758,0,2.637-.019,1.751-.084,3.171-.208,4.469a8.027,8.027,0,0,1-.137.8c-.108.528-.309,1.51-.052,1.739a2.969,2.969,0,0,0,1.341.3c.187.015.362.03.515.05a21.908,21.908,0,0,0,2.3.15c.6.018,1.228.037,1.851.094l-.056,1.386c-.265,0-.539,0-.819-.01a5.261,5.261,0,0,0-3.142.53,2.535,2.535,0,0,0-.234.2,4,4,0,0,1-.369.3,4.919,4.919,0,0,0-.63.519c-.637.633-.449,2.387-.336,3.435l.03.281c.044.442.067.9.09,1.369a10.18,10.18,0,0,0,.424,2.96c.84,2.257,4,2.621,5.8,2.637a38.92,38.92,0,0,0,4.821-.339c1.362-.149,2.771-.3,4.179-.339a168.374,168.374,0,0,1,20.387,1.069q1.943.184,3.885.378c5.36.528,10.9,1.075,16.351,1.249,4.011.128,8.1.092,12.047.057,2.728-.024,5.546-.049,8.325-.019,4.671.049,9.415.249,14,.443,2.117.09,4.233.179,6.351.255l.881.031c6.314.225,12.843.458,19.281,1.151,1.824.2,3.686.326,5.486.451,1.437.1,2.923.2,4.388.34.427.04.856.074,1.287.108,1.137.09,2.313.183,3.469.39.943.168,1.869.426,2.764.676.765.213,1.556.434,2.332.589a18.473,18.473,0,0,0,4.533.277c.447-.02.9-.068,1.35-.117a18.25,18.25,0,0,1,1.934-.136" transform="translate(-35.46 -28.923)"/>
      <path id="Path_4821" data-name="Path 4821" d="M266.219,173.487a10.042,10.042,0,0,1-2.344-.378,7.145,7.145,0,0,0-2.19-.322,24.523,24.523,0,0,1-8.692-.24c-.412-.106-.825-.222-1.241-.337a23.039,23.039,0,0,0-4.013-.863c-.765-.066-1.534-.14-2.306-.215-1.756-.169-3.572-.345-5.326-.425-2.18-.1-4.377-.337-6.5-.569-1.978-.217-4.023-.44-6.036-.545-3.437-.178-6.924-.3-10.3-.418s-6.869-.239-10.312-.419c-8.489-.441-17.085-.392-25.394-.344l-2.611.015c-3.2.021-6.657-.119-10.857-.442-3-.228-6.031-.527-8.964-.815l-.516-.05c-4.3-.423-8.748-.86-13.112-1.087l-1.09-.058a90.994,90.994,0,0,0-11.979-.11c-.662.053-1.343.134-2.035.215-2.9.342-6.191.731-9.027-.846l-.127-.069c-1.5-.834-2.25-2.3-2.31-4.494l-.017-.557c-.029-.406-.076-.846-.124-1.289s-.093-.867-.126-1.3a11.75,11.75,0,0,1-.024-1.656,8.549,8.549,0,0,1,.122-.931c.4-1.958,1.842-2.01,2.9-2.048l.367-.015h.028c-.388-.031-.776-.075-1.16-.143l-.219-.029a3.768,3.768,0,0,1-1.93-.578,1.882,1.882,0,0,1-.492-2.021c.017-.078.035-.157.049-.236l.033-.167c.134-.978.225-2.064.29-3.479.017-.4.028-.8.032-1.2s.014-.789.017-1.174l.006-1.565,0-.719c0-.491-.006-.983,0-1.478,0-.91.008-2,.049-3.105l.023-.453.265-.276c.037-.037.074-.073.107-.111l.222-.253.466.019c.064,0,.127,0,.189,0a37.423,37.423,0,0,0,3.8-.2l.032,0-.124-.065c-.294-.153-.533-.28-.685-.342l-3.114-1.265,3.36-.074a66.155,66.155,0,0,0,7.191-.548c.278-.036.56-.075.843-.117a34.2,34.2,0,0,0-5.144-.484,26.653,26.653,0,0,1-7.059-.953l-.623-.2.165-.634a11.513,11.513,0,0,0,.157-1.8c.016-.286.03-.586.044-.9l.028-.719c.017-.449.031-.894.044-1.354l.041-1.326c.031-1.281.064-2.6.1-3.789l.056-1.438c.1-2.941.122-3.554.924-3.572a71.228,71.228,0,0,1,7.807.372c2.121.218,2.422.249,7.938-1.051-4.328-1.5-5.544-1.531-7.145-1.567-1.576-.035-3.535-.08-8.916-1.493-.538-.087-.567-.655-.578-.876l-.015-.3c-.008-.2-.02-.431-.033-.694l-.069-1.807c-.016-.5-.034-1.036-.049-1.58l-.028-1c-.034-1.49-.046-2.494-.04-3.267a7.394,7.394,0,0,1,.119-1.887l.131-.449c.544-1.858,1.221-4.169,3.246-4.985a9.53,9.53,0,0,1,2.449-.515c.216-.026.431-.051.642-.081a8.3,8.3,0,0,1,2.234-.042,4.63,4.63,0,0,0,1.381-.122,9.839,9.839,0,0,1,1.023-.153,12.68,12.68,0,0,1,2.271.092c.364.036.724.073,1.07.091,1.088.057,2.183.131,3.28.206a72.718,72.718,0,0,0,8.918.246,34.127,34.127,0,0,1,6.781.482,40.656,40.656,0,0,0,4.88.34c.718.021,1.433.042,2.142.078.5.026,1.008.031,1.522.037a20.351,20.351,0,0,1,3.128.193c.449.075.9.158,1.343.241a26.964,26.964,0,0,0,3.521.494c4.322.225,8.712.513,12.956.792q3.438.226,6.882.443c1.984.119,3.94.237,5.9.339,4.3.224,8.66.334,12.878.441l.837.022c1.571.04,3.169.035,4.713.031,2.139-.006,4.351-.014,6.543.1l1.278.062c.875.042,1.752.084,2.625.14a34.971,34.971,0,0,1,5.493.7c.652.147,1.317.3,1.976.434l.076.019c1.49.328,3.1.676,4.638.9a11.757,11.757,0,0,0,2.684,0l.048,0,.087,0,.535-.058c.435-.049.865-.1,1.3-.126,1.389-.086,2.787-.083,4.143-.08.958,0,1.945,0,2.915-.026a49.588,49.588,0,0,1,5.024.184c.7.05,1.408.1,2.108.136.167.008.334.017.508.019.492.017.971.024,1.453.03a29.82,29.82,0,0,1,3.226.158,5.8,5.8,0,0,1,.6.085,42,42,0,0,0,4.233.465,8.017,8.017,0,0,0,1.626-.172c1.6-.27,3.585-.607,4.829,1.239a2.9,2.9,0,0,1,.343,2.219c-.044.27-.111.554-.178.83a6.848,6.848,0,0,0-.16.784,7.945,7.945,0,0,0,.033,1.506,5.824,5.824,0,0,1-.231,2.88c-1.151,2.511-3.581,3.286-5.31,3.651l-.1.022H265.5c-1.035.209-2.1.324-3.142.436-.556.06-1.094.118-1.6.188.763.372,1.53.7,2.269,1.015.5.206,1.015.408,1.525.608.572.226,1.142.451,1.709.684l.1.037c.958.39,1.742.738,2.467,1.1a5.468,5.468,0,0,1,2.992,3.816,9.474,9.474,0,0,1,.231,2.052v.162a13.3,13.3,0,0,1-.09,1.475c-.064.617-.159,1.258-.282,1.891a15.435,15.435,0,0,0-.131,2.989l.014.706c.014.647.028,1.307.023,1.952l-.01.182a10.081,10.081,0,0,1-.594,3.693,4.722,4.722,0,0,1-1.015,1.59c-1.34,1.355-3.682,1.449-5.565,1.524-.469.019-.912.035-1.3.073-.844.078-1.694.147-2.539.209,2.142.171,4.305.374,6.372.711l3.385.552-3.332.808c-.565.137-1.119.31-1.706.493-.267.083-.537.168-.81.249l.056.007a8.2,8.2,0,0,0,1.175.013,6.375,6.375,0,0,1,2.158.168c1.24.4,2.071,1.519,2.471,3.321a12.124,12.124,0,0,1,.244,1.74c.036.526.058,1.09.062,1.637,0,.27.019.533.034.8l.049.682a18.212,18.212,0,0,1,.087,1.98c0,.086,0,.186-.012.286a8.317,8.317,0,0,1-.2,1.346,3.656,3.656,0,0,0-.068.458,2.8,2.8,0,0,1-.458,1.5,2.366,2.366,0,0,1-1.757.511,3.923,3.923,0,0,0-.438.026c-.379.058-.75.124-1.121.189a20.293,20.293,0,0,1-2.971.373,27.714,27.714,0,0,1-2.811-.126c-.466-.037-.931-.074-1.391-.1-1.456-.075-2.98-.086-4.8-.033-.624.017-1.252.043-1.892.073.472.058.971.108,1.5.148.837.076,1.668.119,2.471.16.144.008.322.01.524.012,1.49.019,4.264.055,4.7,2.123a1.329,1.329,0,0,1-.207,1.121,2.253,2.253,0,0,1-1.756.63c-.142.009-.28.017-.4.033a2.9,2.9,0,0,0-1.365.448c.015.013.04.059.092.126a3.247,3.247,0,0,0,1.887.13,1.859,1.859,0,0,0,.46-.244,3.184,3.184,0,0,1,.8-.4,3.518,3.518,0,0,1,1.355-.1,3.942,3.942,0,0,0,.6.01l.074-.006a24.848,24.848,0,0,1,2.619-.1,4.857,4.857,0,0,0,.828-.076,4.54,4.54,0,0,1,1.647-.022,2.278,2.278,0,0,1,1.525,1.131c.867,1.489.551,4.032.149,5.285a8.574,8.574,0,0,1-1.235,2.113c-.055.078-.114.154-.169.226l-.087.114a3.145,3.145,0,0,1-2.687,1.3m-4.288-2.1a9.809,9.809,0,0,1,2.274.374c1.72.421,2.812.626,3.586-.4l.1-.135c.045-.058.092-.119.139-.185a8.7,8.7,0,0,0,1.044-1.737c.346-1.076.538-3.181-.029-4.153a.889.889,0,0,0-.608-.471,3.289,3.289,0,0,0-1.165.038,6.925,6.925,0,0,1-1.06.09,23.562,23.562,0,0,0-2.483.1,5.457,5.457,0,0,1-.874,0,2.289,2.289,0,0,0-.856.046,2.108,2.108,0,0,0-.458.247,2.912,2.912,0,0,1-.859.418c-.513.137-2.589.331-3.329-.616a1.435,1.435,0,0,1-.3-1.49c.349-.861,1.546-1.193,2.49-1.319.157-.02.324-.031.5-.042a4.17,4.17,0,0,0,.692-.082c-.209-.977-2.254-1-3.354-1.017-.223,0-.419-.006-.577-.015-.817-.042-1.662-.086-2.515-.163a27.341,27.341,0,0,1-3.038-.383,19.2,19.2,0,0,0-3.28-.2c-.6,0-1.193-.008-1.767-.037-.094,0-.243,0-.428-.006-1.817-.006-3.644-.091-4.287-1.037a1.329,1.329,0,0,1-.11-1.267l.158-.4.428-.037a27.623,27.623,0,0,1,5.342.233,29.612,29.612,0,0,0,4.664.26c.951-.049,1.869-.09,2.78-.116,1.855-.054,3.414-.043,4.909.034.473.024.951.063,1.429.1.885.07,1.806.142,2.662.122a19.026,19.026,0,0,0,2.769-.352c.38-.067.761-.135,1.149-.194a5.154,5.154,0,0,1,.608-.042,3.972,3.972,0,0,0,.768-.069,5.633,5.633,0,0,0,.11-.712,5.2,5.2,0,0,1,.1-.627,6.946,6.946,0,0,0,.16-1.126c.008-.082.007-.143.008-.2a16.625,16.625,0,0,0-.083-1.841l-.051-.714c-.016-.283-.033-.568-.036-.862,0-.521-.025-1.057-.06-1.551a10.721,10.721,0,0,0-.213-1.538c-.29-1.306-.8-2.059-1.546-2.3a5.5,5.5,0,0,0-1.683-.1,9.484,9.484,0,0,1-1.387-.022,9.322,9.322,0,0,1-1.577-.4,6.281,6.281,0,0,0-1.65-.371h-.006l-.044-1.388h0a10.521,10.521,0,0,0,2.375-.386c-1.6-.168-3.23-.291-4.826-.411-1.367-.1-2.726-.2-4.049-.334-.856-.085-1.694-.178-2.51-.285l-6.025-.8,6.049-.584q1.233-.12,2.468-.215c1.1-.087,2.212-.162,3.32-.237,1.669-.113,3.4-.23,5.085-.387.408-.039.876-.058,1.373-.078,1.639-.065,3.679-.147,4.632-1.11a3.36,3.36,0,0,0,.713-1.132,9,9,0,0,0,.5-3.229l.01-.178c0-.6-.01-1.241-.024-1.874l-.014-.708a16.537,16.537,0,0,1,.156-3.28c.115-.6.2-1.194.264-1.783a11.744,11.744,0,0,0,.082-1.333v-.139a8.1,8.1,0,0,0-.194-1.743,4.08,4.08,0,0,0-2.253-2.889c-.667-.329-1.391-.651-2.267-1.01h0l-.12-.047c-.591-.244-1.186-.479-1.783-.715-.515-.2-1.031-.407-1.546-.617a33.441,33.441,0,0,1-4.119-2l-1.367-.809,1.522-.454a10.133,10.133,0,0,1,1.031-.251c.826-.158,1.712-.254,2.651-.355,1.037-.112,2.11-.227,3.108-.437l.1-.021h0c2.25-.492,3.557-1.373,4.233-2.849a4.955,4.955,0,0,0,.109-2.19,9.007,9.007,0,0,1-.029-1.783,7.9,7.9,0,0,1,.19-.946c.058-.242.119-.49.159-.738a1.577,1.577,0,0,0-.128-1.21c-.692-1.026-1.76-.927-3.444-.643a9.321,9.321,0,0,1-1.94.19,43.539,43.539,0,0,1-4.392-.484c-.173-.033-.309-.054-.471-.07a29.681,29.681,0,0,0-3.137-.151c-.492-.006-.982-.012-1.466-.03-.176,0-.363-.011-.549-.021-.708-.037-1.421-.087-2.133-.137a48.78,48.78,0,0,0-4.885-.181c-.992.031-1.992.029-2.961.026-1.329,0-2.709-.006-4.052.078-.417.026-.824.072-1.237.119l-.654.071-.1,0a12.914,12.914,0,0,1-2.955-.012c-1.581-.231-3.223-.585-4.77-.927l-.069-.018c-.626-.131-1.3-.28-1.955-.428a33.068,33.068,0,0,0-5.26-.669c-.882-.056-1.751-.1-2.618-.14l-1.285-.063c-2.153-.112-4.346-.1-6.466-.1-1.557,0-3.163.01-4.754-.031l-.836-.022c-4.227-.107-8.6-.217-12.915-.442-1.96-.1-3.92-.219-5.873-.337-2.334-.144-4.63-.294-6.923-.445-4.241-.278-8.625-.566-12.938-.79a28.136,28.136,0,0,1-3.7-.516c-.44-.081-.878-.163-1.319-.236a19.27,19.27,0,0,0-2.914-.174c-.535-.006-1.064-.012-1.58-.039-.7-.036-1.4-.057-2.111-.077a41.579,41.579,0,0,1-5.047-.355,32.928,32.928,0,0,0-6.5-.468,74.167,74.167,0,0,1-9.09-.247c-1.09-.075-2.176-.149-3.258-.206-.368-.019-.751-.057-1.137-.1a11.771,11.771,0,0,0-2.019-.09,8.694,8.694,0,0,0-.881.134,5.839,5.839,0,0,1-1.783.138,6.908,6.908,0,0,0-1.889.035c-.224.032-.449.059-.675.085a8.52,8.52,0,0,0-2.1.426c-1.4.563-1.946,2.435-2.43,4.087l-.134.456a8.917,8.917,0,0,0-.06,1.5c-.006.765.006,1.756.039,3.221l.028,1c.015.548.033,1.08.049,1.579l.068,1.783c.013.271.026.506.033.7v.01a31.136,31.136,0,0,0,8.154,1.333c1.9.043,3.409.076,9.786,2.441l2.147.8-2.228.53c-7.743,1.844-8.042,1.888-10.67,1.619a67.6,67.6,0,0,0-7.086-.36c-.033.365-.074,1.029-.116,2.231l-.056,1.435c-.037,1.185-.07,2.5-.1,3.776l-.041,1.335c-.014.462-.028.912-.044,1.341l-.028.753c-.015.322-.028.627-.044.91-.02.443-.051.974-.1,1.411a27.777,27.777,0,0,0,6.131.72c2.792.124,5.678.253,8.346,1.442l2.026.9-2.179.414c-1.286.244-2.555.448-3.771.607-1.5.2-3.036.347-4.579.443a6.163,6.163,0,0,0,.883.3l5.164,1.23-5.306.139c-.962.026-1.939.11-2.883.191-1.233.106-2.511.217-3.807.2-.032.988-.038,1.96-.039,2.792,0,.494,0,.979,0,1.464l0,.731-.006,1.571c0,.392-.006.786-.017,1.187s-.015.822-.033,1.235c-.067,1.459-.162,2.584-.309,3.647l-.037.194c-.015.083-.036.181-.058.278-.109.491-.092.549.06.684a5.4,5.4,0,0,0,1.184.238c.106.014.2.026.269.037a18.018,18.018,0,0,0,2.6.2c.52.015,1.04.031,1.551.069a23.534,23.534,0,0,1,2.636.362l.173.032c1.435.264,1.9.428,2.145.765l.746,1.007-1.249.1c-.435.035-.862.091-1.291.147a14.252,14.252,0,0,1-2.677.179,32.742,32.742,0,0,0-3.662.041l-.392.017c-1.113.04-1.412.085-1.585.931a7.036,7.036,0,0,0-.1.764,10.546,10.546,0,0,0,.024,1.449c.032.422.078.842.122,1.259.049.461.1.919.13,1.368l.018.585c.046,1.686.552,2.739,1.592,3.319l.127.069c2.446,1.361,5.366,1.017,8.193.684.71-.084,1.408-.166,2.086-.22a91.813,91.813,0,0,1,12.164.107l1.087.057c4.4.228,8.859.667,13.177,1.092l.508.051c2.933.287,5.958.585,8.941.812,4.162.319,7.582.458,10.743.438l2.611-.015c8.332-.047,16.947-.1,25.474.347,3.431.178,6.916.3,10.288.417s6.871.24,10.32.419c2.053.106,4.119.333,6.115.551,2.1.231,4.276.468,6.413.562,1.79.082,3.624.258,5.4.43.767.074,1.533.147,2.293.214a24.012,24.012,0,0,1,4.264.908c.408.113.814.226,1.217.331a23.462,23.462,0,0,0,8.213.2c.125-.012.251-.017.377-.017" transform="translate(-36.109 -28.91)"/>
    </g>
  </g>
  <g id="Group_632" data-name="Group 632">
    <g id="Group_631" data-name="Group 631" clip-path="url(#clip-path-2)">
      <path id="Path_4823" data-name="Path 4823" d="M232.2,144.65c-2.785-.133-5.519-.241-8.25-.4a18.728,18.728,0,0,1-3.419-.414c-3.5-.878-5.4-3.259-6.025-6.737a15.451,15.451,0,0,1,.343-7.051c.953-3.367,3.072-5.73,6.609-5.938a50.02,50.02,0,0,1,10.54.487c3.283.51,5.283,3.471,5.2,7.164-.126,5.345-.367,10.695-.774,16.026-.32,4.18-2.878,6.265-7.115,6.107-4.486-.166-8.969-.4-13.454-.62-1.525-.076-2.387-.873-2.351-2.11.038-1.274,1-2.044,2.584-1.98,2.937.118,5.873.274,8.809.414.913.043,1.825.1,2.738.128,3.614.117,4.854-1.208,4.569-5.071m.226-3.944c.145-3.028.41-5.944.382-8.857-.02-2.1-1.273-3.266-3.369-3.453-2.052-.182-4.117-.284-6.176-.3a3.964,3.964,0,0,0-4.172,2.892,10.21,10.21,0,0,0-.256,6.076,3.961,3.961,0,0,0,3.739,3.145c3.237.265,6.49.341,9.851.5" transform="translate(-65.241 -37.897)" fill="#1c1c1e"/>
      <path id="Path_4824" data-name="Path 4824" d="M263.382,148.132c-2.183-.1-4.368-.2-6.551-.314-1.92-.1-2.88-.906-2.792-2.339s1.067-2.09,3.053-2c3.851.181,7.7.372,11.554.547a11.006,11.006,0,0,0,1.665-.033c1.64-.176,2.2-.781,2.226-2.342a2.191,2.191,0,0,0-2.2-2.452c-2.413-.218-4.842-.264-7.256-.477a7.281,7.281,0,0,1-4.672-1.837c-1.9-1.857-1.91-4.182-1.458-6.541a5.132,5.132,0,0,1,4.108-4.292,12.831,12.831,0,0,1,3.3-.315c3.973.134,7.942.355,11.912.549a4.448,4.448,0,0,1,.941.126,2.275,2.275,0,0,1,1.678,2.3,2.223,2.223,0,0,1-2,1.894,8.214,8.214,0,0,1-1.191,0c-3.573-.168-7.146-.35-10.72-.5a10.466,10.466,0,0,0-2.017.1,2.147,2.147,0,0,0-1.842,2.164,2.07,2.07,0,0,0,1.508,2.394,9.268,9.268,0,0,0,1.758.251c2.8.287,5.633.383,8.391.894,2.711.5,4.144,2.556,4.157,5.332a11.137,11.137,0,0,1-.242,2.477c-.666,2.97-2.922,4.663-6.17,4.707-.358,0-.717.008-1.073-.008q-3.038-.14-6.075-.289Z" transform="translate(-77.628 -38.421)" fill="#1c1c1e"/>
      <path id="Path_4825" data-name="Path 4825" d="M180.592,120.564c-.24,5.018-.476,9.966-.715,14.913-.026.556-.04,1.112-.112,1.662a1.949,1.949,0,0,1-2.032,1.762,2.021,2.021,0,0,1-2.017-1.937,8.223,8.223,0,0,1,.017-.951q.669-14.024,1.347-28.049a3.606,3.606,0,0,1,.223-1.392,1.942,1.942,0,0,1,2.367-1.131,1.856,1.856,0,0,1,1.525,1.991c-.079,2.418-.211,4.834-.323,7.251-.024.51-.049,1.02-.082,1.719.567.027,1.065.03,1.558.078,3.2.31,6.437.392,9.573,1.008a7.271,7.271,0,0,1,6.023,7.532c-.031,4.24-.3,8.48-.519,12.718a1.961,1.961,0,0,1-2.156,2.044,2.01,2.01,0,0,1-1.958-2.354c.138-3.567.333-7.132.5-10.7.172-3.766-1.471-5.643-5.23-5.9-2.5-.168-5-.255-7.5-.373a2.613,2.613,0,0,0-.483.1" transform="translate(-53.693 -32.197)" fill="#1c1c1e"/>
      <path id="Path_4826" data-name="Path 4826" d="M181.094,168.957l1.96.1-.4,7.412a3.559,3.559,0,0,0,.63,2.521,3.542,3.542,0,0,0,4.552.244,3.559,3.559,0,0,0,.9-2.439l.4-7.412,1.985.106-.408,7.6a4.992,4.992,0,0,1-1.449,3.639,6.393,6.393,0,0,1-7.528-.4,5.007,5.007,0,0,1-1.044-3.776Z" transform="translate(-55.21 -51.63)" fill="#1c1c1e"/>
      <path id="Path_4827" data-name="Path 4827" d="M198.491,184.016l.424-7.9,1.7.092-.069,1.292a3.4,3.4,0,0,1,1.34-1.124,3.885,3.885,0,0,1,1.8-.28,3.659,3.659,0,0,1,1.489.36,2.18,2.18,0,0,1,.927.882,2.274,2.274,0,0,1,.26.774,8.506,8.506,0,0,1,.01,1.523l-.257,4.794-1.827-.1.218-4.06a3.823,3.823,0,0,0-.268-2.092,1.57,1.57,0,0,0-1.319-.584,2.629,2.629,0,0,0-1.142.172,1.874,1.874,0,0,0-.815.617,1.808,1.808,0,0,0-.319.715,9.135,9.135,0,0,0-.155,1.417l-.194,3.6Z" transform="translate(-60.655 -53.808)" fill="#1c1c1e"/>
      <path id="Path_4828" data-name="Path 4828" d="M213.066,182.83l.424-7.9,1.808.1-.424,7.9Zm.365-11.334a1.077,1.077,0,0,1,.38-.774,1.136,1.136,0,0,1,1.519,1.691,1.079,1.079,0,0,1-.818.286,1.153,1.153,0,0,1-1.081-1.2" transform="translate(-65.109 -52.08)" fill="#1c1c1e"/>
      <path id="Path_4829" data-name="Path 4829" d="M221.728,185.741l-3.693-8.6,1.975.106,1.512,4.069a5.452,5.452,0,0,1,.171.561c.065.249.129.545.194.888q.1-.353.235-.7a7.182,7.182,0,0,1,.309-.7l1.931-3.885,1.967.106Z" transform="translate(-66.627 -54.131)" fill="#1c1c1e"/>
      <path id="Path_4830" data-name="Path 4830" d="M238.642,182.454l-6.319-.338a2.654,2.654,0,0,0,.567,1.765,2.075,2.075,0,0,0,1.542.7,2.7,2.7,0,0,0,1.478-.288,3.02,3.02,0,0,0,1.081-1.13l1.48.933a4.632,4.632,0,0,1-1.746,1.687,4.447,4.447,0,0,1-2.341.46,4.03,4.03,0,0,1-2.964-1.321,4.259,4.259,0,0,1-.96-3.153,4.211,4.211,0,0,1,1.327-2.994,4.467,4.467,0,0,1,5.971.216,4.194,4.194,0,0,1,.9,3.117Zm-1.81-1.317a1.92,1.92,0,0,0-.581-1.331,2.27,2.27,0,0,0-1.46-.526,2.232,2.232,0,0,0-1.457.356,2.333,2.333,0,0,0-.829,1.269Z" transform="translate(-70.421 -54.313)" fill="#1c1c1e"/>
      <path id="Path_4831" data-name="Path 4831" d="M246.842,179.923a2.569,2.569,0,0,1,.834-1.118,1.876,1.876,0,0,1,1.208-.312,3.159,3.159,0,0,1,.75.133,3.711,3.711,0,0,1,.715.306l-.733,1.5a1.685,1.685,0,0,0-.492-.273,2.168,2.168,0,0,0-.6-.111,1.358,1.358,0,0,0-1.331.652,5.436,5.436,0,0,0-.522,2.4l-.186,3.468-1.808-.1.424-7.921,1.809.1Z" transform="translate(-74.769 -54.543)" fill="#1c1c1e"/>
      <path id="Path_4832" data-name="Path 4832" d="M252.531,185.435l1.544-.737a1.564,1.564,0,0,0,.569.934,2.011,2.011,0,0,0,1.142.37,1.483,1.483,0,0,0,.97-.228.933.933,0,0,0,.387-.744q.034-.643-1.175-1.167-.409-.172-.628-.284a5.176,5.176,0,0,1-1.715-1.162,1.865,1.865,0,0,1-.433-1.345,2.091,2.091,0,0,1,.921-1.672,3.925,3.925,0,0,1,3.785-.119,2.083,2.083,0,0,1,.9,1.015l-1.331.815a1.183,1.183,0,0,0-.464-.623,1.523,1.523,0,0,0-.81-.265,1.307,1.307,0,0,0-.843.2.793.793,0,0,0-.347.637q-.033.617,1.341,1.2.432.182.669.3a4.011,4.011,0,0,1,1.512,1.064,2.014,2.014,0,0,1,.4,1.388,2.223,2.223,0,0,1-.958,1.808,3.757,3.757,0,0,1-2.4.544,3.876,3.876,0,0,1-1.9-.537,2.939,2.939,0,0,1-1.13-1.39" transform="translate(-77.169 -54.653)" fill="#1c1c1e"/>
      <path id="Path_4833" data-name="Path 4833" d="M271.838,184.234l-6.319-.339a2.653,2.653,0,0,0,.566,1.765,2.073,2.073,0,0,0,1.542.706,2.7,2.7,0,0,0,1.479-.288,3.029,3.029,0,0,0,1.081-1.13l1.48.933a4.626,4.626,0,0,1-1.746,1.687,4.446,4.446,0,0,1-2.34.459,4.027,4.027,0,0,1-2.965-1.321,4.26,4.26,0,0,1-.96-3.153,4.216,4.216,0,0,1,1.326-2.994,4.469,4.469,0,0,1,5.971.217,4.2,4.2,0,0,1,.9,3.117Zm-1.81-1.317a1.921,1.921,0,0,0-.58-1.331,2.269,2.269,0,0,0-1.46-.526,2.229,2.229,0,0,0-1.457.356,2.334,2.334,0,0,0-.83,1.269Z" transform="translate(-80.565 -54.857)" fill="#1c1c1e"/>
    </g>
  </g>
</svg>
