
<svg xmlns="http://www.w3.org/2000/svg" xmlns:xlink="http://www.w3.org/1999/xlink" width="1484.518" height="945.392" viewBox="0 0 1484.518 945.392">
  <defs>
    <clipPath id="clip-path">
      <rect id="Rectangle_502" data-name="Rectangle 502" width="495.145" height="332.069" fill="none"/>
    </clipPath>
  </defs>
  <g id="Group_573" data-name="Group 573" transform="matrix(0.978, 0.208, -0.208, 0.978, 140.05, -0.019)">
    <rect id="Rectangle_501" data-name="Rectangle 501" width="1416.924" height="0.8" transform="translate(0.089 564.6) rotate(-23.49)" fill="#1f1f1f"/>
    <path id="Path_4437" data-name="Path 4437" d="M.159,564.761,18.47,674.354l1356.119-226.59L1299.841.4Z" fill="#dd6f6a"/>
    <path id="Path_4438" data-name="Path 4438" d="M1299.775,0,.092,564.358l.136.812L1299.909.812Z" fill="#1f1f1f"/>
    <path id="Path_4439" data-name="Path 4439" d="M1312.884,78.458l.136.812L4.371,589.967l-.134-.8Z" fill="#1f1f1f"/>
    <path id="Path_4440" data-name="Path 4440" d="M1325.859,156.112l.133.8L8.482,614.567l-.133-.8Z" fill="#1f1f1f"/>
    <path id="Path_4441" data-name="Path 4441" d="M1338.7,232.953l.133.8L12.56,638.977l-.133-.8Z" fill="#1f1f1f"/>
    <path id="Path_4442" data-name="Path 4442" d="M1351.408,309.022l.132.788L16.607,663.2l-.133-.8Z" fill="#1f1f1f"/>
    <path id="Path_4443" data-name="Path 4443" d="M1363.986,384.3l.133.8L249.358,635.775l-14.09,2.355Z" fill="#1f1f1f"/>
  </g>
  <g id="Group_575" data-name="Group 575" transform="translate(828.889 126.297)">
    <g id="Group_574" data-name="Group 574" transform="translate(30 120)" clip-path="url(#clip-path)">
      <path id="Path_4444" data-name="Path 4444" d="M253.455,145.645c91.216,6.519,162.191,53.367,158.527,104.637s-80.58,87.549-171.8,81.03S78,277.945,81.659,226.675s80.58-87.549,171.8-81.03" fill="#1f1f1f"/>
      <path id="Path_4445" data-name="Path 4445" d="M241.632,101.838A121.44,121.44,0,1,1,101.838,2.071a121.441,121.441,0,0,1,139.794,99.767" fill="#66b2ad"/>
      <path id="Path_4446" data-name="Path 4446" d="M141.931,242.026a121.84,121.84,0,1,1,100.1-140.254,121.977,121.977,0,0,1-100.1,140.254M101.9,2.466A121.041,121.041,0,1,0,241.238,101.9,121.179,121.179,0,0,0,101.9,2.466" fill="#1f1f1f"/>
      <path id="Path_4447" data-name="Path 4447" d="M60.693,46.84c7.816,5.579,7.514,19.405-.677,30.882S38.849,93.98,31.032,88.4,23.517,69,31.708,57.518,52.875,41.261,60.693,46.84" fill="#9dd0bb"/>
      <path id="Path_4448" data-name="Path 4448" d="M41.594,90.89A14.155,14.155,0,0,1,30.8,88.726c-3.892-2.777-5.964-7.594-5.834-13.563a32.71,32.71,0,0,1,6.416-17.876C39.688,45.648,52.94,40.818,60.925,46.515s7.722,19.8-.583,31.44a32.712,32.712,0,0,1-14.82,11.877,21.682,21.682,0,0,1-3.928,1.058m8.644-45.741c-6.306,1.054-13.174,5.552-18.2,12.6A31.9,31.9,0,0,0,25.766,75.18c-.125,5.7,1.828,10.276,5.5,12.895s8.635,2.979,13.982,1.007A31.9,31.9,0,0,0,59.691,77.49c8.05-11.279,8.395-24.882.769-30.325a13.438,13.438,0,0,0-10.222-2.016" fill="#1f1f1f"/>
      <path id="Path_4449" data-name="Path 4449" d="M434.422,77.795c34.91,2.5,62.073,20.424,60.67,40.046s-30.839,33.506-65.748,31.011-62.073-20.424-60.671-40.046S399.512,75.3,434.422,77.795" fill="#1f1f1f"/>
      <path id="Path_4450" data-name="Path 4450" d="M429.9,61.03a46.477,46.477,0,1,1-53.5-38.182A46.477,46.477,0,0,1,429.9,61.03" fill="#9dd0bb"/>
      <path id="Path_4451" data-name="Path 4451" d="M391.781,114.925a46.876,46.876,0,1,1,38.51-53.961,46.93,46.93,0,0,1-38.51,53.961M376.462,23.242A46.077,46.077,0,1,0,429.5,61.1a46.128,46.128,0,0,0-53.041-37.854" fill="#1f1f1f"/>
      <path id="Path_4452" data-name="Path 4452" d="M353.382,57.07a5.675,5.675,0,0,1-4.316-.858c-3.166-2.26-3.091-7.812.166-12.376s8.484-6.44,11.65-4.18,3.093,7.812-.165,12.376a11.93,11.93,0,0,1-7.335,5.038m3.3-17.5a11.164,11.164,0,0,0-6.8,4.727c-3,4.206-3.159,9.258-.351,11.262s7.533.212,10.535-3.994,3.159-9.258.352-11.262a4.91,4.91,0,0,0-3.733-.733" fill="#1f1f1f"/>
    </g>
  </g>
</svg>
