<svg id="Group_570" data-name="Group 570" xmlns="http://www.w3.org/2000/svg" xmlns:xlink="http://www.w3.org/1999/xlink" width="960.904" height="593.941" viewBox="0 0 960.904 593.941">
  <defs>
    <clipPath id="clip-path">
      <rect id="Rectangle_495" data-name="Rectangle 495" width="960.904" height="593.941" fill="none"/>
    </clipPath>
  </defs>
  <g id="Group_569" data-name="Group 569" clip-path="url(#clip-path)">
    <path id="Path_4364" data-name="Path 4364" d="M960.211,192.817C927.52,380.512,790.66,523.92,619.376,574.024A481.469,481.469,0,0,1,401.07,586.078q-5.742-1-11.4-2.13a482.269,482.269,0,0,1-50.6-12.9C111.067,499.72-34.294,268.665,7.808,26.937Z" fill="#66b2ad"/>
    <path id="Path_4365" data-name="Path 4365" d="M922.882,185.508C891.437,366.048,765.754,511.919,604.9,570.7c-68.734,20.1-135.392,30.541-210.691,17.426-3.828-.667-17.915-3.93-21.686-4.69-17.266-3.42-31.478-10.557-47.926-15.713,239.729-16.641,363.531-179.483,369.13-392.027Z" fill="#1f1f1f"/>
    <path id="Path_4366" data-name="Path 4366" d="M960.212,192.816a11.665,11.665,0,0,1-1.655,4.228c-21.634,34.672-233.8,28.186-486.958-15.921C208.6,135.318.951,66.283,7.81,26.941S233.425-7.182,496.422,38.623C590.765,55.06,677.99,74.479,750.737,94.447c26.314,7.218,50.737,14.516,72.912,21.765,56.159,18.359,97.955,36.422,119.749,52.342,12.133,8.864,18.07,17.058,16.814,24.262" fill="#faf2e3"/>
    <path id="Path_4367" data-name="Path 4367" d="M843.58,170.641c-5.17,29.686-170.206,25.738-368.617-8.819S119.9,75.184,125.069,45.5,295.276,19.76,493.687,54.317,848.751,140.954,843.58,170.641" fill="#9dd0bb"/>
    <path id="Path_4368" data-name="Path 4368" d="M800.869,188.7c-17.911,2.079-41.112,2.825-69.145,2.155-69.648-1.667-160.866-11.791-256.852-28.509s-185.256-38.029-251.366-60.008C157.14,80.273,122,60.055,124.547,45.407s42.461-21.794,112.379-20.121c69.648,1.666,160.866,11.791,256.852,28.508S679.034,91.824,745.144,113.8c66.366,22.064,101.51,42.282,98.959,56.93l-.523-.091.523.091c-1.528,8.775-16.472,14.86-43.234,17.966M167.963,28.528c-26.094,3.029-40.939,8.84-42.371,17.061-2.415,13.863,33.4,34.18,98.248,55.741C289.9,123.292,379.119,144.59,475.054,161.3s187.1,26.828,256.7,28.493c68.323,1.636,108.895-5.379,111.309-19.242s-33.4-34.18-98.248-55.741C678.747,92.846,589.532,71.549,493.6,54.84S306.5,28.011,236.9,26.346c-27.811-.665-51.025.1-68.937,2.182" fill="#1f1f1f"/>
    <path id="Path_4369" data-name="Path 4369" d="M610.32,126.28c-1.806,10.361-59.385,8.986-128.631-3.075-1.664-.29-3.307-.576-4.947-.883-49.3-8.874-90.531-20.744-108.09-30.431-6.275-3.447-9.52-6.634-9.06-9.28s4.593-4.549,11.664-5.671c19.8-3.16,62.618-.39,112.011,7.924,1.646.266,3.29.553,4.953.842,69.246,12.061,123.9,30.232,122.1,40.574" fill="#e0645f"/>
    <path id="Path_4370" data-name="Path 4370" d="M483.265,84.868l-.588,3.4-1.91,10.953-4.024,23.1c-49.292-8.874-90.529-20.744-108.086-30.43l-6.884-4.753-2.408-5.017,1.805-1.565,1.251-1.085,8.835-2.531c13.575-2.174,38-1.55,67.953,1.754,13.7,1.5,28.559,3.561,44.056,6.172" fill="#1f1f1f"/>
    <path id="Path_4371" data-name="Path 4371" d="M490.954,70.008C357.13,46.7,245.817,44.037,242.33,64.059s102.171,55.15,236,78.458,245.136,25.972,248.624,5.948S624.777,93.316,490.954,70.008m-9.267,53.2c-69.236-12.059-123.9-30.232-122.1-40.591s59.395-8.982,128.631,3.077,123.9,30.233,122.1,40.592-59.393,8.981-128.63-3.078" fill="#f3c1c8"/>
    <path id="Path_4372" data-name="Path 4372" d="M903.674,216.581c-23.737,2.755-54.522,3.745-91.726,2.854-92.312-2.208-213.216-15.627-340.439-37.786s-245.543-50.4-333.166-79.535C50.465,72.9,3.921,46.168,7.286,26.846S63.489-1.9,156.073.318C248.385,2.526,369.288,15.946,496.511,38.1s245.544,50.405,333.166,79.535c87.879,29.216,134.423,55.947,131.057,75.269l-.523-.091.523.091c-2.013,11.557-21.728,19.572-57.06,23.673M64.752,4.272C30.011,8.305,10.242,16.057,8.331,27.028,5.114,45.5,52.624,72.5,138.677,101.107c87.575,29.115,205.842,57.347,333.014,79.5s248.021,35.564,340.282,37.771c90.656,2.168,144.5-7.18,147.716-25.649s-44.292-45.471-130.346-74.08C741.769,89.531,623.5,61.3,496.329,39.149S248.308,3.586,156.047,1.378C119.239.5,88.5,1.516,64.752,4.272" fill="#1f1f1f"/>
    <path id="Path_4373" data-name="Path 4373" d="M698.276,160.776c-15.161,1.759-33.267,1.818-46.775,1.495-46.984-1.125-108.518-7.954-173.267-19.231s-124.968-25.654-169.565-40.48c-25.977-8.636-69.205-25.134-66.861-38.592s48.6-14.369,75.971-13.714c46.985,1.125,108.518,7.954,173.266,19.231s124.968,25.654,169.566,40.48c25.976,8.636,69.2,25.134,66.861,38.591l-.523-.091.523.091c-1.187,6.816-13.641,10.414-29.2,12.22M271.173,52.784c-17.449,2.026-27.367,5.9-28.32,11.366-1.613,9.258,22.5,22.891,66.151,37.4,44.549,14.811,104.714,29.173,169.412,40.441s126.177,18.093,173.11,19.216c45.989,1.1,73.289-3.579,74.9-12.836s-22.5-22.89-66.151-37.4C615.727,96.161,555.561,81.8,490.863,70.53S364.687,52.438,317.753,51.315c-18.811-.45-34.5.067-46.58,1.469" fill="#1f1f1f"/>
    <path id="Path_4374" data-name="Path 4374" d="M595.559,132.936a184.906,184.906,0,0,1-24.282.752c-24.321-.582-56.17-4.117-89.681-9.954s-64.68-13.277-87.765-20.952c-16.512-5.489-35.946-13.459-34.763-20.253s22.166-7.723,39.563-7.307c24.321.582,56.17,4.117,89.681,9.954s64.68,13.277,87.765,20.952c16.511,5.489,35.946,13.459,34.763,20.253-.632,3.628-6.915,5.584-15.281,6.555m-221.18-55.9c-8.8,1.021-13.792,2.952-14.266,5.672-.81,4.652,11.6,11.6,34.053,19.065,23.037,7.658,54.151,15.086,87.612,20.913s65.254,9.358,89.524,9.939c23.653.566,37.683-1.778,38.493-6.429s-11.6-11.6-34.053-19.064c-23.037-7.659-54.152-15.087-87.612-20.914s-65.255-9.358-89.524-9.939a181,181,0,0,0-24.227.757" fill="#1f1f1f"/>
    <path id="Path_4375" data-name="Path 4375" d="M539.8,590.7a482.59,482.59,0,0,1-138.824-4.1,480.863,480.863,0,0,1-179.037-69.783A483.5,483.5,0,0,1,7.286,26.846l1.045.182C-37.352,289.318,138.87,539.873,401.16,585.556c127.06,22.13,255.131-6.544,360.622-80.74s175.777-185.032,197.906-312.09l1.045.182A484.114,484.114,0,0,1,539.8,590.7" fill="#1f1f1f"/>
  </g>
</svg>
