<svg id="Group_49" data-name="Group 49" xmlns="http://www.w3.org/2000/svg" xmlns:xlink="http://www.w3.org/1999/xlink" width="1365.994" height="770.344" viewBox="0 0 1365.994 770.344">
  <defs>
    <clipPath id="clip-path">
      <rect id="Rectangle_4" data-name="Rectangle 4" width="1365.994" height="770.344" fill="none"/>
    </clipPath>
  </defs>
  <g id="Group_6" data-name="Group 6">
    <g id="Group_5" data-name="Group 5" clip-path="url(#clip-path)">
      <path id="Path_100" data-name="Path 100" d="M406.418,413.457a92.4,92.4,0,0,1,2.638,29.082c-1.935,28.78-18.171,60.82-44.868,73.444-31.928,15.1-68.511,12.264-102.406,6.867-49.255-7.843-112.392-4.648-152.2-40.047-16.059-14.279-20.659-33.3-18.231-53.952,5.351-45.537,40.982-56.582,81.882-58.733,21.716-1.142,43.737-.473,64.891-5.509,23.092-5.5,44.505-17.664,68.084-20.409,47.426-5.521,89.167,25.934,100.214,69.257" fill="#98d5f4"/>
    </g>
  </g>
  <text id="Approach_crew_mates_" data-name="Approach crew mates " transform="translate(135.303 416.443)" fill="#1d1c1f" font-size="24" font-family="Helvetica"><tspan x="0" y="0">Approach crew mates </tspan></text>
  <text id="and_decode_the_map_" data-name="and decode the map " transform="translate(139.695 444.906)" fill="#1d1c1f" font-size="24" font-family="Helvetica"><tspan x="0" y="0">and decode the map </tspan></text>
  <text id="together" transform="translate(205.671 473.37)" fill="#1d1c1f" font-size="24" font-family="Helvetica"><tspan x="0" y="0">together</tspan></text>
  <path id="Path_101" data-name="Path 101" d="M249.149,322.576l10.753-3.025-10.753-3.025-3.468-12.985-3.468,12.985-10.753,3.025,10.753,3.025,3.468,12.985Z" fill="#ebe1d8"/>
  <path id="Path_102" data-name="Path 102" d="M245.681,336.132a.57.57,0,0,1-.551-.424l-3.385-12.67L231.3,320.1a.57.57,0,0,1,0-1.1l10.44-2.938,3.385-12.67a.57.57,0,0,1,1.1,0l3.384,12.67L260.057,319a.57.57,0,0,1,0,1.1l-10.441,2.938-3.384,12.67a.571.571,0,0,1-.551.424m-12.115-16.581,8.8,2.476a.569.569,0,0,1,.4.4l2.917,10.921,2.916-10.921a.571.571,0,0,1,.4-.4l8.8-2.476-8.8-2.476a.571.571,0,0,1-.4-.4l-2.916-10.921-2.917,10.921a.569.569,0,0,1-.4.4Z" fill="#0d0b21"/>
  <path id="Path_103" data-name="Path 103" d="M261.264,351.557l10.753-3.025-10.753-3.025L257.8,332.522l-3.468,12.985-10.753,3.025,10.753,3.025,3.468,12.985Z" fill="#ebe1d8"/>
  <path id="Path_104" data-name="Path 104" d="M257.8,365.113a.57.57,0,0,1-.551-.424l-3.385-12.67-10.44-2.938a.57.57,0,0,1,0-1.1l10.44-2.937,3.385-12.671a.57.57,0,0,1,1.1,0l3.384,12.671,10.441,2.937a.57.57,0,0,1,0,1.1l-10.441,2.938-3.384,12.67a.571.571,0,0,1-.551.424m-12.115-16.582,8.8,2.477a.569.569,0,0,1,.4.4l2.917,10.921,2.916-10.921a.571.571,0,0,1,.4-.4l8.8-2.477-8.8-2.475a.573.573,0,0,1-.4-.4L257.8,334.733l-2.917,10.921a.571.571,0,0,1-.4.4Z" fill="#0d0b21"/>
</svg>
