<svg xmlns="http://www.w3.org/2000/svg" xmlns:xlink="http://www.w3.org/1999/xlink" width="844.67" height="1185.603" viewBox="0 0 844.67 1185.603">
  <defs>
    <clipPath id="clip-path">
      <rect id="Rectangle_244" data-name="Rectangle 244" width="844.67" height="1185.603" transform="translate(0 -0.003)" fill="none"/>
    </clipPath>
  </defs>
  <g id="Group_338" data-name="Group 338" transform="translate(0 0.003)">
    <path id="Path_2114" data-name="Path 2114" d="M285,188.788,167.279,256.752,49.561,188.788v-5.527l-9.572,5.527,127.29,73.491L285,194.315l8.294,4.788,4.786-2.763Z" fill="#140f20"/>
    <path id="Path_2115" data-name="Path 2115" d="M285,188.788,167.279,256.752,49.561,188.788v-5.527l-9.572,5.527,127.29,73.491L285,194.315l8.294,4.788,4.786-2.763Z" fill="none" stroke="#231f20" stroke-miterlimit="10" stroke-width="0.75"/>
    <path id="Path_2116" data-name="Path 2116" d="M285,98.168,154.2,173.684l4.787,2.763L285,103.7l86.772,50.1,4.786-2.764Z" fill="#140f20"/>
    <path id="Path_2117" data-name="Path 2117" d="M285,98.168,154.2,173.684l4.787,2.763L285,103.7l86.772,50.1,4.786-2.764Z" fill="none" stroke="#231f20" stroke-miterlimit="10" stroke-width="0.75"/>
    <path id="Path_2118" data-name="Path 2118" d="M402.715,296.535v5.527l-91.558,52.861,4.786,2.763,96.344-55.624Z" fill="#140f20"/>
    <path id="Path_2119" data-name="Path 2119" d="M402.715,296.535v5.527l-91.558,52.861,4.786,2.763,96.344-55.624Z" fill="none" stroke="#231f20" stroke-miterlimit="10" stroke-width="0.75"/>
    <path id="Path_2120" data-name="Path 2120" d="M481.194,160.606v5.527L350.4,241.649l4.787,2.763,135.583-78.279Z" fill="#140f20"/>
    <path id="Path_2121" data-name="Path 2121" d="M481.194,160.606v5.527L350.4,241.649l4.787,2.763,135.583-78.279Z" fill="none" stroke="#231f20" stroke-miterlimit="10" stroke-width="0.75"/>
    <path id="Path_2122" data-name="Path 2122" d="M441.955,92.641v5.527l-13.08,7.551,4.786,2.764,17.866-10.315Z" fill="#140f20"/>
    <path id="Path_2123" data-name="Path 2123" d="M441.955,92.641v5.527l-13.08,7.551,4.786,2.764,17.866-10.315Z" fill="none" stroke="#231f20" stroke-miterlimit="10" stroke-width="0.75"/>
    <path id="Path_2124" data-name="Path 2124" d="M128.04,47.332v5.527l52.319,30.206-4.786,2.764-57.1-32.97Z" fill="#140f20"/>
    <path id="Path_2125" data-name="Path 2125" d="M128.04,47.332v5.527l52.319,30.206-4.786,2.764-57.1-32.97Z" fill="none" stroke="#231f20" stroke-miterlimit="10" stroke-width="0.75"/>
    <path id="Path_2126" data-name="Path 2126" d="M441.955,47.332v5.527l52.319,30.206-4.786,2.764-57.105-32.97Z" fill="#140f20"/>
    <path id="Path_2127" data-name="Path 2127" d="M441.955,47.332v5.527l52.319,30.206-4.786,2.764-57.105-32.97Z" fill="none" stroke="#231f20" stroke-miterlimit="10" stroke-width="0.75"/>
    <path id="Path_2128" data-name="Path 2128" d="M755.869,47.332v5.527l52.319,30.206L803.4,85.829l-57.1-32.97Z" fill="#140f20"/>
    <path id="Path_2129" data-name="Path 2129" d="M755.869,47.332v5.527l52.319,30.206L803.4,85.829l-57.1-32.97Z" fill="none" stroke="#231f20" stroke-miterlimit="10" stroke-width="0.75"/>
    <path id="Path_2130" data-name="Path 2130" d="M755.869,2.022V7.549L703.55,37.755l4.786,2.764,57.1-32.97Z" fill="#140f20"/>
    <path id="Path_2131" data-name="Path 2131" d="M755.869,2.022V7.549L703.55,37.755l4.786,2.764,57.1-32.97Z" fill="none" stroke="#231f20" stroke-miterlimit="10" stroke-width="0.75"/>
    <path id="Path_2132" data-name="Path 2132" d="M598.912,92.641v5.527l-13.08,7.551,4.786,2.764,17.866-10.315Z" fill="#140f20"/>
    <path id="Path_2133" data-name="Path 2133" d="M598.912,92.641v5.527l-13.08,7.551,4.786,2.764,17.866-10.315Z" fill="none" stroke="#231f20" stroke-miterlimit="10" stroke-width="0.75"/>
    <path id="Path_2134" data-name="Path 2134" d="M755.869,92.641v5.527l-13.08,7.551,4.786,2.764,17.866-10.315Z" fill="#140f20"/>
    <path id="Path_2135" data-name="Path 2135" d="M755.869,92.641v5.527l-13.08,7.551,4.786,2.764,17.866-10.315Z" fill="none" stroke="#231f20" stroke-miterlimit="10" stroke-width="0.75"/>
    <path id="Path_2136" data-name="Path 2136" d="M795.109,477.774V483.3l13.08,7.551-4.786,2.764L785.536,483.3Z" fill="#140f20"/>
    <path id="Path_2137" data-name="Path 2137" d="M795.109,477.774V483.3l13.08,7.551-4.786,2.764L785.536,483.3Z" fill="none" stroke="#231f20" stroke-miterlimit="10" stroke-width="0.75"/>
    <path id="Path_2138" data-name="Path 2138" d="M559.673,477.774V483.3l-13.08,7.551,4.786,2.764L569.245,483.3Z" fill="#140f20"/>
    <path id="Path_2139" data-name="Path 2139" d="M559.673,477.774V483.3l-13.08,7.551,4.786,2.764L569.245,483.3Z" fill="none" stroke="#231f20" stroke-miterlimit="10" stroke-width="0.75"/>
    <path id="Path_2140" data-name="Path 2140" d="M441.955,500.428v5.527l13.08,7.551-4.786,2.764-17.866-10.315Z" fill="#140f20"/>
    <path id="Path_2141" data-name="Path 2141" d="M441.955,500.428v5.527l13.08,7.551-4.786,2.764-17.866-10.315Z" fill="none" stroke="#231f20" stroke-miterlimit="10" stroke-width="0.75"/>
    <path id="Path_2142" data-name="Path 2142" d="M324.237,432.464v5.527l13.08,7.551-4.786,2.764-17.866-10.315Z" fill="#140f20"/>
    <path id="Path_2143" data-name="Path 2143" d="M324.237,432.464v5.527l13.08,7.551-4.786,2.764-17.866-10.315Z" fill="none" stroke="#231f20" stroke-miterlimit="10" stroke-width="0.75"/>
    <path id="Path_2144" data-name="Path 2144" d="M481.194,1021.489v5.527l-13.08,7.551,4.786,2.764,17.866-10.315Z" fill="#140f20"/>
    <path id="Path_2145" data-name="Path 2145" d="M481.194,1021.489v5.527l-13.08,7.551,4.786,2.764,17.866-10.315Z" fill="none" stroke="#231f20" stroke-miterlimit="10" stroke-width="0.75"/>
    <path id="Path_2146" data-name="Path 2146" d="M716.63,568.393v5.527l-52.319,30.206,4.786,2.764,57.1-32.97Z" fill="#140f20"/>
    <path id="Path_2147" data-name="Path 2147" d="M716.63,568.393v5.527l-52.319,30.206,4.786,2.764,57.1-32.97Z" fill="none" stroke="#231f20" stroke-miterlimit="10" stroke-width="0.75"/>
    <path id="Path_2148" data-name="Path 2148" d="M441.955,455.119v5.527l-52.319,30.206,4.786,2.764,57.105-32.97Z" fill="#140f20"/>
    <path id="Path_2149" data-name="Path 2149" d="M441.955,455.119v5.527l-52.319,30.206,4.786,2.764,57.105-32.97Z" fill="none" stroke="#231f20" stroke-miterlimit="10" stroke-width="0.75"/>
    <path id="Path_2150" data-name="Path 2150" d="M638.151,704.322v5.527l-13.08,7.551,4.786,2.764,17.866-10.315Z" fill="#140f20"/>
    <path id="Path_2151" data-name="Path 2151" d="M638.151,704.322v5.527l-13.08,7.551,4.786,2.764,17.866-10.315Z" fill="none" stroke="#231f20" stroke-miterlimit="10" stroke-width="0.75"/>
    <path id="Path_2152" data-name="Path 2152" d="M441.955,772.286v5.527L350.4,830.674l4.786,2.763,96.344-55.624Z" fill="#140f20"/>
    <path id="Path_2153" data-name="Path 2153" d="M441.955,772.286v5.527L350.4,830.674l4.786,2.763,96.344-55.624Z" fill="none" stroke="#231f20" stroke-miterlimit="10" stroke-width="0.75"/>
    <path id="Path_2154" data-name="Path 2154" d="M402.715,976.18v5.527L350.4,1011.913l4.786,2.764,57.105-32.97Z" fill="#140f20"/>
    <path id="Path_2155" data-name="Path 2155" d="M402.715,976.18v5.527L350.4,1011.913l4.786,2.764,57.105-32.97Z" fill="none" stroke="#231f20" stroke-miterlimit="10" stroke-width="0.75"/>
    <path id="Path_2156" data-name="Path 2156" d="M546.593,37.755l4.786,2.763,8.294-4.788,86.772,50.1,4.786-2.763L559.673,30.2Z" fill="#140f20"/>
    <path id="Path_2157" data-name="Path 2157" d="M546.593,37.755l4.786,2.763,8.294-4.788,86.772,50.1,4.786-2.763L559.673,30.2Z" fill="none" stroke="#231f20" stroke-miterlimit="10" stroke-width="0.75"/>
    <path id="Path_2158" data-name="Path 2158" d="M441.955,2.022V7.549L363.476,52.858,285,7.549,232.679,37.755l4.786,2.764L285,13.075l78.478,45.31L451.527,7.549Z" fill="#140f20"/>
    <path id="Path_2159" data-name="Path 2159" d="M441.955,2.022V7.549L363.476,52.858,285,7.549,232.679,37.755l4.786,2.764L285,13.075l78.478,45.31L451.527,7.549Z" fill="none" stroke="#231f20" stroke-miterlimit="10" stroke-width="0.75"/>
    <path id="Path_2160" data-name="Path 2160" d="M206.519,545.738v5.527l52.319,30.206-4.786,2.763-57.1-32.969Z" fill="#140f20"/>
    <path id="Path_2161" data-name="Path 2161" d="M206.519,545.738v5.527l52.319,30.206-4.786,2.763-57.1-32.969Z" fill="none" stroke="#231f20" stroke-miterlimit="10" stroke-width="0.75"/>
    <path id="Path_2162" data-name="Path 2162" d="M245.758,251.225v5.527l52.319,30.206-4.786,2.764-57.1-32.97Z" fill="#140f20"/>
    <path id="Path_2163" data-name="Path 2163" d="M245.758,251.225v5.527l52.319,30.206-4.786,2.764-57.1-32.97Z" fill="none" stroke="#231f20" stroke-miterlimit="10" stroke-width="0.75"/>
    <path id="Path_2164" data-name="Path 2164" d="M677.391,273.88v5.527L559.673,347.371,402.716,256.752v-5.527l-9.573,5.527L559.673,352.9l127.29-73.491Z" fill="#140f20"/>
    <path id="Path_2165" data-name="Path 2165" d="M677.391,273.88v5.527L559.673,347.371,402.716,256.752v-5.527l-9.573,5.527L559.673,352.9l127.29-73.491Z" fill="none" stroke="#231f20" stroke-miterlimit="10" stroke-width="0.75"/>
    <path id="Path_2166" data-name="Path 2166" d="M598.912,228.57V234.1l-39.239,22.655L520.433,234.1l-13.079,7.551,4.786,2.764,8.293-4.789,39.24,22.655L608.484,234.1Z" fill="#140f20"/>
    <path id="Path_2167" data-name="Path 2167" d="M598.912,228.57V234.1l-39.239,22.655L520.433,234.1l-13.079,7.551,4.786,2.764,8.293-4.789,39.24,22.655L608.484,234.1Z" fill="none" stroke="#231f20" stroke-miterlimit="10" stroke-width="0.75"/>
    <path id="Path_2168" data-name="Path 2168" d="M585.832,196.339l4.786,2.763L677.39,149l86.773,50.1,4.786-2.763L677.39,143.478Z" fill="#140f20"/>
    <path id="Path_2169" data-name="Path 2169" d="M585.832,196.339l4.786,2.763L677.39,149l86.773,50.1,4.786-2.763L677.39,143.478Z" fill="none" stroke="#231f20" stroke-miterlimit="10" stroke-width="0.75"/>
    <path id="Path_2170" data-name="Path 2170" d="M755.869,279.407,638.151,211.442v-5.526l-9.572,5.526,127.29,73.492" fill="#140f20"/>
    <path id="Path_2171" data-name="Path 2171" d="M755.869,279.407,638.151,211.442v-5.526l-9.572,5.526,127.29,73.492" fill="none" stroke="#231f20" stroke-miterlimit="10" stroke-width="0.75"/>
    <path id="Path_2172" data-name="Path 2172" d="M834.348,143.478l-39.239-22.655V115.3l-9.573,5.527,48.812,28.182" fill="#140f20"/>
    <path id="Path_2173" data-name="Path 2173" d="M834.348,143.478l-39.239-22.655V115.3l-9.573,5.527,48.812,28.182" fill="none" stroke="#231f20" stroke-miterlimit="10" stroke-width="0.75"/>
    <line id="Line_1" data-name="Line 1" x2="4.786" y2="2.763" transform="translate(821.268 1057.223)" fill="#140f20"/>
    <line id="Line_2" data-name="Line 2" x2="4.786" y2="2.763" transform="translate(821.268 1057.223)" fill="none" stroke="#231f20" stroke-miterlimit="10" stroke-width="0.75"/>
    <path id="Path_2174" data-name="Path 2174" d="M625.071,1034.568l4.786,2.763,8.294-4.788L803.4,1127.951l4.786-2.764-170.037-98.171Z" fill="#140f20"/>
    <path id="Path_2175" data-name="Path 2175" d="M625.071,1034.568l4.786,2.763,8.294-4.788L803.4,1127.951l4.786-2.764-170.037-98.171Z" fill="none" stroke="#231f20" stroke-miterlimit="10" stroke-width="0.75"/>
    <path id="Path_2176" data-name="Path 2176" d="M520.433,1044.144v5.527l130.8,75.516-4.787,2.763-135.583-78.279Z" fill="#140f20"/>
    <path id="Path_2177" data-name="Path 2177" d="M520.433,1044.144v5.527l130.8,75.516-4.787,2.763-135.583-78.279Z" fill="none" stroke="#231f20" stroke-miterlimit="10" stroke-width="0.75"/>
    <path id="Path_2178" data-name="Path 2178" d="M402.715,1072.326l-39.239,22.655L285,1049.671l-39.239,22.655-39.239-22.655v-5.527l-9.573,5.527,9.573,5.527,39.239,22.655L285,1055.2l78.479,45.309,39.239-22.654,86.772,50.1,4.786-2.764Z" fill="#140f20"/>
    <path id="Path_2179" data-name="Path 2179" d="M402.715,1072.326l-39.239,22.655L285,1049.671l-39.239,22.655-39.239-22.655v-5.527l-9.573,5.527,9.573,5.527,39.239,22.655L285,1055.2l78.479,45.309,39.239-22.654,86.772,50.1,4.786-2.764Z" fill="none" stroke="#231f20" stroke-miterlimit="10" stroke-width="0.75"/>
    <path id="Path_2180" data-name="Path 2180" d="M175.573,1127.95l4.786-2.763-13.08-7.552-26.159,15.1h9.572l16.587-9.576Z" fill="#140f20"/>
    <path id="Path_2181" data-name="Path 2181" d="M175.573,1127.95l4.786-2.763-13.08-7.552-26.159,15.1h9.572l16.587-9.576Z" fill="none" stroke="#231f20" stroke-miterlimit="10" stroke-width="0.75"/>
    <path id="Path_2182" data-name="Path 2182" d="M.75,1072.326l104.638,60.413h9.573L10.322,1072.326V1066.8Z" fill="#140f20"/>
    <g id="Group_335" data-name="Group 335">
      <g id="Group_334" data-name="Group 334" clip-path="url(#clip-path)">
        <path id="Path_2183" data-name="Path 2183" d="M10.322,1066.8v5.527l104.638,60.413h-9.573L.75,1072.326Z" fill="none" stroke="#231f20" stroke-miterlimit="10" stroke-width="0.75"/>
      </g>
    </g>
    <path id="Path_2184" data-name="Path 2184" d="M481.194,115.3v5.527l52.319,30.206-4.786,2.763-57.105-32.969Z" fill="#140f20"/>
    <path id="Path_2185" data-name="Path 2185" d="M481.194,115.3v5.527l52.319,30.206-4.786,2.763-57.105-32.969Z" fill="none" stroke="#231f20" stroke-miterlimit="10" stroke-width="0.75"/>
    <path id="Path_2186" data-name="Path 2186" d="M834.348,862.906v5.527L742.79,921.294l4.786,2.763,96.344-55.624Z" fill="#140f20"/>
    <g id="Group_337" data-name="Group 337">
      <g id="Group_336" data-name="Group 336" clip-path="url(#clip-path)">
        <path id="Path_2187" data-name="Path 2187" d="M834.348,862.906v5.527L742.79,921.294l4.786,2.763,96.344-55.624Z" fill="none" stroke="#231f20" stroke-miterlimit="10" stroke-width="0.75"/>
      </g>
    </g>
    <path id="Path_2188" data-name="Path 2188" d="M755.869,370.026l-78.479-45.31V319.19l-9.572,5.526,88.051,50.837" fill="#140f20"/>
    <path id="Path_2189" data-name="Path 2189" d="M755.869,370.026l-78.479-45.31V319.19l-9.572,5.526,88.051,50.837" fill="none" stroke="#231f20" stroke-miterlimit="10" stroke-width="0.75"/>
    <path id="Path_2190" data-name="Path 2190" d="M598.912,364.5v5.527l91.558,52.861-4.786,2.763L589.34,370.026Z" fill="#140f20"/>
    <path id="Path_2191" data-name="Path 2191" d="M598.912,364.5v5.527l91.558,52.861-4.786,2.763L589.34,370.026Z" fill="none" stroke="#231f20" stroke-miterlimit="10" stroke-width="0.75"/>
    <path id="Path_2192" data-name="Path 2192" d="M834.348,551.265,795.109,573.92,520.434,415.336l-39.24,22.655-39.239-22.655v-5.527l-9.572,5.527,48.811,28.182,39.24-22.655L795.109,579.446l39.239-22.654" fill="#140f20"/>
    <path id="Path_2193" data-name="Path 2193" d="M834.348,551.265,795.109,573.92,520.434,415.336l-39.24,22.655-39.239-22.655v-5.527l-9.572,5.527,48.811,28.182,39.24-22.655L795.109,579.446l39.239-22.654" fill="none" stroke="#231f20" stroke-miterlimit="10" stroke-width="0.75"/>
    <path id="Path_2194" data-name="Path 2194" d="M834.348,732.5l-39.239,22.655L755.869,732.5,716.63,755.158,677.391,732.5v-5.527l-9.573,5.527,48.812,28.181,39.239-22.654,39.24,22.654,39.239-22.654" fill="#140f20"/>
    <path id="Path_2195" data-name="Path 2195" d="M834.348,732.5l-39.239,22.655L755.869,732.5,716.63,755.158,677.391,732.5v-5.527l-9.573,5.527,48.812,28.181,39.239-22.654,39.24,22.654,39.239-22.654" fill="none" stroke="#231f20" stroke-miterlimit="10" stroke-width="0.75"/>
    <path id="Path_2196" data-name="Path 2196" d="M481.194,755.158,441.955,732.5v-5.527l-9.573,5.527,48.812,28.182,39.239-22.655,204.49,118.062,4.787-2.763L520.433,732.5Z" fill="#140f20"/>
    <path id="Path_2197" data-name="Path 2197" d="M481.194,755.158,441.955,732.5v-5.527l-9.573,5.527,48.812,28.182,39.239-22.655,204.49,118.062,4.787-2.763L520.433,732.5Z" fill="none" stroke="#231f20" stroke-miterlimit="10" stroke-width="0.75"/>
    <path id="Path_2198" data-name="Path 2198" d="M834.348,641.884l-39.239,22.655-78.479-45.31V613.7l-9.572,5.527,88.051,50.837,39.239-22.655" fill="#140f20"/>
    <path id="Path_2199" data-name="Path 2199" d="M834.348,641.884l-39.239,22.655-78.479-45.31V613.7l-9.572,5.527,88.051,50.837,39.239-22.655" fill="none" stroke="#231f20" stroke-miterlimit="10" stroke-width="0.75"/>
    <path id="Path_2200" data-name="Path 2200" d="M128.04,409.809v5.527l130.8,75.516-4.787,2.763L118.468,415.336Z" fill="#140f20"/>
    <path id="Path_2201" data-name="Path 2201" d="M128.04,409.809v5.527l130.8,75.516-4.787,2.763L118.468,415.336Z" fill="none" stroke="#231f20" stroke-miterlimit="10" stroke-width="0.75"/>
    <path id="Path_2202" data-name="Path 2202" d="M232.678,400.233,237.464,403l8.294-4.788L285,420.863l48.812-28.182-9.573-5.526v5.526L285,415.336l-39.239-22.655Z" fill="#140f20"/>
    <path id="Path_2203" data-name="Path 2203" d="M232.678,400.233,237.464,403l8.294-4.788L285,420.863l48.812-28.182-9.573-5.526v5.526L285,415.336l-39.239-22.655Z" fill="none" stroke="#231f20" stroke-miterlimit="10" stroke-width="0.75"/>
    <path id="Path_2204" data-name="Path 2204" d="M402.715,392.681l-39.239-22.655V364.5l-9.573,5.527,48.812,28.182,39.239-22.655,8.294,4.788,4.786-2.763-13.08-7.552Z" fill="#140f20"/>
    <path id="Path_2205" data-name="Path 2205" d="M402.715,392.681l-39.239-22.655V364.5l-9.573,5.527,48.812,28.182,39.239-22.655,8.294,4.788,4.786-2.763-13.08-7.552Z" fill="none" stroke="#231f20" stroke-miterlimit="10" stroke-width="0.75"/>
    <path id="Path_2206" data-name="Path 2206" d="M167.279,885.56v5.527l130.8,75.516-4.786,2.763L157.707,891.088Z" fill="#140f20"/>
    <path id="Path_2207" data-name="Path 2207" d="M167.279,885.56v5.527l130.8,75.516-4.786,2.763L157.707,891.088Z" fill="none" stroke="#231f20" stroke-miterlimit="10" stroke-width="0.75"/>
    <path id="Path_2208" data-name="Path 2208" d="M167.279,749.631v5.527l91.558,52.861-4.786,2.763-96.344-55.624Z" fill="#140f20"/>
    <path id="Path_2209" data-name="Path 2209" d="M167.279,749.631v5.527l91.558,52.861-4.786,2.763-96.344-55.624Z" fill="none" stroke="#231f20" stroke-miterlimit="10" stroke-width="0.75"/>
    <path id="Path_2210" data-name="Path 2210" d="M206.519,636.357v5.527l52.319,30.206-4.786,2.763-57.1-32.969Z" fill="#140f20"/>
    <path id="Path_2211" data-name="Path 2211" d="M206.519,636.357v5.527l52.319,30.206-4.786,2.763-57.1-32.969Z" fill="none" stroke="#231f20" stroke-miterlimit="10" stroke-width="0.75"/>
    <path id="Path_2212" data-name="Path 2212" d="M402.715,704.322v5.527L363.476,732.5l-39.24-22.655-52.319,30.206,4.787,2.764,47.532-27.444,39.24,22.655,48.811-28.181Z" fill="#140f20"/>
    <path id="Path_2213" data-name="Path 2213" d="M402.715,704.322v5.527L363.476,732.5l-39.24-22.655-52.319,30.206,4.787,2.764,47.532-27.444,39.24,22.655,48.811-28.181Z" fill="none" stroke="#231f20" stroke-miterlimit="10" stroke-width="0.75"/>
    <path id="Path_2214" data-name="Path 2214" d="M638.151,523.083v5.527l-78.479,45.309-39.239-22.654-78.479,45.309L324.237,528.61l-13.08,7.551,4.786,2.764,8.294-4.789L441.954,602.1l78.479-45.31,39.239,22.655,88.051-50.836Z" fill="#140f20"/>
    <path id="Path_2215" data-name="Path 2215" d="M638.151,523.083v5.527l-78.479,45.309-39.239-22.654-78.479,45.309L324.237,528.61l-13.08,7.551,4.786,2.764,8.294-4.789L441.954,602.1l78.479-45.31,39.239,22.655,88.051-50.836Z" fill="none" stroke="#231f20" stroke-miterlimit="10" stroke-width="0.75"/>
    <path id="Path_2216" data-name="Path 2216" d="M559.673,885.56v5.527l-39.239,22.655L402.716,845.777V840.25l-9.573,5.527,127.291,73.491,48.811-28.181Z" fill="#140f20"/>
    <path id="Path_2217" data-name="Path 2217" d="M559.673,885.56v5.527l-39.239,22.655L402.716,845.777V840.25l-9.573,5.527,127.291,73.491,48.811-28.181Z" fill="none" stroke="#231f20" stroke-miterlimit="10" stroke-width="0.75"/>
    <path id="Path_2218" data-name="Path 2218" d="M507.354,830.674l4.786,2.763,8.294-4.788,86.772,50.1,4.786-2.763L520.434,823.16Z" fill="#140f20"/>
    <path id="Path_2219" data-name="Path 2219" d="M507.354,830.674l4.786,2.763,8.294-4.788,86.772,50.1,4.786-2.763L520.434,823.16Z" fill="none" stroke="#231f20" stroke-miterlimit="10" stroke-width="0.75"/>
    <path id="Path_2220" data-name="Path 2220" d="M311.157,626.781l4.786,2.763,8.294-4.788,117.718,67.965,78.478-45.31,39.24,22.655,39.239-22.655,86.772,50.1,4.786-2.764-91.558-52.861-39.239,22.655-39.24-22.655-78.478,45.31L324.237,619.229Z" fill="#140f20"/>
    <path id="Path_2221" data-name="Path 2221" d="M311.157,626.781l4.786,2.763,8.294-4.788,117.718,67.965,78.478-45.31,39.24,22.655,39.239-22.655,86.772,50.1,4.786-2.764-91.558-52.861-39.239,22.655-39.24-22.655-78.478,45.31L324.237,619.229Z" fill="none" stroke="#231f20" stroke-miterlimit="10" stroke-width="0.75"/>
    <path id="Path_2222" data-name="Path 2222" d="M271.918,875.984l4.786,2.763L285,873.959l235.436,135.929,117.717-67.964,117.718,67.964,39.24-22.655,8.293,4.788,4.787-2.763-13.08-7.551-39.24,22.654L638.151,936.4l-117.717,67.964L285,868.432Z" fill="#140f20"/>
    <path id="Path_2223" data-name="Path 2223" d="M271.918,875.984l4.786,2.763L285,873.959l235.436,135.929,117.717-67.964,117.718,67.964,39.24-22.655,8.293,4.788,4.787-2.763-13.08-7.551-39.24,22.654L638.151,936.4l-117.717,67.964L285,868.432Z" fill="none" stroke="#231f20" stroke-miterlimit="10" stroke-width="0.75"/>
    <path id="Path_2224" data-name="Path 2224" d="M795.109,800.468v-5.527l-9.572,5.527" fill="#140f20"/>
    <path id="Path_2225" data-name="Path 2225" d="M795.109,800.468v-5.527l-9.572,5.527" fill="none" stroke="#231f20" stroke-miterlimit="10" stroke-width="0.75"/>
    <path id="Path_2226" data-name="Path 2226" d="M834.348,415.336,742.79,468.2l4.786,2.764,86.772-50.1" fill="#140f20"/>
    <path id="Path_2227" data-name="Path 2227" d="M834.348,415.336,742.79,468.2l4.786,2.764,86.772-50.1" fill="none" stroke="#231f20" stroke-miterlimit="10" stroke-width="0.75"/>
    <path id="Path_2228" data-name="Path 2228" d="M285,0V7.549L324.237,30.2,363.476,52.86V22.653L324.237,0Z" fill="#525d60"/>
    <path id="Path_2229" data-name="Path 2229" d="M128.04,234.1l39.239,22.655V226.545L154.2,218.994l-26.16-15.1-78.479-45.31v30.206L88.8,211.442Z" fill="#525d60"/>
    <path id="Path_2230" data-name="Path 2230" d="M324.237,181.236,285,158.581v30.207l13.079,7.551Z" fill="#525d60"/>
    <path id="Path_2231" data-name="Path 2231" d="M114.961,1102.532l-26.16-15.1-78.478-45.31v30.207l39.239,22.654L88.8,1117.635l26.16,15.1h13.08v-22.654Z" fill="#525d60"/>
    <path id="Path_2232" data-name="Path 2232" d="M193.439,1102.532l-26.16-15.1v30.206l13.08,7.552,26.16-15.1Z" fill="#525d60"/>
    <path id="Path_2233" data-name="Path 2233" d="M285,1132.739h39.239l-13.08-7.551L285,1110.083Z" fill="#525d60"/>
    <path id="Path_2234" data-name="Path 2234" d="M311.157,1125.187l-26.16-15.1v22.655h39.24Z" fill="none" stroke="#231f20" stroke-miterlimit="10" stroke-width="0.75"/>
    <path id="Path_2235" data-name="Path 2235" d="M206.519,1049.671l39.239,22.655v-30.207l-39.239-22.654Z" fill="#525d60"/>
    <path id="Path_2236" data-name="Path 2236" d="M507.354,1102.532l-26.16-15.1-78.478-45.31v30.207l39.239,22.654,39.239,22.655,13.08,7.552,26.16-15.1Z" fill="#525d60"/>
    <path id="Path_2237" data-name="Path 2237" d="M285,1049.671l78.479,45.31v-30.207L285,1019.465Z" fill="#525d60"/>
    <path id="Path_2238" data-name="Path 2238" d="M795.109,1087.429l-39.239-22.655-39.24-22.655L638.151,996.81v30.206l78.478,45.31,39.24,22.655,52.319,30.206,26.159-15.1-13.079-7.552Z" fill="#525d60"/>
    <path id="Path_2239" data-name="Path 2239" d="M598.912,339.82v30.206l39.239,22.655,39.24,22.655,13.079,7.552,26.16-15.1-13.08-7.551-65.4-37.758Z" fill="#525d60"/>
    <path id="Path_2240" data-name="Path 2240" d="M808.188,83.065l26.16-15.1-39.24-22.655L755.869,22.652V52.859l39.239,22.654Z" fill="#525d60"/>
    <path id="Path_2241" data-name="Path 2241" d="M441.955,505.955l13.08,7.552,26.159-15.1-39.239-22.654Z" fill="#525d60"/>
    <path id="Path_2242" data-name="Path 2242" d="M795.109,483.3l13.08,7.552,26.159-15.1-39.239-22.654Z" fill="#525d60"/>
    <path id="Path_2243" data-name="Path 2243" d="M363.476,143.478l13.08,7.552,26.159-15.1-13.08-7.551-26.159-15.1L285,67.962V98.168l39.24,22.655Z" fill="#525d60"/>
    <path id="Path_2244" data-name="Path 2244" d="M481.194,90.617v30.206l39.239,22.655,13.08,7.552,26.16-15.1-13.08-7.552-26.16-15.1Z" fill="#525d60"/>
    <path id="Path_2245" data-name="Path 2245" d="M258.838,581.471l26.16-15.1-39.24-22.655-39.239-22.655v30.207l39.239,22.654Z" fill="#525d60"/>
    <path id="Path_2246" data-name="Path 2246" d="M167.279,724.952v30.206l39.239,22.655,39.24,22.655,13.079,7.552,26.16-15.1-13.08-7.551-26.159-15.1-13.08-7.552-26.16-15.1Z" fill="#525d60"/>
    <path id="Path_2247" data-name="Path 2247" d="M324.237,407.784V437.99l13.08,7.552,26.159-15.1Z" fill="#525d60"/>
    <path id="Path_2248" data-name="Path 2248" d="M298.077,286.958l26.16-15.1L285,249.2l-39.239-22.655v30.207L285,279.407Z" fill="#525d60"/>
    <path id="Path_2249" data-name="Path 2249" d="M494.274,83.065l26.16-15.1-39.24-22.655L441.955,22.652V52.859l39.239,22.654Z" fill="#525d60"/>
    <path id="Path_2250" data-name="Path 2250" d="M206.519,641.884l39.239,22.655,13.08,7.552,26.16-15.1-39.24-22.655-39.239-22.654Z" fill="#525d60"/>
    <path id="Path_2251" data-name="Path 2251" d="M298.077,966.6l26.16-15.1L285,928.845,245.758,906.19l-39.239-22.655-39.24-22.655v30.207l78.479,45.31L285,959.051Z" fill="#525d60"/>
    <path id="Path_2252" data-name="Path 2252" d="M664.311,1102.532l-26.16-15.1-117.718-67.965v30.207l78.479,45.309,39.239,22.655,13.08,7.552,26.16-15.1Z" fill="#525d60"/>
    <path id="Path_2253" data-name="Path 2253" d="M128.04,52.859l39.239,22.655,13.08,7.551,26.16-15.1-39.24-22.655L128.04,22.653Z" fill="#525d60"/>
    <path id="Path_2254" data-name="Path 2254" d="M167.279,407.784,128.04,385.129v30.207L245.758,483.3l13.079,7.552,26.16-15.1-39.239-22.655-39.24-22.655Z" fill="#525d60"/>
    <path id="Path_2255" data-name="Path 2255" d="M834.348,792.916l-39.239-22.655v30.207" fill="#525d60"/>
    <path id="Path_2256" data-name="Path 2256" d="M520.433,1004.361V974.155L481.194,951.5,363.476,883.535l-13.08-7.551-26.16-15.1-13.079-7.551L285,838.226v30.206l196.2,113.274Z" fill="#525d60"/>
    <path id="Path_2257" data-name="Path 2257" d="M755.869,1004.361V974.155L716.63,951.5l-78.479-45.31V936.4l78.479,45.309Z" fill="#525d60"/>
    <path id="Path_2258" data-name="Path 2258" d="M795.109,981.707l13.08,7.552,26.159-15.1L795.109,951.5Z" fill="#525d60"/>
    <path id="Path_2259" data-name="Path 2259" d="M520.433,883.536l-39.239-22.655-13.08-7.551-26.16-15.1-39.239-22.655v30.207l39.239,22.655,39.24,22.655,39.239,22.654Z" fill="#525d60"/>
    <path id="Path_2260" data-name="Path 2260" d="M520.433,792.916v30.206l39.239,22.655,39.24,22.655,13.079,7.552,26.16-15.1-13.08-7.551-26.159-15.1-13.08-7.552-26.16-15.1-13.079-7.552Z" fill="#525d60"/>
    <path id="Path_2261" data-name="Path 2261" d="M441.955,732.5l39.239,22.655V724.951L441.955,702.3Z" fill="#525d60"/>
    <path id="Path_2262" data-name="Path 2262" d="M742.789,830.674l-26.159-15.1-13.08-7.552-26.16-15.1-13.08-7.552-26.159-15.1-13.08-7.551-26.159-15.1L520.433,702.3V732.5l39.239,22.655,39.24,22.655L716.63,845.777l13.079,7.552,26.16-15.1Z" fill="#525d60"/>
    <path id="Path_2263" data-name="Path 2263" d="M677.391,732.5l39.239,22.655V724.951L677.391,702.3Z" fill="#525d60"/>
    <path id="Path_2264" data-name="Path 2264" d="M834.348,732.5v0Z" fill="#525d60"/>
    <path id="Path_2265" data-name="Path 2265" d="M755.869,732.5l39.239,22.655V724.951L755.869,702.3Z" fill="#525d60"/>
    <path id="Path_2266" data-name="Path 2266" d="M795.109,543.713,755.87,521.058l-13.08-7.551-26.16-15.1-13.079-7.551L598.911,430.439l-39.239-22.655-13.08-7.552-26.159-15.1v30.207L638.151,483.3l39.239,22.655L716.63,528.61l39.24,22.655,39.239,22.654Z" fill="#525d60"/>
    <path id="Path_2267" data-name="Path 2267" d="M441.955,415.336l39.239,22.655V407.784L441.955,385.13Z" fill="#525d60"/>
    <path id="Path_2268" data-name="Path 2268" d="M834.348,551.265v0Z" fill="#525d60"/>
    <path id="Path_2269" data-name="Path 2269" d="M363.476,339.82v30.206l39.239,22.655V362.475Z" fill="#525d60"/>
    <path id="Path_2270" data-name="Path 2270" d="M441.955,339.82v30.206l13.08,7.552,26.159-15.1Z" fill="#525d60"/>
    <path id="Path_2271" data-name="Path 2271" d="M324.237,709.849,363.476,732.5V702.3l-39.239-22.654Z" fill="#525d60"/>
    <path id="Path_2272" data-name="Path 2272" d="M598.912,611.678v30.206l78.479,45.31,13.079,7.552,26.16-15.1Z" fill="#525d60"/>
    <path id="Path_2273" data-name="Path 2273" d="M520.433,641.884l39.239,22.655V634.332l-39.239-22.654Z" fill="#525d60"/>
    <path id="Path_2274" data-name="Path 2274" d="M324.237,619.229l117.718,67.964V656.987l-78.479-45.31-39.239-22.654Z" fill="#525d60"/>
    <path id="Path_2275" data-name="Path 2275" d="M324.237,528.61l78.479,45.31,39.239,22.654V566.368l-78.479-45.31L324.237,498.4Z" fill="#525d60"/>
    <path id="Path_2276" data-name="Path 2276" d="M559.673,543.713l-39.239-22.655v30.207l39.239,22.654Z" fill="#525d60"/>
    <path id="Path_2277" data-name="Path 2277" d="M285,385.129l-39.239-22.655v30.207L285,415.336Z" fill="#525d60"/>
    <path id="Path_2278" data-name="Path 2278" d="M402.715,256.752l78.479,45.31,39.239,22.654,39.239,22.655V317.165l-13.079-7.552-26.16-15.1-39.239-22.655L441.954,249.2l-39.239-22.654Z" fill="#525d60"/>
    <path id="Path_2279" data-name="Path 2279" d="M520.433,203.891V234.1l39.239,22.655V226.546l-13.079-7.552Z" fill="#525d60"/>
    <path id="Path_2280" data-name="Path 2280" d="M559.673,0V30.2L598.912,52.86l39.239,22.654,13.08,7.551,26.159-15.1L638.151,45.308l-13.08-7.552-26.159-15.1Z" fill="#525d60"/>
    <path id="Path_2281" data-name="Path 2281" d="M677.391,143.478l39.239,22.655,39.24,22.655,13.079,7.551,26.16-15.1L755.87,158.581l-13.08-7.551-26.16-15.1-13.079-7.551-26.16-15.1Z" fill="#525d60"/>
    <path id="Path_2282" data-name="Path 2282" d="M755.869,249.2l-13.08-7.552-26.159-15.1-13.08-7.551-26.16-15.1-39.239-22.654v30.206L677.39,234.1l39.24,22.655,39.239,22.654Z" fill="#525d60"/>
    <path id="Path_2283" data-name="Path 2283" d="M834.348,113.272,795.109,90.617v30.207l39.239,22.654Z" fill="#525d60"/>
    <path id="Path_2284" data-name="Path 2284" d="M677.391,294.51v30.206l39.239,22.655,39.24,22.655V339.82l-13.08-7.552-26.16-15.1Z" fill="#525d60"/>
    <path id="Path_2285" data-name="Path 2285" d="M834.348,415.336v0Z" fill="#525d60"/>
    <path id="Path_2286" data-name="Path 2286" d="M834.348,641.884v0Z" fill="#525d60"/>
    <path id="Path_2287" data-name="Path 2287" d="M795.109,634.333,755.87,611.678l-39.24-22.655V619.23l39.24,22.655,39.239,22.654Z" fill="#525d60"/>
    <path id="Path_2288" data-name="Path 2288" d="M716.63,543.713l-78.479,45.31,26.16,15.1,13.08-7.552,39.239-22.655Z" fill="#9db0b1"/>
    <path id="Path_2289" data-name="Path 2289" d="M834.348,611.678l-39.239,22.655v30.206l39.239-22.655Z" fill="#9db0b1"/>
    <path id="Path_2290" data-name="Path 2290" d="M245.758,0l-39.24,22.655,26.16,15.1,13.08-7.551L285,7.549V0Z" fill="#9db0b1"/>
    <path id="Path_2291" data-name="Path 2291" d="M402.716,0l-39.24,22.655V52.86L402.716,30.2,441.955,7.549V0Z" fill="#9db0b1"/>
    <path id="Path_2292" data-name="Path 2292" d="M285,188.788V158.582l-39.239,22.654-39.24,22.655-26.159,15.1-13.08,7.552v30.206L206.518,234.1l39.24-22.655Z" fill="#9db0b1"/>
    <path id="Path_2293" data-name="Path 2293" d="M141.12,1102.532l-13.08,7.552v22.654h13.08l26.16-15.1v-30.206Z" fill="#9db0b1"/>
    <path id="Path_2294" data-name="Path 2294" d="M258.838,1125.188l-13.08,7.551H285v-22.655Z" fill="#9db0b1"/>
    <path id="Path_2295" data-name="Path 2295" d="M258.838,1125.187l-13.08,7.552H285v-22.655Z" fill="none" stroke="#231f20" stroke-miterlimit="10" stroke-width="0.75"/>
    <path id="Path_2296" data-name="Path 2296" d="M415.8,1125.188l-13.08,7.551h39.239v-22.655Z" fill="#9db0b1"/>
    <path id="Path_2297" data-name="Path 2297" d="M415.8,1125.187l-13.08,7.552h39.24v-22.655Z" fill="none" stroke="#231f20" stroke-miterlimit="10" stroke-width="0.75"/>
    <path id="Path_2298" data-name="Path 2298" d="M729.709,1125.188l-6.461,3.73-6.618,3.821h39.239v-22.655Z" fill="#9db0b1"/>
    <path id="Path_2299" data-name="Path 2299" d="M729.71,1125.187l-13.08,7.552h39.24v-22.655Z" fill="none" stroke="#231f20" stroke-miterlimit="10" stroke-width="0.75"/>
    <path id="Path_2300" data-name="Path 2300" d="M245.758,1072.326,285,1049.671v-30.206l-39.239,22.655Z" fill="#9db0b1"/>
    <path id="Path_2301" data-name="Path 2301" d="M402.715,1042.12l-39.239,22.655v30.206l39.239-22.655Z" fill="#9db0b1"/>
    <path id="Path_2302" data-name="Path 2302" d="M625.071,1034.568l13.08-7.552V996.81l-39.239,22.655Z" fill="#9db0b1"/>
    <path id="Path_2303" data-name="Path 2303" d="M795.109,1042.12l26.16,15.1,13.079-7.551" fill="#9db0b1"/>
    <path id="Path_2304" data-name="Path 2304" d="M350.4,830.674l13.08-7.552,78.478-45.309V747.606l-39.239,22.655-26.16,15.1h0l-13.08,7.552-26.16,15.1-13.08,7.552Z" fill="#9db0b1"/>
    <path id="Path_2305" data-name="Path 2305" d="M311.157,354.923l13.08-7.552,39.239-22.654,39.239-22.655V271.855L363.476,294.51l-26.159,15.1-13.08,7.552L285,339.82Z" fill="#9db0b1"/>
    <path id="Path_2306" data-name="Path 2306" d="M742.789,921.294l13.08-7.552,78.478-45.309V838.226l-39.239,22.655-39.239,22.655L716.63,906.191Z" fill="#9db0b1"/>
    <path id="Path_2307" data-name="Path 2307" d="M441.955,430.439l-78.479,45.31,26.16,15.1,13.08-7.552,39.239-22.655Z" fill="#9db0b1"/>
    <path id="Path_2308" data-name="Path 2308" d="M559.673,453.094l-39.239,22.655,26.159,15.1,13.08-7.552Z" fill="#9db0b1"/>
    <path id="Path_2309" data-name="Path 2309" d="M402.715,981.707V951.5l-39.239,22.654-39.24,22.655,26.16,15.1,13.08-7.551Z" fill="#9db0b1"/>
    <path id="Path_2310" data-name="Path 2310" d="M468.114,1034.568l13.08-7.552V996.81l-39.24,22.655Z" fill="#9db0b1"/>
    <path id="Path_2311" data-name="Path 2311" d="M625.071,717.4l13.08-7.552V679.642L598.912,702.3Z" fill="#9db0b1"/>
    <path id="Path_2312" data-name="Path 2312" d="M428.875,105.72l13.08-7.552V67.962l-39.24,22.655Z" fill="#9db0b1"/>
    <path id="Path_2313" data-name="Path 2313" d="M363.476,234.1l39.239-22.655,78.479-45.309V135.926l-39.239,22.655-78.479,45.31-26.16,15.1-13.079,7.551,26.159,15.1Z" fill="#9db0b1"/>
    <path id="Path_2314" data-name="Path 2314" d="M755.869,67.962,716.63,90.617l26.159,15.1,13.08-7.552Z" fill="#9db0b1"/>
    <path id="Path_2315" data-name="Path 2315" d="M154.2,173.684l13.08-7.552,39.239-22.654,39.239-22.655L285,98.168V67.962l-39.24,22.654-39.239,22.655-26.159,15.1-13.08,7.552-39.24,22.655Z" fill="#9db0b1"/>
    <path id="Path_2316" data-name="Path 2316" d="M585.832,105.72l13.08-7.552V67.962L559.673,90.617Z" fill="#9db0b1"/>
    <path id="Path_2317" data-name="Path 2317" d="M716.63,0,677.391,22.653l26.159,15.1L716.63,30.2,755.87,7.549V0Z" fill="#9db0b1"/>
    <path id="Path_2318" data-name="Path 2318" d="M520.433,974.155v30.206L638.151,936.4V906.191L559.672,951.5Z" fill="#9db0b1"/>
    <path id="Path_2319" data-name="Path 2319" d="M258.838,853.329l-13.08,7.552,26.16,15.1L285,868.432V838.226Z" fill="#9db0b1"/>
    <path id="Path_2320" data-name="Path 2320" d="M795.109,951.5,755.87,974.155v30.206l39.239-22.655Z" fill="#9db0b1"/>
    <path id="Path_2321" data-name="Path 2321" d="M520.433,913.742l39.239-22.655V860.881l-39.239,22.655Z" fill="#9db0b1"/>
    <path id="Path_2322" data-name="Path 2322" d="M520.433,792.916l-26.16,15.1-13.079,7.552,26.159,15.1,13.08-7.552Z" fill="#9db0b1"/>
    <path id="Path_2323" data-name="Path 2323" d="M520.433,702.3l-39.239,22.655v30.206L520.433,732.5Z" fill="#9db0b1"/>
    <path id="Path_2324" data-name="Path 2324" d="M755.869,702.3,716.63,724.952v30.206L755.869,732.5Z" fill="#9db0b1"/>
    <path id="Path_2325" data-name="Path 2325" d="M834.348,702.3l-39.239,22.655v30.206L834.348,732.5Z" fill="#9db0b1"/>
    <path id="Path_2326" data-name="Path 2326" d="M834.348,521.058l-39.239,22.655v30.206l39.239-22.655Z" fill="#9db0b1"/>
    <path id="Path_2327" data-name="Path 2327" d="M520.433,385.129l-26.16,15.1-13.079,7.552V437.99l39.239-22.655Z" fill="#9db0b1"/>
    <path id="Path_2328" data-name="Path 2328" d="M402.715,392.681l39.239-22.655V339.82l-39.239,22.655Z" fill="#9db0b1"/>
    <path id="Path_2329" data-name="Path 2329" d="M324.237,679.642,285,702.3l-39.24,22.655,26.16,15.1L285,732.5l39.239-22.655Z" fill="#9db0b1"/>
    <path id="Path_2330" data-name="Path 2330" d="M402.715,679.642,363.476,702.3V732.5l39.239-22.655Z" fill="#9db0b1"/>
    <path id="Path_2331" data-name="Path 2331" d="M520.433,641.884V611.678l-39.239,22.654-39.24,22.655v30.207l39.24-22.655Z" fill="#9db0b1"/>
    <path id="Path_2332" data-name="Path 2332" d="M324.237,619.229V589.023L285,611.677l26.159,15.1Z" fill="#9db0b1"/>
    <path id="Path_2333" data-name="Path 2333" d="M598.912,611.678l-39.239,22.655v30.206l39.239-22.655Z" fill="#9db0b1"/>
    <path id="Path_2334" data-name="Path 2334" d="M311.157,536.162l13.08-7.552V498.4L285,521.059Z" fill="#9db0b1"/>
    <path id="Path_2335" data-name="Path 2335" d="M441.955,566.368v30.206l39.239-22.654,39.24-22.655V521.058l-39.24,22.655Z" fill="#9db0b1"/>
    <path id="Path_2336" data-name="Path 2336" d="M638.151,498.4l-78.479,45.31V573.92l78.479-45.31Z" fill="#9db0b1"/>
    <path id="Path_2337" data-name="Path 2337" d="M245.758,362.475,206.519,385.13l26.159,15.1,13.08-7.552Z" fill="#9db0b1"/>
    <path id="Path_2338" data-name="Path 2338" d="M324.237,362.475,285,385.13v30.206l39.239-22.655Z" fill="#9db0b1"/>
    <path id="Path_2339" data-name="Path 2339" d="M677.391,279.407V249.2L598.912,294.51l-26.159,15.1-13.08,7.552v30.206l39.239-22.654,39.24-22.655Z" fill="#9db0b1"/>
    <path id="Path_2340" data-name="Path 2340" d="M507.353,241.649l13.08-7.552V203.891l-26.16,15.1-13.08,7.552Z" fill="#9db0b1"/>
    <path id="Path_2341" data-name="Path 2341" d="M598.912,203.891l-39.239,22.655v30.206L598.912,234.1Z" fill="#9db0b1"/>
    <path id="Path_2342" data-name="Path 2342" d="M559.673,0l-39.24,22.655,26.159,15.1L559.673,30.2Z" fill="#9db0b1"/>
    <path id="Path_2343" data-name="Path 2343" d="M559.673,181.236l26.159,15.1,13.08-7.551,78.479-45.31V113.272l-26.16,15.1-13.079,7.551-39.24,22.655Z" fill="#9db0b1"/>
    <path id="Path_2344" data-name="Path 2344" d="M834.348,203.891l-26.16,15.1-13.079,7.552L755.869,249.2v30.206l78.479-45.31" fill="#9db0b1"/>
    <path id="Path_2345" data-name="Path 2345" d="M834.348,143.478v0Z" fill="#9db0b1"/>
    <path id="Path_2346" data-name="Path 2346" d="M834.348,294.51l-26.16,15.1-13.079,7.552-39.24,22.655v30.206l78.479-45.31" fill="#9db0b1"/>
    <path id="Path_2347" data-name="Path 2347" d="M834.348,385.129l-26.16,15.1-13.079,7.552-39.24,22.655L716.63,453.094l26.16,15.1,13.079-7.552,78.479-45.31Z" fill="#9db0b1"/>
    <path id="Path_2349" data-name="Path 2349" d="M333.809,0l29.667,17.128L393.142,0Z" fill="#e1e1df"/>
    <path id="Path_2351" data-name="Path 2351" d="M834.348,435.966l-29.667,17.128,39.239,22.655-48.812,28.182-88.051-50.837L834.348,379.6" fill="#b5c2c5"/>
    <path id="Path_2352" data-name="Path 2352" d="M804.681,90.617l29.667,17.128L826.21,78.188ZM826.21,78.188l17.71-10.226-24.406-14.09ZM804.681,0,765.442,22.653l54.072,31.219Z" fill="#e1e1df"/>
  </g>
</svg>
