<svg xmlns="http://www.w3.org/2000/svg" width="844.67" height="1185.603" viewBox="0 0 844.67 1185.603">
  <path id="Path_2348" data-name="Path 2348" d="M795.109,1132.739l39.239-22.655-35.672-20.595ZM10.323,1042.12,285,1089.489l-156.957,20.595,39.239-22.655,39.239,22.655-39.239,22.655h78.479L285,1110.084l39.239,22.655h78.479l39.239-22.655-39.239-22.655-39.24,22.655L285,1064.774l-39.239,22.655L167.28,1042.12l-39.239,22.654-78.479-45.309Zm796.558-52.106,27.467-15.859-24.97-14.416ZM598.913,974.155l-78.479,45.31,156.957,90.619-39.239,22.655H716.63l39.24-22.655-39.24-22.655-117.717-67.964,39.239-22.655,78.478,45.31,39.24,22.654,42.806,24.715,8.2-99.475-51.011,29.451L716.63,996.81l-39.239-22.655L638.152,951.5ZM818.652,847.288l-3.923,47.576,19.619-11.328V838.227Zm11.772-142.725L826.5,752.138l-31.391,18.124L826.5,752.138l-6.421,77.85,14.269,8.239V702.3ZM795.109,589.024,755.87,566.369l-39.24,22.655,39.24,22.655,39.239,22.654,39.239-22.654v-45.31ZM755.87,475.749l-39.24-22.655,39.24-22.655,39.239-22.655,39.239-22.654v45.309l-39.239,22.655,39.239,22.655L795.109,498.4ZM402.716,317.165l-39.24,22.655,39.24,22.655,39.239-22.655,39.239,22.655L441.955,385.13l39.239,22.654,39.24-22.654,39.24,22.654,39.239,22.655L716.63,498.4l39.24,22.655,39.239,22.655,39.239-22.655V339.82L755.87,385.13l-39.24-22.655L677.391,339.82l-39.239-22.655L598.913,339.82,716.63,407.784l-39.239,22.655-39.239-22.655L520.434,339.82l-39.24-22.655L441.955,294.51ZM677.391,294.51l78.479,45.31V294.51l-39.24-22.654ZM795.109,90.617l39.239,22.655-13.08-37.758Zm26.159-15.1,13.08-7.552L814.729,56.635ZM128.041,158.582l39.239-22.655,78.479-45.31L285,67.962l117.718,67.965-39.24,22.655-39.239-22.655L285,113.272l-39.239,22.655-39.24,22.655L167.28,181.236ZM167.28,0,128.041,22.653,167.28,45.308l39.239,22.654L88.8,135.927l-39.24,22.655L167.28,226.546l78.479-45.31L285,158.582l39.239,22.654L285,203.891l-39.239,22.655L285,249.2l39.239,22.655L285,294.51l-39.239,22.655-39.24,22.655-78.478,45.31,39.239,22.654,39.239,22.655,39.24,22.655L285,475.749,245.759,498.4l-39.24,22.655,39.24,22.655L285,566.369l-39.239,22.655-39.24,22.655,39.24,22.654L285,656.988l-39.239,22.655-78.479,45.31,78.479,45.309L285,792.917l-39.239,22.655L167.28,860.881l39.239,22.655,39.24,22.655L285,928.846,324.237,951.5,285,974.155,245.759,996.81l-39.24,22.655,39.24,22.655L285,1019.465l78.478,45.309,39.24-22.654,78.478,45.309,39.24,22.655-39.24,22.655H638.152l-117.718-67.965-39.24-22.654-39.239-22.655,39.239-22.655-39.239-22.655-78.479,45.31L324.237,996.81l39.239-22.655,39.24-22.654L285,883.536l-39.239-22.655L285,838.227l39.239,22.654,39.239,22.655L481.194,951.5l39.24,22.654,39.24-22.654,78.478-45.31L716.63,951.5l39.24,22.654L795.109,951.5l14.269,8.238,5.351-64.875L755.87,928.846l-39.24-22.655,39.24-22.655,39.239-22.655,23.543-13.593,1.427-17.3L755.87,792.917l-39.24-22.655L598.913,702.3l39.239-22.655-39.239-22.655-39.239,22.655-39.24-22.655-39.24,22.655L441.955,702.3l39.239,22.655,39.24-22.655,196.2,113.274,39.24,22.655-39.24,22.654-196.2-113.274-39.24,22.655-78.478,45.31,78.478,45.309,39.24,22.655,39.24-22.655-39.24-22.654-39.24-22.655,39.24-22.655,117.718,67.964-39.239,22.655-78.479,45.31-39.24-22.655-39.239-22.655-39.239-22.655-78.479-45.309,117.718-67.965-39.239-22.654-78.479,45.309L285,747.607l-39.239-22.654L285,702.3l39.239-22.655L363.476,702.3l39.24-22.655L285,611.679l39.239-22.655,39.239,22.655,78.479,45.309,39.239-22.655,39.24-22.654,39.24,22.654,39.239-22.654L716.63,679.643,677.391,702.3l39.239,22.655L755.87,702.3l39.239,22.655,35.315-20.39,3.924-47.575-39.239,22.655L755.87,656.988l-39.24-22.655-39.239-22.654-39.239-22.655,78.478-45.31-39.239-22.655L559.674,589.024l-39.24-22.655-39.24,22.655-39.239,22.655-39.239-22.655L285,521.059,324.237,498.4l39.239,22.655,78.479,45.31,39.239-22.655,39.24-22.655,39.24,22.655,39.239-22.655L638.152,498.4l-39.239-22.655L559.674,498.4l-39.24-22.655,39.24-22.655-39.24-22.655-39.24,22.655-39.239,22.655L481.194,498.4l-39.239,22.655L402.716,498.4l-39.24-22.655,78.479-45.31-39.239-22.655-39.24-22.654-39.239,22.654,39.239,22.655-39.239,22.655L285,430.439l-39.239-22.655-39.24-22.654,39.24-22.655L285,385.13l39.239-22.655L285,339.82l39.239-22.655,78.479-45.309L363.476,249.2l-39.239-22.655,117.718-67.964,39.239-22.655-78.478-45.31,39.239-22.655L402.716,45.308l-39.24,22.654L324.237,45.308,285,22.653,245.759,45.308l-39.24-22.655L245.759,0ZM324.237,0l39.239,22.655L402.716,0ZM559.674,0,677.391,67.962l-78.478,45.31L559.674,90.617l39.239-22.655L520.434,22.653,559.674,0h-78.48L441.955,22.653l78.479,45.309-39.24,22.655,78.48,45.31L402.716,226.546l156.958,90.619L677.391,249.2l-39.239-22.655-78.478,45.31-78.48-45.31,39.24-22.655,39.24,22.655,39.239-22.655-39.239-22.655,117.717-67.964,117.718,67.964L755.87,203.891l-78.479-45.309-39.239,22.654L755.87,249.2l78.478-90.619L716.63,90.617l39.24-22.655L677.391,22.653,716.63,0ZM795.109,0,755.87,22.653l39.239,22.655,19.62,11.327Z" transform="translate(-10.323 0.002)" fill="#b5c2c5"/>
</svg>
