<svg xmlns="http://www.w3.org/2000/svg" width="844.67" height="1185.603" viewBox="0 0 844.67 1185.603">
  <g id="Group_729" data-name="Group 729" transform="translate(-19.895 0.002)">
    <path id="Path_2350" data-name="Path 2350" d="M834.348,345.346l-78.479,45.31L638.151,322.691l-29.666,17.128L726.2,407.784,677.39,435.966,441.955,300.037l-68.907,39.782,29.667,17.128,39.24-22.654,48.811,28.181-39.239,22.655,29.667,17.128L520.433,379.6,795.108,538.187l39.24-22.656" fill="#e1e1df"/>
    <path id="Path_2352" data-name="Path 2352" d="M804.681,90.617l29.667,17.128L826.21,78.188ZM826.21,78.188l17.71-10.226-24.406-14.09ZM804.681,0,765.442,22.653l54.072,31.219Z" fill="#e1e1df"/>
    <path id="Path_2353" data-name="Path 2353" d="M804.681,1132.739l39.239-22.655-36.481-21.062Zm8.9-141.067,30.339-17.517-28.206-16.284Zm-283.575,27.793,156.957,90.619-39.238,22.655h59.333l39.239-22.655L589.34,1019.465l48.811-28.181,169.288,97.738,6.142-97.35-57.711,33.32L638.151,957.027Zm274.675-249.2,6.664-3.847Zm23.734-13.7,5.933-3.426Zm-17.07,9.855,17.07-9.855,3.261-51.7Zm20.76-68.348-.429,6.793,2.672-8.088Zm-37-103.516L755.87,571.9,726.2,589.023l68.906,39.783,39.239-22.654V571.9ZM707.057,906.191l71.816-41.463-23,69.645ZM118.468,158.582,285,62.436l127.29,73.491-48.812,28.182L285,118.8,167.28,186.763ZM176.852,0,137.613,22.653l78.478,45.309L59.135,158.582,167.28,221.019,285,153.055l48.811,28.181-78.478,45.31,78.478,45.31L137.613,385.13,294.57,475.75l-78.478,45.309,78.478,45.31-78.478,45.309,78.478,45.309L176.852,724.952,294.57,792.916,176.852,860.881,333.809,951.5l-117.717,67.964,29.667,17.129L285,1013.939l78.478,45.309,39.24-22.654,127.29,73.49-39.239,22.655H550.1l9.572-5.527,9.573,5.527h59.334l-196.2-113.274,39.239-22.655-29.667-17.128-78.479,45.31L314.665,996.81,393.144,951.5l-156.958-90.62L285,832.7,520.433,968.629l117.718-67.964L755.87,968.629l39.239-22.654,20.6,11.9,7.491-118.738,1.57-.906-1.46-.844,5.1-80.824-17.07,9.855-17.769,53.8L589.34,702.3l39.239-22.655-29.667-17.128-39.24,22.655-39.239-22.655L451.527,702.3l29.667,17.129,39.239-22.655L765.442,838.227l-48.812,28.18-196.2-113.274L412.288,815.572,520.433,878.01,550.1,860.881l-78.478-45.309,48.811-28.182,127.291,73.491L520.433,934.373l-205.768-118.8,117.717-67.966-29.666-17.127-78.479,45.309-88.051-50.836,88.051-50.836,39.239,22.655,29.668-17.129L275.425,611.678,324.237,583.5l117.718,67.964,78.478-45.309,39.239,22.654,39.24-22.654,127.29,73.49L686.963,702.3l29.667,17.129,39.24-22.655,39.239,22.655,37-21.36,2.243-35.552-39.239,22.655-166.53-96.146,78.478-45.309-29.666-17.129L559.672,594.55,520.433,571.9l-78.478,45.31-166.53-96.146,48.812-28.181,117.718,67.964,78.478-45.31,39.239,22.655L628.579,498.4l-29.667-17.129-39.24,22.655L510.861,475.75,550.1,453.094l-29.667-17.128L451.527,475.75l39.24,22.655-48.812,28.18L353.9,475.75l78.479-45.31-68.907-39.783-29.667,17.127,39.239,22.656-48.811,28.181L196.946,385.13l48.813-28.182L285,379.6l29.667-17.128-39.24-22.655,117.719-67.964-78.479-45.31,156.957-90.619-78.478-45.31,39.238-22.655L402.715,50.835,363.476,73.489,285,28.18,245.759,50.835,196.946,22.653,236.185,0Z" fill="#e1e1df"/>
    <path id="Path_2354" data-name="Path 2354" d="M363.476,1115.611,285,1070.3l-39.239,22.655-78.479-45.309L128.04,1070.3l-78.478-45.309L19.9,1042.12l108.145,62.438,39.239-22.655,48.812,28.181-39.239,22.655h59.334L285,1104.558l48.811,28.181h59.334l39.239-22.655-29.666-17.128Z" fill="#e1e1df"/>
    <path id="Path_2355" data-name="Path 2355" d="M686.963,294.51l68.907,39.783V300.037l-39.24-22.654ZM647.724,0l-9.572,5.527L628.579,0H569.245L686.963,67.962,598.912,118.8,550.1,90.617l39.24-22.655L510.861,22.653,550.1,0H490.767L451.528,22.653l78.478,45.309L490.767,90.617l78.478,45.31L412.289,226.546l147.383,85.092L667.818,249.2l-29.666-17.128-78.48,45.31-88.05-50.837,48.811-28.182,39.239,22.655,29.668-17.128L550.1,181.236l127.291-73.491,127.29,73.491L755.87,209.418l-78.479-45.309-29.667,17.127L755.87,243.674l78.478-79.565L707.057,90.617,746.3,67.962,667.818,22.653,707.057,0Z" fill="#e1e1df"/>
  </g>
</svg>
