<svg xmlns="http://www.w3.org/2000/svg" width="1366" height="311.268" viewBox="0 0 1366 311.268">
  <path id="Path_1984" data-name="Path 1984" d="M1366,498.244V600.328H0V293.476q87.339-4.355,175.768-4.416,119.7,0,237.423,7.989,92.731,6.253,184.085,17.325A3455.131,3455.131,0,0,1,1366,498.244" transform="translate(0 -289.06)" fill="#637c85"/>
  <path id="Path_1985" data-name="Path 1985" d="M1290.953,600.328H1149.62c1.8-6.192,5.13-11.091,18.147-10.087,15.474,1.191,32.734.595,36.308-11.9s10.715-19.047,13.693-19.643,2.377-9.524,13.687-7.737,47.619-.6,42.258,8.333-22.019,3.568-22.019,7.737,20.828,6.546,15.474,17.261,21.429,2.382,22.621,12.5a9.314,9.314,0,0,0,1.164,3.536" transform="translate(0 -289.06)" fill="#2b2d32"/>
  <path id="Path_1986" data-name="Path 1986" d="M712.43,400.962c-19.643,2.382-40.477,9.524-31.549,15.479s26.784,8.333,23.812,11.9-2.323,7.141-20.507,7.737-40.209-11.9-31.876-16.665,13.692-1.191,9.523-11.9,2.383-20.238-8.332-10.715-34.522-15.479-37.5-4.169-21.424,10.12-27.97,10.715,1.781,5.355-3.573,10.12,27.975,14.283,16.069,18.452,33.926,35.117,34.522,47.023,11.31,19.637,15.479,12.5,14.283-3.568,16.666,0,11.9,21.435,3.568,28.571-17.261,8.333-19.638,6.546-16.671-15.474-17.862-1.781,20.239,38.685,17.862,45.236,19.042,13.687,14.283,21.425c-2.726,4.431-2.527,6.127-3.643,8.9H566.837c-2.393-2.855-7.125-2.812-11.31,0h-40.45c-.666-10.694-1.3-27.837,8.67-32.108,12.5-5.36,15.474,7.142,16.665-11.906s8.929-19.047-.595-25-3.574-9.524-13.693-7.142-20.829,2.377-26.784,1.186-10.71,14.884-14.283,8.338,2.977,15.474-7.142,24.4,11.9,19.048-5.36,24.4c-12.657,3.928-35.884,10.42-42.2,17.825H0V544.462c16.639-25.121,66.232-88.053,141.413-80.407,93.655,9.524,23.023-16.665,35.718-20.631s27.777-10.317,17.46-21.429-19.048-30.954-30.155-19.842-28.571,16.665-31.747,0,19.841-63.49,35.713-46.824,36.506,23.812,42.065,17.459,30.154,17.464,24.6,3.97.794-13.494,13.489-19.841,13.494-7.142,28.571,2.382,31.747,37.3,48.413,26.983,50-3.176,34.124-18.253S333.1,332.316,363.84,333.9s58.521,14.111,46.615-.086-.869-11.82-2.377-24.52c-1.417-11.863,4.351-12.249,5.113-12.249h.081s102.958,6.551,184,17.319l.006.006c.44.359,24.144,19.965,9.2,23.892-15.077,3.971-23.41-1.985-22.616,3.971s-3.97,3.568-7.538,3.568-1.986,1.588-1.986,6.352,9.524,25,20.239,22.021,41.663,7.141,33.926-7.142,33.33-1.787,33.33-5.355,3.574-2.382,7.737.6,13.3,8.928,16.177,4.164,31.442-4.164,33.229,1.786,13.1,30.358-6.546,32.735" transform="translate(0 -289.06)" fill="#2b2d32"/>
  <path id="Path_1987" data-name="Path 1987" d="M243,580.32c-7.538,3.176-18.65-3.965-26.189-2.774s-3.573-7.147-7.935-7.147-1.986-5.95-7.936-3.965-20.239-2.382-18.253,2.382,14.68,7.142,10.709,12.3,19.048,4.765,15.48,9.921,17.856-1.191,15.871,6.347a11.945,11.945,0,0,1-1.3,2.946H88.638c2.345-2.9,5.065-5.027,7.544-5.333,6.352-.784,8.343,1.341,12.3-3.96.713-.955,9.126-15.077,13.092-15.474s1.588-9.921,7.146-8.333,3.966,9.127,12.3,7.539,28.571,1.191,19.842-5.554,13.886-5.955,6.744-9.92,2.779-4.368,4.368-6.75,2.774-12.8,4.759-11.359,10.715-8.08,13.494-8.08,28.571,1.186,23.41,5.553,7.538,9.127,4.367,15.871,9.921,12.3,14.68,11.509S250.541,577.149,243,580.32" transform="translate(0 -289.06)" fill="#6e8d8f"/>
  <path id="Path_1988" data-name="Path 1988" d="M506.484,347.395s-9.523.6-8.333,5.357-2.976,1.786-2.976,5.952,0,6.547-7.738,9.523,2.976,7.143-10.119,10.714-18.451,1.786-22.022-3.571-2.977-11.832-9.524-11.273-12.5,8.892-14.88,10.678,17.261,10.118,13.69,12.5,4.166,9.524,20.832,8.333,17.857-9.523,25.594-10.118,6.548-4.762,10.714-4.762-3.571-8.333,4.762-11.309,23.809.6,23.809-2.976,16.07-9.524,13.094-14.88,16.666-7.143,10.119-9.524.6-5.357-1.786-8.928-18.451-3.571-15.475,0,7.936,5.555,4.166,5.952,1.389,3.174-2.182,4.563-3.175,3.175-3.572,4.167-3.372-.4-3.769,2.976-4.762,3.373-7.143,4.563-6.15,1.389-8.928,2.183-6.944-6.945-3.968-8.929,2.482-3.14-4.365-1.19" transform="translate(0 -289.06)" fill="#637c85"/>
  <path id="Path_1989" data-name="Path 1989" d="M1036.58,600.328h-17.9a35.437,35.437,0,0,1-2.291-3.734c-3.176-5.956,10.715-1.986,10.715-1.986,6.745-3.97,7.539,0,9.921,1.589,1.476.981-.4,2.419-.44,4.131" transform="translate(0 -289.06)" fill="#2b2d32"/>
  <path id="Path_1990" data-name="Path 1990" d="M726.792,555.295s14.444-.028,9.747-4.87-9.566-7.412-13.074-6.687-18.761,5.114-11.4,6.3,2.028,5.61,4.755,6.477,4.587,4.46,9.972-1.219" transform="translate(0 -289.06)" fill="#2b2d32"/>
  <path id="Path_1991" data-name="Path 1991" d="M1004.48,579.132s-.794-8.73-5.952-8.73-4.365-6.746-7.936-6.746-12.3-7.217-10.317-12.933,8.333-7.3,9.523-10.477,16.269-5.954,9.92-9.922-9.92-9.92-13.888-4.364-6.349,1.19-9.523.793-1.588,3.571-8.73,3.571-4.365,0-4.365,6.349,7.142,9.524,1.984,12.3.6,8.73,6.547,7.54,3.77,4.563,5.556,4.563,4.428,5.357,6.281,5.357,5.028,2.381,4.234,5.357,7.143,2.182,6.746,4.762,12.5,11.309,9.92,2.579" transform="translate(0 -289.06)" fill="#2b2d32"/>
  <path id="Path_1992" data-name="Path 1992" d="M951.307,528.538s1.984-2.579,3.571,0,2.58,3.373,1.191,6.151,2.381,3.178-.2,5.557a10.782,10.782,0,0,1-11.309,1.585c-4.166-1.785-.992-6.581-4.166-6.763s1.984-6.64-1.191-7.676-2.777-7.584-.992-10.56,9.325-3.373,6.944,0-2.182,7.738,0,7.738-.992,4.086.4,4.027,1.587,4.108,2.976,3.314,1.532-2.381,2.778-3.373" transform="translate(0 -289.06)" fill="#2b2d32"/>
  <path id="Path_1993" data-name="Path 1993" d="M692.191,508.7s-5.357,15.277,0,16.666,9.722,5.357,12.3,3.77,13.69,5.555,15.277,3.174,6.746,2.569,8.135.491,14.88-9.816,15.674-.292,7.142,11.309,11.507,10.713,11.508-3.372,7.143-5.555-1.191-12.992-5.159-11.654-2.182-6.2-7.341-3.425-6.745.6-9.523.992-2.182-7.341-5.158-5.753-4.987-6.151-8.347-3.77-8.32,21.428-14.073,7.341-6.746-2.377-9.127-1.387-6.547-.2-5.952-4.168,2.381-7.143-.595-7.143-3.257-5.313-4.762,0" transform="translate(0 -289.06)" fill="#2b2d32"/>
  <path id="Path_1994" data-name="Path 1994" d="M91.2,337.5s7.936-3.175,6.746,4.762-4.365,9.523-10.714,9.126-5.952-10.051-11.508-6.414-8.046-3.637-13.546,0S53.5,351,52.31,347.821s-5.556,7.936-8.333-.794-5.953-21.03,0-23.411,19.443-7.937,12.7,0-.111,13.888,5.5,9.92,7.991-4.762,10.372-2.381,11.111-3.174,11.507,1.19,2.282,5.357,4.365,4.762.2,1.488,2.778.4" transform="translate(0 -289.06)" fill="#2b2d32"/>
</svg>
