<svg xmlns="http://www.w3.org/2000/svg" xmlns:xlink="http://www.w3.org/1999/xlink" width="383.479" height="190.009" viewBox="0 0 383.479 190.009">
  <defs>
    <clipPath id="clip-path">
      <rect id="Rectangle_511" data-name="Rectangle 511" width="383.479" height="190.009" fill="none"/>
    </clipPath>
  </defs>
  <g id="Group_597" data-name="Group 597" transform="translate(49 -37)">
    <g id="Group_596" data-name="Group 596" transform="translate(-49 37)" clip-path="url(#clip-path)">
      <path id="Path_4554" data-name="Path 4554" d="M145.64,89.9a1.9,1.9,0,1,1-.556-2.623,1.9,1.9,0,0,1,.556,2.623" fill="#f4e3d8"/>
      <path id="Path_4555" data-name="Path 4555" d="M383.172,189.146a1.9,1.9,0,1,1-.556-2.623,1.9,1.9,0,0,1,.556,2.623" fill="#f4e3d8"/>
      <path id="Path_4556" data-name="Path 4556" d="M273.98,134.666l-15.987.543L255.029,132c-3.334-10.449-37.518-32.4-81.821-51.937q-3.955-1.743-7.853-3.389c-29.018-12.267-55.172-20.348-71.3-22.5-6.672-.888-11.631-.763-14.373.5L69.655,47.322s3.6-7.7,29.074-3.75c14.948,2.314,37.428,8.641,71.129,22.89q5.023,2.125,10.385,4.488c100.842,44.471,93.737,63.716,93.737,63.716" fill="#e0645f"/>
      <path id="Path_4557" data-name="Path 4557" d="M169.859,66.462l-4.5,10.212c-29.018-12.268-55.173-20.348-71.3-22.5l4.677-10.6c14.948,2.315,37.427,8.641,71.129,22.891" fill="#1c1c1e"/>
      <path id="Path_4558" data-name="Path 4558" d="M330.426,167.151l-2.164,4.907c-1.717,3.894-7.685,5.7-17.033,5.63-26.29-.193-79.332-15.223-139.772-40.362q-9.767-4.058-19.767-8.468C61.239,88.969-6.353,43.639.715,27.611L2.88,22.7,54.592,45.509A81.948,81.948,0,0,0,80.837,75.082c13.813,9.627,29.478,15.7,44.857,22.291,17.776,7.618,34.992,16.463,52.632,24.376q2.2.982,4.4,1.949c18.5,8.082,37.794,14.857,57.658,18.7a122.146,122.146,0,0,0,30.459,1.6c1.986-.109,4-.217,5.975-.487Z" fill="#e0645f"/>
      <path id="Path_4559" data-name="Path 4559" d="M318.245,161.779l-7.016,15.909c-26.29-.193-79.332-15.223-139.772-40.362l6.87-15.577q2.2.982,4.4,1.949c18.506,8.082,37.794,14.857,57.658,18.7a122.149,122.149,0,0,0,30.459,1.6c1.987-.109,4-.218,5.975-.487Z" fill="#1c1c1e"/>
      <path id="Path_4560" data-name="Path 4560" d="M179.452,65.9C89,26.015,9.948,6.673,2.88,22.7S63.4,84.061,153.854,123.949s169.5,59.23,176.572,43.2S269.9,105.791,179.452,65.9M161.5,106.611C112.485,85,75.855,60.431,79.686,51.745s46.67,1.8,95.686,23.41,85.645,46.181,81.814,54.867-46.671-1.795-95.686-23.411" fill="#ef9d93"/>
      <path id="Path_4561" data-name="Path 4561" d="M46.521,67.75q-2.473-1.608-4.841-3.2C13.07,45.368-.778,30.474,2.687,22.618s23.8-7.675,57.261.512c33.362,8.162,75.833,23.284,119.589,42.581S263.1,106.168,291.626,125.3c28.61,19.187,42.457,34.08,38.993,41.936s-23.8,7.675-57.261-.512c-33.362-8.162-75.833-23.284-119.589-42.581C112.437,105.915,74.625,86.021,46.521,67.75M286.8,122.6c-27.072-17.6-64.725-37.668-107.43-56.5C135.632,46.809,93.186,31.7,59.848,23.539c-33.239-8.132-53.4-8.4-56.776-.751S13.494,45.145,41.915,64.2c28.51,19.119,68.289,40.265,112.024,59.553s86.18,34.4,119.519,42.557c33.24,8.133,53.4,8.4,56.776.751,3.691-8.37-13.329-24.894-43.437-44.468" fill="#1c1c1e"/>
      <path id="Path_4562" data-name="Path 4562" d="M103.283,76.237q-1.339-.872-2.625-1.733C85.111,64.078,77.594,55.964,79.493,51.659s12.958-4.226,31.142.223c18.084,4.425,41.105,12.622,64.822,23.081s45.289,21.924,60.757,32.3c15.547,10.426,23.064,18.539,21.165,22.845s-12.958,4.226-31.142-.223c-18.084-4.425-41.1-12.621-64.822-23.08-22.4-9.88-42.9-20.663-58.132-30.567m130.076,29.645c-15.216-9.892-35.689-20.663-58.072-30.534C151.592,64.9,128.6,56.71,110.535,52.291c-17.7-4.331-28.876-4.5-30.657-.462S85.757,64,100.893,74.154c15.439,10.357,37,21.814,60.692,32.264s46.691,18.638,64.753,23.057c17.7,4.331,28.875,4.5,30.656.462s-5.88-12.175-21.015-22.325q-1.283-.861-2.62-1.73" fill="#1c1c1e"/>
      <path id="Path_4563" data-name="Path 4563" d="M79.767,54.864l-.176-.383c10.243-4.714,49.651,5.964,93.7,25.391s78.51,41.323,81.937,52.066l-.4.128c-3.34-10.467-38.465-32.74-81.706-51.809S89.747,50.271,79.767,54.864" fill="#1c1c1e"/>
      <path id="Path_4564" data-name="Path 4564" d="M44.357,72.658q-2.473-1.608-4.842-3.2C10.9,50.275-2.943,35.382.522,27.526l2.166-4.909.384.17L.907,27.7C-6.1,43.593,61.576,88.887,151.774,128.665s169.284,59.205,176.295,43.308l2.164-4.908.386.17-2.165,4.908c-3.465,7.857-23.8,7.675-57.261-.512-33.362-8.162-75.832-23.285-119.589-42.581C110.273,110.823,72.461,90.929,44.357,72.658" fill="#1c1c1e"/>
      <path id="Path_4565" data-name="Path 4565" d="M299.186,128.746c10.7,11.31,12.8,26.687,4.7,34.345s-23.334,4.7-34.029-6.613-12.8-26.687-4.7-34.345,23.334-4.7,34.029,6.613" fill="#1c1c1e"/>
      <path id="Path_4566" data-name="Path 4566" d="M314.584,126.159a30.18,30.18,0,1,1-8.853-41.753,30.18,30.18,0,0,1,8.853,41.753" fill="#2b5f91"/>
      <path id="Path_4567" data-name="Path 4567" d="M272.717,135.189a30.391,30.391,0,1,1,42.045-8.915,30.425,30.425,0,0,1-42.045,8.915m32.9-50.606a29.97,29.97,0,1,0,8.791,41.462,30,30,0,0,0-8.791-41.462" fill="#1c1c1e"/>
      <path id="Path_4568" data-name="Path 4568" d="M290.676,85.7c.495,2.335-1.882,4.817-5.31,5.544s-6.608-.577-7.1-2.912,1.882-4.817,5.31-5.544,6.608.577,7.1,2.912" fill="#7897cb"/>
      <path id="Path_4569" data-name="Path 4569" d="M279.725,90.647a3.636,3.636,0,0,1-1.668-2.275c-.519-2.444,1.936-5.043,5.472-5.793a8.241,8.241,0,0,1,4.775.319,3.963,3.963,0,0,1,2.578,2.755c.518,2.445-1.937,5.044-5.473,5.794a7.7,7.7,0,0,1-5.684-.8m9.264-6.921a5.048,5.048,0,0,0-.845-.438A8.371,8.371,0,0,0,279.6,85.1a3.56,3.56,0,0,0-1.13,3.185c.471,2.218,3.545,3.451,6.853,2.75s5.618-3.077,5.148-5.294a3.219,3.219,0,0,0-1.481-2.015" fill="#1c1c1e"/>
      <path id="Path_4570" data-name="Path 4570" d="M58.52,31.231c6.741,7.13,8.067,16.823,2.962,21.65s-14.709,2.961-21.451-4.169-8.067-16.822-2.962-21.65S51.778,24.1,58.52,31.231" fill="#1c1c1e"/>
      <path id="Path_4571" data-name="Path 4571" d="M68.226,29.6A19.024,19.024,0,1,1,62.645,3.28,19.025,19.025,0,0,1,68.226,29.6" fill="#7897cb"/>
      <path id="Path_4572" data-name="Path 4572" d="M41.792,35.357A19.235,19.235,0,1,1,68.4,29.715a19.255,19.255,0,0,1-26.611,5.642m20.739-31.9A18.814,18.814,0,1,0,68.05,29.485,18.834,18.834,0,0,0,62.531,3.457" fill="#1c1c1e"/>
      <path id="Path_4573" data-name="Path 4573" d="M53.155,4.094c.312,1.472-1.187,3.036-3.347,3.5s-4.166-.364-4.478-1.836,1.187-3.036,3.347-3.494,4.166.363,4.478,1.835" fill="#f4e3d8"/>
      <path id="Path_4574" data-name="Path 4574" d="M46.209,7.278A2.365,2.365,0,0,1,45.124,5.8a2.572,2.572,0,0,1,.8-2.316,5.264,5.264,0,0,1,2.709-1.428c2.272-.481,4.392.415,4.727,2s-1.238,3.263-3.509,3.744a4.926,4.926,0,0,1-3.642-.516m5.836-4.366a4.527,4.527,0,0,0-3.325-.448,4.847,4.847,0,0,0-2.492,1.307,2.169,2.169,0,0,0-.692,1.938c.288,1.355,2.183,2.106,4.228,1.673s3.472-1.889,3.184-3.245a1.962,1.962,0,0,0-.9-1.225" fill="#1c1c1e"/>
    </g>
  </g>
</svg>
