<svg xmlns="http://www.w3.org/2000/svg" width="450.662" height="537.011" viewBox="0 0 450.662 537.011">
  <path id="Path_1995" data-name="Path 1995" d="M395.206,166.911a20.543,20.543,0,0,0-10.31-.2c-.177.733-.38,1.46-.578,2.188a18.991,18.991,0,0,1,23.423,23.505l-23.847,83.618c.753-.163,1.5-.359,2.257-.5L409.7,192.963a21.1,21.1,0,0,0-14.491-26.052" transform="translate(-40.601 0.001)" fill="#2b2d32"/>
  <path id="Path_1996" data-name="Path 1996" d="M365.4,320.229a18.848,18.848,0,0,1-27.853-13.448c-.41,1.042-.847,2.067-1.3,3.089a20.94,20.94,0,0,0,30.194,12.115c-.336-.591-.725-1.156-1.04-1.756" transform="translate(-40.601 0.001)" fill="#2b2d32"/>
  <path id="Path_1997" data-name="Path 1997" d="M341.3.934a2.568,2.568,0,0,0-3.806,1.859L321.385,59.705l-.957,1.749c-11.222-3.2-29.786.64-29.786.64-42.349,7.322-58.8,47.384-58.8,47.384-3.151,4.818-.575-8.426-14.777-9.152s-17.241,12.322-17.241,12.322-11.127,53.475-13.175,65.525,1.307,14.4,3.336,16.107,8.712,3.43,2.041,4.637-10.053,8.414-10.053,8.414-9.616,47.884-11.094,54.292a13.444,13.444,0,0,0,2.65,11.132l-62.469,48.952L67.609,339.458l-.352-5.506-14.829.677.606,24.317,14.8-.393.386-11.82,47.354-20.606,57.542,7.228,17.734,11.5c-.981,4.051-3.2,17.007,9.42,21.642s16.6-.615,16.6-.615l1.68-1.694c-2.24,9.58,2.375,18.361,12.433,22.146s15.338-2.525,15.338-2.525l6.3,3.168,1.245,1.852,44.178,73.3,12.291,57.138-12.3,2.343,2.967,14.068,29.867-6.53-3.025-13.53L316.118,517.5,303.291,459.32,314.9,389.851l54.178-64.724c11.3,12.8,25.326,11.137,25.326,11.137,29.993-4.236,28.852-30.9,28.852-30.9l48.2,5.859,3.377,11.8,15.281-3.4-6.554-23.757-14.6,3,1.543,5.711s-44.335-3.753-46.667-5.519-1.2-8.976-13.167-18.351-25.5-5.284-25.5-5.284,12.624-51.089,19.273-67.962,6.778-27.525-2.187-35.425-17.7-4.027-17.7-4.027c9.516-23.312.513-49.774.513-49.774-16.347-46-57.39-55.355-57.39-55.355S343.613,5.535,343.821,5.286s.693-3.063-2.522-4.352m-216.274,321.2,19.59-8.057L162.9,327.052Zm22.329-15.02-17.027,5.291,41.607-31.6Zm118.173,88.759,21.19,14.311,7.169,33.053Zm34.429,46.4-6.145-27.294,13.756-16.388Z" transform="translate(-40.601 0.001)" fill="#bd7660"/>
  <path id="Path_1998" data-name="Path 1998" d="M191.637,339.007a1.1,1.1,0,0,1-1.533-1.569l12.449-14.815a1.1,1.1,0,0,1,1.688,1.418l-12.449,14.815a1.225,1.225,0,0,1-.155.151" transform="translate(-40.601 0.001)" fill="#d6c2ad"/>
  <path id="Path_1999" data-name="Path 1999" d="M167.89,321.17a1.1,1.1,0,0,1-1.511-1.593l12.485-14.018a1.1,1.1,0,1,1,1.644,1.467l-12.485,14.018a1.058,1.058,0,0,1-.133.126" transform="translate(-40.601 0.001)" fill="#d6c2ad"/>
  <path id="Path_2000" data-name="Path 2000" d="M184.216,302.02a1.1,1.1,0,0,1-1.529-1.574l8.285-9.753a1.118,1.118,0,0,1,1.553-.126,1.1,1.1,0,0,1,.126,1.554l-8.284,9.753a1.155,1.155,0,0,1-.151.146" transform="translate(-40.601 0.001)" fill="#d6c2ad"/>
  <path id="Path_2001" data-name="Path 2001" d="M250.413,375.7a1.1,1.1,0,0,1-1.537-1.563l12.621-15.22a1.1,1.1,0,1,1,1.695,1.406l-12.62,15.221a1.17,1.17,0,0,1-.159.156" transform="translate(-40.601 0.001)" fill="#d6c2ad"/>
  <path id="Path_2002" data-name="Path 2002" d="M310.336,519.264l-12.3,2.342,3.949,14.257,28.62-6.5-3.247-14.365L316.117,517.5l.676,4.908s.6,3.053-1.206,3.445l-1.143-1.2-24.07-111.169-3.338-2.9,7.549,33.526-29.059-48.234-10.736-6.791,43.255,73.044Z" transform="translate(-40.601 0.001)" fill="#d6c2ad"/>
  <path id="Path_2003" data-name="Path 2003" d="M195.875,363.534s-10.66-8.306-5.234-18.152l7.608,5.061s-5.163,8.087,4.617,16.836a17.187,17.187,0,0,1-6.991-3.745" transform="translate(-40.601 0.001)" fill="#d6c2ad"/>
  <path id="Path_2004" data-name="Path 2004" d="M224.137,381.934s-10.66-8.306-5.234-18.152l7.607,5.061s-5.162,8.087,4.617,16.836a17.186,17.186,0,0,1-6.99-3.745" transform="translate(-40.601 0.001)" fill="#d6c2ad"/>
  <path id="Path_2005" data-name="Path 2005" d="M53.308,358.815l-.367-24.188,13.99-.958.678,5.79,43.99-17.727,62.058-49.483,1.634,1.425-59.133,47.572,27.479-11.86-.355,1.739L67.8,343.535l-4.233,1.693s.414,1.91,2.08,1.453,2.549-.017,2.522,2.037-.327,10.251-.327,10.251Z" transform="translate(-40.601 0.001)" fill="#d6c2ad"/>
  <path id="Path_2006" data-name="Path 2006" d="M209.854,324.7l33.815-129.418s11.626,13.515,24.949,19.925c0,0-37.2-32.615-14.761-83.831s72.037-64.494,83.765-64.967c0,0-21.967-11.374-56.014-1.837s-47.436,38.161-53.032,52.739-3.191,24.514-7.113,36.053l-3.612,16.976-25.742,97.823s-1.8,39.438,17.745,56.537" transform="translate(-40.601 0.001)" fill="#d6c2ad"/>
  <path id="Path_2007" data-name="Path 2007" d="M198.6,198.119s-7.409-2.467-5.3-11.056,15.572-71.4,15.572-71.4,3.652-12.661,13.294-13.17c0,0-6.2-4.383-10.45-1.9s-9.343,3.921-12.161,14.261-13.99,67.059-13.99,67.059-1,14.944,13.037,16.205" transform="translate(-40.601 0.001)" fill="#d6c2ad"/>
  <path id="Path_2008" data-name="Path 2008" d="M365.628,291.678c.418-.7.81-1.421,1.251-2.108a18.664,18.664,0,0,1-19.64-14.855q-.554,1.632-1.179,3.237a20.8,20.8,0,0,0,19.568,13.726" transform="translate(-40.601 0.001)" fill="#2b2d32"/>
  <path id="Path_2009" data-name="Path 2009" d="M177.226,273.907s-3.154-1.609,1.011-18.253c4.517-18.048,10.8-44.658,10.8-44.658s2.982-10.884,7.979-12.43-7.945-2.25-13.928,6.354L169.8,262.44s1.415,11.362,7.423,11.467" transform="translate(-40.601 0.001)" fill="#d6c2ad"/>
  <path id="Path_2010" data-name="Path 2010" d="M396.839,230.77l-3.416,11.98a18.991,18.991,0,0,1-36.55.169c-.359.9-.747,1.781-1.139,2.665a21.023,21.023,0,0,0,39.645-2.277l3.27-11.468c-.6-.353-1.213-.7-1.81-1.069" transform="translate(-40.601 0.001)" fill="#2b2d32"/>
  <path id="Path_2011" data-name="Path 2011" d="M403,209.255l-.141.494a18.859,18.859,0,0,1-34.754,4.288,19.233,19.233,0,0,1-1.561-3.728c-.352.91-.694,1.821-1.08,2.716a20.934,20.934,0,0,0,32.516,8.154,21.382,21.382,0,0,0,6.291-9.411c-.453-.826-.857-1.67-1.271-2.513" transform="translate(-40.601 0.001)" fill="#2b2d32"/>
  <path id="Path_2012" data-name="Path 2012" d="M326.946,62.014a3.088,3.088,0,0,1,.079,2.116,81.025,81.025,0,1,1-6.428-1.4,3.018,3.018,0,0,1,.932-1.908,84.237,84.237,0,1,0,5.417,1.195" transform="translate(-40.601 0.001)" fill="#2b2d32"/>
  <rect id="Rectangle_150" data-name="Rectangle 150" width="121.128" height="2.035" transform="matrix(0.251, -0.968, 0.968, 0.251, 152.7, 260.676)" fill="#2b2d32"/>
  <rect id="Rectangle_151" data-name="Rectangle 151" width="103.537" height="2.034" transform="translate(300.869 291.807) rotate(-73.723)" fill="#2b2d32"/>
  <path id="Path_2013" data-name="Path 2013" d="M316.214,337.672A76.775,76.775,0,0,1,193.345,260.31l1.977.462A74.744,74.744,0,1,0,341.5,291.915l2,.38a76.8,76.8,0,0,1-27.281,45.377" transform="translate(-40.601 0.001)" fill="#2b2d32"/>
  <path id="Path_2014" data-name="Path 2014" d="M338.149,304.9a1.13,1.13,0,0,1-1.429-.155,1.012,1.012,0,0,1-.2-.773,1.056,1.056,0,0,1,1.108-.891.97.97,0,0,1,.681.39.883.883,0,0,1,.21.717,1.009,1.009,0,0,1-.365.712" transform="translate(-40.601 0.001)" fill="#2b2d32"/>
  <path id="Path_2015" data-name="Path 2015" d="M316.657,330.539a.983.983,0,0,1-1.421-.212,1.009,1.009,0,0,1,.21-1.424,1.037,1.037,0,0,1,1.425.213,1.057,1.057,0,0,1-.181,1.4Zm10.924-11.658a1.03,1.03,0,0,1-.163-1.435,1.091,1.091,0,0,1,1.461-.132,1.024,1.024,0,0,1,.105,1.43.432.432,0,0,1-.133.157.966.966,0,0,1-1.27-.02m-25.524,20.43a1.023,1.023,0,0,1-1.335-.494,1.006,1.006,0,0,1,1.827-.842,1,1,0,0,1-.277,1.214.532.532,0,0,1-.215.122m-16.167,5.333h0a.987.987,0,0,1-1.215-.8,1.009,1.009,0,0,1,.766-1.19.988.988,0,0,1,1.214.8.974.974,0,0,1-.34,1.005.814.814,0,0,1-.425.184m-16.978,1.6a.989.989,0,0,1-1.018-1.005,1.026,1.026,0,0,1,2.052.019,1,1,0,0,1-.373.768.922.922,0,0,1-.661.218m-16.918-2.15a.994.994,0,0,1-.764-1.21,1.028,1.028,0,0,1,1.236-.735.987.987,0,0,1,.766,1.212.918.918,0,0,1-.348.539.95.95,0,0,1-.89.194m-16-5.811h0a.992.992,0,0,1-.461-1.352,1.027,1.027,0,0,1,1.351-.462,1.06,1.06,0,0,1,.487,1.384,1.765,1.765,0,0,1-.3.344,1.017,1.017,0,0,1-1.08.086M221.661,329.1h0a1.021,1.021,0,1,1,1.436-.163l-.19.153a1.042,1.042,0,0,1-1.246.01m-11.926-12.167a1.016,1.016,0,1,1,1.584-1.274,1.016,1.016,0,1,1-1.584,1.274m-7.653-13.988a1.026,1.026,0,0,1-.869-1.859,1.022,1.022,0,0,1,1.334.491.964.964,0,0,1-.275,1.215l-.19.153m-5.689-15.83a1.059,1.059,0,0,1-1.216-.795,1,1,0,0,1,1.956-.427.978.978,0,0,1-.341,1.005,1.491,1.491,0,0,1-.4.217" transform="translate(-40.601 0.001)" fill="#2b2d32"/>
  <path id="Path_2016" data-name="Path 2016" d="M194.967,270.1a1.13,1.13,0,0,1-1.429-.155,1.019,1.019,0,0,1-.206-.775,1.061,1.061,0,0,1,1.109-.892.975.975,0,0,1,.681.393.611.611,0,0,1,.167.334.9.9,0,0,1,.045.382.987.987,0,0,1-.1.394,1.209,1.209,0,0,1-.266.319" transform="translate(-40.601 0.001)" fill="#2b2d32"/>
  <path id="Path_2017" data-name="Path 2017" d="M207.143,231.146a73.921,73.921,0,0,0,8.451,19.282A72.82,72.82,0,0,0,265.7,285.059a87.8,87.8,0,0,0,41.483-1.876,103.819,103.819,0,0,0,37.169-19.336,96.727,96.727,0,0,1-36.725,20.836,87.556,87.556,0,0,1-42.312,2.37,73.061,73.061,0,0,1-37.653-19.2,74.6,74.6,0,0,1-20.52-36.7" transform="translate(-40.601 0.001)" fill="#2b2d32"/>
  <path id="Path_2018" data-name="Path 2018" d="M223.471,145.647l-11.1,41.774a13.2,13.2,0,0,1-25.679-6.094L200.9,113.4A15.064,15.064,0,0,1,219.788,102a15.069,15.069,0,0,1,10.331,10.647c.39-.887.817-1.755,1.24-2.626a17.033,17.033,0,0,0-32.455,2.96L184.7,180.911a15.234,15.234,0,0,0,22.146,16.527,15.408,15.408,0,0,0,2.358-1.564,15.061,15.061,0,0,0,5.131-7.93l9.533-35.859q-.337-3.209-.393-6.438" transform="translate(-40.601 0.001)" fill="#2b2d32"/>
  <path id="Path_2019" data-name="Path 2019" d="M189.159,273.483a12.29,12.29,0,0,1-1.885,1.248,12.179,12.179,0,0,1-17.705-13.211l11.154-53.329a13.642,13.642,0,1,1,26.537,6.3l-14,52.654a12.047,12.047,0,0,1-4.1,6.34m-2.393-71.522a11.459,11.459,0,0,0-4.051,6.646L171.56,261.936a10.145,10.145,0,0,0,19.735,4.683l14-52.654a11.668,11.668,0,0,0-8.02-14.14,11.5,11.5,0,0,0-9.194,1.219,12.161,12.161,0,0,0-1.314.917" transform="translate(-40.601 0.001)" fill="#2b2d32"/>
  <path id="Path_2020" data-name="Path 2020" d="M180.669,213.424c-.263,2.373-.653,4.719-.975,7.079s-1.014,4.7-.756,6.885a11.562,11.562,0,0,0,19.725,7.2,12.573,12.573,0,0,0,3.249-5.887c.774-2.253,1.481-4.524,2.313-6.761-.388,2.356-.9,4.677-1.349,7.017a13.782,13.782,0,0,1-3.071,6.7,12.819,12.819,0,0,1-22.423-8.19c-.06-2.6.841-4.872,1.343-7.166.649-2.292,1.232-4.6,1.944-6.876" transform="translate(-40.601 0.001)" fill="#2b2d32"/>
  <path id="Path_2021" data-name="Path 2021" d="M178.63,222.879c-.257,2.349-.642,4.672-.96,7.009s-1,4.653-.746,6.815a11.439,11.439,0,0,0,19.515,7.123A12.434,12.434,0,0,0,199.657,238c.768-2.23,1.468-4.478,2.295-6.692-.382,2.333-.89,4.632-1.332,6.949a13.632,13.632,0,0,1-3.038,6.635,12.7,12.7,0,0,1-22.213-8.112c-.059-2.577.835-4.826,1.331-7.1.646-2.268,1.224-4.55,1.93-6.806" transform="translate(-40.601 0.001)" fill="#2b2d32"/>
  <path id="Path_2022" data-name="Path 2022" d="M224.935,145.859c-.085-1.781-.139-3.564-.1-5.35l-.234.881a14.414,14.414,0,0,1-17.274,10.382,14.561,14.561,0,0,1-10.892-17.067l2.623-12.543-1.991-.417-2.623,12.543a16.537,16.537,0,0,0,26.52,16.278,16.342,16.342,0,0,0,3.968-4.707" transform="translate(-40.601 0.001)" fill="#2b2d32"/>
  <path id="Path_2023" data-name="Path 2023" d="M195.607,135.287c-.409,3.072-.945,6.118-1.413,9.178-.531,3.075-1.265,6.04-.576,8.928a14.124,14.124,0,0,0,26.335,3.92c1.294-2.565,1.956-5.735,2.94-8.633.98-2.936,1.892-5.89,2.932-8.81-1.372,6.1-2.348,12.036-4.473,18.142a15.471,15.471,0,0,1-29.269-4.357c-.557-3.279.435-6.459,1.141-9.393.8-2.991,1.526-6,2.383-8.975" transform="translate(-40.601 0.001)" fill="#2b2d32"/>
  <path id="Path_2024" data-name="Path 2024" d="M329.217,226.653s12.067-1.219,27.989-13.593L327.711,324.614S312.764,343.2,297.539,348.1Z" transform="translate(-40.601 0.001)" fill="#2b2d32"/>
  <path id="Path_2025" data-name="Path 2025" d="M294,416.33,140.613,312.742l36.613-38.835L178.7,275.3l-34.971,37.1L293.62,413.62l74.748-89.043,1.556,1.307Z" transform="translate(-40.601 0.001)" fill="#2b2d32"/>
  <path id="Path_2026" data-name="Path 2026" d="M377.472,332.2c.673.386,1.359.738,2.055,1.069l-1.3-1.659Z" transform="translate(-40.601 0.001)" fill="#2b2d32"/>
  <path id="Path_2027" data-name="Path 2027" d="M385.142,331.721l-2.692-3.427-3.427,2.692,2.48,3.157c.126.05.254.09.38.138Z" transform="translate(-40.601 0.001)" fill="#2b2d32"/>
  <path id="Path_2028" data-name="Path 2028" d="M371.583,323.159l-2.505,1.968a30.823,30.823,0,0,0,3.036,3.159l2.162-1.7Z" transform="translate(-40.601 0.001)" fill="#2b2d32"/>
  <path id="Path_2029" data-name="Path 2029" d="M374.9,327.387l-2.031,1.6a30.484,30.484,0,0,0,3.668,2.661l1.055-.829Z" transform="translate(-40.601 0.001)" fill="#2b2d32"/>
  <path id="Path_2030" data-name="Path 2030" d="M400.236,333.533l-2.692-3.428-3.427,2.692,2.527,3.217c.174-.022.347-.044.521-.069Z" transform="translate(-40.601 0.001)" fill="#2b2d32"/>
  <path id="Path_2031" data-name="Path 2031" d="M388.462,335.947l-2.692-3.427-2.76,2.168a30.837,30.837,0,0,0,5.435,1.273Z" transform="translate(-40.601 0.001)" fill="#2b2d32"/>
  <path id="Path_2032" data-name="Path 2032" d="M393.318,333.426l-3.428,2.693.02.026a30.671,30.671,0,0,0,5.563.024Z" transform="translate(-40.601 0.001)" fill="#2b2d32"/>
  <rect id="Rectangle_152" data-name="Rectangle 152" width="4.358" height="4.358" transform="matrix(0.786, -0.618, 0.618, 0.786, 368.008, 307.745)" fill="#2b2d32"/>
  <rect id="Rectangle_153" data-name="Rectangle 153" width="4.358" height="4.358" transform="matrix(0.786, -0.618, 0.618, 0.786, 371.328, 311.972)" fill="#2b2d32"/>
  <rect id="Rectangle_154" data-name="Rectangle 154" width="4.36" height="4.358" transform="matrix(0.786, -0.618, 0.618, 0.786, 340.541, 281.48)" fill="#2b2d32"/>
  <rect id="Rectangle_155" data-name="Rectangle 155" width="4.359" height="4.358" transform="matrix(0.786, -0.618, 0.618, 0.786, 343.861, 285.705)" fill="#2b2d32"/>
  <path id="Path_2033" data-name="Path 2033" d="M362.708,311.861q.288,1.389.7,2.754l.9-.708Z" transform="translate(-40.601 0.001)" fill="#2b2d32"/>
  <path id="Path_2034" data-name="Path 2034" d="M364.943,314.706l-1.185.931a30.554,30.554,0,0,0,1.766,4.155l2.111-1.659Z" transform="translate(-40.601 0.001)" fill="#2b2d32"/>
  <path id="Path_2035" data-name="Path 2035" d="M368.263,318.933l-2.224,1.747a30.808,30.808,0,0,0,2.411,3.647l2.5-1.967Z" transform="translate(-40.601 0.001)" fill="#2b2d32"/>
  <path id="Path_2036" data-name="Path 2036" d="M414.343,323.745l1.551,1.974a30.493,30.493,0,0,0,2.706-3.61l-.83-1.056Z" transform="translate(-40.601 0.001)" fill="#2b2d32"/>
  <rect id="Rectangle_156" data-name="Rectangle 156" width="4.358" height="4.358" transform="matrix(0.786, -0.618, 0.618, 0.786, 364.689, 303.519)" fill="#2b2d32"/>
  <path id="Path_2037" data-name="Path 2037" d="M410.117,327.065l1.9,2.421a30.8,30.8,0,0,0,3.18-3.007l-1.654-2.106Z" transform="translate(-40.601 0.001)" fill="#2b2d32"/>
  <rect id="Rectangle_157" data-name="Rectangle 157" width="4.358" height="4.358" transform="matrix(0.786, -0.618, 0.618, 0.786, 363.782, 311.066)" fill="#2b2d32"/>
  <path id="Path_2038" data-name="Path 2038" d="M422.9,310.186l-3.427,2.692,2.222,2.829a30.75,30.75,0,0,0,1.338-5.352Z" transform="translate(-40.601 0.001)" fill="#2b2d32"/>
  <path id="Path_2039" data-name="Path 2039" d="M405.89,330.385l1.637,2.084a30.726,30.726,0,0,0,3.67-2.383l-1.88-2.393Z" transform="translate(-40.601 0.001)" fill="#2b2d32"/>
  <path id="Path_2040" data-name="Path 2040" d="M418.676,313.506l-3.427,2.692,2.693,3.428,3.265-2.565c.03-.075.053-.152.083-.228Z" transform="translate(-40.601 0.001)" fill="#2b2d32"/>
  <path id="Path_2041" data-name="Path 2041" d="M419.161,321.178q.61-1.037,1.135-2.108l-1.726,1.356Z" transform="translate(-40.601 0.001)" fill="#2b2d32"/>
  <rect id="Rectangle_158" data-name="Rectangle 158" width="4.359" height="4.358" transform="matrix(0.786, -0.618, 0.618, 0.786, 353.821, 298.385)" fill="#2b2d32"/>
  <rect id="Rectangle_159" data-name="Rectangle 159" width="4.359" height="4.359" transform="matrix(0.786, -0.618, 0.618, 0.786, 357.141, 302.612)" fill="#2b2d32"/>
  <rect id="Rectangle_160" data-name="Rectangle 160" width="4.359" height="4.359" transform="matrix(0.786, -0.618, 0.618, 0.786, 347.18, 289.932)" fill="#2b2d32"/>
  <rect id="Rectangle_161" data-name="Rectangle 161" width="4.359" height="4.358" transform="matrix(0.786, -0.618, 0.618, 0.786, 350.501, 294.159)" fill="#2b2d32"/>
  <rect id="Rectangle_162" data-name="Rectangle 162" width="4.358" height="4.358" transform="matrix(0.786, -0.618, 0.618, 0.786, 360.462, 306.839)" fill="#2b2d32"/>
  <path id="Path_2042" data-name="Path 2042" d="M401.664,333.7l.776.988a30.4,30.4,0,0,0,4.19-1.72l-1.539-1.96Z" transform="translate(-40.601 0.001)" fill="#2b2d32"/>
  <path id="Path_2043" data-name="Path 2043" d="M399.3,335.558c.708-.155,1.415-.313,2.114-.519l-.555-.706Z" transform="translate(-40.601 0.001)" fill="#2b2d32"/>
  <rect id="Rectangle_163" data-name="Rectangle 163" width="4.359" height="4.358" transform="matrix(0.786, -0.618, 0.618, 0.786, 363.182, 284.199)" fill="#2b2d32"/>
  <rect id="Rectangle_164" data-name="Rectangle 164" width="4.358" height="4.358" transform="matrix(0.786, -0.618, 0.618, 0.786, 361.369, 299.292)" fill="#2b2d32"/>
  <rect id="Rectangle_165" data-name="Rectangle 165" width="4.358" height="4.358" transform="matrix(0.786, -0.618, 0.618, 0.786, 365.595, 295.972)" fill="#2b2d32"/>
  <rect id="Rectangle_166" data-name="Rectangle 166" width="4.358" height="4.358" transform="matrix(0.786, -0.618, 0.618, 0.786, 358.955, 287.519)" fill="#2b2d32"/>
  <rect id="Rectangle_167" data-name="Rectangle 167" width="4.358" height="4.358" transform="matrix(0.786, -0.618, 0.618, 0.786, 368.915, 300.199)" fill="#2b2d32"/>
  <rect id="Rectangle_168" data-name="Rectangle 168" width="4.358" height="4.359" transform="matrix(0.786, -0.618, 0.618, 0.786, 355.635, 283.291)" fill="#2b2d32"/>
  <rect id="Rectangle_169" data-name="Rectangle 169" width="4.358" height="4.358" transform="matrix(0.786, -0.618, 0.618, 0.786, 344.768, 278.158)" fill="#2b2d32"/>
  <rect id="Rectangle_170" data-name="Rectangle 170" width="4.358" height="4.358" transform="matrix(0.786, -0.618, 0.618, 0.786, 372.235, 304.426)" fill="#2b2d32"/>
  <rect id="Rectangle_171" data-name="Rectangle 171" width="4.358" height="4.358" transform="matrix(0.786, -0.618, 0.618, 0.786, 375.555, 308.652)" fill="#2b2d32"/>
  <path id="Path_2044" data-name="Path 2044" d="M420.382,305.331l2.692,3.427.207-.163a30.721,30.721,0,0,0,.055-5.584Z" transform="translate(-40.601 0.001)" fill="#2b2d32"/>
  <rect id="Rectangle_172" data-name="Rectangle 172" width="4.358" height="4.36" transform="matrix(0.786, -0.618, 0.618, 0.786, 359.861, 279.971)" fill="#2b2d32"/>
  <rect id="Rectangle_173" data-name="Rectangle 173" width="4.359" height="4.358" transform="matrix(0.786, -0.618, 0.618, 0.786, 366.502, 288.426)" fill="#2b2d32"/>
  <rect id="Rectangle_174" data-name="Rectangle 174" width="4.359" height="4.358" transform="matrix(0.786, -0.618, 0.618, 0.786, 369.822, 292.652)" fill="#2b2d32"/>
  <rect id="Rectangle_175" data-name="Rectangle 175" width="4.358" height="4.358" transform="matrix(0.786, -0.618, 0.618, 0.786, 352.315, 279.065)" fill="#2b2d32"/>
  <rect id="Rectangle_176" data-name="Rectangle 176" width="4.359" height="4.358" transform="matrix(0.786, -0.618, 0.618, 0.786, 373.142, 296.879)" fill="#2b2d32"/>
  <rect id="Rectangle_177" data-name="Rectangle 177" width="4.358" height="4.358" transform="matrix(0.786, -0.618, 0.618, 0.786, 362.275, 291.746)" fill="#2b2d32"/>
  <path id="Path_2045" data-name="Path 2045" d="M375.488,284.627l-2.185-2.781a30.8,30.8,0,0,0-3.166,3.024l1.924,2.449Z" transform="translate(-40.601 0.001)" fill="#2b2d32"/>
  <rect id="Rectangle_178" data-name="Rectangle 178" width="4.358" height="4.358" transform="matrix(0.786, -0.618, 0.618, 0.786, 358.049, 295.065)" fill="#2b2d32"/>
  <path id="Path_2046" data-name="Path 2046" d="M371.261,287.947l-1.82-2.318a30.491,30.491,0,0,0-2.678,3.647l1.071,1.363Z" transform="translate(-40.601 0.001)" fill="#2b2d32"/>
  <path id="Path_2047" data-name="Path 2047" d="M379.714,281.307l-1.948-2.479a30.756,30.756,0,0,0-3.655,2.4L376.287,284Z" transform="translate(-40.601 0.001)" fill="#2b2d32"/>
  <path id="Path_2048" data-name="Path 2048" d="M366.2,290.207a30.6,30.6,0,0,0-1.473,2.871l2.306-1.811Z" transform="translate(-40.601 0.001)" fill="#2b2d32"/>
  <path id="Path_2049" data-name="Path 2049" d="M365.222,306.36l-2.692-3.427-.367.288a30.882,30.882,0,0,0,.055,5.5Z" transform="translate(-40.601 0.001)" fill="#2b2d32"/>
  <path id="Path_2050" data-name="Path 2050" d="M362.7,301.506l3.427-2.692-2.43-3.094a30.768,30.768,0,0,0-1.3,5.4Z" transform="translate(-40.601 0.001)" fill="#2b2d32"/>
  <rect id="Rectangle_179" data-name="Rectangle 179" width="4.358" height="4.358" transform="matrix(0.786, -0.618, 0.618, 0.786, 348.088, 282.385)" fill="#2b2d32"/>
  <path id="Path_2051" data-name="Path 2051" d="M399.834,279.171l3.161-2.483a30.847,30.847,0,0,0-5.321-1.361l-.532.417Z" transform="translate(-40.601 0.001)" fill="#2b2d32"/>
  <rect id="Rectangle_180" data-name="Rectangle 180" width="4.358" height="4.358" transform="matrix(0.786, -0.618, 0.618, 0.786, 354.729, 290.839)" fill="#2b2d32"/>
  <rect id="Rectangle_181" data-name="Rectangle 181" width="4.357" height="4.359" transform="matrix(0.786, -0.618, 0.618, 0.786, 351.408, 286.611)" fill="#2b2d32"/>
  <path id="Path_2052" data-name="Path 2052" d="M387.256,275.383a30.56,30.56,0,0,0-3.407.839l.892,1.136Z" transform="translate(-40.601 0.001)" fill="#2b2d32"/>
  <path id="Path_2053" data-name="Path 2053" d="M395.715,275.573l-.431-.547a30.853,30.853,0,0,0-5.521.025l2.525,3.214Z" transform="translate(-40.601 0.001)" fill="#2b2d32"/>
  <path id="Path_2054" data-name="Path 2054" d="M383.942,277.986l-1.114-1.418a30.411,30.411,0,0,0-4.173,1.744l1.859,2.367Z" transform="translate(-40.601 0.001)" fill="#2b2d32"/>
  <rect id="Rectangle_182" data-name="Rectangle 182" width="4.358" height="4.359" transform="matrix(0.786, -0.618, 0.618, 0.786, 352.914, 305.932)" fill="#2b2d32"/>
  <rect id="Rectangle_183" data-name="Rectangle 183" width="4.358" height="4.358" transform="matrix(0.786, -0.618, 0.618, 0.786, 341.142, 308.345)" fill="#2b2d32"/>
  <rect id="Rectangle_184" data-name="Rectangle 184" width="4.358" height="4.359" transform="matrix(0.786, -0.618, 0.618, 0.786, 344.462, 312.572)" fill="#2b2d32"/>
  <rect id="Rectangle_185" data-name="Rectangle 185" width="4.358" height="4.358" transform="matrix(0.786, -0.618, 0.618, 0.786, 337.822, 304.119)" fill="#2b2d32"/>
  <rect id="Rectangle_186" data-name="Rectangle 186" width="4.358" height="4.358" transform="matrix(0.786, -0.618, 0.618, 0.786, 331.181, 295.666)" fill="#2b2d32"/>
  <rect id="Rectangle_187" data-name="Rectangle 187" width="4.358" height="4.358" transform="matrix(0.786, -0.618, 0.618, 0.786, 327.861, 291.439)" fill="#2b2d32"/>
  <rect id="Rectangle_188" data-name="Rectangle 188" width="4.358" height="4.358" transform="matrix(0.786, -0.618, 0.618, 0.786, 347.782, 316.799)" fill="#2b2d32"/>
  <rect id="Rectangle_189" data-name="Rectangle 189" width="4.357" height="4.358" transform="matrix(0.786, -0.618, 0.618, 0.786, 334.502, 299.892)" fill="#2b2d32"/>
  <rect id="Rectangle_190" data-name="Rectangle 190" width="4.358" height="4.358" transform="matrix(0.786, -0.618, 0.618, 0.786, 330.275, 303.212)" fill="#2b2d32"/>
  <rect id="Rectangle_191" data-name="Rectangle 191" width="4.358" height="4.358" transform="matrix(0.786, -0.618, 0.618, 0.786, 336.915, 311.665)" fill="#2b2d32"/>
  <rect id="Rectangle_192" data-name="Rectangle 192" width="4.358" height="4.358" transform="matrix(0.786, -0.618, 0.618, 0.786, 326.955, 298.986)" fill="#2b2d32"/>
  <rect id="Rectangle_193" data-name="Rectangle 193" width="4.358" height="4.358" transform="matrix(0.786, -0.618, 0.618, 0.786, 351.102, 321.026)" fill="#2b2d32"/>
  <rect id="Rectangle_194" data-name="Rectangle 194" width="4.358" height="4.358" transform="matrix(0.786, -0.618, 0.618, 0.786, 333.595, 307.439)" fill="#2b2d32"/>
  <rect id="Rectangle_195" data-name="Rectangle 195" width="4.358" height="4.358" transform="matrix(0.786, -0.618, 0.618, 0.786, 323.635, 294.759)" fill="#2b2d32"/>
  <rect id="Rectangle_196" data-name="Rectangle 196" width="4.358" height="4.358" transform="matrix(0.786, -0.618, 0.618, 0.786, 354.422, 325.252)" fill="#2b2d32"/>
  <rect id="Rectangle_197" data-name="Rectangle 197" width="4.358" height="4.358" transform="matrix(0.786, -0.618, 0.618, 0.786, 357.743, 329.478)" fill="#2b2d32"/>
  <rect id="Rectangle_198" data-name="Rectangle 198" width="4.358" height="4.358" transform="matrix(0.786, -0.618, 0.618, 0.786, 361.969, 326.159)" fill="#2b2d32"/>
  <rect id="Rectangle_199" data-name="Rectangle 199" width="4.358" height="4.359" transform="matrix(0.786, -0.618, 0.618, 0.786, 366.195, 322.838)" fill="#2b2d32"/>
  <rect id="Rectangle_200" data-name="Rectangle 200" width="4.358" height="4.358" transform="matrix(0.786, -0.618, 0.618, 0.786, 332.088, 288.119)" fill="#2b2d32"/>
  <rect id="Rectangle_201" data-name="Rectangle 201" width="4.358" height="4.358" transform="matrix(0.786, -0.618, 0.618, 0.786, 362.875, 318.612)" fill="#2b2d32"/>
  <rect id="Rectangle_202" data-name="Rectangle 202" width="4.358" height="4.358" transform="matrix(0.786, -0.618, 0.618, 0.786, 335.408, 292.346)" fill="#2b2d32"/>
  <rect id="Rectangle_203" data-name="Rectangle 203" width="4.358" height="4.358" transform="matrix(0.786, -0.618, 0.618, 0.786, 359.555, 314.386)" fill="#2b2d32"/>
  <rect id="Rectangle_204" data-name="Rectangle 204" width="4.358" height="4.358" transform="matrix(0.786, -0.618, 0.618, 0.786, 349.595, 301.706)" fill="#2b2d32"/>
  <rect id="Rectangle_205" data-name="Rectangle 205" width="4.358" height="4.358" transform="matrix(0.786, -0.618, 0.618, 0.786, 356.235, 310.159)" fill="#2b2d32"/>
  <rect id="Rectangle_206" data-name="Rectangle 206" width="4.358" height="4.358" transform="matrix(0.786, -0.618, 0.618, 0.786, 358.649, 321.932)" fill="#2b2d32"/>
  <rect id="Rectangle_207" data-name="Rectangle 207" width="4.358" height="4.359" transform="matrix(0.786, -0.618, 0.618, 0.786, 348.688, 309.252)" fill="#2b2d32"/>
  <rect id="Rectangle_208" data-name="Rectangle 208" width="4.358" height="4.359" transform="matrix(0.786, -0.618, 0.618, 0.786, 338.728, 296.572)" fill="#2b2d32"/>
  <rect id="Rectangle_209" data-name="Rectangle 209" width="4.358" height="4.358" transform="matrix(0.786, -0.618, 0.618, 0.786, 355.329, 317.706)" fill="#2b2d32"/>
  <rect id="Rectangle_210" data-name="Rectangle 210" width="4.358" height="4.358" transform="matrix(0.786, -0.618, 0.618, 0.786, 352.009, 313.479)" fill="#2b2d32"/>
  <rect id="Rectangle_211" data-name="Rectangle 211" width="4.358" height="4.358" transform="matrix(0.786, -0.618, 0.618, 0.786, 342.048, 300.799)" fill="#2b2d32"/>
  <rect id="Rectangle_212" data-name="Rectangle 212" width="4.358" height="4.358" transform="matrix(0.786, -0.618, 0.618, 0.786, 345.368, 305.026)" fill="#2b2d32"/>
  <rect id="Rectangle_213" data-name="Rectangle 213" width="4.358" height="4.358" transform="matrix(0.786, -0.618, 0.618, 0.786, 328.462, 318.306)" fill="#2b2d32"/>
  <path id="Path_2055" data-name="Path 2055" d="M417.342,292.758l2.34-1.838a30.853,30.853,0,0,0-2.373-3.678l-2.659,2.089Z" transform="translate(-40.601 0.001)" fill="#2b2d32"/>
  <path id="Path_2056" data-name="Path 2056" d="M422.888,299.819c-.177-.931-.393-1.857-.659-2.773l-.939.738Z" transform="translate(-40.601 0.001)" fill="#2b2d32"/>
  <path id="Path_2057" data-name="Path 2057" d="M420.662,296.984l1.222-.959a30.337,30.337,0,0,0-1.71-4.2l-2.2,1.732Z" transform="translate(-40.601 0.001)" fill="#2b2d32"/>
  <path id="Path_2058" data-name="Path 2058" d="M414.022,288.532l2.69-2.113c-.018-.022-.032-.047-.05-.069a30.745,30.745,0,0,0-2.94-3.124l-2.392,1.879Z" transform="translate(-40.601 0.001)" fill="#2b2d32"/>
  <path id="Path_2059" data-name="Path 2059" d="M410.7,284.3l2.261-1.776a30.539,30.539,0,0,0-3.589-2.723l-1.364,1.072Z" transform="translate(-40.601 0.001)" fill="#2b2d32"/>
  <rect id="Rectangle_214" data-name="Rectangle 214" width="4.358" height="4.358" transform="matrix(0.786, -0.618, 0.618, 0.786, 335.102, 326.76)" fill="#2b2d32"/>
  <rect id="Rectangle_215" data-name="Rectangle 215" width="4.358" height="4.359" transform="matrix(0.786, -0.618, 0.618, 0.786, 340.235, 315.892)" fill="#2b2d32"/>
  <rect id="Rectangle_216" data-name="Rectangle 216" width="4.358" height="4.359" transform="matrix(0.786, -0.618, 0.618, 0.786, 331.781, 322.532)" fill="#2b2d32"/>
  <rect id="Rectangle_217" data-name="Rectangle 217" width="4.358" height="4.358" transform="matrix(0.786, -0.618, 0.618, 0.786, 336.314, 284.799)" fill="#2b2d32"/>
  <rect id="Rectangle_218" data-name="Rectangle 218" width="4.358" height="4.359" transform="matrix(0.786, -0.618, 0.618, 0.786, 370.422, 319.519)" fill="#2b2d32"/>
  <rect id="Rectangle_219" data-name="Rectangle 219" width="4.358" height="4.358" transform="matrix(0.786, -0.618, 0.618, 0.786, 367.102, 315.292)" fill="#2b2d32"/>
  <rect id="Rectangle_220" data-name="Rectangle 220" width="4.358" height="4.359" transform="matrix(0.786, -0.618, 0.618, 0.786, 342.954, 293.252)" fill="#2b2d32"/>
  <rect id="Rectangle_221" data-name="Rectangle 221" width="4.358" height="4.358" transform="matrix(0.786, -0.618, 0.618, 0.786, 346.275, 297.479)" fill="#2b2d32"/>
  <rect id="Rectangle_222" data-name="Rectangle 222" width="4.358" height="4.358" transform="matrix(0.786, -0.618, 0.618, 0.786, 339.634, 289.026)" fill="#2b2d32"/>
  <path id="Path_2060" data-name="Path 2060" d="M408.443,279.245a30.433,30.433,0,0,0-2.924-1.538l1.863,2.372Z" transform="translate(-40.601 0.001)" fill="#2b2d32"/>
  <rect id="Rectangle_223" data-name="Rectangle 223" width="4.359" height="4.359" transform="matrix(0.786, -0.618, 0.618, 0.786, 326.048, 306.532)" fill="#2b2d32"/>
  <rect id="Rectangle_224" data-name="Rectangle 224" width="4.359" height="4.358" transform="matrix(0.786, -0.618, 0.618, 0.786, 329.368, 310.759)" fill="#2b2d32"/>
  <rect id="Rectangle_225" data-name="Rectangle 225" width="4.358" height="4.358" transform="matrix(0.786, -0.618, 0.618, 0.786, 322.728, 302.306)" fill="#2b2d32"/>
  <rect id="Rectangle_226" data-name="Rectangle 226" width="4.358" height="4.358" transform="matrix(0.786, -0.618, 0.618, 0.786, 343.556, 320.119)" fill="#2b2d32"/>
  <rect id="Rectangle_227" data-name="Rectangle 227" width="4.359" height="4.358" transform="matrix(0.786, -0.618, 0.618, 0.786, 332.688, 314.986)" fill="#2b2d32"/>
  <rect id="Rectangle_228" data-name="Rectangle 228" width="4.358" height="4.358" transform="matrix(0.786, -0.618, 0.618, 0.786, 350.196, 328.572)" fill="#2b2d32"/>
  <rect id="Rectangle_229" data-name="Rectangle 229" width="4.358" height="4.358" transform="matrix(0.786, -0.618, 0.618, 0.786, 346.876, 324.346)" fill="#2b2d32"/>
  <rect id="Rectangle_230" data-name="Rectangle 230" width="4.36" height="4.358" transform="translate(376.461 301.106) rotate(-38.153)" fill="#2b2d32"/>
  <rect id="Rectangle_231" data-name="Rectangle 231" width="4.359" height="4.358" transform="matrix(0.786, -0.618, 0.618, 0.786, 345.968, 331.893)" fill="#2b2d32"/>
  <rect id="Rectangle_232" data-name="Rectangle 232" width="4.358" height="4.358" transform="matrix(0.786, -0.618, 0.618, 0.786, 321.822, 309.852)" fill="#2b2d32"/>
  <rect id="Rectangle_233" data-name="Rectangle 233" width="4.358" height="4.358" transform="matrix(0.786, -0.618, 0.618, 0.786, 325.142, 314.079)" fill="#2b2d32"/>
  <rect id="Rectangle_234" data-name="Rectangle 234" width="4.359" height="4.359" transform="matrix(0.786, -0.618, 0.618, 0.786, 336.008, 319.213)" fill="#2b2d32"/>
  <rect id="Rectangle_235" data-name="Rectangle 235" width="4.359" height="4.358" transform="matrix(0.786, -0.618, 0.618, 0.786, 342.649, 327.667)" fill="#2b2d32"/>
  <rect id="Rectangle_236" data-name="Rectangle 236" width="4.359" height="4.358" transform="matrix(0.786, -0.618, 0.618, 0.786, 339.329, 323.44)" fill="#2b2d32"/>
  <path id="Path_2061" data-name="Path 2061" d="M412.631,330.3a31.718,31.718,0,1,1,4.831-44.593,31.753,31.753,0,0,1-4.831,44.593m-38.489-47.842a29.685,29.685,0,1,0,41.736,4.523,29.72,29.72,0,0,0-41.736-4.523" transform="translate(-40.601 0.001)" fill="#2b2d32"/>
  <path id="Path_2062" data-name="Path 2062" d="M69.137,359.628l-17.273.586.03-26.575,15.868-.867.734,6.04-2.021.244-.5-4.151-12.047.658-.025,22.55,13.209-.452.035-11.745,2.033.005Z" transform="translate(-40.601 0.001)" fill="#2b2d32"/>
  <path id="Path_2063" data-name="Path 2063" d="M468.479,298.367l.836,5.329-45.007-5.139-1.617-1.981.451.8a74.252,74.252,0,0,1,.537,8.975l47.262,5.871,3.546,12.358,16.776-4.149-7.283-25.559Zm-44.059,6.027.048-3.59,49.7,5.491a2.129,2.129,0,0,1,1.878,2.2,2.1,2.1,0,0,1-.75,1.526,2.043,2.043,0,0,1-1.63.486l-1.141-.142-1.295-.161Zm64.31,14.568L475.9,322.138l-2.767-9.643.279.034a4.173,4.173,0,0,0,3.119-.886l.075-.063a4.156,4.156,0,0,0-2.21-7.3l-2.986-.341-.627-4,11.769-2.654Z" transform="translate(-40.601 0.001)" fill="#2b2d32"/>
  <path id="Path_2064" data-name="Path 2064" d="M227.212,109.861l-21.173,83.153s-.608,2.759-4.023,2.027L224.185,106.1s3.5,1.906,3.027,3.762" transform="translate(-40.601 0.001)" fill="#2b2d32"/>
  <path id="Path_2065" data-name="Path 2065" d="M201.407,204.555l-16.624,67.412s2.1.487,3.7-4.281,14.5-58.2,14.5-58.2.968-3.932-1.575-4.931" transform="translate(-40.601 0.001)" fill="#2b2d32"/>
  <path id="Path_2066" data-name="Path 2066" d="M364.929,317.808a66.52,66.52,0,0,1-3.218-9.587c-3.334,9.777-7.257,11.432-7.257,11.432,4.776,1.327,8.194.251,10.4-1.1.014-.251.06-.5.077-.75" transform="translate(-40.601 0.001)" fill="#2b2d32"/>
  <path id="Path_2067" data-name="Path 2067" d="M394.082,170.78c-3.307-2.015-7.431,1.846-3.083,6.169s2.321,15.319,2.321,15.319-16.607,62.347-25.854,95.853a67.524,67.524,0,0,1,8.353-8.135c1.069-.86,2.187-1.589,3.283-2.376,10.308-35.569,24.062-84.168,24.389-91.35a15.964,15.964,0,0,0-9.409-15.48" transform="translate(-40.601 0.001)" fill="#2b2d32"/>
  <path id="Path_2068" data-name="Path 2068" d="M288.031,411.072l-2.438-1.647,6.3,28.995-25-41.625-3.982-2.689,33.584,55.926Z" transform="translate(-40.601 0.001)" fill="#2b2d32"/>
  <path id="Path_2069" data-name="Path 2069" d="M309.179,396.666l-2.588,3.083-6.684,39.187-5.388-24.806-.709.845-1.392-.94,7.729,35.589Z" transform="translate(-40.601 0.001)" fill="#2b2d32"/>
  <path id="Path_2070" data-name="Path 2070" d="M316.443,388.012l-2.586,3.082-11.6,68.057,12.551,58.125,1.019,4.717a1.916,1.916,0,0,1-.731,1.932,1.814,1.814,0,0,1-.279.128,1.725,1.725,0,0,1-.373.171,1.93,1.93,0,0,1-1.834-.665,1.722,1.722,0,0,1-.368-.744l-13.214-61.03-43.369-72.576-3.963-2.678,45.379,75.849,12.13,56.113-12,2.605,3.5,15.912,31.514-6.865-3.434-15.9-12,2.6L304.294,459.3ZM327.228,516.66l2.574,11.932-27.548,6-2.626-11.936,10.011-2.175.615,2.77a3.755,3.755,0,0,0,.77,1.585,4.006,4.006,0,0,0,3.83,1.38,4.075,4.075,0,0,0,2.373-1.642c.055-.082.089-.177.138-.263a3.9,3.9,0,0,0,.386-.979c.03-.121.06-.242.078-.366a3.971,3.971,0,0,0-.015-1.391l-.6-2.74h0Z" transform="translate(-40.601 0.001)" fill="#2b2d32"/>
  <path id="Path_2071" data-name="Path 2071" d="M145.467,314.6l-2.2-1.343-22.673,9.57,45.783,6.248c-.222-.719-3.315-1.8-3.512-2.53l-34.647-4.73,16.317-6.889Z" transform="translate(-40.601 0.001)" fill="#2b2d32"/>
  <path id="Path_2072" data-name="Path 2072" d="M172.7,332.942l-56.914-7.922-.277-.037L66.1,345.851a2.148,2.148,0,0,1-2.532-.623,2.271,2.271,0,0,1-.326-.617,2.127,2.127,0,0,1,1.228-2.668l47.373-19.48,63.439-49.89c-.581-.4-1.144-.821-1.716-1.233l-52.681,41.45-9.947,7.847L63.7,340.059a4.212,4.212,0,0,0-2.389,5.205,4.314,4.314,0,0,0,.665,1.238,4.162,4.162,0,0,0,4.906,1.221l48.9-20.651,61.3,8.37c-.285-.71-4.134-1.782-4.393-2.5" transform="translate(-40.601 0.001)" fill="#2b2d32"/>
  <path id="Path_2073" data-name="Path 2073" d="M121.6,318.426l24.955-10.237,2.1-2.332-.2-.646-14.149,5.806,38.724-30.466c-.627-.37,5.376-5.943,4.757-6.331Z" transform="translate(-40.601 0.001)" fill="#2b2d32"/>
  <path id="Path_2074" data-name="Path 2074" d="M243.621,339.605a1.016,1.016,0,0,1-1.62-1.051l13.31-50.658a1.017,1.017,0,0,1,1.967.518l-13.311,50.658a1.021,1.021,0,0,1-.346.533" transform="translate(-40.601 0.001)" fill="#2b2d32"/>
  <path id="Path_2075" data-name="Path 2075" d="M259.105,280.669a1.016,1.016,0,0,1-1.62-1.051l11.336-43.147a1.017,1.017,0,1,1,1.966.518l-11.336,43.147a1.015,1.015,0,0,1-.346.533" transform="translate(-40.601 0.001)" fill="#2b2d32"/>
  <path id="Path_2076" data-name="Path 2076" d="M278.159,340.426a1.017,1.017,0,0,1-1.614-1.074l13.981-48.261a1.016,1.016,0,1,1,1.952.564L278.5,339.916a1.01,1.01,0,0,1-.339.51" transform="translate(-40.601 0.001)" fill="#2b2d32"/>
  <path id="Path_2077" data-name="Path 2077" d="M294.813,282.93a1.017,1.017,0,0,1-1.614-1.074l13.009-44.911a1.016,1.016,0,0,1,1.953.564L295.152,282.42a1.01,1.01,0,0,1-.339.51" transform="translate(-40.601 0.001)" fill="#2b2d32"/>
  <path id="Path_2078" data-name="Path 2078" d="M304.683,138.757a1.018,1.018,0,0,1-1.093.117c-12.221-6.115-20.057-14.25-23.289-24.177-4.559-14,1.694-26.356,1.962-26.875a1.016,1.016,0,0,1,1.8.932c-.061.121-6.13,12.156-1.826,25.337C285.3,123.472,292.8,131.2,304.5,137.056a1.018,1.018,0,0,1,.454,1.365,1.031,1.031,0,0,1-.272.336" transform="translate(-40.601 0.001)" fill="#2b2d32"/>
  <path id="Path_2079" data-name="Path 2079" d="M235.205,128.177a1.016,1.016,0,0,1-1.621-1.046c.121-.479,12.813-47.887,56.345-46.595a1.016,1.016,0,1,1-.062,2.032c-41.914-1.24-54.2,44.607-54.315,45.07a1.006,1.006,0,0,1-.347.539" transform="translate(-40.601 0.001)" fill="#2b2d32"/>
  <path id="Path_2080" data-name="Path 2080" d="M278.39,92.115a1.007,1.007,0,0,1-.459.209c-25.347,4.49-33.726,26.944-33.809,27.168a1.016,1.016,0,1,1-1.913-.688c.085-.236,8.831-23.78,35.366-28.482a1.016,1.016,0,0,1,.815,1.793" transform="translate(-40.601 0.001)" fill="#2b2d32"/>
  <path id="Path_2081" data-name="Path 2081" d="M346.845,200.183a1.017,1.017,0,0,1-1.381-1.486c18.647-20.065,19.209-42.144,18.715-49.993l-4.706,7.838.3-4.242c1.711-23.853-2.613-41.731-12.851-53.14a35.546,35.546,0,0,0-22.888-11.953,1.016,1.016,0,1,1,.074-2.031c.548.02,13.558.626,24.326,12.627,10.015,11.156,14.583,28.137,13.607,50.509l3.367-5.606.47,2.682c.051.288,4.8,29.159-18.926,54.694a1.163,1.163,0,0,1-.11.1" transform="translate(-40.601 0.001)" fill="#2b2d32"/>
  <path id="Path_2082" data-name="Path 2082" d="M366.182,137.992a1.016,1.016,0,0,1-1.651-.874c2.521-31.374-22.514-46.724-22.765-46.876a1.016,1.016,0,1,1,1.042-1.745c.264.157,26.374,16.119,23.75,48.784a1.017,1.017,0,0,1-.376.711" transform="translate(-40.601 0.001)" fill="#2b2d32"/>
  <path id="Path_2083" data-name="Path 2083" d="M370.457,129.987a1.016,1.016,0,0,1-1.654-.764A48.5,48.5,0,0,0,354.5,95.872a1.02,1.02,0,0,1-.1-1.435,1.032,1.032,0,0,1,1.435-.1c.587.508,14.394,12.728,15.007,34.831a1.021,1.021,0,0,1-.38.82" transform="translate(-40.601 0.001)" fill="#2b2d32"/>
  <path id="Path_2084" data-name="Path 2084" d="M374.186,123.073a1.016,1.016,0,0,1-1.653-.75A34.324,34.324,0,0,0,361.6,98.467a1.017,1.017,0,0,1,1.281-1.581,35.861,35.861,0,0,1,11.688,25.353,1.01,1.01,0,0,1-.378.834" transform="translate(-40.601 0.001)" fill="#2b2d32"/>
  <path id="Path_2085" data-name="Path 2085" d="M343.5,108.18s11.588,18.729,11.937,39.976-3.82,14.164-4.568,22.159-1.46,13.135-7.424,16.628-12.054,8.089-14.863,18.112,3.211,5.614,3.882-.58,4.951-12.767,6.811-8.023,1.736,11.348-.066,8.567-3.907-7.829-4.733-.206-3.988,12.342-9.16,7.8-10.748-9.744,6.662-21.452,15.381-18.245,15.406-23.048-6.47.638-2.614-11.6,6.269-20.048-1.27-48.341" transform="translate(-40.601 0.001)" fill="#2b2d32"/>
  <path id="Path_2086" data-name="Path 2086" d="M313.231,185.158a1.016,1.016,0,0,1-1.611-1.081c8.068-27.117-2.171-40.915-2.275-41.051a1.1,1.1,0,0,1,.187-1.424,1.016,1.016,0,0,1,1.423.182c.454.586,11,14.677,2.613,42.871a1.008,1.008,0,0,1-.337.5" transform="translate(-40.601 0.001)" fill="#2b2d32"/>
  <path id="Path_2087" data-name="Path 2087" d="M319.172,180.379a1.017,1.017,0,0,1-1.631-1.007c4.455-20.652-2.539-33.957-2.612-34.09a1.017,1.017,0,0,1,1.79-.968c.306.564,7.434,14.052,2.809,35.488a1.01,1.01,0,0,1-.356.577" transform="translate(-40.601 0.001)" fill="#2b2d32"/>
  <path id="Path_2088" data-name="Path 2088" d="M308.368,216.686a1.017,1.017,0,0,1-1.486-1.353c20.552-31.176,16.229-55.2,16.183-55.441a1.017,1.017,0,0,1,2-.388c.2,1.007,4.56,25.026-16.482,56.951a1.063,1.063,0,0,1-.212.231" transform="translate(-40.601 0.001)" fill="#2b2d32"/>
  <path id="Path_2089" data-name="Path 2089" d="M319.58,91.158a4.319,4.319,0,0,1-6.866-4.55L336.583,3.132a4.321,4.321,0,0,1,8.308,2.376L321.019,88.984a4.281,4.281,0,0,1-1.439,2.174M339.3,2.541a2.271,2.271,0,0,0-.764,1.15l-23.87,83.476a2.288,2.288,0,0,0,4.4,1.257L342.938,4.949A2.288,2.288,0,0,0,339.3,2.541" transform="translate(-40.601 0.001)" fill="#2b2d32"/>
  <path id="Path_2090" data-name="Path 2090" d="M218.159,363.9c-4.54,4.86-13.179,5.056-20.061.119a18.5,18.5,0,0,1-7.207-9.987,12.133,12.133,0,0,1,.787-8.888c-.539-.42-1.056-.874-1.586-1.309a14.032,14.032,0,0,0-1.162,10.733,20.539,20.539,0,0,0,7.983,11.1c7.113,5.1,16.022,5.285,21.473.9a12.694,12.694,0,0,0,1.487-1.439c-.577-.4-1.147-.813-1.714-1.231" transform="translate(-40.601 0.001)" fill="#2b2d32"/>
  <path id="Path_2091" data-name="Path 2091" d="M245.553,383.484a12.4,12.4,0,0,1-7.59,2.969,19.364,19.364,0,0,1-18.978-13.609,12.442,12.442,0,0,1,.353-8.1c-.554-.392-1.109-.781-1.655-1.188a14.28,14.28,0,0,0-.66,9.821,21.4,21.4,0,0,0,21.062,15.1,14.594,14.594,0,0,0,8.367-3.069,12.791,12.791,0,0,0,1.042-.961c-.65-.316-1.3-.633-1.941-.969" transform="translate(-40.601 0.001)" fill="#2b2d32"/>
  <path id="Path_2092" data-name="Path 2092" d="M165.852,323.621a1.015,1.015,0,0,1-1.236.029l-16.325-11.917,15.648-17.227,13.956,8.9a1.017,1.017,0,1,1-1.092,1.715l-12.511-7.974-12.976,14.282,14.5,10.583a1.019,1.019,0,0,1,.039,1.613" transform="translate(-40.601 0.001)" fill="#2b2d32"/>
  <path id="Path_2093" data-name="Path 2093" d="M190.07,340.851a1.014,1.014,0,0,1-1.236.028L167.484,325.3l15.648-17.227,13.956,8.9A1.017,1.017,0,0,1,196,318.679L183.485,310.7l-12.977,14.283,19.523,14.251a1.019,1.019,0,0,1,.039,1.613" transform="translate(-40.601 0.001)" fill="#2b2d32"/>
  <path id="Path_2094" data-name="Path 2094" d="M249.07,377.867a1.017,1.017,0,0,1-1.2.057l-48.6-31.947,13.98-15.739a1.032,1.032,0,0,1,1.435-.085,1.016,1.016,0,0,1,.085,1.435l-12.42,13.98,46.641,30.658a1.015,1.015,0,0,1,.291,1.407,1.036,1.036,0,0,1-.212.234" transform="translate(-40.601 0.001)" fill="#2b2d32"/>
  <path id="Path_2095" data-name="Path 2095" d="M194.8,342.713a1.013,1.013,0,0,1-.948.146,1.084,1.084,0,0,1-.63-1.354c.073-.229.244-.767,13.038-16.258a1.016,1.016,0,1,1,1.566,1.294c-4.659,5.644-12.236,14.905-12.73,15.732a.91.91,0,0,1-.3.44" transform="translate(-40.601 0.001)" fill="#2b2d32"/>
  <path id="Path_2096" data-name="Path 2096" d="M265.463,389.387l-15.11-10.7,9.383-11.983a1.017,1.017,0,0,1,1.6,1.256l-8.065,10.3,11.812,8.363,14.438-17.806-15.411-11a1.017,1.017,0,0,1,1.182-1.655l17.17,12.259Z" transform="translate(-40.601 0.001)" fill="#2b2d32"/>
  <path id="Path_2097" data-name="Path 2097" d="M290.813,404.977,268.9,391.1l17.492-19.31,21.222,13.744Zm-18.785-14.3,18.392,11.645,14.131-16.347-17.813-11.533Z" transform="translate(-40.601 0.001)" fill="#2b2d32"/>
  <path id="Path_2098" data-name="Path 2098" d="M310.364,382.59,288.45,368.714,305.942,349.4l21.227,13.743Zm-18.786-14.3,18.393,11.647L324.1,363.587l-17.814-11.534Z" transform="translate(-40.601 0.001)" fill="#2b2d32"/>
  <path id="Path_2099" data-name="Path 2099" d="M329.676,360.155,307.762,346.28l17.492-19.309,21.227,13.743Zm-18.786-14.3L329.283,357.5l14.131-16.348L325.6,329.618Z" transform="translate(-40.601 0.001)" fill="#2b2d32"/>
  <path id="Path_2100" data-name="Path 2100" d="M360.508,321.892l-10.421,12.056L331.694,322.3l7.034-8a3.247,3.247,0,0,1-1.944-.874l-8.218,9.3L350.48,336.6l12.084-13.981c-.693-.217-3.361.78-2.056-.73" transform="translate(-40.601 0.001)" fill="#2b2d32"/>
  <path id="Path_2101" data-name="Path 2101" d="M284.2,365.425l-13.17-9.649a1.017,1.017,0,1,1,1.2-1.64l11.677,8.556,13.909-15.626a1,1,0,0,1,1.435-.084,1.018,1.018,0,0,1,.085,1.435Z" transform="translate(-40.601 0.001)" fill="#2b2d32"/>
  <path id="Path_2102" data-name="Path 2102" d="M181.8,300.262a1.016,1.016,0,0,1-1.194.058L166.532,291.1l14.331-16.6a1.035,1.035,0,0,1,1.435-.1,1.018,1.018,0,0,1,.1,1.435l-12.816,14.836,12.131,7.946a1.017,1.017,0,0,1,.081,1.643" transform="translate(-40.601 0.001)" fill="#2b2d32"/>
  <path id="Path_2103" data-name="Path 2103" d="M188.442,304.469a1.016,1.016,0,0,1-1.42-1.439l6.357-7.724a1.016,1.016,0,1,1,1.569,1.292l-6.357,7.723a.948.948,0,0,1-.149.148" transform="translate(-40.601 0.001)" fill="#2b2d32"/>
  <path id="Path_2104" data-name="Path 2104" d="M366.575,322.26c-17.719,6.258-31.25-9.583-31.385-9.744l1.559-1.3c.125.149,12.774,14.915,29.15,9.131Z" transform="translate(-40.601 0.001)" fill="#2b2d32"/>
</svg>

