<svg xmlns="http://www.w3.org/2000/svg" xmlns:xlink="http://www.w3.org/1999/xlink" width="575.227" height="547.985" viewBox="0 0 575.227 547.985">
  <defs>
    <clipPath id="clip-path">
      <rect id="Rectangle_135" data-name="Rectangle 135" width="519.024" height="148.182" fill="none"/>
    </clipPath>
    <clipPath id="clip-path-3">
      <rect id="Rectangle_137" data-name="Rectangle 137" width="575.227" height="363.078" fill="none"/>
    </clipPath>
  </defs>
  <g id="Group_295" data-name="Group 295" transform="translate(28.102)">
    <g id="Group_292" data-name="Group 292">
      <g id="Group_291" data-name="Group 291" clip-path="url(#clip-path)">
        <text id="A_mysterious_scientist_greets_you_with_" data-name="A mysterious scientist greets you with " transform="translate(44.283 23.153)" fill="#061c3f" font-size="27" font-family="Helvetica"><tspan x="0" y="0">A mysterious scientist greets you with </tspan></text>
      </g>
    </g>
    <text id="experimental_algorithms_known_to_make_a_" data-name="experimental algorithms known to make a " transform="translate(11.187 51.153)" fill="#061c3f" font-size="27" font-family="Helvetica"><tspan x="0" y="0">experimental algorithms known to make a </tspan></text>
    <text id="ship_s_hyperdrive_code_efficient" data-name="ship’s hyperdrive code efficient" transform="translate(79.523 79.152)" fill="#061c3f" font-size="27" font-family="Helvetica"><tspan x="0" y="0">shi</tspan><tspan y="0" letter-spacing="-0.054em">p</tspan><tspan y="0">’s hyperdrive code efficient</tspan></text>
    <g id="Group_294" data-name="Group 294">
      <g id="Group_293" data-name="Group 293" clip-path="url(#clip-path)">
        <text id="What_does_your_instinct_tell_you_" data-name="What does your instinct tell you?" transform="translate(21.443 138.894)" fill="#061c3f" font-size="27" font-family="Futura-Bold, Futura" font-weight="700"><tspan x="0" y="0">What does </tspan><tspan y="0" letter-spacing="-0.026em">y</tspan><tspan y="0">our in</tspan><tspan y="0" letter-spacing="0.013em">s</tspan><tspan y="0" letter-spacing="0.014em">t</tspan><tspan y="0">inct </tspan><tspan y="0" letter-spacing="0.01em">t</tspan><tspan y="0">ell </tspan><tspan y="0" letter-spacing="-0.026em">y</tspan><tspan y="0">ou?</tspan></text>
      </g>
    </g>
  </g>
  <g id="Group_302" data-name="Group 302" transform="translate(0 184.907)">
    <g id="Group_297" data-name="Group 297">
      <g id="Group_296" data-name="Group 296" clip-path="url(#clip-path-3)">
        <ellipse id="Ellipse_2" data-name="Ellipse 2" cx="225.901" cy="71.967" rx="225.901" ry="71.967" transform="translate(71.022 218.144)" fill="none" stroke="#061c3f" stroke-miterlimit="10" stroke-width="2"/>
      </g>
    </g>
    <text id="Get_the_information_sent_over_" data-name="Get the information sent over," transform="translate(125.912 281.477)" fill="#061c3f" font-size="27" font-family="Helvetica"><tspan x="0" y="0">Get the information sent ove</tspan><tspan y="0" letter-spacing="-0.1em">r</tspan><tspan y="0">,</tspan></text>
    <text id="then_investigate_algos_alone" data-name="then investigate algos alone" transform="translate(136.712 309.476)" fill="#061c3f" font-size="27" font-family="Helvetica"><tspan x="0" y="0">then investigate algos alone</tspan></text>
    <g id="Group_299" data-name="Group 299">
      <g id="Group_298" data-name="Group 298" clip-path="url(#clip-path-3)">
        <path id="Path_1301" data-name="Path 1301" d="M570.08,74.759a42.52,42.52,0,0,1,4.764,25.773c-3.494,25.506-32.815,53.9-81.027,65.088-57.658,13.38-123.723,10.868-184.933,6.085-88.948-6.95-202.966-4.119-274.862-35.49C5.021,123.561-3.286,106.707,1.1,88.4c9.664-40.356,74.009-50.144,147.871-52.05,39.215-1.012,78.983-.419,117.184-4.882,41.7-4.873,80.371-15.654,122.951-18.087C474.751,8.489,550.13,36.365,570.08,74.759" fill="#061c3f"/>
      </g>
    </g>
    <text id="Interact_with_the_scientist_to_understand_" data-name="Interact  with the scientist to understand " transform="translate(61.61 88.654)" fill="#ede3ce" font-size="27" font-family="Helvetica"><tspan x="0" y="0" xml:space="preserve">Interact  with the scientist to understand </tspan></text>
    <text id="how_the_algos_can_enhance_your_ship_s_code" data-name="how the algos can enhance your ship’s code" transform="translate(36.365 116.653)" fill="#ede3ce" font-size="27" font-family="Helvetica"><tspan x="0" y="0">how the algos can enhance your shi</tspan><tspan y="0" letter-spacing="-0.054em">p</tspan><tspan y="0">’s code</tspan></text>
    <g id="Group_301" data-name="Group 301">
      <g id="Group_300" data-name="Group 300" clip-path="url(#clip-path-3)">
        <path id="Path_1302" data-name="Path 1302" d="M292.564,22.156l8.26-7.52-10.969,2.11L280.939,6.689l2.714,13.163-8.26,7.521,10.969-2.111,8.916,10.057Z" fill="#ebe1d8"/>
        <path id="Path_1303" data-name="Path 1303" d="M295.533,35.83a.57.57,0,0,1-.682-.132l-8.7-9.813L275.5,27.934a.571.571,0,0,1-.492-.983l8.02-7.3L280.38,6.8a.571.571,0,0,1,.986-.494l8.7,9.814,10.65-2.049a.571.571,0,0,1,.492.982l-8.02,7.3L295.837,35.2a.572.572,0,0,1-.3.626m-18.257-9.4,8.978-1.728a.571.571,0,0,1,.535.182l7.5,8.459-2.283-11.071a.571.571,0,0,1,.174-.537l6.761-6.155-8.978,1.727a.571.571,0,0,1-.535-.182l-7.5-8.459,2.282,11.072a.57.57,0,0,1-.174.537Z" fill="#0d0b21"/>
        <path id="Path_1304" data-name="Path 1304" d="M264.615,11.087l5.616-5.113-7.458,1.435L256.711.57l1.845,8.951-5.616,5.113L260.4,13.2l6.062,6.838Z" fill="#ebe1d8"/>
        <path id="Path_1305" data-name="Path 1305" d="M266.717,20.548a.572.572,0,0,1-.683-.132l-5.846-6.6-7.14,1.374a.571.571,0,0,1-.492-.983l5.376-4.894L256.152.686a.571.571,0,0,1,.986-.494l5.847,6.6,7.139-1.373a.571.571,0,0,1,.492.982l-5.376,4.9,1.78,8.631a.571.571,0,0,1-.3.626m-11.893-6.857,5.467-1.052a.571.571,0,0,1,.535.182l4.645,5.24L264.057,11.2a.571.571,0,0,1,.175-.538l4.117-3.748L262.881,7.97a.574.574,0,0,1-.535-.183L257.7,2.548l1.415,6.858a.573.573,0,0,1-.175.537Z" fill="#0d0b21"/>
      </g>
    </g>
  </g>
</svg>
