<svg xmlns="http://www.w3.org/2000/svg" width="52.431" height="27.31" viewBox="0 0 52.431 27.31">
  <g id="Group_312" data-name="Group 312" transform="translate(0 -37.805)">
    <path id="Path_156" data-name="Path 156" d="M42.392,49.187,45.2,38.375l-8.033,7.763L24.2,42.589l9.468,9.539L30.864,62.941,38.9,55.178,51.86,58.727Z" fill="#ebe1d8"/>
    <path id="Path_157" data-name="Path 157" d="M52.353,59.015a.573.573,0,0,1-.644.263L39.06,55.815l-7.8,7.537a.571.571,0,0,1-.949-.554l2.725-10.5L23.8,42.991a.571.571,0,0,1,.556-.952L37,45.5l7.8-7.537a.571.571,0,0,1,.949.554l-2.725,10.5,9.238,9.308a.572.572,0,0,1,.088.69M31.926,61.122,38.5,54.768a.572.572,0,0,1,.548-.14l10.9,2.985L41.988,49.59a.572.572,0,0,1-.148-.545l2.3-8.85-6.575,6.354a.57.57,0,0,1-.547.14L26.113,43.7l7.963,8.024a.572.572,0,0,1,.148.545Z" fill="#0d0b21"/>
    <path id="Path_158" data-name="Path 158" d="M12.938,55.193l1.909-7.352L9.385,53.12.571,50.706l6.437,6.487L5.1,64.545l5.461-5.279,8.814,2.413Z" fill="#ebe1d8"/>
    <path id="Path_159" data-name="Path 159" d="M19.868,61.967a.571.571,0,0,1-.644.263l-8.5-2.328L5.5,64.955a.571.571,0,0,1-.949-.554l1.827-7.037L.165,51.108a.571.571,0,0,1,.556-.952l8.5,2.327,5.228-5.052a.571.571,0,0,1,.949.554l-1.827,7.037,6.208,6.255a.572.572,0,0,1,.088.69m-13.707.758,4-3.869a.572.572,0,0,1,.548-.14l6.753,1.849L12.533,55.6a.572.572,0,0,1-.148-.545l1.4-5.389-4,3.869a.571.571,0,0,1-.547.14L2.48,51.821l4.933,4.97a.569.569,0,0,1,.147.545Z" fill="#0d0b21"/>
  </g>
</svg>

