<svg xmlns="http://www.w3.org/2000/svg" width="62.377" height="62.393" viewBox="0 0 62.377 62.393">
  <path id="Path_4358" data-name="Path 4358" d="M259.014,117.367c-.329-.346-.66-.684-1-1.014a30.123,30.123,0,1,0-40.758,44.333A29.755,29.755,0,0,0,238.661,168a30.087,30.087,0,0,0,28.418-29.475,30,30,0,0,0-8.065-21.16" transform="translate(-205.788 -106.737)" fill="#ec634b"/>
  <path id="Path_4359" data-name="Path 4359" d="M216.548,161.524a31.237,31.237,0,0,0,42.884-1.942,27.879,27.879,0,0,1-40.626-.4,27.948,27.948,0,0,1,38.716-40.171,27.864,27.864,0,0,1,1.91,40.572,31.254,31.254,0,0,0,.37-42.938,31.208,31.208,0,1,0-43.254,44.88" transform="translate(-205.788 -106.737)" fill="#fcefca"/>
</svg>
