<svg xmlns="http://www.w3.org/2000/svg" width="50.878" height="50.894" viewBox="0 0 50.878 50.894">
  <g id="Group_731" data-name="Group 731" transform="translate(-1249.294 -486.375)">
    <path id="Path_4046" data-name="Path 4046" d="M1269.945,534.919a23.574,23.574,0,0,0,25.912-33.545c-.151-.326-.3-.6-.441-.867-.241-.452-.389-.691-.551-.952-.279-.451-.468-.755-.676-1.048-.253-.359-.446-.633-.656-.893a23.626,23.626,0,0,0-30.476-6.287c-.261.148-.509.3-.752.447a23.6,23.6,0,0,0,7.64,43.145" fill="#df6c59"/>
    <path id="Path_4065" data-name="Path 4065" d="M1269.945,534.919a23.574,23.574,0,0,0,25.912-33.545c-.151-.326-.3-.6-.441-.867-.241-.452-.389-.691-.551-.952-.279-.451-.468-.755-.676-1.048-.253-.359-.446-.633-.656-.893a23.626,23.626,0,0,0-30.476-6.287c-.261.148-.509.3-.752.447a23.6,23.6,0,0,0,7.64,43.145" fill="#ec634b"/>
    <path id="Path_4084" data-name="Path 4084" d="M1288.931,532.949a25.471,25.471,0,0,0,7.422-34.527,23.559,23.559,0,0,1-8.4,32.954,23.595,23.595,0,0,1-24.85-40.07,23.551,23.551,0,0,1,33.248,7.116,25.479,25.479,0,0,0-34.232-8.7,25.452,25.452,0,1,0,26.81,43.231" fill="#fcefca"/>
  </g>
</svg>
