<svg xmlns="http://www.w3.org/2000/svg" width="35.466" height="35.49" viewBox="0 0 35.466 35.49">
  <g id="Group_730" data-name="Group 730" transform="translate(-1168.144 -591.675)">
    <path id="Path_4049" data-name="Path 4049" d="M1177.615,594.4c-.237.133-.469.268-.7.411a17.134,17.134,0,1,0,18.734,28.677,16.925,16.925,0,0,0,7.031-10.777,17.114,17.114,0,0,0-12.27-19.794,17.065,17.065,0,0,0-12.8,1.483" fill="#df6c59"/>
    <path id="Path_4081" data-name="Path 4081" d="M1196.012,624a17.766,17.766,0,0,0,4.934-23.914,15.857,15.857,0,0,1-5.909,22.341,15.9,15.9,0,0,1-16.725-26.969,15.85,15.85,0,0,1,22.634,4.628,17.778,17.778,0,0,0-23.619-6.216A17.751,17.751,0,1,0,1196.012,624" fill="#fcefca"/>
    <path id="Path_4068" data-name="Path 4068" d="M1177.615,594.4c-.237.133-.469.268-.7.411a17.134,17.134,0,1,0,18.734,28.677,16.925,16.925,0,0,0,7.031-10.777,17.114,17.114,0,0,0-12.27-19.794,17.065,17.065,0,0,0-12.8,1.483" fill="#ec634b"/>
  </g>
</svg>
