<svg xmlns="http://www.w3.org/2000/svg" xmlns:xlink="http://www.w3.org/1999/xlink" width="1369.442" height="772.01" viewBox="0 0 1369.442 772.01">
  
  <g id="Group_3" data-name="Group 3">
    <g id="Group_2" data-name="Group 2">
      <g id="Group_1" data-name="Group 1" clip-path="url(#clip-path)">
        <path id="Path_1" data-name="Path 1" d="M1020.1,129.215a2.466,2.466,0,1,0,2.466-2.466,2.466,2.466,0,0,0-2.466,2.466" fill="#313138"/>
        <path id="Path_2" data-name="Path 2" d="M1005.036,91.863a5.392,5.392,0,1,0,5.392-5.392,5.392,5.392,0,0,0-5.392,5.392" fill="#313138"/>
        <path id="Path_3" data-name="Path 3" d="M640.266,399.338a5.393,5.393,0,1,0,5.392-5.392,5.392,5.392,0,0,0-5.392,5.392" fill="#313138"/>
        <path id="Path_4" data-name="Path 4" d="M391.913,409.952a5.392,5.392,0,1,0,5.392-5.392,5.391,5.391,0,0,0-5.392,5.392" fill="#313138"/>
        <path id="Path_5" data-name="Path 5" d="M217.044,42.562a5.392,5.392,0,1,0,5.392-5.392,5.392,5.392,0,0,0-5.392,5.392" fill="#313138"/>
        <path id="Path_6" data-name="Path 6" d="M268.658,253.9a5.392,5.392,0,1,0,5.391-5.392,5.391,5.391,0,0,0-5.391,5.392" fill="#313138"/>
        <path id="Path_7" data-name="Path 7" d="M70.154,51.035a5.393,5.393,0,1,0,5.392-5.392,5.392,5.392,0,0,0-5.392,5.392" fill="#313138"/>
        <path id="Path_8" data-name="Path 8" d="M162.53,168.556a5.393,5.393,0,1,0,5.392-5.392,5.392,5.392,0,0,0-5.392,5.392" fill="#313138"/>
        <path id="Path_9" data-name="Path 9" d="M96.678,404.73a5.392,5.392,0,1,0,5.392-5.392,5.392,5.392,0,0,0-5.392,5.392" fill="#313138"/>
        <path id="Path_10" data-name="Path 10" d="M841.408,415.344a5.392,5.392,0,1,0,5.392-5.392,5.392,5.392,0,0,0-5.392,5.392" fill="#313138"/>
        <path id="Path_11" data-name="Path 11" d="M806.165,179.2a3.178,3.178,0,1,0,3.178-3.178,3.178,3.178,0,0,0-3.178,3.178" fill="#313138"/>
        <path id="Path_12" data-name="Path 12" d="M798.558,278.554a3.178,3.178,0,1,0,3.178-3.178,3.178,3.178,0,0,0-3.178,3.178" fill="#313138"/>
        <path id="Path_13" data-name="Path 13" d="M705.25,446.3a3.177,3.177,0,1,0,3.178-3.178,3.178,3.178,0,0,0-3.178,3.178" fill="#313138"/>
        <path id="Path_14" data-name="Path 14" d="M835.089,86.471a3.177,3.177,0,1,0,3.178-3.178,3.178,3.178,0,0,0-3.178,3.178" fill="#313138"/>
        <path id="Path_15" data-name="Path 15" d="M629.415,146.006a3.178,3.178,0,1,0,3.178-3.178,3.179,3.179,0,0,0-3.178,3.178" fill="#313138"/>
        <path id="Path_16" data-name="Path 16" d="M469.363,489.147a3.177,3.177,0,1,0,3.178-3.178,3.178,3.178,0,0,0-3.178,3.178" fill="#313138"/>
        <path id="Path_17" data-name="Path 17" d="M574.773,290.259a3.177,3.177,0,1,0,3.178-3.178,3.178,3.178,0,0,0-3.178,3.178" fill="#313138"/>
        <path id="Path_18" data-name="Path 18" d="M254.483,346.056a3.178,3.178,0,1,0,3.178-3.178,3.178,3.178,0,0,0-3.178,3.178" fill="#313138"/>
        <path id="Path_19" data-name="Path 19" d="M303.7,216.692a3.178,3.178,0,1,0,3.178-3.178,3.178,3.178,0,0,0-3.178,3.178" fill="#313138"/>
        <path id="Path_20" data-name="Path 20" d="M52.962,296.578A3.177,3.177,0,1,0,56.14,293.4a3.178,3.178,0,0,0-3.178,3.178" fill="#313138"/>
        <path id="Path_21" data-name="Path 21" d="M767.744,341.722a3.177,3.177,0,1,0,3.178-3.178,3.178,3.178,0,0,0-3.178,3.178" fill="#313138"/>
        <path id="Path_22" data-name="Path 22" d="M786.586,344.29a2.166,2.166,0,1,0,2.167-2.167,2.166,2.166,0,0,0-2.167,2.167" fill="#313138"/>
        <path id="Path_23" data-name="Path 23" d="M810.354,403.605a2.167,2.167,0,1,0,2.167-2.167,2.167,2.167,0,0,0-2.167,2.167" fill="#313138"/>
        <path id="Path_24" data-name="Path 24" d="M882,83.293a2.167,2.167,0,1,0,2.167-2.167A2.167,2.167,0,0,0,882,83.293" fill="#313138"/>
        <path id="Path_25" data-name="Path 25" d="M903.565,40.347a2.167,2.167,0,1,0,2.167-2.167,2.167,2.167,0,0,0-2.167,2.167" fill="#313138"/>
        <path id="Path_26" data-name="Path 26" d="M610.044,338.93a2.167,2.167,0,1,0,2.167-2.167,2.167,2.167,0,0,0-2.167,2.167" fill="#313138"/>
        <path id="Path_27" data-name="Path 27" d="M594.272,564.886a2.167,2.167,0,1,0,2.167-2.167,2.167,2.167,0,0,0-2.167,2.167" fill="#313138"/>
        <path id="Path_28" data-name="Path 28" d="M674.576,600.555a2.167,2.167,0,1,0,2.167-2.167,2.167,2.167,0,0,0-2.167,2.167" fill="#313138"/>
        <path id="Path_29" data-name="Path 29" d="M913.965,303.2a2.166,2.166,0,1,0,2.167-2.167,2.167,2.167,0,0,0-2.167,2.167" fill="#313138"/>
        <path id="Path_30" data-name="Path 30" d="M877.493,201.415a2.167,2.167,0,1,0,2.167-2.167,2.167,2.167,0,0,0-2.167,2.167" fill="#313138"/>
        <path id="Path_31" data-name="Path 31" d="M850.027,230.958a2.167,2.167,0,1,0,2.167-2.167,2.167,2.167,0,0,0-2.167,2.167" fill="#313138"/>
        <path id="Path_32" data-name="Path 32" d="M832.922,207.77a2.167,2.167,0,1,0,2.167-2.167,2.167,2.167,0,0,0-2.167,2.167" fill="#313138"/>
        <path id="Path_33" data-name="Path 33" d="M918.2,551.16a2.166,2.166,0,1,0,2.167-2.167,2.167,2.167,0,0,0-2.167,2.167" fill="#313138"/>
        <path id="Path_34" data-name="Path 34" d="M866.7,173.948a2.167,2.167,0,1,0,2.167-2.167,2.167,2.167,0,0,0-2.167,2.167" fill="#313138"/>
        <path id="Path_35" data-name="Path 35" d="M827.551,168.556a2.166,2.166,0,1,0,2.167-2.167,2.167,2.167,0,0,0-2.167,2.167" fill="#313138"/>
        <path id="Path_36" data-name="Path 36" d="M982.766,456.4a2.167,2.167,0,1,0,2.167-2.167,2.167,2.167,0,0,0-2.167,2.167" fill="#313138"/>
        <path id="Path_37" data-name="Path 37" d="M928.216,409.952a2.167,2.167,0,1,0,2.167-2.167,2.167,2.167,0,0,0-2.167,2.167" fill="#313138"/>
        <path id="Path_38" data-name="Path 38" d="M732.934,129.215a2.167,2.167,0,1,0,2.167-2.167,2.167,2.167,0,0,0-2.167,2.167" fill="#313138"/>
        <path id="Path_39" data-name="Path 39" d="M579.449,370.965a2.167,2.167,0,1,0,2.167-2.167,2.167,2.167,0,0,0-2.167,2.167" fill="#313138"/>
        <path id="Path_40" data-name="Path 40" d="M515.06,519.576a2.167,2.167,0,1,0,2.167-2.167,2.167,2.167,0,0,0-2.167,2.167" fill="#313138"/>
        <path id="Path_41" data-name="Path 41" d="M334.517,459.583a2.167,2.167,0,1,0,2.167-2.167,2.167,2.167,0,0,0-2.167,2.167" fill="#313138"/>
        <path id="Path_42" data-name="Path 42" d="M421.721,327.692a2.166,2.166,0,1,0,2.167-2.167,2.167,2.167,0,0,0-2.167,2.167" fill="#313138"/>
        <path id="Path_43" data-name="Path 43" d="M461.834,409.952A2.166,2.166,0,1,0,464,407.785a2.167,2.167,0,0,0-2.167,2.167" fill="#313138"/>
        <path id="Path_44" data-name="Path 44" d="M306.879,383.005a2.167,2.167,0,1,0,2.167-2.167,2.167,2.167,0,0,0-2.167,2.167" fill="#313138"/>
        <path id="Path_45" data-name="Path 45" d="M488.133,410.123a2.167,2.167,0,1,0,2.167-2.167,2.167,2.167,0,0,0-2.167,2.167" fill="#313138"/>
        <path id="Path_46" data-name="Path 46" d="M209.485,393.774a2.166,2.166,0,1,0,2.167-2.167,2.167,2.167,0,0,0-2.167,2.167" fill="#313138"/>
        <path id="Path_47" data-name="Path 47" d="M207.319,278.554a2.166,2.166,0,1,0,2.167-2.167,2.167,2.167,0,0,0-2.167,2.167" fill="#313138"/>
        <path id="Path_48" data-name="Path 48" d="M198.253,142.829a2.166,2.166,0,1,0,2.167-2.167,2.167,2.167,0,0,0-2.167,2.167" fill="#313138"/>
        <path id="Path_49" data-name="Path 49" d="M318.343,259.3a2.167,2.167,0,1,0,2.167-2.167,2.167,2.167,0,0,0-2.167,2.167" fill="#313138"/>
        <path id="Path_50" data-name="Path 50" d="M112.615,129.215a2.167,2.167,0,1,0,2.167-2.167,2.167,2.167,0,0,0-2.167,2.167" fill="#313138"/>
        <path id="Path_51" data-name="Path 51" d="M129.586,266.518a2.167,2.167,0,1,0,2.167-2.167,2.167,2.167,0,0,0-2.167,2.167" fill="#313138"/>
        <path id="Path_52" data-name="Path 52" d="M250.314,89.649a2.167,2.167,0,1,0,2.167-2.167,2.167,2.167,0,0,0-2.167,2.167" fill="#313138"/>
        <path id="Path_53" data-name="Path 53" d="M37.709,83.293a2.167,2.167,0,1,0,2.167-2.167,2.167,2.167,0,0,0-2.167,2.167" fill="#313138"/>
        <path id="Path_54" data-name="Path 54" d="M146.527,63.436a2.167,2.167,0,1,0,2.167-2.167,2.167,2.167,0,0,0-2.167,2.167" fill="#313138"/>
        <path id="Path_55" data-name="Path 55" d="M326.251,91.863a2.167,2.167,0,1,0,2.167-2.167,2.168,2.168,0,0,0-2.167,2.167" fill="#313138"/>
        <path id="Path_56" data-name="Path 56" d="M144.36,219.87a2.166,2.166,0,1,0,2.167-2.167,2.167,2.167,0,0,0-2.167,2.167" fill="#313138"/>
        <path id="Path_57" data-name="Path 57" d="M571.862,131.681a2.167,2.167,0,1,0,2.167-2.167,2.167,2.167,0,0,0-2.167,2.167" fill="#313138"/>
        <path id="Path_58" data-name="Path 58" d="M41.86,385.172a2.167,2.167,0,1,0,2.167-2.167,2.167,2.167,0,0,0-2.167,2.167" fill="#313138"/>
        <path id="Path_59" data-name="Path 59" d="M177.252,363.292a2.167,2.167,0,1,0,2.167-2.167,2.167,2.167,0,0,0-2.167,2.167" fill="#313138"/>
        <path id="Path_60" data-name="Path 60" d="M722.968,602.09a2.167,2.167,0,1,0,2.167-2.167,2.167,2.167,0,0,0-2.167,2.167" fill="#313138"/>
        <path id="Path_61" data-name="Path 61" d="M709.439,360.5a2.166,2.166,0,1,0,2.167-2.167,2.167,2.167,0,0,0-2.167,2.167" fill="#313138"/>
        <path id="Path_62" data-name="Path 62" d="M630.426,228.792a2.166,2.166,0,1,0,2.167-2.167,2.167,2.167,0,0,0-2.167,2.167" fill="#313138"/>
        <path id="Path_63" data-name="Path 63" d="M542.616,446.3a2.166,2.166,0,1,0,2.167-2.167,2.167,2.167,0,0,0-2.167,2.167" fill="#313138"/>
        <path id="Path_64" data-name="Path 64" d="M531.515,45.643a2.167,2.167,0,1,0,2.167-2.167,2.167,2.167,0,0,0-2.167,2.167" fill="#313138"/>
        <path id="Path_65" data-name="Path 65" d="M830.569,727.954a2.167,2.167,0,1,0,2.167-2.167,2.167,2.167,0,0,0-2.167,2.167" fill="#313138"/>
        <path id="Path_66" data-name="Path 66" d="M884.162,561.653a2.167,2.167,0,1,0,2.167-2.167,2.167,2.167,0,0,0-2.167,2.167" fill="#313138"/>
        <path id="Path_67" data-name="Path 67" d="M877.493,519.576a2.167,2.167,0,1,0,2.167-2.167,2.167,2.167,0,0,0-2.167,2.167" fill="#313138"/>
        <path id="Path_68" data-name="Path 68" d="M942.083,536.366a2.167,2.167,0,1,0,2.167-2.167,2.167,2.167,0,0,0-2.167,2.167" fill="#313138"/>
        <path id="Path_69" data-name="Path 69" d="M901.4,521.912a2.167,2.167,0,1,0,2.167-2.167,2.167,2.167,0,0,0-2.167,2.167" fill="#313138"/>
        <path id="Path_70" data-name="Path 70" d="M769.766,431.082a2.167,2.167,0,1,0,2.167-2.167,2.167,2.167,0,0,0-2.167,2.167" fill="#313138"/>
        <path id="Path_71" data-name="Path 71" d="M799.569,572.729a2.167,2.167,0,1,0,2.167-2.167,2.167,2.167,0,0,0-2.167,2.167" fill="#313138"/>
        <path id="Path_72" data-name="Path 72" d="M771.933,26.384a2.167,2.167,0,1,0,2.167-2.167,2.167,2.167,0,0,0-2.167,2.167" fill="#313138"/>
        <path id="Path_73" data-name="Path 73" d="M1047.855,289.339a2.167,2.167,0,1,0,2.167-2.167,2.167,2.167,0,0,0-2.167,2.167" fill="#313138"/>
        <path id="Path_74" data-name="Path 74" d="M980.6,33.991a2.167,2.167,0,1,0,2.167-2.167,2.167,2.167,0,0,0-2.167,2.167" fill="#313138"/>
        <path id="Path_75" data-name="Path 75" d="M152.645,427.9a3.177,3.177,0,1,0,3.178-3.178,3.178,3.178,0,0,0-3.178,3.178" fill="#313138"/>
        <path id="Path_76" data-name="Path 76" d="M90.323,72.605A3.178,3.178,0,1,0,93.5,69.427a3.178,3.178,0,0,0-3.178,3.178" fill="#313138"/>
        <path id="Path_77" data-name="Path 77" d="M72.369,204.593a3.177,3.177,0,1,0,3.178-3.178,3.178,3.178,0,0,0-3.178,3.178" fill="#313138"/>
        <path id="Path_78" data-name="Path 78" d="M325.24,327.692a3.178,3.178,0,1,0,3.178-3.178,3.178,3.178,0,0,0-3.178,3.178" fill="#313138"/>
        <path id="Path_79" data-name="Path 79" d="M457.645,456.4a3.178,3.178,0,1,0,3.178-3.177,3.178,3.178,0,0,0-3.178,3.177" fill="#313138"/>
        <path id="Path_80" data-name="Path 80" d="M399.52,37.169a3.178,3.178,0,1,0,3.178-3.178,3.178,3.178,0,0,0-3.178,3.178" fill="#313138"/>
        <path id="Path_81" data-name="Path 81" d="M257.66,173.948a3.178,3.178,0,1,0,3.178-3.178,3.178,3.178,0,0,0-3.178,3.178" fill="#313138"/>
        <path id="Path_82" data-name="Path 82" d="M757.879,709.665a3.177,3.177,0,1,0,3.178-3.178,3.178,3.178,0,0,0-3.178,3.178" fill="#313138"/>
        <path id="Path_83" data-name="Path 83" d="M873.3,671.21a3.177,3.177,0,1,0,3.177-3.178,3.177,3.177,0,0,0-3.177,3.178" fill="#313138"/>
        <path id="Path_84" data-name="Path 84" d="M1021.856,603.168a3.178,3.178,0,1,0,3.178-3.178,3.178,3.178,0,0,0-3.178,3.178" fill="#313138"/>
        <path id="Path_85" data-name="Path 85" d="M919.887,266.518a3.177,3.177,0,1,0,3.178-3.178,3.178,3.178,0,0,0-3.178,3.178" fill="#313138"/>
        <path id="Path_86" data-name="Path 86" d="M1001.158,578.55a3.177,3.177,0,1,0,3.178-3.178,3.178,3.178,0,0,0-3.178,3.178" fill="#313138"/>
        <path id="Path_87" data-name="Path 87" d="M1048.246,415.344a5.393,5.393,0,1,0,5.392-5.392,5.392,5.392,0,0,0-5.392,5.392" fill="#313138"/>
        <path id="Path_88" data-name="Path 88" d="M659.392,552.893a5.392,5.392,0,1,0,5.392-5.392,5.392,5.392,0,0,0-5.392,5.392" fill="#313138"/>
        <path id="Path_89" data-name="Path 89" d="M691.822,243.118a2.466,2.466,0,1,0,2.466-2.465,2.465,2.465,0,0,0-2.466,2.465" fill="#313138"/>
        <path id="Path_90" data-name="Path 90" d="M630.127,69.427a2.466,2.466,0,1,0,2.466-2.466,2.466,2.466,0,0,0-2.466,2.466" fill="#313138"/>
        <path id="Path_91" data-name="Path 91" d="M529.049,281.732a2.466,2.466,0,1,0,2.466-2.466,2.466,2.466,0,0,0-2.466,2.466" fill="#313138"/>
        <path id="Path_92" data-name="Path 92" d="M1239.7,261.91a6.356,6.356,0,1,0,7.947-4.2,6.356,6.356,0,0,0-7.947,4.2" fill="#1d1c1f"/>
        <path id="Path_93" data-name="Path 93" d="M1222.845,256.71a3.178,3.178,0,1,0,3.973-2.1,3.178,3.178,0,0,0-3.973,2.1" fill="#1d1c1f"/>
        <path id="Path_94" data-name="Path 94" d="M1207.141,251.865a2.568,2.568,0,1,0,3.211-1.7,2.568,2.568,0,0,0-3.211,1.7" fill="#1d1c1f"/>
        <path id="Path_95" data-name="Path 95" d="M1262.625,268.984a2.568,2.568,0,1,0,3.211-1.7,2.569,2.569,0,0,0-3.211,1.7" fill="#1d1c1f"/>
      </g>
    </g>
  </g>
  <g id="Group_319" data-name="Group 319" transform="translate(-187.575 -640)">
    <g id="Group_318" data-name="Group 318" clip-path="url(#clip-path-2)">
      <g id="Group_313" data-name="Group 313">
        <g id="Group_312" data-name="Group 312" clip-path="url(#clip-path-2)">
          <path id="Path_1883" data-name="Path 1883" d="M1211.125,770.881a2.466,2.466,0,1,0,2.466-2.466,2.466,2.466,0,0,0-2.466,2.466" fill="#313138"/>
          <path id="Path_1884" data-name="Path 1884" d="M1196.06,733.529a5.392,5.392,0,1,0,5.392-5.391,5.392,5.392,0,0,0-5.392,5.391" fill="#313138"/>
          <path id="Path_1885" data-name="Path 1885" d="M831.289,1041a5.392,5.392,0,1,0,5.392-5.392,5.392,5.392,0,0,0-5.392,5.392" fill="#313138"/>
          <path id="Path_1886" data-name="Path 1886" d="M582.936,1051.618a5.393,5.393,0,1,0,5.392-5.392,5.392,5.392,0,0,0-5.392,5.392" fill="#313138"/>
          <path id="Path_1887" data-name="Path 1887" d="M408.068,684.228a5.393,5.393,0,1,0,5.392-5.392,5.392,5.392,0,0,0-5.392,5.392" fill="#313138"/>
          <path id="Path_1888" data-name="Path 1888" d="M459.681,895.569a5.393,5.393,0,1,0,5.392-5.392,5.392,5.392,0,0,0-5.392,5.392" fill="#313138"/>
          <path id="Path_1889" data-name="Path 1889" d="M261.178,692.7a5.393,5.393,0,1,0,5.392-5.392,5.392,5.392,0,0,0-5.392,5.392" fill="#313138"/>
          <path id="Path_1890" data-name="Path 1890" d="M353.553,810.222a5.393,5.393,0,1,0,5.392-5.392,5.392,5.392,0,0,0-5.392,5.392" fill="#313138"/>
          <path id="Path_1891" data-name="Path 1891" d="M287.7,1046.4a5.393,5.393,0,1,0,5.392-5.392,5.392,5.392,0,0,0-5.392,5.392" fill="#313138"/>
          <path id="Path_1892" data-name="Path 1892" d="M1032.432,1057.01a5.393,5.393,0,1,0,5.392-5.392,5.392,5.392,0,0,0-5.392,5.392" fill="#313138"/>
          <path id="Path_1893" data-name="Path 1893" d="M997.188,820.865a3.178,3.178,0,1,0,3.178-3.178,3.178,3.178,0,0,0-3.178,3.178" fill="#313138"/>
          <path id="Path_1894" data-name="Path 1894" d="M989.581,920.22a3.177,3.177,0,1,0,3.178-3.178,3.178,3.178,0,0,0-3.178,3.178" fill="#313138"/>
          <path id="Path_1895" data-name="Path 1895" d="M896.273,1087.963a3.177,3.177,0,1,0,3.178-3.178,3.178,3.178,0,0,0-3.178,3.178" fill="#313138"/>
          <path id="Path_1896" data-name="Path 1896" d="M1026.112,728.137a3.177,3.177,0,1,0,3.178-3.178,3.178,3.178,0,0,0-3.178,3.178" fill="#313138"/>
          <path id="Path_1897" data-name="Path 1897" d="M820.438,787.672a3.178,3.178,0,1,0,3.178-3.177,3.179,3.179,0,0,0-3.178,3.177" fill="#313138"/>
          <path id="Path_1898" data-name="Path 1898" d="M660.387,1130.813a3.177,3.177,0,1,0,3.178-3.178,3.178,3.178,0,0,0-3.178,3.178" fill="#313138"/>
          <path id="Path_1899" data-name="Path 1899" d="M765.8,931.925a3.177,3.177,0,1,0,3.178-3.178,3.178,3.178,0,0,0-3.178,3.178" fill="#313138"/>
          <path id="Path_1900" data-name="Path 1900" d="M445.506,987.722a3.177,3.177,0,1,0,3.178-3.178,3.178,3.178,0,0,0-3.178,3.178" fill="#313138"/>
          <path id="Path_1901" data-name="Path 1901" d="M494.725,858.358a3.177,3.177,0,1,0,3.178-3.178,3.178,3.178,0,0,0-3.178,3.178" fill="#313138"/>
          <path id="Path_1902" data-name="Path 1902" d="M243.985,938.244a3.177,3.177,0,1,0,3.178-3.178,3.178,3.178,0,0,0-3.178,3.178" fill="#313138"/>
          <path id="Path_1903" data-name="Path 1903" d="M958.768,983.388a3.177,3.177,0,1,0,3.178-3.178,3.178,3.178,0,0,0-3.178,3.178" fill="#313138"/>
          <path id="Path_1904" data-name="Path 1904" d="M977.609,985.956a2.167,2.167,0,1,0,2.167-2.167,2.167,2.167,0,0,0-2.167,2.167" fill="#313138"/>
          <path id="Path_1905" data-name="Path 1905" d="M1001.377,1045.271a2.167,2.167,0,1,0,2.167-2.167,2.167,2.167,0,0,0-2.167,2.167" fill="#313138"/>
          <path id="Path_1906" data-name="Path 1906" d="M1073.019,724.959a2.167,2.167,0,1,0,2.167-2.167,2.167,2.167,0,0,0-2.167,2.167" fill="#313138"/>
          <path id="Path_1907" data-name="Path 1907" d="M1094.589,682.013a2.167,2.167,0,1,0,2.167-2.167,2.167,2.167,0,0,0-2.167,2.167" fill="#313138"/>
          <path id="Path_1908" data-name="Path 1908" d="M801.067,980.6a2.167,2.167,0,1,0,2.167-2.167,2.167,2.167,0,0,0-2.167,2.167" fill="#313138"/>
          <path id="Path_1909" data-name="Path 1909" d="M785.3,1206.552a2.167,2.167,0,1,0,2.167-2.167,2.167,2.167,0,0,0-2.167,2.167" fill="#313138"/>
          <path id="Path_1910" data-name="Path 1910" d="M865.6,1242.221a2.167,2.167,0,1,0,2.167-2.167,2.167,2.167,0,0,0-2.167,2.167" fill="#313138"/>
          <path id="Path_1911" data-name="Path 1911" d="M1104.989,944.871a2.166,2.166,0,1,0,2.167-2.167,2.166,2.166,0,0,0-2.167,2.167" fill="#313138"/>
          <path id="Path_1912" data-name="Path 1912" d="M1068.517,843.081a2.167,2.167,0,1,0,2.167-2.167,2.167,2.167,0,0,0-2.167,2.167" fill="#313138"/>
          <path id="Path_1913" data-name="Path 1913" d="M1041.05,872.624a2.167,2.167,0,1,0,2.167-2.167,2.167,2.167,0,0,0-2.167,2.167" fill="#313138"/>
          <path id="Path_1914" data-name="Path 1914" d="M1023.946,849.436a2.167,2.167,0,1,0,2.167-2.167,2.167,2.167,0,0,0-2.167,2.167" fill="#313138"/>
          <path id="Path_1915" data-name="Path 1915" d="M1109.225,1192.826a2.167,2.167,0,1,0,2.167-2.167,2.167,2.167,0,0,0-2.167,2.167" fill="#313138"/>
          <path id="Path_1916" data-name="Path 1916" d="M1057.723,815.614a2.167,2.167,0,1,0,2.167-2.167,2.167,2.167,0,0,0-2.167,2.167" fill="#313138"/>
          <path id="Path_1917" data-name="Path 1917" d="M1018.575,810.222a2.167,2.167,0,1,0,2.167-2.167,2.167,2.167,0,0,0-2.167,2.167" fill="#313138"/>
          <path id="Path_1918" data-name="Path 1918" d="M1173.79,1098.072a2.167,2.167,0,1,0,2.167-2.167,2.167,2.167,0,0,0-2.167,2.167" fill="#313138"/>
          <path id="Path_1919" data-name="Path 1919" d="M1119.24,1051.618a2.167,2.167,0,1,0,2.167-2.167,2.167,2.167,0,0,0-2.167,2.167" fill="#313138"/>
          <path id="Path_1920" data-name="Path 1920" d="M923.958,770.881a2.167,2.167,0,1,0,2.167-2.167,2.167,2.167,0,0,0-2.167,2.167" fill="#313138"/>
          <path id="Path_1921" data-name="Path 1921" d="M770.472,1012.631a2.167,2.167,0,1,0,2.167-2.167,2.167,2.167,0,0,0-2.167,2.167" fill="#313138"/>
          <path id="Path_1922" data-name="Path 1922" d="M706.083,1161.242a2.167,2.167,0,1,0,2.167-2.167,2.167,2.167,0,0,0-2.167,2.167" fill="#313138"/>
          <path id="Path_1923" data-name="Path 1923" d="M525.541,1101.249a2.167,2.167,0,1,0,2.167-2.167,2.167,2.167,0,0,0-2.167,2.167" fill="#313138"/>
          <path id="Path_1924" data-name="Path 1924" d="M612.745,969.358a2.167,2.167,0,1,0,2.167-2.167,2.167,2.167,0,0,0-2.167,2.167" fill="#313138"/>
          <path id="Path_1925" data-name="Path 1925" d="M652.857,1051.618a2.167,2.167,0,1,0,2.167-2.167,2.167,2.167,0,0,0-2.167,2.167" fill="#313138"/>
          <path id="Path_1926" data-name="Path 1926" d="M497.9,1024.671a2.166,2.166,0,1,0,2.167-2.167,2.167,2.167,0,0,0-2.167,2.167" fill="#313138"/>
          <path id="Path_1927" data-name="Path 1927" d="M679.156,1051.789a2.167,2.167,0,1,0,2.167-2.167,2.167,2.167,0,0,0-2.167,2.167" fill="#313138"/>
          <path id="Path_1928" data-name="Path 1928" d="M400.509,1035.44a2.167,2.167,0,1,0,2.167-2.167,2.167,2.167,0,0,0-2.167,2.167" fill="#313138"/>
          <path id="Path_1929" data-name="Path 1929" d="M398.342,920.22a2.166,2.166,0,1,0,2.167-2.167,2.167,2.167,0,0,0-2.167,2.167" fill="#313138"/>
          <path id="Path_1930" data-name="Path 1930" d="M389.277,784.495a2.166,2.166,0,1,0,2.167-2.167,2.167,2.167,0,0,0-2.167,2.167" fill="#313138"/>
          <path id="Path_1931" data-name="Path 1931" d="M509.366,900.962a2.166,2.166,0,1,0,2.167-2.167,2.167,2.167,0,0,0-2.167,2.167" fill="#313138"/>
          <path id="Path_1932" data-name="Path 1932" d="M303.638,770.881a2.167,2.167,0,1,0,2.167-2.167,2.167,2.167,0,0,0-2.167,2.167" fill="#313138"/>
          <path id="Path_1933" data-name="Path 1933" d="M320.609,908.184a2.166,2.166,0,1,0,2.167-2.167,2.167,2.167,0,0,0-2.167,2.167" fill="#313138"/>
          <path id="Path_1934" data-name="Path 1934" d="M441.337,731.315a2.167,2.167,0,1,0,2.167-2.167,2.167,2.167,0,0,0-2.167,2.167" fill="#313138"/>
          <path id="Path_1935" data-name="Path 1935" d="M228.733,724.959a2.166,2.166,0,1,0,2.167-2.167,2.167,2.167,0,0,0-2.167,2.167" fill="#313138"/>
          <path id="Path_1936" data-name="Path 1936" d="M337.55,705.1a2.167,2.167,0,1,0,2.167-2.167,2.167,2.167,0,0,0-2.167,2.167" fill="#313138"/>
          <path id="Path_1937" data-name="Path 1937" d="M517.275,733.529a2.166,2.166,0,1,0,2.167-2.167,2.167,2.167,0,0,0-2.167,2.167" fill="#313138"/>
          <path id="Path_1938" data-name="Path 1938" d="M335.384,861.536a2.167,2.167,0,1,0,2.167-2.167,2.167,2.167,0,0,0-2.167,2.167" fill="#313138"/>
          <path id="Path_1939" data-name="Path 1939" d="M762.886,773.347a2.167,2.167,0,1,0,2.167-2.167,2.167,2.167,0,0,0-2.167,2.167" fill="#313138"/>
          <path id="Path_1940" data-name="Path 1940" d="M232.884,1026.838a2.166,2.166,0,1,0,2.167-2.167,2.167,2.167,0,0,0-2.167,2.167" fill="#313138"/>
          <path id="Path_1941" data-name="Path 1941" d="M368.276,1004.958a2.167,2.167,0,1,0,2.167-2.167,2.167,2.167,0,0,0-2.167,2.167" fill="#313138"/>
          <path id="Path_1942" data-name="Path 1942" d="M913.991,1243.756a2.166,2.166,0,1,0,2.167-2.167,2.167,2.167,0,0,0-2.167,2.167" fill="#313138"/>
          <path id="Path_1943" data-name="Path 1943" d="M900.462,1002.166a2.167,2.167,0,1,0,2.167-2.167,2.167,2.167,0,0,0-2.167,2.167" fill="#313138"/>
          <path id="Path_1944" data-name="Path 1944" d="M821.45,870.458a2.166,2.166,0,1,0,2.167-2.167,2.166,2.166,0,0,0-2.167,2.167" fill="#313138"/>
          <path id="Path_1945" data-name="Path 1945" d="M733.64,1087.963a2.167,2.167,0,1,0,2.167-2.167,2.167,2.167,0,0,0-2.167,2.167" fill="#313138"/>
          <path id="Path_1946" data-name="Path 1946" d="M722.538,687.309a2.166,2.166,0,1,0,2.167-2.167,2.167,2.167,0,0,0-2.167,2.167" fill="#313138"/>
          <path id="Path_1947" data-name="Path 1947" d="M1021.593,1369.62a2.167,2.167,0,1,0,2.167-2.167,2.167,2.167,0,0,0-2.167,2.167" fill="#313138"/>
          <path id="Path_1948" data-name="Path 1948" d="M1075.186,1203.319a2.167,2.167,0,1,0,2.167-2.167,2.167,2.167,0,0,0-2.167,2.167" fill="#313138"/>
          <path id="Path_1949" data-name="Path 1949" d="M1068.517,1161.242a2.167,2.167,0,1,0,2.167-2.167,2.168,2.168,0,0,0-2.167,2.167" fill="#313138"/>
          <path id="Path_1950" data-name="Path 1950" d="M1133.106,1178.032a2.167,2.167,0,1,0,2.167-2.167,2.167,2.167,0,0,0-2.167,2.167" fill="#313138"/>
          <path id="Path_1951" data-name="Path 1951" d="M1092.422,1163.578a2.167,2.167,0,1,0,2.167-2.167,2.167,2.167,0,0,0-2.167,2.167" fill="#313138"/>
          <path id="Path_1952" data-name="Path 1952" d="M960.79,1072.748a2.167,2.167,0,1,0,2.167-2.167,2.167,2.167,0,0,0-2.167,2.167" fill="#313138"/>
          <path id="Path_1953" data-name="Path 1953" d="M990.592,1214.4a2.167,2.167,0,1,0,2.167-2.167,2.167,2.167,0,0,0-2.167,2.167" fill="#313138"/>
          <path id="Path_1954" data-name="Path 1954" d="M962.956,668.05a2.167,2.167,0,1,0,2.167-2.167,2.167,2.167,0,0,0-2.167,2.167" fill="#313138"/>
          <path id="Path_1955" data-name="Path 1955" d="M1238.878,931.005a2.167,2.167,0,1,0,2.167-2.167,2.167,2.167,0,0,0-2.167,2.167" fill="#313138"/>
          <path id="Path_1956" data-name="Path 1956" d="M1171.623,675.657a2.167,2.167,0,1,0,2.167-2.167,2.167,2.167,0,0,0-2.167,2.167" fill="#313138"/>
          <path id="Path_1957" data-name="Path 1957" d="M343.669,1069.571a3.177,3.177,0,1,0,3.178-3.178,3.178,3.178,0,0,0-3.178,3.178" fill="#313138"/>
          <path id="Path_1958" data-name="Path 1958" d="M281.346,714.271a3.177,3.177,0,1,0,3.178-3.178,3.178,3.178,0,0,0-3.178,3.178" fill="#313138"/>
          <path id="Path_1959" data-name="Path 1959" d="M263.392,846.259a3.178,3.178,0,1,0,3.178-3.178,3.178,3.178,0,0,0-3.178,3.178" fill="#313138"/>
          <path id="Path_1960" data-name="Path 1960" d="M516.264,969.358a3.178,3.178,0,1,0,3.178-3.178,3.178,3.178,0,0,0-3.178,3.178" fill="#313138"/>
          <path id="Path_1961" data-name="Path 1961" d="M648.669,1098.072a3.177,3.177,0,1,0,3.178-3.178,3.178,3.178,0,0,0-3.178,3.178" fill="#313138"/>
          <path id="Path_1962" data-name="Path 1962" d="M590.543,678.835a3.177,3.177,0,1,0,3.178-3.178,3.178,3.178,0,0,0-3.178,3.178" fill="#313138"/>
          <path id="Path_1963" data-name="Path 1963" d="M448.684,815.614a3.178,3.178,0,1,0,3.178-3.178,3.178,3.178,0,0,0-3.178,3.178" fill="#313138"/>
          <path id="Path_1964" data-name="Path 1964" d="M948.9,1351.332a3.177,3.177,0,1,0,3.178-3.178,3.178,3.178,0,0,0-3.178,3.178" fill="#313138"/>
          <path id="Path_1965" data-name="Path 1965" d="M1064.328,1312.876a3.177,3.177,0,1,0,3.178-3.178,3.178,3.178,0,0,0-3.178,3.178" fill="#313138"/>
          <path id="Path_1966" data-name="Path 1966" d="M1212.879,1244.835a3.177,3.177,0,1,0,3.178-3.178,3.178,3.178,0,0,0-3.178,3.178" fill="#313138"/>
          <path id="Path_1967" data-name="Path 1967" d="M1110.911,908.184a3.177,3.177,0,1,0,3.178-3.178,3.178,3.178,0,0,0-3.178,3.178" fill="#313138"/>
          <path id="Path_1968" data-name="Path 1968" d="M1192.182,1220.216a3.177,3.177,0,1,0,3.178-3.178,3.178,3.178,0,0,0-3.178,3.178" fill="#313138"/>
          <path id="Path_1969" data-name="Path 1969" d="M1239.269,1057.01a5.392,5.392,0,1,0,5.392-5.392,5.392,5.392,0,0,0-5.392,5.392" fill="#313138"/>
          <path id="Path_1970" data-name="Path 1970" d="M850.416,1194.559a5.392,5.392,0,1,0,5.392-5.392,5.392,5.392,0,0,0-5.392,5.392" fill="#313138"/>
          <path id="Path_1971" data-name="Path 1971" d="M882.846,884.784a2.466,2.466,0,1,0,2.466-2.465,2.465,2.465,0,0,0-2.466,2.465" fill="#313138"/>
          <path id="Path_1972" data-name="Path 1972" d="M821.15,711.093a2.466,2.466,0,1,0,2.466-2.466,2.466,2.466,0,0,0-2.466,2.466" fill="#313138"/>
          <path id="Path_1973" data-name="Path 1973" d="M720.072,923.4a2.466,2.466,0,1,0,2.466-2.466,2.466,2.466,0,0,0-2.466,2.466" fill="#313138"/>
          <path id="Path_1974" data-name="Path 1974" d="M1430.722,903.576a6.356,6.356,0,1,0,7.947-4.2,6.356,6.356,0,0,0-7.947,4.2" fill="#1d1c1f"/>
          <path id="Path_1975" data-name="Path 1975" d="M1413.868,898.376a3.178,3.178,0,1,0,3.973-2.1,3.178,3.178,0,0,0-3.973,2.1" fill="#1d1c1f"/>
          <path id="Path_1976" data-name="Path 1976" d="M1398.165,893.531a2.568,2.568,0,1,0,3.21-1.7,2.566,2.566,0,0,0-3.21,1.7" fill="#1d1c1f"/>
          <path id="Path_1977" data-name="Path 1977" d="M1453.648,910.65a2.568,2.568,0,1,0,3.211-1.7,2.568,2.568,0,0,0-3.211,1.7" fill="#1d1c1f"/>
        </g>
      </g>
    </g>
  </g>
  <g id="Group_595" data-name="Group 595" transform="translate(-1 -1.172)">
    <g id="Group_594" data-name="Group 594" clip-path="url(#clip-path-2)">
      <g id="Group_593" data-name="Group 593">
        <g id="Group_592" data-name="Group 592" clip-path="url(#clip-path-2)">
          <g id="Group_591" data-name="Group 591" opacity="0.46">
            <g id="Group_590" data-name="Group 590">
              <g id="Group_589" data-name="Group 589" clip-path="url(#clip-path-2)">
                <path id="Path_4459" data-name="Path 4459" d="M1020.1,129.215a2.466,2.466,0,1,0,2.466-2.466,2.466,2.466,0,0,0-2.466,2.466" fill="#313138"/>
                <path id="Path_4460" data-name="Path 4460" d="M1005.036,91.863a5.392,5.392,0,1,0,5.392-5.392,5.392,5.392,0,0,0-5.392,5.392" fill="#313138"/>
                <path id="Path_4461" data-name="Path 4461" d="M640.266,399.338a5.393,5.393,0,1,0,5.392-5.392,5.392,5.392,0,0,0-5.392,5.392" fill="#313138"/>
                <path id="Path_4462" data-name="Path 4462" d="M391.913,409.952a5.392,5.392,0,1,0,5.392-5.392,5.391,5.391,0,0,0-5.392,5.392" fill="#313138"/>
                <path id="Path_4463" data-name="Path 4463" d="M217.044,42.562a5.392,5.392,0,1,0,5.392-5.392,5.392,5.392,0,0,0-5.392,5.392" fill="#313138"/>
                <path id="Path_4464" data-name="Path 4464" d="M268.658,253.9a5.392,5.392,0,1,0,5.391-5.392,5.391,5.391,0,0,0-5.391,5.392" fill="#313138"/>
                <path id="Path_4465" data-name="Path 4465" d="M70.154,51.035a5.393,5.393,0,1,0,5.392-5.392,5.392,5.392,0,0,0-5.392,5.392" fill="#313138"/>
                <path id="Path_4466" data-name="Path 4466" d="M162.53,168.556a5.393,5.393,0,1,0,5.392-5.392,5.392,5.392,0,0,0-5.392,5.392" fill="#313138"/>
                <path id="Path_4467" data-name="Path 4467" d="M96.678,404.73a5.392,5.392,0,1,0,5.392-5.392,5.392,5.392,0,0,0-5.392,5.392" fill="#313138"/>
                <path id="Path_4468" data-name="Path 4468" d="M841.408,415.344a5.392,5.392,0,1,0,5.392-5.392,5.392,5.392,0,0,0-5.392,5.392" fill="#313138"/>
                <path id="Path_4469" data-name="Path 4469" d="M806.165,179.2a3.178,3.178,0,1,0,3.178-3.178,3.178,3.178,0,0,0-3.178,3.178" fill="#313138"/>
                <path id="Path_4470" data-name="Path 4470" d="M798.558,278.554a3.178,3.178,0,1,0,3.178-3.178,3.178,3.178,0,0,0-3.178,3.178" fill="#313138"/>
                <path id="Path_4471" data-name="Path 4471" d="M705.25,446.3a3.177,3.177,0,1,0,3.178-3.178,3.178,3.178,0,0,0-3.178,3.178" fill="#313138"/>
                <path id="Path_4472" data-name="Path 4472" d="M835.089,86.471a3.177,3.177,0,1,0,3.178-3.178,3.178,3.178,0,0,0-3.178,3.178" fill="#313138"/>
                <path id="Path_4473" data-name="Path 4473" d="M629.415,146.006a3.178,3.178,0,1,0,3.178-3.178,3.179,3.179,0,0,0-3.178,3.178" fill="#313138"/>
                <path id="Path_4474" data-name="Path 4474" d="M469.363,489.147a3.177,3.177,0,1,0,3.178-3.178,3.178,3.178,0,0,0-3.178,3.178" fill="#313138"/>
                <path id="Path_4475" data-name="Path 4475" d="M574.773,290.259a3.177,3.177,0,1,0,3.178-3.178,3.178,3.178,0,0,0-3.178,3.178" fill="#313138"/>
                <path id="Path_4476" data-name="Path 4476" d="M254.483,346.056a3.178,3.178,0,1,0,3.178-3.178,3.178,3.178,0,0,0-3.178,3.178" fill="#313138"/>
                <path id="Path_4477" data-name="Path 4477" d="M303.7,216.692a3.178,3.178,0,1,0,3.178-3.178,3.178,3.178,0,0,0-3.178,3.178" fill="#313138"/>
                <path id="Path_4478" data-name="Path 4478" d="M52.962,296.578A3.177,3.177,0,1,0,56.14,293.4a3.178,3.178,0,0,0-3.178,3.178" fill="#313138"/>
                <path id="Path_4479" data-name="Path 4479" d="M767.744,341.722a3.177,3.177,0,1,0,3.178-3.178,3.178,3.178,0,0,0-3.178,3.178" fill="#313138"/>
                <path id="Path_4480" data-name="Path 4480" d="M786.586,344.29a2.166,2.166,0,1,0,2.167-2.167,2.166,2.166,0,0,0-2.167,2.167" fill="#313138"/>
                <path id="Path_4481" data-name="Path 4481" d="M810.354,403.605a2.167,2.167,0,1,0,2.167-2.167,2.167,2.167,0,0,0-2.167,2.167" fill="#313138"/>
                <path id="Path_4482" data-name="Path 4482" d="M882,83.293a2.167,2.167,0,1,0,2.167-2.167A2.167,2.167,0,0,0,882,83.293" fill="#313138"/>
                <path id="Path_4483" data-name="Path 4483" d="M903.565,40.347a2.167,2.167,0,1,0,2.167-2.167,2.167,2.167,0,0,0-2.167,2.167" fill="#313138"/>
                <path id="Path_4484" data-name="Path 4484" d="M610.044,338.93a2.167,2.167,0,1,0,2.167-2.167,2.167,2.167,0,0,0-2.167,2.167" fill="#313138"/>
                <path id="Path_4485" data-name="Path 4485" d="M594.272,564.886a2.167,2.167,0,1,0,2.167-2.167,2.167,2.167,0,0,0-2.167,2.167" fill="#313138"/>
                <path id="Path_4486" data-name="Path 4486" d="M674.576,600.555a2.167,2.167,0,1,0,2.167-2.167,2.167,2.167,0,0,0-2.167,2.167" fill="#313138"/>
                <path id="Path_4487" data-name="Path 4487" d="M913.965,303.2a2.166,2.166,0,1,0,2.167-2.167,2.167,2.167,0,0,0-2.167,2.167" fill="#313138"/>
                <path id="Path_4488" data-name="Path 4488" d="M877.493,201.415a2.167,2.167,0,1,0,2.167-2.167,2.167,2.167,0,0,0-2.167,2.167" fill="#313138"/>
                <path id="Path_4489" data-name="Path 4489" d="M850.027,230.958a2.167,2.167,0,1,0,2.167-2.167,2.167,2.167,0,0,0-2.167,2.167" fill="#313138"/>
                <path id="Path_4490" data-name="Path 4490" d="M832.922,207.77a2.167,2.167,0,1,0,2.167-2.167,2.167,2.167,0,0,0-2.167,2.167" fill="#313138"/>
                <path id="Path_4491" data-name="Path 4491" d="M918.2,551.16a2.166,2.166,0,1,0,2.167-2.167,2.167,2.167,0,0,0-2.167,2.167" fill="#313138"/>
                <path id="Path_4492" data-name="Path 4492" d="M866.7,173.948a2.167,2.167,0,1,0,2.167-2.167,2.167,2.167,0,0,0-2.167,2.167" fill="#313138"/>
                <path id="Path_4493" data-name="Path 4493" d="M827.551,168.556a2.166,2.166,0,1,0,2.167-2.167,2.167,2.167,0,0,0-2.167,2.167" fill="#313138"/>
                <path id="Path_4494" data-name="Path 4494" d="M982.766,456.4a2.167,2.167,0,1,0,2.167-2.167,2.167,2.167,0,0,0-2.167,2.167" fill="#313138"/>
                <path id="Path_4495" data-name="Path 4495" d="M928.216,409.952a2.167,2.167,0,1,0,2.167-2.167,2.167,2.167,0,0,0-2.167,2.167" fill="#313138"/>
                <path id="Path_4496" data-name="Path 4496" d="M732.934,129.215a2.167,2.167,0,1,0,2.167-2.167,2.167,2.167,0,0,0-2.167,2.167" fill="#313138"/>
                <path id="Path_4497" data-name="Path 4497" d="M579.449,370.965a2.167,2.167,0,1,0,2.167-2.167,2.167,2.167,0,0,0-2.167,2.167" fill="#313138"/>
                <path id="Path_4498" data-name="Path 4498" d="M515.06,519.576a2.167,2.167,0,1,0,2.167-2.167,2.167,2.167,0,0,0-2.167,2.167" fill="#313138"/>
                <path id="Path_4499" data-name="Path 4499" d="M334.517,459.583a2.167,2.167,0,1,0,2.167-2.167,2.167,2.167,0,0,0-2.167,2.167" fill="#313138"/>
                <path id="Path_4500" data-name="Path 4500" d="M421.721,327.692a2.166,2.166,0,1,0,2.167-2.167,2.167,2.167,0,0,0-2.167,2.167" fill="#313138"/>
                <path id="Path_4501" data-name="Path 4501" d="M461.834,409.952A2.166,2.166,0,1,0,464,407.785a2.167,2.167,0,0,0-2.167,2.167" fill="#313138"/>
                <path id="Path_4502" data-name="Path 4502" d="M306.879,383.005a2.167,2.167,0,1,0,2.167-2.167,2.167,2.167,0,0,0-2.167,2.167" fill="#313138"/>
                <path id="Path_4503" data-name="Path 4503" d="M488.133,410.123a2.167,2.167,0,1,0,2.167-2.167,2.167,2.167,0,0,0-2.167,2.167" fill="#313138"/>
                <path id="Path_4504" data-name="Path 4504" d="M209.485,393.774a2.166,2.166,0,1,0,2.167-2.167,2.167,2.167,0,0,0-2.167,2.167" fill="#313138"/>
                <path id="Path_4505" data-name="Path 4505" d="M207.319,278.554a2.166,2.166,0,1,0,2.167-2.167,2.167,2.167,0,0,0-2.167,2.167" fill="#313138"/>
                <path id="Path_4506" data-name="Path 4506" d="M198.253,142.829a2.166,2.166,0,1,0,2.167-2.167,2.167,2.167,0,0,0-2.167,2.167" fill="#313138"/>
                <path id="Path_4507" data-name="Path 4507" d="M318.343,259.3a2.167,2.167,0,1,0,2.167-2.167,2.167,2.167,0,0,0-2.167,2.167" fill="#313138"/>
                <path id="Path_4508" data-name="Path 4508" d="M112.615,129.215a2.167,2.167,0,1,0,2.167-2.167,2.167,2.167,0,0,0-2.167,2.167" fill="#313138"/>
                <path id="Path_4509" data-name="Path 4509" d="M129.586,266.518a2.167,2.167,0,1,0,2.167-2.167,2.167,2.167,0,0,0-2.167,2.167" fill="#313138"/>
                <path id="Path_4510" data-name="Path 4510" d="M250.314,89.649a2.167,2.167,0,1,0,2.167-2.167,2.167,2.167,0,0,0-2.167,2.167" fill="#313138"/>
                <path id="Path_4511" data-name="Path 4511" d="M37.709,83.293a2.167,2.167,0,1,0,2.167-2.167,2.167,2.167,0,0,0-2.167,2.167" fill="#313138"/>
                <path id="Path_4512" data-name="Path 4512" d="M146.527,63.436a2.167,2.167,0,1,0,2.167-2.167,2.167,2.167,0,0,0-2.167,2.167" fill="#313138"/>
                <path id="Path_4513" data-name="Path 4513" d="M326.251,91.863a2.167,2.167,0,1,0,2.167-2.167,2.168,2.168,0,0,0-2.167,2.167" fill="#313138"/>
                <path id="Path_4514" data-name="Path 4514" d="M144.36,219.87a2.166,2.166,0,1,0,2.167-2.167,2.167,2.167,0,0,0-2.167,2.167" fill="#313138"/>
                <path id="Path_4515" data-name="Path 4515" d="M571.862,131.681a2.167,2.167,0,1,0,2.167-2.167,2.167,2.167,0,0,0-2.167,2.167" fill="#313138"/>
                <path id="Path_4516" data-name="Path 4516" d="M41.86,385.172a2.167,2.167,0,1,0,2.167-2.167,2.167,2.167,0,0,0-2.167,2.167" fill="#313138"/>
                <path id="Path_4517" data-name="Path 4517" d="M177.252,363.292a2.167,2.167,0,1,0,2.167-2.167,2.167,2.167,0,0,0-2.167,2.167" fill="#313138"/>
                <path id="Path_4518" data-name="Path 4518" d="M722.968,602.09a2.167,2.167,0,1,0,2.167-2.167,2.167,2.167,0,0,0-2.167,2.167" fill="#313138"/>
                <path id="Path_4519" data-name="Path 4519" d="M709.439,360.5a2.166,2.166,0,1,0,2.167-2.167,2.167,2.167,0,0,0-2.167,2.167" fill="#313138"/>
                <path id="Path_4520" data-name="Path 4520" d="M630.426,228.792a2.166,2.166,0,1,0,2.167-2.167,2.167,2.167,0,0,0-2.167,2.167" fill="#313138"/>
                <path id="Path_4521" data-name="Path 4521" d="M542.616,446.3a2.166,2.166,0,1,0,2.167-2.167,2.167,2.167,0,0,0-2.167,2.167" fill="#313138"/>
                <path id="Path_4522" data-name="Path 4522" d="M531.515,45.643a2.167,2.167,0,1,0,2.167-2.167,2.167,2.167,0,0,0-2.167,2.167" fill="#313138"/>
                <path id="Path_4523" data-name="Path 4523" d="M830.569,727.954a2.167,2.167,0,1,0,2.167-2.167,2.167,2.167,0,0,0-2.167,2.167" fill="#313138"/>
                <path id="Path_4524" data-name="Path 4524" d="M884.162,561.653a2.167,2.167,0,1,0,2.167-2.167,2.167,2.167,0,0,0-2.167,2.167" fill="#313138"/>
                <path id="Path_4525" data-name="Path 4525" d="M877.493,519.576a2.167,2.167,0,1,0,2.167-2.167,2.167,2.167,0,0,0-2.167,2.167" fill="#313138"/>
                <path id="Path_4526" data-name="Path 4526" d="M942.083,536.366a2.167,2.167,0,1,0,2.167-2.167,2.167,2.167,0,0,0-2.167,2.167" fill="#313138"/>
                <path id="Path_4527" data-name="Path 4527" d="M901.4,521.912a2.167,2.167,0,1,0,2.167-2.167,2.167,2.167,0,0,0-2.167,2.167" fill="#313138"/>
                <path id="Path_4528" data-name="Path 4528" d="M769.766,431.082a2.167,2.167,0,1,0,2.167-2.167,2.167,2.167,0,0,0-2.167,2.167" fill="#313138"/>
                <path id="Path_4529" data-name="Path 4529" d="M799.569,572.729a2.167,2.167,0,1,0,2.167-2.167,2.167,2.167,0,0,0-2.167,2.167" fill="#313138"/>
                <path id="Path_4530" data-name="Path 4530" d="M771.933,26.384a2.167,2.167,0,1,0,2.167-2.167,2.167,2.167,0,0,0-2.167,2.167" fill="#313138"/>
                <path id="Path_4531" data-name="Path 4531" d="M1047.855,289.339a2.167,2.167,0,1,0,2.167-2.167,2.167,2.167,0,0,0-2.167,2.167" fill="#313138"/>
                <path id="Path_4532" data-name="Path 4532" d="M980.6,33.991a2.167,2.167,0,1,0,2.167-2.167,2.167,2.167,0,0,0-2.167,2.167" fill="#313138"/>
                <path id="Path_4533" data-name="Path 4533" d="M152.645,427.9a3.177,3.177,0,1,0,3.178-3.178,3.178,3.178,0,0,0-3.178,3.178" fill="#313138"/>
                <path id="Path_4534" data-name="Path 4534" d="M90.323,72.605A3.178,3.178,0,1,0,93.5,69.427a3.178,3.178,0,0,0-3.178,3.178" fill="#313138"/>
                <path id="Path_4535" data-name="Path 4535" d="M72.369,204.593a3.177,3.177,0,1,0,3.178-3.178,3.178,3.178,0,0,0-3.178,3.178" fill="#313138"/>
                <path id="Path_4536" data-name="Path 4536" d="M325.24,327.692a3.178,3.178,0,1,0,3.178-3.178,3.178,3.178,0,0,0-3.178,3.178" fill="#313138"/>
                <path id="Path_4537" data-name="Path 4537" d="M457.645,456.4a3.178,3.178,0,1,0,3.178-3.177,3.178,3.178,0,0,0-3.178,3.177" fill="#313138"/>
                <path id="Path_4538" data-name="Path 4538" d="M399.52,37.169a3.178,3.178,0,1,0,3.178-3.178,3.178,3.178,0,0,0-3.178,3.178" fill="#313138"/>
                <path id="Path_4539" data-name="Path 4539" d="M257.66,173.948a3.178,3.178,0,1,0,3.178-3.178,3.178,3.178,0,0,0-3.178,3.178" fill="#313138"/>
                <path id="Path_4540" data-name="Path 4540" d="M757.879,709.665a3.177,3.177,0,1,0,3.178-3.178,3.178,3.178,0,0,0-3.178,3.178" fill="#313138"/>
                <path id="Path_4541" data-name="Path 4541" d="M873.3,671.21a3.177,3.177,0,1,0,3.177-3.178,3.177,3.177,0,0,0-3.177,3.178" fill="#313138"/>
                <path id="Path_4542" data-name="Path 4542" d="M1021.856,603.168a3.178,3.178,0,1,0,3.178-3.178,3.178,3.178,0,0,0-3.178,3.178" fill="#313138"/>
                <path id="Path_4543" data-name="Path 4543" d="M919.887,266.518a3.177,3.177,0,1,0,3.178-3.178,3.178,3.178,0,0,0-3.178,3.178" fill="#313138"/>
                <path id="Path_4544" data-name="Path 4544" d="M1001.158,578.55a3.177,3.177,0,1,0,3.178-3.178,3.178,3.178,0,0,0-3.178,3.178" fill="#313138"/>
                <path id="Path_4545" data-name="Path 4545" d="M1048.246,415.344a5.393,5.393,0,1,0,5.392-5.392,5.392,5.392,0,0,0-5.392,5.392" fill="#313138"/>
                <path id="Path_4546" data-name="Path 4546" d="M659.392,552.893a5.392,5.392,0,1,0,5.392-5.392,5.392,5.392,0,0,0-5.392,5.392" fill="#313138"/>
                <path id="Path_4547" data-name="Path 4547" d="M691.822,243.118a2.466,2.466,0,1,0,2.466-2.465,2.465,2.465,0,0,0-2.466,2.465" fill="#313138"/>
                <path id="Path_4548" data-name="Path 4548" d="M630.127,69.427a2.466,2.466,0,1,0,2.466-2.466,2.466,2.466,0,0,0-2.466,2.466" fill="#313138"/>
                <path id="Path_4549" data-name="Path 4549" d="M529.049,281.732a2.466,2.466,0,1,0,2.466-2.466,2.466,2.466,0,0,0-2.466,2.466" fill="#313138"/>
                <path id="Path_4550" data-name="Path 4550" d="M1239.7,261.91a6.356,6.356,0,1,0,7.947-4.2,6.356,6.356,0,0,0-7.947,4.2" fill="#1d1c1f"/>
                <path id="Path_4551" data-name="Path 4551" d="M1222.845,256.71a3.178,3.178,0,1,0,3.973-2.1,3.178,3.178,0,0,0-3.973,2.1" fill="#1d1c1f"/>
                <path id="Path_4552" data-name="Path 4552" d="M1207.141,251.865a2.568,2.568,0,1,0,3.211-1.7,2.568,2.568,0,0,0-3.211,1.7" fill="#1d1c1f"/>
                <path id="Path_4553" data-name="Path 4553" d="M1262.625,268.984a2.568,2.568,0,1,0,3.211-1.7,2.569,2.569,0,0,0-3.211,1.7" fill="#1d1c1f"/>
              </g>
            </g>
          </g>
        </g>
      </g>
    </g>
  </g>
</svg>
