<svg id="Group_351" data-name="Group 351" xmlns="http://www.w3.org/2000/svg" xmlns:xlink="http://www.w3.org/1999/xlink" width="432.321" height="146.629" viewBox="0 0 432.321 146.629">
  <defs>
    <clipPath id="clip-path">
      <rect id="Rectangle_251" data-name="Rectangle 251" width="432.321" height="146.629" fill="none"/>
    </clipPath>
  </defs>
  <path id="Path_2421" data-name="Path 2421" d="M222.537,11.323l-12.985,3.469,12.985,3.467,3.025,10.753,3.025-10.753,12.985-3.467-12.985-3.469L225.562.57Z" fill="#ebe1d8"/>
  <g id="Group_350" data-name="Group 350">
    <g id="Group_349" data-name="Group 349" clip-path="url(#clip-path)">
      <path id="Path_2422" data-name="Path 2422" d="M242.142,14.791a.57.57,0,0,1-.424.551l-12.67,3.385-2.938,10.44a.57.57,0,0,1-1.1,0l-2.937-10.44L209.4,15.342a.57.57,0,0,1,0-1.1l12.671-3.384L225.012.415a.57.57,0,0,1,1.1,0l2.938,10.441,12.67,3.384a.571.571,0,0,1,.424.551M225.561,26.906l2.476-8.8a.569.569,0,0,1,.4-.4l10.921-2.917-10.921-2.916a.571.571,0,0,1-.4-.4l-2.476-8.8-2.476,8.8a.571.571,0,0,1-.4.4l-10.921,2.916,10.921,2.917a.569.569,0,0,1,.4.4Z" fill="#0d0b21"/>
      <path id="Path_2423" data-name="Path 2423" d="M206.173,31.356l-2.057-7.312-2.057,7.312-8.829,2.358,8.829,2.358,2.057,7.312,2.057-7.312L215,33.714Z" fill="#ebe1d8"/>
      <path id="Path_2424" data-name="Path 2424" d="M215.573,33.714a.57.57,0,0,1-.424.551l-8.515,2.274-1.969,7a.57.57,0,0,1-1.1,0l-1.969-7-8.515-2.274a.57.57,0,0,1,0-1.1l8.515-2.274,1.969-7a.57.57,0,0,1,1.1,0l1.969,7,8.515,2.274a.571.571,0,0,1,.424.551m-11.456,7.563,1.507-5.36a.57.57,0,0,1,.4-.4l6.765-1.807-6.765-1.807a.57.57,0,0,1-.4-.4l-1.507-5.36-1.509,5.36a.57.57,0,0,1-.4.4l-6.765,1.807,6.765,1.807a.57.57,0,0,1,.4.4Z" fill="#0d0b21"/>
      <!-- <text id="We_know_who_to_call_on_game_night." data-name="We know who to call on game night." transform="translate(0.188 89.09)" fill="#ede3ce" font-size="27" font-family="Helvetica"><tspan x="0" y="0" letter-spacing="-0.054em">W</tspan><tspan y="0">e know who to call on game night.</tspan></text>
      <text id="Awesome_stu_" data-name="Awesome stuﬀ!" transform="translate(104.166 137.339)" fill="#ebe1d8" font-size="27" font-family="Futura-Bold, Futura" font-weight="700"><tspan x="0" y="0" letter-spacing="-0.028em">A</tspan><tspan y="0" letter-spacing="-0.024em">w</tspan><tspan y="0">esome </tspan><tspan y="0" letter-spacing="0.014em">s</tspan><tspan y="0">tuﬀ!</tspan></text> -->
    </g>
  </g>
</svg>
