<svg id="Group_599" data-name="Group 599" xmlns="http://www.w3.org/2000/svg" xmlns:xlink="http://www.w3.org/1999/xlink" width="421.954" height="388.726" viewBox="0 0 421.954 388.726">
  <defs>
    <clipPath id="clip-path">
      <rect id="Rectangle_512" data-name="Rectangle 512" width="421.954" height="388.726" fill="none"/>
    </clipPath>
  </defs>
  <g id="Group_598" data-name="Group 598" clip-path="url(#clip-path)">
    <path id="Path_4575" data-name="Path 4575" d="M397.651,74.528a23.607,23.607,0,1,1-23.608-23.607,23.607,23.607,0,0,1,23.608,23.607" fill="#ef9d93"/>
    <path id="Path_4576" data-name="Path 4576" d="M374.044,98.345a23.817,23.817,0,1,1,23.817-23.817,23.844,23.844,0,0,1-23.817,23.817m0-47.213a23.4,23.4,0,1,0,23.4,23.4,23.423,23.423,0,0,0-23.4-23.4" fill="#1c1c1e"/>
    <path id="Path_4577" data-name="Path 4577" d="M364.721,58.187c1.32,1.32.819,3.961-1.119,5.9s-4.579,2.439-5.9,1.119-.819-3.961,1.119-5.9,4.579-2.439,5.9-1.119" fill="#f4e3d8"/>
    <path id="Path_4578" data-name="Path 4578" d="M359.648,66.154a2.882,2.882,0,0,1-2.094-.8c-1.4-1.4-.9-4.18,1.119-6.2s4.8-2.518,6.2-1.118a3.149,3.149,0,0,1,.721,2.906,6.921,6.921,0,0,1-5.131,5.13,4.377,4.377,0,0,1-.812.08m3.121-8.5a5.663,5.663,0,0,0-3.8,1.8c-1.853,1.853-2.354,4.366-1.119,5.6a2.739,2.739,0,0,0,2.53.6,6.5,6.5,0,0,0,4.8-4.8,2.74,2.74,0,0,0-.605-2.529,2.48,2.48,0,0,0-1.8-.678" fill="#1c1c1e"/>
    <path id="Path_4579" data-name="Path 4579" d="M421.743,13.133A12.923,12.923,0,1,1,408.821.211a12.922,12.922,0,0,1,12.922,12.922" fill="#7897cb"/>
    <path id="Path_4580" data-name="Path 4580" d="M408.821,26.266a13.133,13.133,0,1,1,13.133-13.133,13.147,13.147,0,0,1-13.133,13.133m0-25.845a12.711,12.711,0,1,0,12.712,12.712A12.726,12.726,0,0,0,408.821.421" fill="#1c1c1e"/>
    <path id="Path_4581" data-name="Path 4581" d="M170.807,388.475a173.885,173.885,0,0,1-114.7-46.366c-.016-.017-.037-.035-.057-.056A176.1,176.1,0,0,1,41.7,327.071c-.02-.021-.037-.043-.053-.06a174.342,174.342,0,1,1,129.158,61.464" fill="#e0645f"/>
    <path id="Path_4582" data-name="Path 4582" d="M.042,210.424A174.6,174.6,0,0,1,336.809,149.7,174.6,174.6,0,0,1,12.3,278.646,173.441,173.441,0,0,1,.042,210.424m348.6,7.49c2.063-95.993-74.355-175.768-170.349-177.83S2.525,114.439.463,210.433,74.818,386.2,170.812,388.263s175.767-74.356,177.83-170.349" fill="#1c1c1e"/>
    <path id="Path_4583" data-name="Path 4583" d="M142.983,385.656a173.694,173.694,0,0,1-86.872-43.548c-.016-.017-.037-.034-.058-.056q-3.743-3.519-7.369-7.3T41.7,327.071c-.021-.022-.037-.043-.054-.06A173.7,173.7,0,0,1,1.873,238.348c-.935-19.838,4.543-37.3,17.059-49.291,31.624-30.294,96.221-14.186,144.278,35.982s61.376,115.4,29.752,145.69c-12.516,11.99-30.2,16.713-49.979,14.927" fill="#1c1c1e"/>
    <path id="Path_4584" data-name="Path 4584" d="M296.688,147.929c-9.957,9.538-29.379,5.42-43.381-9.2s-17.282-34.2-7.325-43.736,29.379-5.42,43.381,9.2,17.282,34.2,7.325,43.736" fill="#ef9d93"/>
    <path id="Path_4585" data-name="Path 4585" d="M240.013,109.241c.126-5.856,2.118-10.848,5.823-14.4,10.024-9.6,29.618-5.475,43.679,9.2s17.343,34.431,7.318,44.034-29.618,5.474-43.678-9.2c-6.8-7.1-11.313-15.582-12.7-23.884a30.844,30.844,0,0,1-.439-5.753m62.207,24.406c.2-9.276-4.342-20.26-13.009-29.308-13.9-14.509-33.227-18.632-43.084-9.19s-6.568,28.928,7.332,43.438,33.226,18.633,43.083,9.191c3.71-3.554,5.558-8.532,5.678-14.131" fill="#1c1c1e"/>
  </g>
</svg>
