<svg xmlns="http://www.w3.org/2000/svg" xmlns:xlink="http://www.w3.org/1999/xlink" width="1464.644" height="855.58" viewBox="0 0 1464.644 855.58">
  <defs>
    <clipPath id="clip-path">
      <rect id="Rectangle_129" data-name="Rectangle 129" width="1464.644" height="855.58" fill="none"/>
    </clipPath>
    <clipPath id="clip-path-2">
      <rect id="Rectangle_113" data-name="Rectangle 113" width="1175.48" height="728.067" transform="translate(270.24 118.385)" fill="none"/>
    </clipPath>
    <clipPath id="clip-path-3">
      <rect id="Rectangle_114" data-name="Rectangle 114" width="1033.225" height="633.144" transform="translate(161.295 222.436)" fill="none"/>
    </clipPath>
    <clipPath id="clip-path-4">
      <rect id="Rectangle_128" data-name="Rectangle 128" width="1090.095" height="468.675" transform="translate(374.545 44.355)" fill="none"/>
    </clipPath>
  </defs>
  <g id="Group_281" data-name="Group 281" clip-path="url(#clip-path)">
    <g id="Group_274" data-name="Group 274" style="mix-blend-mode: screen;isolation: isolate">
      <g id="Group_273" data-name="Group 273">
        <g id="Group_272" data-name="Group 272" clip-path="url(#clip-path-2)">
          <path id="Path_388" data-name="Path 388" d="M270.24,155.311l90.669-36.926s1034.08,401.923,1084.812,416.171l-53.936,311.9L295.426,218.963Z" fill="#14110f"/>
        </g>
      </g>
    </g>
    <g id="Group_277" data-name="Group 277" style="mix-blend-mode: screen;isolation: isolate">
      <g id="Group_276" data-name="Group 276">
        <g id="Group_275" data-name="Group 275" clip-path="url(#clip-path-3)">
          <path id="Path_389" data-name="Path 389" d="M193.415,222.436l1001.1,569.1L730.472,855.58,239.067,336l-76.79-66.556-.982-2.1Z" fill="#14110f"/>
        </g>
      </g>
    </g>
    <path id="Path_390" data-name="Path 390" d="M219.488,272.252s25.633-14.867,32.928-42.626,2.214-34.234.646-35.166l-36.547-21.7s-46.053,10.541-52.05,17.177S134.5,173.507,134.5,173.507s33.832-3.785,58.267-14.854c0,0-12.539-6.3-17.6-13.861s-11.9-15.22-10.746-25.759a16.517,16.517,0,0,0-1.106-3.483l-44.33-22.935L98.007,103.232,7.192,44.832S-4.378,30.014,3.853,15.116,30,1.193,30,1.193L130.7,40.421l26.122,35.315L174.757,83l2.248-.512S187.783,66.059,213.361,69.6l9.848,2.83,89.742,30.251S315.818,84.615,314.214,75l-47.35-13.7s-10.03-4.148-7.511-14.045a13.512,13.512,0,0,1,11.675-10.483l114.411,8.211,20.752,35.092S395.6,99.162,376.844,92.874l-25.737-7.053s-11.681,11.243-16.883,24.526l32.122,10.963s49.521,14.064,39.448,72.019c0,0-8.2,44.451-61.1,46.651,0,0-17.526.893-41.629-15.826s-26.6-4.931-26.6-4.931l-2.2,20.2s-17.753,21.9-20.419,55.279-34.361-22.455-34.361-22.455" fill="#728587"/>
    <path id="Path_391" data-name="Path 391" d="M1.222,26.953,92.328,79.931s-.923,13.9,7.242,22.51-4.164.092-4.164.092L9.852,46.542s-10.1-7.79-8.63-19.589" fill="#ede3ce"/>
    <path id="Path_392" data-name="Path 392" d="M115.842,89.027s-4.669-5.4-3.4-9.539l52.843,28.724-.806,8.237Z" fill="#ede3ce"/>
    <path id="Path_393" data-name="Path 393" d="M369.141,89.72a16.017,16.017,0,0,1-4.426-4.049,19.955,19.955,0,0,1-4.226-8.212L260.73,52.045s-1.287,5.027,5.12,8.556c5.284,2.91,82.426,24.65,109.322,32.185-1.8-1.462-4.021-1.92-6.031-3.066" fill="#ede3ce"/>
    <path id="Path_394" data-name="Path 394" d="M408.619,68.644a25.667,25.667,0,0,1-.327,4.674,25.238,25.238,0,0,1-50.138-3.455,25.488,25.488,0,0,1,.328-4.664,25.237,25.237,0,0,1,50.137,3.445m-49.445,1.2a24.216,24.216,0,0,0,48.11,3.31,24.647,24.647,0,0,0,.315-4.492,24.216,24.216,0,0,0-48.109-3.3,24.4,24.4,0,0,0-.316,4.478" fill="#2c2d30"/>
    <path id="Path_395" data-name="Path 395" d="M367.6,43.937a21.605,21.605,0,0,0-15.19,3.9,22.123,22.123,0,0,0-9.293,14.1,22.941,22.941,0,0,0-.344,4.489A22.161,22.161,0,0,0,359.6,87.623l-.181,1A23.2,23.2,0,0,1,341.751,66.42a24.37,24.37,0,0,1,.352-4.65A23.168,23.168,0,0,1,351.822,47a22.586,22.586,0,0,1,15.958-4.069Z" fill="#2c2d30"/>
    <path id="Path_396" data-name="Path 396" d="M381.629,44.991l-109.11-7.463a12.052,12.052,0,0,0-4.171,23.6L374.832,91.944l-.285.981L268.067,62.107a13.007,13.007,0,0,1-9.436-12.254,13.489,13.489,0,0,1,.2-2.589A13.05,13.05,0,0,1,272.592,36.51l110.84,7.5Z" fill="#2c2d30"/>
    <path id="Path_397" data-name="Path 397" d="M323.518,41.016,310.164,40.1a16.173,16.173,0,0,0-16.83,12.675,15.958,15.958,0,0,0-.363,3.742,16.232,16.232,0,0,0,11.622,15.1l13.7,3.964-.285.981-13.7-3.966a17.286,17.286,0,0,1-12.35-16.1,16.944,16.944,0,0,1,.371-3.932,17.207,17.207,0,0,1,17.9-13.475L323.591,40Z" fill="#2c2d30"/>
    <path id="Path_398" data-name="Path 398" d="M317.472,40.6l-18.511-1.266A14.881,14.881,0,0,0,283.3,51.5a15.3,15.3,0,0,0-.24,3.038A14.814,14.814,0,0,0,293.8,68.5l17.013,4.922-.285.98-17.01-4.924a15.813,15.813,0,0,1-11.486-14.892,16.115,16.115,0,0,1,.263-3.266,15.9,15.9,0,0,1,16.734-13l18.511,1.266Z" fill="#2c2d30"/>
    <path id="Path_399" data-name="Path 399" d="M358.755,71.36l45.731,10.793s13.231-22.2-8.815-34.35S356.019,58.321,358.755,71.36" fill="#2c2d30"/>
    <path id="Path_400" data-name="Path 400" d="M265.957,55.667l96.13,26.249L358.756,71.36,263.54,52.368s-.613,2.478,2.417,3.3" fill="#2c2d30"/>
    <path id="Path_401" data-name="Path 401" d="M273.825,42.2c10.776.151,21.479,1.086,32.189,1.956,10.687,1.109,21.381,2.15,32,3.986-10.777-.145-21.48-1.084-32.189-1.957-10.687-1.11-21.38-2.156-32-3.985" fill="#2c2d30"/>
    <path id="Path_402" data-name="Path 402" d="M358.94,73.026,395.768,82.7l-36.736-5.433Z" fill="#2c2d30"/>
    <path id="Path_403" data-name="Path 403" d="M359.7,76.715l29.2,8.133L359.926,81Z" fill="#2c2d30"/>
    <path id="Path_404" data-name="Path 404" d="M315.3,80.25a108.311,108.311,0,0,1-1.718,22.066q-.451-.176-.9-.344a109.352,109.352,0,0,0,1.6-21.682q-.042-1.914-.146-3.889l1.019-.067q.1,1.987.146,3.916" fill="#2c2d30"/>
    <path id="Path_405" data-name="Path 405" d="M351.122,86.524a119.126,119.126,0,0,0-16.543,23.339q-.482-.172-.963-.332a119.859,119.859,0,0,1,16.75-23.694Z" fill="#2c2d30"/>
    <path id="Path_406" data-name="Path 406" d="M212.678,148.95l-48.1-27.982,1.573,7.36c2.576,11.969,15.9,23.563,15.9,23.563l11.558,6.9c6.765-2.516,12.7-6.565,19.066-9.843" fill="#ede3ce"/>
    <path id="Path_407" data-name="Path 407" d="M217.295,172.935l85.771,51.219,1.1-.724c-16.572-18.158-17.995-31.724-17.995-31.724L244.99,167.748c-9.2,2-18.365,3.986-27.7,5.187" fill="#ede3ce"/>
    <path id="Path_408" data-name="Path 408" d="M242.36,340.616l-76.681-75.277s-7.938-6.531-1.057-16.752,18.916-1.349,18.916-1.349l93.745,59.1s18.609,13.663,7.793,32.074-42.716,2.2-42.716,2.2" fill="#728587"/>
    <path id="Path_409" data-name="Path 409" d="M250.52,331.807,163.933,255.1s-3.444,3.88.636,9.951S254.014,350.2,254.014,350.2l3.091-4.875Z" fill="#ede3ce"/>
    <path id="Path_410" data-name="Path 410" d="M289.131,326.259A25.853,25.853,0,1,1,289,324.15c.071.706.118,1.408.134,2.109M239.7,327.288a23.682,23.682,0,1,0,5.3-15.461,23.672,23.672,0,0,0-5.3,15.461" fill="#2c2d30"/>
    <path id="Path_411" data-name="Path 411" d="M263.076,296.209l-1.256,1.606c-9.189-7.194-22.758-5.385-30.25,4.033a21.655,21.655,0,0,0-4.264,15.945,20.962,20.962,0,0,0,7.766,14.247l-1.256,1.606a23.006,23.006,0,0,1-8.537-15.613,23.773,23.773,0,0,1,4.693-17.457c8.19-10.29,23.039-12.249,33.1-4.367" fill="#2c2d30"/>
    <path id="Path_412" data-name="Path 412" d="M276.343,304.573l-1.086,1.726-94.622-59.685a11.542,11.542,0,0,0-14.245,18l78.771,77.329-1.426,1.454-78.771-77.329a13.58,13.58,0,0,1,16.757-21.177Z" fill="#2c2d30"/>
    <path id="Path_413" data-name="Path 413" d="M226.567,273.174l-1.086,1.726-12.932-8.156a15.583,15.583,0,0,0-19.231,24.3L203.6,301.137l-1.427,1.454L191.891,292.5a17.621,17.621,0,0,1,21.744-27.48Z" fill="#2c2d30"/>
    <path id="Path_414" data-name="Path 414" d="M219.98,269.019l-1.086,1.726-15.842-9.993a14.382,14.382,0,0,0-17.75,22.425l13.971,13.714-1.426,1.454-13.971-13.714a16.42,16.42,0,0,1,20.262-25.605Z" fill="#2c2d30"/>
    <path id="Path_415" data-name="Path 415" d="M248.6,306.974l38.44,27.02s-7.809,24.636-31.535,16.224-19.185-34.978-6.9-43.244" fill="#2c2d30"/>
    <path id="Path_416" data-name="Path 416" d="M175.236,248.019l81.931,53.674-8.568,5.281L171.164,248.4s1.446-2.1,4.072-.384" fill="#2c2d30"/>
    <path id="Path_417" data-name="Path 417" d="M170.4,262.843c8.421,6.725,16.3,14.025,24.232,21.277,7.765,7.427,15.575,14.8,22.841,22.766-8.426-6.721-16.306-14.024-24.233-21.278-7.763-7.428-15.57-14.809-22.84-22.765" fill="#2c2d30"/>
    <path id="Path_418" data-name="Path 418" d="M253.2,303.261l28.46,23.856-30.9-20.59Z" fill="#2c2d30"/>
    <path id="Path_419" data-name="Path 419" d="M256.586,301.444,278.7,320.549l-24.56-15.839Z" fill="#2c2d30"/>
    <path id="Path_420" data-name="Path 420" d="M65.849,165.073s-7.761-8.071-.816-17.941,18.132-4.116,18.132-4.116l115.909,61.649s18.9,9.055,9.716,34.185-34.112,16.28-42.784,10.477S65.849,165.073,65.849,165.073" fill="#728587"/>
    <path id="Path_421" data-name="Path 421" d="M154.094,225.374,63.423,153.54s-3.226,4.063,1.182,9.9,93.987,80.1,93.987,80.1l2.818-5.039Z" fill="#ede3ce"/>
    <path id="Path_422" data-name="Path 422" d="M212.106,227.085a29.058,29.058,0,1,1-12.448-23.258,28.933,28.933,0,0,1,12.448,23.258m-56.061,1.167a27.015,27.015,0,1,0,4.825-16,27,27,0,0,0-4.825,16" fill="#2c2d30"/>
    <path id="Path_423" data-name="Path 423" d="M180.03,193.243l-1.134,1.7c-11.067-7.4-26.35-4.18-34.075,7.172a24.69,24.69,0,0,0-3.482,18.5,23.95,23.95,0,0,0,10.058,15.55l-1.134,1.694A25.945,25.945,0,0,1,139.339,221a26.68,26.68,0,0,1,3.8-20.037c8.346-12.277,24.9-15.74,36.892-7.721" fill="#2c2d30"/>
    <path id="Path_424" data-name="Path 424" d="M195.76,201.58l-.957,1.8L82.686,143.918a13.229,13.229,0,0,0-14.732,21.8L163.64,246.49l-1.312,1.559-95.69-80.775a15.269,15.269,0,0,1,17-25.158Z" fill="#2c2d30"/>
    <path id="Path_425" data-name="Path 425" d="M136.776,170.3l-.957,1.8L120.5,163.973a17.816,17.816,0,0,0-19.841,29.353l12.49,10.541-1.313,1.559-12.49-10.541a19.856,19.856,0,0,1,22.111-32.714Z" fill="#2c2d30"/>
    <path id="Path_426" data-name="Path 426" d="M128.974,166.156l-.957,1.8L109.248,158a16.451,16.451,0,0,0-18.321,27.1L107.9,199.432l-1.313,1.559L89.61,186.667A18.491,18.491,0,0,1,110.2,156.2Z" fill="#2c2d30"/>
    <path id="Path_427" data-name="Path 427" d="M164.58,206.539l45.785,27.3s-6.737,28.533-34.293,21.036-24.758-35.7-11.492-48.332" fill="#2c2d30"/>
    <path id="Path_428" data-name="Path 428" d="M76.634,146.088l97.252,53.747-9.244,6.7L72.06,146.869s1.457-2.5,4.574-.781" fill="#2c2d30"/>
    <path id="Path_429" data-name="Path 429" d="M72.421,163.268c10.028,6.981,19.562,14.574,29.137,22.116,9.426,7.728,18.894,15.4,27.861,23.7-10.031-6.975-19.563-14.571-29.137-22.116-9.424-7.729-18.889-15.409-27.861-23.7" fill="#2c2d30"/>
    <path id="Path_430" data-name="Path 430" d="M169.379,202.178l34.372,24.334-36.565-20.894Z" fill="#2c2d30"/>
    <path id="Path_431" data-name="Path 431" d="M173.059,199.834l26.79,19.5-28.983-16.06Z" fill="#2c2d30"/>
    <path id="Path_432" data-name="Path 432" d="M238.929,78.421c-32.773,22.118-15.725,62.991-15.557,63.4l.324.746-.659.479c-35.963,26.2-83.6,30.492-84.072,30.532l-.172-2.032c.469-.041,46.991-4.245,82.4-29.687-2.213-5.849-15.024-43.792,16.587-65.133Z" fill="#2c2d30"/>
    <path id="Path_433" data-name="Path 433" d="M268.955,88.825c-12.391,5.932-20.121,14.471-22.977,25.375-6.275,23.965,13.009,51.845,13.206,52.126l1.02,1.454-1.77.148c-59.8,5-89.725,20.788-90.021,20.946l-.964-1.8c.295-.16,29.962-15.839,89.091-21.035-3.99-6.165-18.287-30.362-12.538-52.353,3.014-11.516,11.113-20.5,24.075-26.707Z" fill="#2c2d30"/>
    <path id="Path_434" data-name="Path 434" d="M214.614,172.814l98.836,58.693,1.045-1.753-96.317-57.2a15.476,15.476,0,0,1-3.564.257" fill="#2c2d30"/>
    <path id="Path_435" data-name="Path 435" d="M197.831,68.708c-8.718,1.862-20.86,7.513-29.164,23.856l-.473.942c-11.011,22.442-2.594,50.157,19.139,63.108l4.775,2.836a5.1,5.1,0,0,1,1.8-1.3l-5.534-3.285c-20.832-12.414-28.889-38.967-18.3-60.572l.4-.8C176.86,80.944,186.2,73.276,198.258,70.7a40.309,40.309,0,0,1,20.889,1.417l145.568,49.72.658-1.932L219.794,70.185a42.366,42.366,0,0,0-21.963-1.477" fill="#2c2d30"/>
    <path id="Path_436" data-name="Path 436" d="M408.493,177.638a62.026,62.026,0,1,1-63.376-60.645,62.1,62.1,0,0,1,63.376,60.645m-121.982,2.686a59.986,59.986,0,1,0,58.651-61.292,60.054,60.054,0,0,0-58.651,61.292" fill="#2c2d30"/>
    <path id="Path_437" data-name="Path 437" d="M371.223,127.275a56.385,56.385,0,0,1,21.9,19.859,57.4,57.4,0,0,1,8.823,28.521c.8,20.251-10.026,40.613-27.571,51.084a58.551,58.551,0,0,1-28.916,8.383c-10.1.03-20.365-2.213-29.106-7.339a60.654,60.654,0,0,1-12.073-9.044,59.729,59.729,0,0,1-9.213-11.874,56.641,56.641,0,0,1-7.625-28.553c1.053,19.786,12.683,38.5,30.043,47.407a57.2,57.2,0,0,0,27.909,6.619,55.731,55.731,0,0,0,27.388-8.208,57.364,57.364,0,0,0,11.294-8.958,58.253,58.253,0,0,0,8.538-11.639,57.274,57.274,0,0,0,6.989-27.821c-.041-19.478-11.181-38.5-28.377-48.437" fill="#2c2d30"/>
    <path id="Path_438" data-name="Path 438" d="M285.946,179.432l-.908,1.829-27.144-13.434L258.8,166Z" fill="#2c2d30"/>
    <rect id="Rectangle_115" data-name="Rectangle 115" width="2.038" height="135.716" transform="translate(169.12 93.936) rotate(-63.297)" fill="#2c2d30"/>
    <path id="Path_439" data-name="Path 439" d="M306.082,132.719,305.3,134.6,192.83,87.885c-1.391.931-6.09,4.49-9.5,12.019l-1.86-.84c4.321-9.54,10.5-13.067,10.764-13.214l.433-.241.455.191Z" fill="#2c2d30"/>
    <path id="Path_440" data-name="Path 440" d="M246.753,167.451l-2.687,1.183,41.305,19.994,1.334-2.755L248.41,167.336a3.782,3.782,0,0,1-1.657.115" fill="#2c2d30"/>
    <path id="Path_441" data-name="Path 441" d="M289.748,199.385l-.892,1.837L257.03,185.811a23.307,23.307,0,0,0,.451,10.357l-1.913.7c-.076-.2-1.8-5.067-.313-12.76l.25-1.3Z" fill="#2c2d30"/>
    <path id="Path_442" data-name="Path 442" d="M196.927,106.738c-12.419,27.639-1.811,50.593-1.7,50.818l-1.841.877c-.117-.236-11.149-23.988,1.684-52.531Z" fill="#2c2d30"/>
    <rect id="Rectangle_116" data-name="Rectangle 116" width="2.04" height="25.164" transform="translate(170.032 138.927) rotate(-58.367)" fill="#2c2d30"/>
    <rect id="Rectangle_117" data-name="Rectangle 117" width="2.042" height="29.429" transform="matrix(0.544, -0.839, 0.839, 0.544, 164.67, 124.408)" fill="#2c2d30"/>
    <rect id="Rectangle_118" data-name="Rectangle 118" width="2.039" height="29.087" transform="matrix(0.489, -0.872, 0.872, 0.489, 163.903, 118.95)" fill="#2c2d30"/>
    <path id="Path_443" data-name="Path 443" d="M209.824,74.19l131.784,43.9s-10.282.929-24.734,7.57L192.525,77.224a38.191,38.191,0,0,1,12.969-3.579,10.493,10.493,0,0,1,4.33.545" fill="#2c2d30"/>
    <path id="Path_444" data-name="Path 444" d="M212.269,95.461c-7.162,4.852-10.108,13.684-10.134,13.773l-1.943-.631c.127-.39,3.2-9.591,10.932-14.83Z" fill="#2c2d30"/>
    <rect id="Rectangle_119" data-name="Rectangle 119" width="1.019" height="20.877" transform="translate(183.663 96.883) rotate(-64.794)" fill="#2c2d30"/>
    <rect id="Rectangle_120" data-name="Rectangle 120" width="1.019" height="20.877" transform="translate(184.657 95.309) rotate(-64.794)" fill="#2c2d30"/>
    <rect id="Rectangle_121" data-name="Rectangle 121" width="1.019" height="20.878" transform="translate(185.646 93.736) rotate(-64.794)" fill="#2c2d30"/>
    <rect id="Rectangle_122" data-name="Rectangle 122" width="1.019" height="20.878" transform="translate(186.64 92.162) rotate(-64.794)" fill="#2c2d30"/>
    <rect id="Rectangle_123" data-name="Rectangle 123" width="1.019" height="20.877" transform="translate(187.63 90.589) rotate(-64.794)" fill="#2c2d30"/>
    <rect id="Rectangle_124" data-name="Rectangle 124" width="1.019" height="20.878" transform="translate(188.623 89.016) rotate(-64.794)" fill="#2c2d30"/>
    <path id="Path_445" data-name="Path 445" d="M257.067,207.744c.331,15.052-4.248,40.915-33.721,63.965l-1.254-1.607c43.513-34.03,31.464-74.136,31.335-74.538l1.948-.617a51.63,51.63,0,0,1,1.692,12.8" fill="#2c2d30"/>
    <path id="Path_446" data-name="Path 446" d="M296.317,220.8c-.355.173-35.708,18.022-41.476,72.994l-2.029-.214c5.893-56.153,42.245-74.436,42.612-74.613Z" fill="#2c2d30"/>
    <path id="Path_447" data-name="Path 447" d="M285.737,173.643l29.453,11.09s16.1,5.491,23.953-8.672,4.071-34.21-30.528-44.884c0,0,22.1-13.478,41.645-6.252s22.323,25.373,17.327,45.624a37.022,37.022,0,0,0,33.047,2.751s6.411,59.483-60.241,59.534c0,0-51.62-.233-54.656-59.191" fill="#2c2d30"/>
    <path id="Path_448" data-name="Path 448" d="M323.754,191.425a24.839,24.839,0,0,1-17.509-7.31,24.327,24.327,0,0,1-7.055-17.193,23.818,23.818,0,0,1,7.029-16.781A23.3,23.3,0,0,1,322.7,143.4a22.789,22.789,0,0,0-15.741,7.445,22.273,22.273,0,0,0-5.726,16.03,21.765,21.765,0,0,0,7.131,15.027,21.25,21.25,0,0,0,15.3,5.442Z" fill="#2c2d30"/>
    <path id="Path_449" data-name="Path 449" d="M252.507,233.778l17.679,11.131s10.863-15.5,18.273-20.262,10.643-2.846,1.195-8.457l-32.324-19.2s-3.049-3.745-2.329.686,1.29,26.492-2.494,36.1" fill="#2c2d30"/>
    <path id="Path_450" data-name="Path 450" d="M248.992,239.914l17.679,11.131,2.166-3.553-17.678-11.131Z" fill="#2c2d30"/>
    <path id="Path_451" data-name="Path 451" d="M241.329,169.158c-2.754,7.941-.863,16.936-.845,17.027l-1.991.43c-.084-.392-2.029-9.653.908-18.124Z" fill="#2c2d30"/>
    <path id="Path_452" data-name="Path 452" d="M178.173,97.116c-6.619,10.31-5.013,24.442-4.99,24.583l-2.027.243c-.069-.61-1.713-15.006,5.3-25.928Z" fill="#2c2d30"/>
    <path id="Path_453" data-name="Path 453" d="M113.029,44.158A40.814,40.814,0,0,0,94.442,65.312a40.863,40.863,0,0,0-1.19,28.133c2.986,8.9,9.042,15.57,17.052,18.785,11.015,4.418,23.448,1.256,32.8-7.059a3.184,3.184,0,0,1-.888-.311,3.248,3.248,0,0,1-.926-.81c-8.731,7.517-20.126,10.338-30.224,6.286-7.446-2.988-13.087-9.216-15.881-17.539A36.111,36.111,0,0,1,93.345,82.1a40.774,40.774,0,0,1,2.987-16.032,38.8,38.8,0,0,1,17.645-20.107c7.769-4.084,16.153-4.689,23.6-1.7,11.7,4.694,18.315,17.249,17.648,30.989a3.842,3.842,0,0,1,1.98,1.01c.09-1.268.137-2.53.11-3.776-.3-13.446-7.279-25.423-18.975-30.117-8.013-3.213-17-2.578-25.31,1.789" fill="#2c2d30"/>
    <path id="Path_454" data-name="Path 454" d="M176.184,82.477l-.763,1.89L131.383,66.538a13.168,13.168,0,0,0-11.447,23.655l44.957,25.531-1.005,1.776L118.931,91.969a15.207,15.207,0,0,1,13.215-27.32Z" fill="#2c2d30"/>
    <path id="Path_455" data-name="Path 455" d="M173.005,87.175,127.725,68.7s-4.292-1.861-9.178,4.028l49.824,22.84Z" fill="#2c2d30"/>
    <path id="Path_456" data-name="Path 456" d="M138.335,42.369l-.755,1.894L36.106,3.794a24.862,24.862,0,0,0-22.7,43.978l93.932,60.677-1.11,1.714L12.3,49.486A26.9,26.9,0,0,1,36.861,1.9Z" fill="#2c2d30"/>
    <path id="Path_457" data-name="Path 457" d="M126.608,37.692l-.755,1.894-10.558-4.211A33.161,33.161,0,0,0,85.016,94.031l12.945,8.359-1.11,1.714L83.91,95.745a35.2,35.2,0,0,1,32.14-62.264Z" fill="#2c2d30"/>
    <path id="Path_458" data-name="Path 458" d="M87.338,22.032l-.755,1.894-23.04-9.189A27.737,27.737,0,0,0,38.218,63.8l29.57,19.1-1.106,1.714-29.57-19.1A29.777,29.777,0,0,1,64.3,12.843Z" fill="#2c2d30"/>
    <path id="Path_459" data-name="Path 459" d="M94.441,93.736s12.518,1.594,20.68-6.442c0,0-7.489-8.867.721-17.982,0,0-3.969-10.516-12.144-16.728l6.035-5.22s9.543,6.444,14.309,17.238l2.757-.061s-2.324-10.857-14.178-18.991c0,0,13.678-10.057,32.422,1.093,0,0,11.331,8.32,11.208,28.863L129.9,64.985s-6.149-2.075-10.983,1.737-12.233,12.5-1.794,22.716l25.537,14.83s-16.472,14.118-31.059,7.978-17.155-18.51-17.155-18.51" fill="#2c2d30"/>
    <path id="Path_460" data-name="Path 460" d="M27.355,4.6l90.457,34.735s-4.591.016-9.766,4.381L19.643,5.706S21.981,3.784,27.355,4.6" fill="#2c2d30"/>
    <path id="Path_461" data-name="Path 461" d="M103.546,45.686,17.294,7.117a5.811,5.811,0,0,0-4.031,2.3l84.7,42.343s2.762-5.162,5.585-6.074" fill="#2c2d30"/>
    <rect id="Rectangle_125" data-name="Rectangle 125" width="2.042" height="27.169" transform="translate(0.68 24.765) rotate(-59.744)" fill="#2c2d30"/>
    <rect id="Rectangle_126" data-name="Rectangle 126" width="2.042" height="26.828" transform="translate(5.997 11.938) rotate(-63.599)" fill="#2c2d30"/>
    <rect id="Rectangle_127" data-name="Rectangle 127" width="2.038" height="50.655" transform="matrix(0.477, -0.879, 0.879, 0.477, 25.966, 31.031)" fill="#2c2d30"/>
    <path id="Path_462" data-name="Path 462" d="M69.36,67.412l-.993,1.783L42.295,54.656c-.755,10.946,6.04,15.68,6.113,15.728l-1.147,1.687c-.347-.235-8.475-5.943-6.846-19.191l.188-1.5Z" fill="#2c2d30"/>
    <g id="Group_280" data-name="Group 280" style="mix-blend-mode: screen;isolation: isolate">
      <g id="Group_279" data-name="Group 279">
        <g id="Group_278" data-name="Group 278" clip-path="url(#clip-path-4)">
          <path id="Path_463" data-name="Path 463" d="M1436.341,135.893l28.3,377.137-1090.1-420.1,12.9-48.569Z" fill="#14110f"/>
        </g>
      </g>
    </g>
  </g>
</svg>
