<svg xmlns="http://www.w3.org/2000/svg" width="1109.733" height="249.393" viewBox="0 0 1109.733 249.393">
  <g id="Group_729" data-name="Group 729" transform="translate(850.794 -542.594)">
    <path id="Path_4658" data-name="Path 4658" d="M729.719,242.309l-44.385,21.875-12.449-5.265c-22.708-25.21-147.021-43.569-296.809-42.263q-13.375.125-26.459.437c-21.293.52-41.935,1.431-61.688,2.69-70.745,4.458-130.3,13.359-167.98,24.674C100,250.44,86.186,257.1,80.058,264.127L58.3,259.549l-15.877-3.355s.109-9.026,15.633-20.778a5.143,5.143,0,0,0,.437-.312c11.05-8.24,29.674-17.8,61.126-26.516,45.1-12.491,116.541-23.29,229.7-26.016q16.879-.39,34.98-.562c340.934-3,345.418,60.3,345.418,60.3" transform="translate(-672.513 409.131)" fill="#f4e3d8"/>
    <path id="Path_4659" data-name="Path 4659" d="M275.177,184.91l.125,22.25c-70.745,4.458-130.3,13.359-167.98,24.674C87.37,237.817,73.559,244.481,67.43,251.5l-21.756-4.578-.245-24.133.01-.2.427-.115c45.114-12.522,116.5-34.855,229.31-37.57" transform="translate(-659.885 421.754)" fill="#2b5f91"/>
    <path id="Path_4660" data-name="Path 4660" d="M1107.615,197.312l.151,16.579c.1,13.162-14.41,25.865-40.848,37.565-61.246,27.114-186.49,48.943-341.829,59.217-33.274,2.19-67.915,3.855-103.634,4.932-21.8.645-44.016,1.087-66.521,1.29C249.14,319.575.848,277.837.374,223.64l-.166-16.6,174.832-1.54c32.394,25.631,70.5,42.289,111.651,49.967,51.2,9.562,103.124,6.752,154.866,5.738,59.831-1.145,119.61,1.862,179.42,1.732,4.958-.021,9.91-.062,14.884-.109,62.463-.78,125.462-6.237,186.365-20.689,31.2-7.413,59.576-19.5,87.928-34.272,5.462-2.835,10.977-5.7,16.226-8.974l92.782-.812Z" transform="translate(-849.919 473.869)" fill="#f4e3d8"/>
    <path id="Path_4661" data-name="Path 4661" d="M522.448,197.312l.151,16.579c.1,13.162-14.41,25.865-40.848,37.565C420.5,278.571,295.261,300.4,139.922,310.674l-.463-49.926q7.538-.031,15.092-.1c63.316-.812,127.19-6.9,188.914-23.15,31.619-8.329,60.356-21.938,89.078-38.564.479-.281.978-.567,1.451-.843Z" transform="translate(-264.753 473.869)" fill="#2b5f91"/>
    <path id="Path_4662" data-name="Path 4662" d="M1037.25,225.57l-.021.01c-43.548-13.4-105.257-24.6-179.379-32.6-87.486-9.458-192.244-14.473-304.8-13.495C247.258,182.183-.265,228.28.209,282.472c.494,54.186,248.776,95.955,554.569,93.255,251.242-2.211,463.124-33.752,530.483-74.948,12.8-7.835,20.367-16.023,22.005-24.424a16.62,16.62,0,0,0,.349-3.61c-.146-17.344-25.683-33.43-70.366-47.174m-183.4,35.718c.265,29.377-133.859,54.353-299.576,55.815-43.792.4-85.405-.9-122.934-3.574-104.523-7.392-177.386-25.345-177.584-46.945-.114-11.294,19.659-21.953,53.469-30.849,54.088-14.249,144.1-24.06,246.108-24.966C719.049,209.3,853.59,231.932,853.85,261.288" transform="translate(-849.92 398.443)" fill="#7897cb"/>
    <path id="Path_4663" data-name="Path 4663" d="M1066.1,313.033c-27.478,11.887-67.546,22.9-118.965,32.472-104.477,19.467-243.5,30.906-391.458,32.207S268.5,370.029,163.7,352.4C58.375,334.7.235,310.177,0,283.381s57.459-52.34,162.461-71.9c104.477-19.467,243.5-30.9,391.458-32.207s287.169,7.689,391.973,25.314c105.325,17.708,163.465,42.221,163.7,69.023.12,13.677-14.852,27.031-43.5,39.422M44.308,246.076C16.747,258,2.081,270.7,2.2,283.36c.218,25.246,59.222,49.624,161.868,66.885,104.685,17.6,243.751,26.578,391.588,25.278S842.374,362.8,946.731,343.352c102.339-19.061,160.89-44.479,160.666-69.72s-59.217-49.624-161.868-66.885c-104.685-17.6-243.751-26.583-391.588-25.278s-286.722,12.725-391.079,32.165c-51.013,9.5-91.159,20.59-118.554,32.441" transform="translate(-850.794 397.551)" fill="#1c1c1e"/>
    <path id="Path_4664" data-name="Path 4664" d="M626.864,258.849c-45.53,19.7-150.818,33.83-276.5,34.938C181.495,295.275,49,272.6,48.733,242.165c-.172-19.961,55.341-33.294,88.449-39.459,56.647-10.555,132.017-16.756,212.225-17.464,168.87-1.483,301.361,21.189,301.631,51.622.068,7.783-8.532,15.216-24.175,21.985M73.288,222.428c-14.634,6.331-22.422,13.047-22.359,19.716.114,13.417,31.937,26.448,87.3,35.76,56.7,9.53,132.033,14.395,212.116,13.687s155.318-6.893,211.841-17.422c55.185-10.285,86.779-23.873,86.659-37.284s-31.937-26.448-87.3-35.76c-56.7-9.53-132.033-14.395-212.116-13.687S194.1,194.331,137.588,204.86c-27.738,5.166-49.515,11.174-64.3,17.568" transform="translate(-646.006 422.863)" fill="#1c1c1e"/>
    <path id="Path_4665" data-name="Path 4665" d="M642.352,232.526c-22.661-25.174-149.913-43.184-295.992-41.9S73.377,212.148,51.153,237.733L49.5,236.292c22.963-26.417,147.8-46.544,296.84-47.86s274.221,16.616,297.636,42.627Z" transform="translate(-642.787 436.268)" fill="#1c1c1e"/>
    <path id="Path_4666" data-name="Path 4666" d="M1066.237,253.326c-27.483,11.887-67.551,22.9-118.965,32.477C842.8,305.27,703.771,316.7,555.809,318.01S268.645,310.321,163.84,292.7C58.511,274.988.381,250.475.147,223.673L0,207.078l2.185-.021.146,16.6C2.555,248.9,61.554,273.276,164.2,290.537c104.685,17.6,243.751,26.583,391.583,25.278s286.727-12.725,391.084-32.165c102.333-19.061,160.89-44.479,160.666-69.725l-.146-16.6,2.19-.021.146,16.6c.12,13.677-14.852,27.031-43.491,39.422" transform="translate(-850.789 473.854)" fill="#1c1c1e"/>
    <path id="Path_4667" data-name="Path 4667" d="M345.6,268.238c-31.26,1.654-66.937,1.878-104.747.375C118.371,263.691,19.767,242.378,20.615,221c.827-20.06,88.839-33.06,200.874-30.547-33.809,8.9-53.583,19.55-53.469,30.844.2,21.6,73.06,39.558,177.584,46.945" transform="translate(-764.185 443.729)" fill="#1c1c1e"/>
    <path id="Path_4668" data-name="Path 4668" d="M139.283,213.342a65.573,65.573,0,1,1-86.222-34.147,65.575,65.575,0,0,1,86.222,34.147" transform="translate(-794.015 375.016)" fill="#e0645f"/>
    <path id="Path_4669" data-name="Path 4669" d="M106.447,301.438a66.669,66.669,0,1,1,34.715-87.658,66.748,66.748,0,0,1-34.715,87.658M54.372,181.074a64.477,64.477,0,1,0,84.776,33.575,64.548,64.548,0,0,0-84.776-33.575" transform="translate(-794.888 374.145)" fill="#1c1c1e"/>
    <path id="Path_4670" data-name="Path 4670" d="M30.345,180.737c4.822,1.909,6.456,9.2,3.652,16.273s-8.984,11.268-13.8,9.359-6.461-9.192-3.657-16.273,8.984-11.268,13.807-9.359" transform="translate(-787.051 402.277)" fill="#ef9d93"/>
    <path id="Path_4671" data-name="Path 4671" d="M27.261,207.979a8.547,8.547,0,0,1-6.6.3c-5.374-2.133-7.288-10.066-4.266-17.7a18.488,18.488,0,0,1,6.544-8.552c2.929-1.982,6-2.482,8.683-1.425,5.374,2.133,7.288,10.072,4.266,17.7-1.847,4.672-5.129,8.162-8.625,9.676M25.878,182.9a10.112,10.112,0,0,0-1.706.942,16.354,16.354,0,0,0-5.743,7.548c-2.575,6.5-1.212,13.167,3.043,14.852s9.8-2.237,12.381-8.745,1.212-13.167-3.043-14.852a6.357,6.357,0,0,0-4.932.255" transform="translate(-787.926 401.391)" fill="#1c1c1e"/>
    <path id="Path_4672" data-name="Path 4672" d="M374.878,214.582c-20.674,5.145-58.166,7.637-100.861,5.931-64.617-2.591-116.634-13.854-116.187-25.127.25-5.889,14.707-10.613,37.664-13.406,74.127,8,135.831,19.207,179.384,32.6" transform="translate(-187.564 409.441)" fill="#1c1c1e"/>
    <path id="Path_4673" data-name="Path 4673" d="M220.428,193.665a34.59,34.59,0,1,1-45.483-18.01,34.6,34.6,0,0,1,45.483,18.01" transform="translate(-203.3 370.877)" fill="#2b5f91"/>
    <path id="Path_4674" data-name="Path 4674" d="M203.727,241.034a35.686,35.686,0,1,1,18.582-46.924,35.733,35.733,0,0,1-18.582,46.924m-27.468-63.5A33.5,33.5,0,1,0,220.3,194.984a33.539,33.539,0,0,0-44.042-17.448" transform="translate(-204.177 370)" fill="#1c1c1e"/>
    <path id="Path_4675" data-name="Path 4675" d="M304.636,200.671c-1.644,8.4-9.2,16.59-22.005,24.424-4.713-.016-9.588-.13-14.54-.328-42.757-1.727-77.165-9.172-76.879-16.626.307-7.465,35.209-12.126,77.95-10.415,12.813.52,24.882,1.535,35.474,2.945" transform="translate(-47.284 474.127)" fill="#1c1c1e"/>
    <path id="Path_4676" data-name="Path 4676" d="M232.622,205.469a22.883,22.883,0,1,1-30.085-11.913,22.879,22.879,0,0,1,30.085,11.913" transform="translate(-57.689 450.152)" fill="#f4e3d8"/>
    <path id="Path_4677" data-name="Path 4677" d="M222.025,237.444a23.979,23.979,0,1,1,12.485-31.531,24.012,24.012,0,0,1-12.485,31.531m-18.172-42A21.786,21.786,0,1,0,232.5,206.788a21.811,21.811,0,0,0-28.644-11.346" transform="translate(-58.569 449.271)" fill="#1c1c1e"/>
  </g>
</svg>
