<svg xmlns="http://www.w3.org/2000/svg" xmlns:xlink="http://www.w3.org/1999/xlink" width="96.314" height="225.656" viewBox="0 0 96.314 225.656">
  <defs>
    <clipPath id="clip-path">
      <rect id="Rectangle_514" data-name="Rectangle 514" width="96.314" height="225.656" fill="none"/>
    </clipPath>
  </defs>
  <g id="Group_604" data-name="Group 604" transform="translate(-401 -79)">
    <g id="Group_603" data-name="Group 603" transform="translate(401 79)">
      <g id="Group_602" data-name="Group 602" clip-path="url(#clip-path)">
        <path id="Path_4678" data-name="Path 4678" d="M47.424,201.839a23.606,23.606,0,1,1-23.607-23.607,23.607,23.607,0,0,1,23.607,23.607" fill="#ef9d93"/>
        <path id="Path_4679" data-name="Path 4679" d="M23.817,225.656a23.817,23.817,0,1,1,23.817-23.817,23.844,23.844,0,0,1-23.817,23.817m0-47.213a23.4,23.4,0,1,0,23.4,23.4,23.423,23.423,0,0,0-23.4-23.4" fill="#1c1c1e"/>
        <path id="Path_4680" data-name="Path 4680" d="M14.494,185.5c1.32,1.32.819,3.961-1.119,5.9s-4.579,2.439-5.9,1.119-.82-3.961,1.119-5.9,4.579-2.439,5.9-1.119" fill="#f4e3d8"/>
        <path id="Path_4681" data-name="Path 4681" d="M9.42,193.465a2.882,2.882,0,0,1-2.093-.8c-1.4-1.4-.9-4.18,1.119-6.2s4.8-2.518,6.2-1.118a3.149,3.149,0,0,1,.721,2.906,6.494,6.494,0,0,1-1.84,3.291,6.488,6.488,0,0,1-3.291,1.839,4.378,4.378,0,0,1-.813.08m3.122-8.5a5.663,5.663,0,0,0-3.8,1.8c-1.853,1.853-2.355,4.366-1.119,5.6a2.74,2.74,0,0,0,2.529.6,6.064,6.064,0,0,0,3.073-1.723,6.08,6.08,0,0,0,1.723-3.072,2.74,2.74,0,0,0-.6-2.529,2.48,2.48,0,0,0-1.8-.678" fill="#1c1c1e"/>
        <path id="Path_4682" data-name="Path 4682" d="M96.1,13.134A12.922,12.922,0,1,1,83.181.212,12.922,12.922,0,0,1,96.1,13.134" fill="#7897cb"/>
        <path id="Path_4683" data-name="Path 4683" d="M83.181,26.267A13.133,13.133,0,1,1,96.314,13.134,13.147,13.147,0,0,1,83.181,26.267m0-25.845A12.711,12.711,0,1,0,95.893,13.134,12.726,12.726,0,0,0,83.181.422" fill="#1c1c1e"/>
      </g>
    </g>
  </g>
</svg>
