<svg version="1.2" xmlns="http://www.w3.org/2000/svg" viewBox="0 0 639 491" width="639" height="491">
	<title>ufo-svg</title>
	<defs>
		<clipPath clipPathUnits="userSpaceOnUse" id="cp1">
			<path d="m-33 46.91l632-91.27 70.05 485.12-631.99 91.27z"/>
		</clipPath>
	</defs>
	<style>
		tspan { white-space:pre } 
		.s0 { fill: #97acad } 
		.s1 { fill: #f0e4cd } 
		.s2 { fill: #2c2d30 } 
		.s3 { fill: #719094 } 
		.t4 { font-size: 24px;fill: #b5b5b5;font-weight: 400;font-family: "Poppins-Regular", "Poppins" } 
	</style>
	<g id="Clip-Path: Group_26" clip-path="url(#cp1)">
		<g id="Group_26">
			<path id="Path_161" class="s0" d="m258.6 53.8l-4 0.9 0.1 16.3-11 3.2-38.1-43.5-4.9 2.5 37.9 42.6c0 0-41.4 15-70.8 45.5l-1.2-0.7c0 0 0.5-7.4-5.9-9.2-6.5-1.8-10.9-0.1-10.9-0.1 0 0 1.8-5.9-5-10.2-6.8-4.3-12.9-1.1-16.2 4.3-3.3 5.5 0.2 12.6 3.2 15.8q-4.6 3.6-8.8 7.6-4.2 4-8.1 8.4-3.8 4.4-7.2 9.1-3.4 4.8-6.4 9.8l-2.1 1.8-68.1-25.8c0 0-4.4-1.9-4 0.1 0.3 1.9 3.7 4.1 3.7 4.1l60.1 37.2 0.2 1.3c0 0-12.3 30.1-12.5 46.5-0.2 16.3 5 26.7 11.8 26.7 6.9 0 16.9-10.3 16.9-10.3l-1.9 20.8q-9 1.8-17.8 3.9-8.9 2.1-17.6 4.6-8.8 2.5-17.4 5.4-8.7 2.8-17.2 6c-35.8 13.8-30.9 31.3-24.3 37.3 6.5 6.1 41 26.1 114 42.7 0 0 20.7 49.8 67.3 80.3 0 0 48.2 34.3 104.9 38.4 56.7 4.1 104.4-21.1 115.3-26.3 10.8-5.1 56.7-33.1 77.5-75.6l4.1-9.5c0 0 73.2-10.9 109.1-32.7 36-21.8-17.5-43.9-17.5-43.9 0 0-40.4-16.6-66.8-22.1l-0.8-8.2c0 0 25.2-27.7 36.4-62.2l0.6 1.1 62.8 16.7c0 0 0.8 9.9 9.6 8.3 8.8-1.6 8.9-9.2 7-13-1.9-3.7-7.8-8.3-15.1-1.7l-60.9-23.7c0 0 9.6-28.1 8.1-59.4-1.6-31.3-6-25.4-14.5-20.1-8.4 5.3-28.9 21.8-46.2 43.4l-11.7 15.2-2.3 1.3-3.5-2.7c0 0-20-44.3-80.8-76.1l30.7-52.7-6.8-0.2-28.8 50.2-24.7-9.7-0.1-17.1z"/>
			<path id="Path_162" class="s1" d="m203.6 383.4c0 0 10.6 77.4 110.3 94.1 0 0-123.5 4.6-184.2-109.6z"/>
			<path id="Path_163" class="s1" d="m144.3 281.1c0 0-94.5 27.5-66.1 63.7 0 0-35.6-7.3-57.2-22.4-21.7-15.1-15.6-16.8-8.5-29.4 7.1-12.6 73.6-33.9 92.9-34.5 19.2-0.6 38.9 22.6 38.9 22.6z"/>
			<path id="Path_164" class="s1" d="m254.6 54.7l-0.4 10.5q0 0 0 0.1 0.1 0.3 0.2 0.6 0 0.3 0 0.5 0.1 0.3 0 0.6 0 0.3-0.1 0.6l1.1 1.9q-1.1 0.3-2.2 0.6-0.3 0.3-0.6 0.6-0.3 0.3-0.7 0.6-0.3 0.2-0.7 0.4-0.4 0.1-0.8 0.2-0.4 0.2-0.8 0.3-0.4 0.1-0.8 0.2-0.4 0.2-0.8 0.3-0.4 0.2-0.8 0.3-0.8 0.3-1.6 0.5-0.4 0.1-0.7 0.3c-0.1 0-0.2 0.1-0.5 0.2q-0.1 0.1-0.3 0.2-0.1 0-0.3 0.1-0.1 0-0.3 0.1-0.2 0-0.3 0.1 0.8 1.1 1.7 2.2 0.9 1.1 1.8 2.1 0.9 1.1 1.9 2.1 1 1 2 2 0.8 0.8 1.6 1.5 0.8 0.8 1.5 1.6 0.8 0.8 1.5 1.6 0.7 0.8 1.4 1.7 2.8-1.7 5.6-3.3 2.8-1.6 5.7-3 2.9-1.5 5.8-2.9 2.9-1.3 5.9-2.6l1.7-15.9c-12.7 0-26.7-6.9-26.7-6.9z"/>
			<path id="Path_165" class="s1" d="m239.2 75.9q0 0-0.1 0-0.5 0.3-1.1 0.6-0.6 0.2-1.3 0.5-0.6 0.2-1.2 0.4-0.6 0.3-1.2 0.5c-1.4 0.5-3.2 1.3-4.9 2q-0.3 0.1-0.6 0.1-0.4 0.1-0.7 0.1-0.4 0-0.7 0-0.3-0.1-0.7-0.2c-39.9 18.7-65.4 48.3-66.4 49.5q1.3 1.1 2.6 2.2 1.3 1.2 2.5 2.4 1.3 1.2 2.5 2.4 1.2 1.3 2.3 2.6 0.5-0.6 1-1.1 0.6-0.6 1.1-1.1 0.6-0.5 1.2-1 0.5-0.5 1.1-1 1.6-1.2 3.1-2.3 1.6-1.1 3.2-2.1 1.7-1.1 3.3-2.1 1.7-1 3.4-1.9 0.1-0.1 0.4-0.2 0.2 0 0.4 0 0.2 0 0.4 0 0.2 0 0.4 0.1 0-0.3 0.1-0.5 0.1-0.3 0.3-0.5 0.2-0.3 0.5-0.4 0.2-0.2 0.5-0.2 0.4-0.1 0.7-0.3 0.4-0.1 0.7-0.3 0.3-0.2 0.6-0.4 0.2-0.3 0.5-0.6 0.3-0.2 0.6-0.4 0.4-0.1 0.8-0.1 0.4 0 0.8 0.2 0.3 0.2 0.6 0.4 0 0.1 0 0.1 0 0 0.1 0.1 0 0 0 0 0 0.1 0 0.1 2.2-1.2 4.3-2.4c6.5-3.5 15-7.6 22.6-7.5q3.6-3.1 7.3-6 3.7-2.9 7.5-5.7 3.8-2.8 7.7-5.4 3.9-2.7 7.9-5.2-0.8-0.9-1.7-1.7-0.8-0.9-1.6-1.8-0.9-0.8-1.7-1.7-0.9-0.8-1.8-1.6c-2.8-2.6-4.9-5.7-7.3-8.6z"/>
			<path id="Path_166" class="s1" d="m146.2 248.5c-4.6-2.6-7.2-8.5-9.8-12.8-2.2-3.7-4.6-7.6-5.6-11.8-0.9-3.9-0.2-7.9-0.9-11.9q0-0.2 0-0.4 0-0.2 0.1-0.4 0-0.2 0.1-0.4 0.1-0.2 0.3-0.4 0-0.9 0-1.8 0-0.9 0.1-1.8 0.1-0.9 0.2-1.8 0.1-0.9 0.3-1.8c0.5-3.5 0.6-7 1.7-10.3q0 0 0-0.1 0 0 0-0.1 0 0 0-0.1 0 0 0-0.1c2.4-11.3 8.2-22.3 15.2-31.5 3.8-5 9-13.9 15.6-16-2.2-1.2-3.9-3.3-5.6-5.2q-0.6-0.6-1.2-1.2-0.5-0.6-1.1-1.3-0.5-0.6-1.1-1.3-0.5-0.7-1-1.3c-53.7 68.2-48.1 122.5-48.2 127.9-0.2 5.5 1.9 7.5 1.9 7.5 7.6 5.3 35.3 10.5 35.3 10.5q0.2-4.1 0.5-8.1 0.4-4 0.8-8 0.5-4 1.1-8 0.6-4 1.3-8z"/>
			<path id="Path_167" fill-rule="evenodd" class="s1" d="m315.8 45c-77.4-1.7-139.9-12.3-139.6-23.8 0.2-11.5 63.1-19.5 140.4-17.9 77.4 1.6 139.9 12.3 139.6 23.8-0.2 11.5-63.1 19.5-140.4 17.9zm108.4-18.6c0.2-8.9-48-17.1-107.7-18.3-59.6-1.3-108.2 4.9-108.3 13.7-0.2 8.9 48 17.1 107.7 18.4 59.6 1.3 108.2-4.9 108.3-13.8z"/>
			<path id="Path_168" fill-rule="evenodd" class="s2" d="m180.6 27.9q-4.7-3-4.7-6.2c0.3-14.3 73.2-20.4 141.6-19 37.5 0.8 72.7 3.7 99.1 8.2 27.7 4.8 41.7 10.4 41.6 16.7-0.3 14.3-73.2 20.4-141.6 19-37.5-0.8-72.6-3.7-99-8.2-18.4-3.1-30.7-6.6-37-10.5zm271.9-4.5c-5.2-3.2-16.4-6.9-36.3-10.3-26.3-4.5-61.4-7.4-98.7-8.1-83.1-1.8-139.2 7.2-139.4 16.7 0 3.7 10.4 9.5 39.8 14.5 26.3 4.5 61.4 7.4 98.7 8.2 83.1 1.7 139.2-7.3 139.4-16.8 0-1.2-1.1-2.6-3.5-4.2z"/>
			<path id="Path_169" fill-rule="evenodd" class="s2" d="m211.7 27.3q-3.8-2.3-3.8-4.9c0.1-5.1 11.2-9.1 32.9-11.8 20.5-2.6 47.7-3.7 76.6-3.1 28.9 0.6 56.1 2.8 76.5 6.3 21.5 3.7 32.4 8.1 32.3 13.2-0.1 5-11.1 9-32.8 11.7-20.6 2.7-47.8 3.8-76.7 3.1-28.9-0.6-56.1-2.8-76.5-6.3-14.1-2.4-23.6-5.1-28.5-8.2zm209.7-3.4c-3.9-2.4-12.5-5.3-27.9-7.9-20.3-3.4-47.3-5.7-76.1-6.3-28.8-0.6-55.9 0.5-76.4 3.1-22.7 2.9-30.8 6.9-30.9 9.6 0 2.8 8 7.1 30.5 10.9 20.3 3.5 47.3 5.7 76.1 6.3 28.9 0.6 56-0.5 76.4-3.1 22.7-2.9 30.8-6.8 30.9-9.6 0-0.9-0.8-1.9-2.6-3z"/>
			<path id="Path_170" class="s1" d="m378.8 56.3c-0.1 5.1-27.9 8.6-62 7.9-34.2-0.7-61.8-5.4-61.7-10.5 0.1-5.1 27.9-8.6 62-7.9 34.2 0.7 61.8 5.4 61.7 10.5z"/>
			<path id="Path_171" fill-rule="evenodd" class="s2" d="m255.8 56.6c-2.3-1.5-2.3-2.7-2.3-3.2 0-1.2 0.1-4.8 19.2-7.2 11.8-1.5 27.4-2.2 43.9-1.8 16.6 0.3 32.2 1.6 43.9 3.6 19 3.2 18.9 6.8 18.9 8-0.1 1.2-0.1 4.8-19.2 7.2-11.8 1.5-27.4 2.1-44 1.8-16.5-0.4-32.1-1.7-43.8-3.6-9.6-1.7-14.3-3.4-16.6-4.8zm120-2c-1.8-1.1-5.9-2.7-15.7-4.4-11.6-2-27-3.3-43.5-3.6-16.5-0.4-31.9 0.3-43.6 1.8-17 2.1-17.3 5-17.3 5 0 0 0.1 2.9 17.1 5.8 11.6 1.9 27 3.2 43.5 3.6 16.4 0.3 31.9-0.3 43.6-1.8 17-2.2 17.2-5 17.3-5-0.1-0.1-0.1-0.6-1.4-1.4z"/>
			<path id="Path_172" class="s2" d="m616.8 319.2c0.2-5.1-2.1-10.2-6.8-15.2-13.3-14.1-46-26.9-91-37q-0.1 0.2-0.1 0.5-0.1 0.3-0.1 0.5-0.1 0.3-0.1 0.6-0.1 0.2-0.2 0.5c34.6 7.7 61.8 17 78.3 27.3q1.6 0.9 3.1 2 1.6 1 3 2.2 1.5 1.1 2.8 2.3 1.4 1.3 2.7 2.6c4.3 4.5 6.4 9.1 6.2 13.6-0.8 22-133.2 63.1-305 59.4-172.3-3.6-302.6-50.2-302.2-72.2 0-4.5 2.4-9 7-13.4 13.6-13.2 46-24.3 90.2-32.3q0-0.3 0-0.7 0-0.3 0-0.6 0-0.3 0-0.6 0.1-0.3 0.1-0.6c-44.9 8.1-77.6 19.5-91.9 33.2-5 4.8-7.6 9.8-7.7 15-0.1 5.2 5.3 11.1 15.2 17.2 40.4 25.1 156.2 54.4 289.3 57.3 162.3 3.4 306.3-36 307.2-61.6z"/>
			<path id="Path_173" class="s2" d="m379 71.8q-1.2 0.3-2.4 0.6c-1.6 2.9-22.4 7.3-60.7 6.5-39.9-0.9-60.6-6.6-60.5-9.4q-1.1-0.4-2.1-0.9-0.1 0.1-0.1 0.2 0 0.1 0 0.2 0 0.1 0 0.2-0.1 0.1 0 0.3c-0.1 1.1 0.8 2.2 2.4 3.1 8.6 5.4 38.9 8 60.3 8.5 25.3 0.5 63-1.4 63.1-9q0-0.1 0-0.3z"/>
			<path id="Path_174" class="s2" d="m253.2 69.5l0.3-16.1h2.2l-0.3 16.1z"/>
			<path id="Path_175" class="s2" d="m267.3 75.9l0.3-16.1h2.2l-0.3 16.1z"/>
			<path id="Path_176" class="s2" d="m300.3 80l0.3-16.1 2.2 0.1-0.3 16.1z"/>
			<path id="Path_177" class="s2" d="m376.8 72.1l0.4-16.1h2.2l-0.4 16.1z"/>
			<path id="Path_178" class="s2" d="m359.7 77.8l0.4-16.1h2.2l-0.3 16.1z"/>
			<path id="Path_179" class="s2" d="m332.8 80.1l0.4-16.1 2.2 0.1-0.4 16.1z"/>
			<path id="Path_180" class="s2" d="m484.4 157.3q0.3-0.1 0.6-0.2 0.3-0.1 0.6-0.1 0.3-0.1 0.6-0.1 0.3 0 0.6-0.1c-6.3-9.8-13.5-19.2-21.5-27.9-7.9-8.6-16.6-16.6-25.9-23.8-9.3-7.2-19.2-13.6-29.6-19.2-10.4-5.5-21.3-10.1-32.5-13.8q-0.1 0.2-0.3 0.5-0.2 0.2-0.3 0.5-0.2 0.2-0.4 0.4-0.2 0.2-0.4 0.4c11 3.6 21.8 8.2 32.1 13.6 10.3 5.4 20.1 11.7 29.3 18.8 9.2 7.1 17.8 14.9 25.7 23.5 7.9 8.5 15.1 17.7 21.4 27.5z"/>
			<path id="Path_181" class="s2" d="m496.6 365.9q-0.3 0-0.6 0-0.3 0-0.6 0-0.3-0.1-0.6-0.1-0.3-0.1-0.6-0.1c-2.3 4.3-4.6 8.6-7.2 12.8-60 96.5-187.2 126.3-283.8 66.4-8.3-5.2-16.2-10.9-23.7-17.2-7.5-6.3-14.6-13.1-21.1-20.4-6.5-7.3-12.5-15.1-17.9-23.2-5.4-8.2-10.2-16.7-14.4-25.6q-0.4 0-0.7 0-0.3-0.1-0.7-0.1-0.3-0.1-0.6-0.1-0.4-0.1-0.7-0.2c4.2 9.1 9.1 17.8 14.6 26.2 5.5 8.4 11.6 16.4 18.2 23.9 6.7 7.5 13.9 14.5 21.5 20.9 7.7 6.5 15.8 12.4 24.3 17.7 97.6 60.5 226.3 30.4 286.9-67.2 2.7-4.5 5.3-9.1 7.7-13.7z"/>
			<path id="Path_182" class="s2" d="m292.9 133.4c-10.2-14.7-27.8-23-49.7-23.2-21.8-0.3-45.2 7.4-65.9 21.7q-3.9 2.7-7.6 5.7-0.1 0.1-0.2 0.2c-0.3 0.6 1.5-0.1 1.1 0.4 1.3-0.8-0.3 0.7 1.3 0.5 1.9-1.5 4.7-3.6 6.7-5 20.3-14 43.2-21.5 64.6-21.3 13.1 0.1 24.6 3.2 33.8 8.9q2.1 1.3 4 2.8 1.9 1.5 3.7 3.2 1.8 1.7 3.4 3.5 1.6 1.9 3 3.9c20.1 29.3 2.5 76.6-39.3 105.4-20.3 14-43.2 21.5-64.6 21.3-21.1-0.2-38.1-8.2-47.9-22.3-9.7-14.1-11-32.9-3.7-52.7 5.4-14.6 15-28.4 27.7-40.3 0.4-1.3-0.7-0.7 0.1-1.8-0.8 0.6 0-0.8-0.9-0.5-13.3 12.2-23.3 26.7-29 41.8-7.6 20.6-6.2 40 4 54.8q1.5 2.1 3.1 4 1.7 2 3.5 3.7 1.9 1.8 3.9 3.3 2.1 1.6 4.3 2.9c9.5 6 21.4 9.2 34.9 9.3 21.8 0.3 45.2-7.5 65.9-21.7 42.8-29.5 60.7-78.1 39.8-108.5z"/>
			<path id="Path_183" class="s1" d="m291.1 134.7q-1.4-2-3-3.9-1.6-1.8-3.4-3.5-1.8-1.7-3.7-3.2-1.9-1.5-4-2.8c-9.2-5.7-20.7-8.8-33.9-8.9-21.3-0.2-44.2 7.3-64.5 21.3-2 1.4-4.8 3.6-6.7 5l-0.6 0.5q0.8 0.7 1.5 1.4 0.8 0.7 1.5 1.4 0.7 0.8 1.4 1.5 0.7 0.8 1.4 1.6c3.2 3.6 6.8 6.8 10.2 10.2 7 6.8 14.1 13.3 21.3 19.8 3.7 3.4 7.1 7.1 10.7 10.6 2.8 2.7 6 5.1 8.6 7.9q0.7 0.6 1.2 1.4 0.6 0.7 1 1.5 0.5 0.9 0.8 1.8 0.3 0.8 0.4 1.7 0.7 0.6 1.4 1.2c2.2 1.8 2.6 6.3-1 6.8q-0.6 0.1-1.1 0.1-0.6 0-1.1 0-0.5-0.1-1.1-0.2-0.5-0.2-1-0.4c-4.7 2.5-10.5 0-14.2-3.1-3.3-2.8-5.8-6.3-8.7-9.4-3.2-3.5-6.4-6.9-9.3-10.6-5.4-7-11.7-13.4-16.6-20.8-4.3-6.5-10.4-11.5-15.1-17.7l-0.2 0.2c-12.7 11.9-22.3 25.7-27.7 40.3-7.3 19.8-6 38.6 3.7 52.7 9.8 14.1 26.8 22.1 47.9 22.3 21.3 0.2 44.3-7.3 64.6-21.3 41.8-28.8 59.4-76.1 39.3-105.4z"/>
			<path id="Path_184" class="s3" d="m475.5 215.8c-0.8-7.5-4-25.4-4.6-25.9q-0.4-0.2-0.7-0.5-0.2-0.2-0.5-0.5-0.3-0.3-0.5-0.6-0.3-0.3-0.5-0.7c-1.1 0.5-2.2 0.8-3.3 1.2-1.1 0.5-2.1 1-3.2 1.4-2.5 3.3-7.4 4.4-11 6.2-7 3.6-14.3 6.8-21.6 9.7-7.7 3-14.5 7.2-22 10.6-4.5 2-10.3 3.9-14.2 0.4q-1.7 0.7-3.4 1.4c-4.4 1.9-8-4.6-3.6-6.5q2-0.9 4-1.8 0.2-0.6 0.4-1.2 0.3-0.6 0.7-1.1 0.4-0.6 0.8-1 0.5-0.5 1.1-0.8 0-0.5 0.1-0.9 0.1-0.5 0.4-0.9 0.3-0.4 0.7-0.7 0.3-0.2 0.8-0.4c8.2-3.4 16.9-5.1 24.8-9.3 7.7-4.2 16.6-5.6 24.8-8.4 4-1.3 9.2-4.3 13.4-4.6q0.2 0 0.4 0 0.2 0 0.4 0 0.1 0 0.3 0 0.2 0 0.4 0.1 0.6-0.4 1.2-0.7c1.7-0.8 3.4-1.6 5.1-2.3q0-0.1 0-0.2c-8.9-18.8-25.1-39.7-39.4-45.6-19.6-8-35.9-10.7-50.4-1.4-14.4 9.2-22.9 26-23.8 47.1-1 21.3 5.8 44.5 19.1 65.2 27.4 42.8 73.7 47.1 93.4 17.2 3.5-5.5 12.3-25.8 10.4-44.5z"/>
			<path id="Path_185" class="s2" d="m91.3 175.1l-64.5-40c-0.5-0.3-0.9-0.8-1-1.4-0.2-0.6-0.1-1.2 0.1-1.8 0.3-0.5 0.8-0.9 1.3-1.2 0.6-0.2 1.2-0.2 1.8 0l71.6 26.7-0.8 2.1-71.6-26.7q0 0-0.1 0 0 0-0.1 0 0 0 0 0-0.1 0.1-0.1 0.1c-0.1 0.2 0 0.3 0.1 0.3l64.4 40z"/>
			<path id="Path_186" class="s2" d="m151.7 138.4c0 0-2.9-8.6-8.4-9.6-5.5-1-30.3 10.8-48.6 59.6 0 0 23.6-36.3 31.1-36.3 7.4 0.1-19.8 28.6-9.6 49.6 0 0 12.4-37.2 35.5-63.3z"/>
			<path id="Path_187" class="s2" d="m109 227.7c0 0-10.6 9.2-14.6 11.1-4 1.9-11.8-2.8-6.5-24.2 0 0-0.7 12.3 4.5 12.5 5.1 0.1 20.3-14.3 20.3-14.3z"/>
			<path id="Path_188" class="s2" d="m95.4 167l-46.7-22.6 44.2 27.5z"/>
			<path id="Path_189" fill-rule="evenodd" class="s2" d="m132.1 121.6c-4.3-2.7-6.6-7.8-5.8-12.8 0.8-5 4.6-9.1 9.6-10.2 4.9-1.2 10.1 0.7 13.1 4.9 3 4.1 3.2 9.7 0.5 14-0.9 1.4-2.1 2.6-3.4 3.6-1.3 0.9-2.9 1.6-4.5 2-1.6 0.4-3.3 0.4-4.9 0.2-1.6-0.3-3.2-0.9-4.6-1.7zm12.1-19.6c-3.5-2.2-8.1-2-11.5 0.4-3.4 2.5-5 6.7-4.1 10.8 1 4.1 4.3 7.2 8.5 7.9 4.1 0.7 8.3-1.2 10.5-4.8 0.7-1.1 1.2-2.4 1.4-3.8 0.2-1.3 0.2-2.7-0.1-4-0.3-1.3-0.9-2.6-1.7-3.7-0.8-1.1-1.8-2.1-3-2.8z"/>
			<path id="Path_190" class="s2" d="m149.9 112.7q1.2-0.4 2.5-0.6 1.2-0.3 2.4-0.4 1.3 0 2.6 0 1.2 0.1 2.5 0.2 1 0.3 2 0.8 0.9 0.5 1.7 1.3 0.7 0.8 1.2 1.8 0.4 1 0.6 2 0 0.6 0.1 1.1 0 0.5 0 1 0 0.5 0 1 0 0.6-0.1 1.1l2.3 0.2q0-0.6 0-1.2 0.1-0.5 0.1-1.1-0.1-0.6-0.1-1.2-0.1-0.6-0.1-1.2-0.2-1.4-0.8-2.7-0.6-1.3-1.6-2.3-1-1.1-2.3-1.8-1.2-0.7-2.6-0.9-1.4-0.3-2.7-0.3-1.3-0.1-2.7 0-1.3 0.1-2.6 0.3-1.3 0.2-2.6 0.6z"/>
			<path id="Path_191" class="s2" d="m106.5 236.6q-1.5 1.2-2.9 2.4-1.5 1.2-3 2.4-1.5 1.2-3.1 2.3-1.5 1.1-3.1 2.2-1.1 0.7-2.4 1-1.3 0.3-2.6 0.1-1.3-0.2-2.4-0.9-1.1-0.7-1.9-1.7c-10.1-14.2-4.8-47.5 12.6-79.3 10.4-19.1 23.6-34.7 36.1-44l-1.9-1.4c-12.7 9.5-25.7 25.1-36.2 44.4-18 33-23.1 66.5-12.4 81.5q0.2 0.4 0.5 0.7 0.3 0.3 0.6 0.6 0.3 0.3 0.6 0.6 0.4 0.2 0.7 0.5 1.2 0.7 2.4 1 1.3 0.3 2.6 0.3 1.4 0 2.6-0.4 1.3-0.4 2.3-1.2 1.7-1.1 3.2-2.2 1.6-1.2 3.1-2.4 1.6-1.1 3.1-2.4 1.5-1.2 3-2.5z"/>
			<path id="Path_192" class="s2" d="m212.8 204.7q-0.3-0.2-0.6-0.5-0.4-0.2-0.6-0.4-0.3-0.3-0.6-0.6-0.3-0.2-0.5-0.5l-68.6-80.4 1.7-1.4 68.5 80.3c1.4 1.6 3.4 2.6 5.5 2.7 2 0.1 4.1-0.6 5.6-2.1 1.5-1.4 2.4-3.4 2.4-5.5 0.1-2.1-0.8-4.1-2.3-5.6l-75.6-73 1.6-1.6 75.5 73c1.8 1.7 2.9 4 3 6.4 0.2 2.5-0.5 4.9-2 6.8-1.5 1.9-3.7 3.2-6.1 3.7-2.3 0.4-4.8 0-6.9-1.3z"/>
			<path id="Path_193" fill-rule="evenodd" class="s2" d="m483.2 184.9c-5.3-3.3-7.3-10-4.6-15.7 2.7-5.6 9.2-8.3 15.1-6.2 5.8 2.1 9.2 8.3 7.7 14.3-1.4 6.1-7.2 10.1-13.4 9.3q-0.6-0.1-1.3-0.2-0.6-0.2-1.2-0.4-0.6-0.2-1.2-0.5-0.6-0.3-1.1-0.6zm11.6-18.8c-4.3-2.7-10.1-1.7-13.2 2.4-3.1 4.1-2.5 9.9 1.3 13.4 3.8 3.5 9.6 3.5 13.4 0 3.8-3.5 4.3-9.3 1.2-13.4q-0.3-0.4-0.6-0.7-0.3-0.3-0.6-0.6-0.4-0.3-0.7-0.6-0.4-0.3-0.8-0.5z"/>
			<path id="Path_194" class="s2" d="m397.7 217.7c-1.6-1-2.8-2.4-3.6-4-0.9-1.7-1.2-3.6-1-5.4 0.2-1.9 0.9-3.6 2-5.1 1.2-1.5 2.7-2.6 4.5-3.2l78.8-27.2 0.7 2.1-78.8 27.2c-2 0.7-3.5 2.2-4.4 4.1-0.8 1.9-0.9 4.1 0 6.1 0.8 1.9 2.3 3.4 4.3 4.2 1.9 0.7 4.1 0.6 6-0.3l74.4-36.2 1 1.9-74.4 36.3q-1 0.5-2 0.7-1 0.3-2.1 0.3-1 0-2-0.2-1.1-0.2-2-0.6-0.2-0.1-0.4-0.2-0.2 0-0.3-0.1-0.2-0.1-0.4-0.2-0.1-0.1-0.3-0.2z"/>
			<path id="Path_195" fill-rule="evenodd" class="s2" d="m621.5 222.5q-0.3-0.2-0.6-0.4-0.3-0.2-0.5-0.4-0.3-0.3-0.6-0.5-0.2-0.2-0.4-0.5c-3.5-3.9-3.4-9.8 0.2-13.5 3.7-3.7 9.5-4 13.5-0.7 4 3.3 4.7 9.2 1.7 13.4-3.1 4.2-8.9 5.3-13.3 2.6zm9.4-15.1c-3-1.8-6.8-1.5-9.4 0.9-2.6 2.4-3.2 6.2-1.6 9.3 1.6 3.1 5.1 4.8 8.5 4 3.5-0.7 6-3.7 6.1-7.2q0.1-1-0.1-2-0.2-1.1-0.7-2-0.5-0.9-1.2-1.7-0.7-0.7-1.6-1.3z"/>
			<path id="Path_196" class="s2" d="m558.1 185.4l61.8 24.5 0.8-2.1-61.8-24.5q-0.1 0.3-0.1 0.6-0.1 0.2-0.2 0.5-0.2 0.2-0.3 0.5-0.1 0.2-0.2 0.5z"/>
			<path id="Path_197" class="s2" d="m618.3 213.3l-63.7-16.7q-0.2 0.3-0.3 0.5-0.1 0.3-0.3 0.5-0.2 0.3-0.3 0.5-0.2 0.3-0.4 0.5 0.1 0 0.2 0l64.3 16.8z"/>
			<path id="Path_198" class="s2" d="m242.1 118.2c0 0 41.5-6.5 50.7 34.1 9.2 40.6-46.5 92.2-77.2 101.2-30.7 8.9-42.5-11.6-37.1-23.1 5.4-11.5-11.6-18.5-19.4-3.8-7.9 14.8 14.6 18.1 4.6 17.9-9.9-0.2-18.3-8.5-14.1-22 4.3-13.5 17.4-21.9 35.7-15.7 0 0 1.6-4.7 11-3.7 9.4 1.1 11.7-2.7 11.7-2.7 0 0-0.5-2.7 2 0.1 2.6 2.7 5.8 6.1 9.7 4.3 3.8-1.7 9.5-6.6 6-12.7-3.6-6.1-2.5-8.9 2.3-7.7 4.8 1.2 5.3-0.2 1.6-6.7-3.8-6.6-5.1-17.4 7.1-26.8 12.2-9.4 13.9-8.7 6.8-15.4-7.1-6.7-6.2-16.9-1.4-17.3z"/>
			<path id="Path_199" class="s2" d="m389.7 131.9c0 0-41.1 20.3-27.8 77.9 13.3 57.6 68.8 63 65.3 56.5-3.5-6.4 15.6-16.4 1.1-25.4-14.4-9-27.7-17.4-22.3-23.7 0 0-11.6 1.4-11.9-7.1-0.2-8.6 9.2-10.9 9.2-10.9 0 0 3.2-7.3-7.1-10.6-10.4-3.3-5.1-12.8 1-19.6 6.2-6.8 10.1-14.1 2-17.3-8.2-3.2-9.1-4.1-6.6-9.1 2.4-5.1-2.9-10.7-2.9-10.7z"/>
			<path id="Path_200" class="s2" d="m470.7 187.6c-1-0.7-1.3-0.2-1.9-1 0 0.7-0.4 0.1-0.6 0.8 13.3 38.3 3.5 76.8-23.3 88.2-28.5 12-65.6-11.1-82.6-51.5-17.1-40.4-7.9-83.1 20.6-95.2 14.2-6 30.6-3.2 45.5 6 14.3 8.9 27.3 23.8 35.9 42.8 0.8 0.6 1.5 0.5 2 1.2q0-0.2 0-0.4 0.1-0.2 0.1-0.4 0-0.2 0-0.4 0.1-0.2 0.2-0.4c-18-40.1-55.5-62.7-84.5-50.4-29.6 12.5-39.5 56.5-21.9 98.1 8.7 20.6 22.6 36.9 38 46.4 15.6 9.7 32.7 12.5 47.6 6.2 27.7-11.7 38-51 24.9-90z"/>
			<path id="Path_201" class="s2" d="m481.3 148.6c0 0 8.3 10.6 9.5 15.3l-2.6 0.1c0 0-2.6-5.1-4.8-8.3q-0.5-0.8-0.8-1.6-0.4-0.9-0.7-1.8-0.3-0.9-0.4-1.8-0.2-0.9-0.2-1.9z"/>
			<path id="Path_202" class="s2" d="m566.6 106.6q-0.1-0.9-0.4-1.8-0.4-0.9-0.9-1.7-0.6-0.8-1.4-1.4-0.7-0.6-1.6-1-0.8-0.4-1.8-0.6-0.9-0.1-1.8 0-1 0.1-1.9 0.4-0.9 0.3-1.6 0.9c-14.6 10.1-42 31.7-62.4 62.3l1.9 1.2c20.2-30.3 47.3-51.7 61.7-61.7q0.6-0.4 1.2-0.6 0.6-0.3 1.3-0.3 0.6-0.1 1.3 0 0.6 0.2 1.2 0.4 0.6 0.3 1.1 0.7 0.6 0.5 1 1 0.3 0.5 0.6 1.2 0.2 0.6 0.3 1.3c9.2 84.8-38.1 141.4-46.5 150.6q0 0.3 0.1 0.7 0 0.3 0 0.6 0 0.4 0 0.7 0 0.3 0 0.7l0.2 0.2c0.6-0.6 58.6-60.2 48.4-153.8z"/>
			<path id="Path_203" class="s2" d="m495.4 165.1c0 0 22.4-28.7 47.5-46.8q0.7-0.5 1.6-0.6 0.9-0.1 1.8 0.2 0.8 0.4 1.3 1.1 0.6 0.8 0.7 1.7c1.8 16.3 3.9 67-30.2 122.6l-11.1-42.6-8.3-19.9c0 0 5.7-10.3-3.3-15.7z"/>
			<path id="Path_204" class="s2" d="m132.6 371.1c0 0 186.9 53.3 354.4 7.4l8.9-12.6c0 0-96.1 15.9-180 15l-78.9-5.3c0 0-56.5-5-79.5-10.8-23-5.7-32.4-6.4-32.4-6.4 0 0 2.4 8.3 7.5 12.7z"/>
			<path id="Path_205" class="s2" d="m289 476.8c0 0 5.3 10.4 15 12.2 9.7 1.7 18.1-12.4 18.1-12.4z"/>
			<path id="Path_206" class="s2" d="m180.3 308.3l13.5-13.9 3.1 0.1-12.6 13c15.4 5.7 141.7 49.9 258.5 5.4l-6.6-14.1h2.6l7 15.3-1.1 0.4c-125.1 48.4-261.5-5-262.8-5.6z"/>
			<path id="Path_207" class="s2" d="m204.8 315.7l-1.9-1.1 10.1-16.4 2.7-0.2z"/>
			<path id="Rectangle_23" class="s2" d="m315.5 333.6v-26h2.2v26z"/>
			<path id="Path_208" class="s2" d="m425.4 320.2l-8.9-17.9 2.4-0.2 8.5 17.1z"/>
			<path id="Path_209" class="s2" d="m519.9 274.8c0 0 53.1 10.9 74.9 25.7 21.7 14.9 16.2 22.3-0.2 30.5-16.3 8.1-68.9 26-118.1 30.8 0 0 47.6-10.6 64.7-27.2 17-16.6-45.3-49.9-45.3-49.9z"/>
			<path id="Path_210" class="s2" d="m103.8 264.2q-5.1 0.6-10.2 1.7-5.2 1-10.2 2.3-5 1.3-10 2.9-4.9 1.7-9.7 3.6c-19.8 8.3 1.9 5.5-12.5 12.3-14.3 6.7-24.3 8.7-27.2 18-2.8 9.4 6.7 18.2 29.1 24.3 22.4 6 0.5-1-9.8-12-10.3-10.9-12.3-17.7 14.3-22.5 26.7-4.7 43.1-11.8 25.9-14.6-17.2-2.8 21.8-9.5 21.8-9.5z"/>
			<path id="Path_211" class="s2" d="m111.7 272.2c0 0-14.1 2.1-21.8 4.9-7.7 2.8 9.3-0.8 8.9 5.6-0.3 6.3-16.1 10.2-23.5 12.3-7.3 2.2 12.8-0.2 23.4-4.4 10.6-4.2 15.4-7 9-10.6-6.4-3.6 17-2.9 17-2.9z"/>
			<path id="Path_212" class="s2" d="m59.1 299.6c0 0-15.7 2.4-15.8 7.9-0.1 5.5 7.1 12.9 21.1 18.3 13.9 5.4-13.8-5.6-13.5-13.6 0.4-7.9 8.2-12.5 8.2-12.6z"/>
			<path id="Path_213" class="s2" d="m491.2 185.6q-0.8 0.1-1.7 0-0.9 0-1.8-0.2-0.8-0.3-1.6-0.6-0.8-0.4-1.6-0.8-0.4-0.3-0.8-0.6-0.4-0.4-0.8-0.7-0.4-0.4-0.7-0.7-0.4-0.4-0.7-0.8l-10.8 5q0 0 0 0.1c20.7 51.4 14.8 95.2 14.8 95.2l23.7-7.3c-0.1-35.3-7.2-64.5-18-88.6z"/>
			<path id="Path_214" class="s2" d="m479.7 172.9q0.2-0.7 0.4-1.4 0.2-0.7 0.5-1.3 0.3-0.7 0.7-1.3 0.4-0.6 0.8-1.2c-36.8-63.5-98.2-83.9-98.2-83.9 43.2 27.9 68.4 61.8 82.9 93.6z"/>
			<path id="Path_215" class="s2" d="m255.7 448.8l-0.3-0.2c-0.3-0.2-31-23.3-35.7-69.7l2.3-0.2c4.3 43.2 31.5 65.6 34.5 67.9l15.7 0.9c-18.9-34.2-20.2-60.6-20.3-60.9l2.3-0.1c0 0.3 1.3 27.1 20.9 61.7l1 1.8z"/>
			<path id="Path_216" class="s2" d="m331.9 453.8l1-1.9c14.7-26.2 20.2-59.4 20.3-59.7l2.2 0.4c-0.1 0.3-5.5 32.3-19.6 58.6l19.1-1.5c2.6-3.8 20.7-31.6 26-58.6l2.1 0.4c-5.7 29.4-26.3 59.5-26.5 59.8l-0.3 0.5z"/>
			<path id="Path_217" class="s2" d="m418.1 435.5l3.3-3.5c24.3-26.4 34.5-49.4 34.6-49.7l2 0.9c-0.1 0.3-9.4 21.1-31.1 46 10.1-5.5 32.9-20.7 48.2-51.6l1.9 1c-20.3 41.2-54 55-54.3 55.1z"/>
			<path id="Path_218" class="s2" d="m257.9 88.8l-45.9-52.3q-0.4 0-0.8 0-0.4 0-0.8-0.1-0.4 0-0.8-0.1-0.4 0-0.8-0.1l47.5 54.1q0.1 0.1 0.1 0.2 0.1 0.1 0.1 0.2 0.1 0.2 0.1 0.3 0 0.1 0 0.3 0 0.4-0.3 0.7-0.2 0.4-0.6 0.5-0.4 0.1-0.8 0-0.4-0.1-0.7-0.4l-50.2-57.2q-1.2-0.4-2.3-0.8-0.3-0.2-0.7-0.3-0.3-0.2-0.6-0.3-0.3-0.2-0.6-0.4-0.4-0.2-0.7-0.4l53.4 60.9c0.7 0.7 1.5 1.1 2.5 1.1 0.9 0.1 1.8-0.3 2.5-0.9 0.7-0.6 1.2-1.5 1.2-2.4 0.1-0.9-0.2-1.9-0.8-2.6z"/>
			<path id="Path_219" class="s2" d="m408.3 86.2l28.4-47.9q-0.4 0.1-0.8 0.3-0.4 0.1-0.8 0.3-0.4 0.1-0.8 0.2-0.4 0.1-0.8 0.2l-27 45.5q0.3 0.1 0.5 0.3 0.2 0.2 0.4 0.4 0.3 0.1 0.5 0.3 0.2 0.2 0.4 0.4z"/>
			<path id="Path_220" class="s2" d="m404.1 83.5l26.1-43.9q-0.3 0-0.7-0.1-0.3 0-0.6 0-0.3 0-0.6-0.1-0.3 0-0.6 0l-25.9 43.5q0.3 0.1 0.6 0.1 0.3 0.1 0.6 0.2 0.3 0 0.5 0.1 0.3 0.1 0.6 0.2z"/>
			<path id="Path_221" class="s2" d="m244.5 75.2c3.9-1.3 7.8-2.6 11.8-3.7q-0.3-0.2-0.5-0.4-0.2-0.2-0.5-0.4-0.2-0.3-0.4-0.5-0.2-0.2-0.4-0.5c-3.9 1.1-7.7 2.4-11.5 3.7z"/>
			<path id="Path_222" class="s2" d="m161.6 128.8q8.1-8.6 17.1-16.2 9.1-7.7 18.9-14.2 9.9-6.6 20.4-11.9 10.5-5.4 21.6-9.5l-1.5-1.8q-11.1 4.2-21.7 9.6-10.5 5.4-20.4 12-9.9 6.6-19 14.3-9 7.7-17.1 16.4 0.2 0.1 0.4 0.3 0.3 0.1 0.5 0.3 0.2 0.2 0.4 0.3 0.2 0.2 0.4 0.4z"/>
			<path id="Path_223" class="s2" d="m519.9 274.8q0.2-12.2-1-24.4-1.1-12.2-3.7-24.1-2.5-12-6.4-23.5-3.9-11.6-9.1-22.7-0.2 0.3-0.3 0.6-0.2 0.3-0.4 0.5-0.2 0.3-0.4 0.6-0.1 0.2-0.3 0.5 4.9 10.6 8.6 21.7 3.7 11.1 6.2 22.5 2.4 11.5 3.6 23.1 1.2 11.7 1 23.4 0 0.4-0.2 0.8-0.1 0.4-0.3 0.8-0.3 0.3-0.6 0.6-0.4 0.3-0.8 0.4c-186.2 68.4-376.9 5.2-406.7-5.6q-0.7-0.2-1.3-0.7-0.5-0.4-1-1.1-0.4-0.6-0.6-1.3-0.2-0.7-0.2-1.4c0.2-11.8 1.4-23.5 3.7-35.1 2.2-11.5 5.4-22.9 9.6-33.9 4.2-11 9.3-21.6 15.3-31.7 6-10.2 12.9-19.7 20.5-28.7q0.1-0.2 0.1-0.4-0.2-0.2-0.4-0.3-0.2-0.2-0.4-0.3-0.2-0.2-0.3-0.4-0.2-0.1-0.4-0.3c-7.9 9.1-14.9 19-21.1 29.4-6.1 10.4-11.4 21.3-15.6 32.6-4.3 11.3-7.5 23-9.7 34.8-2.3 11.9-3.4 24-3.5 36q0 0.8 0.2 1.4 0.2 0.7 0.6 1.3 0.4 0.6 1 1 0.5 0.5 1.2 0.7c26.6 9.6 222.1 75.4 410.8 5.7 0 0.1 0.3 0 0.6-0.1q0.4-0.2 0.7-0.4 0.3-0.3 0.5-0.6 0.2-0.3 0.3-0.7 0.2-0.3 0.2-0.7z"/>
			<path id="Path_224" class="s2" d="m378.2 80.4c0 0-21.4 9.7-68.8 7q4.9 2.6 10.1 4.6 5.1 2 10.4 3.4 5.3 1.5 10.8 2.4 5.4 0.9 10.9 1.1c24.4 1.3 25 12.5 21.8 17.7-3.2 5.2 4.9-1 9.7-15.6 4.7-14.6-4.9-20.6-4.9-20.6z"/>
		</g>
		<text id="a" style="transform: matrix(.991,-0.137,.137,.991,591.697,-25.082)" >
			<tspan x="0" y="0" class="t4">a</tspan><tspan  y="0" class="t4">
</tspan>
		</text>
	</g>
</svg>