<svg xmlns="http://www.w3.org/2000/svg" xmlns:xlink="http://www.w3.org/1999/xlink" width="638.552" height="490.153" viewBox="0 0 638.552 490.153">
  <defs>
    <clipPath id="clip-path">
      <rect id="Rectangle_24" data-name="Rectangle 24" width="638.552" height="490.153" fill="none"/>
    </clipPath>
  </defs>
  <g id="Group_26" data-name="Group 26" clip-path="url(#clip-path)">
    <path id="Path_161" data-name="Path 161" d="M287.089,52.494l-4.148.264-2.187,16.128-11.409,1.639-31.4-48.532-5.245,1.76,31.431,47.631s-43.143,8.911-76.63,34.94l-1.071-.9s1.6-7.278-4.537-9.98-10.777-1.635-10.777-1.635,2.661-5.585-3.443-10.818-12.6-2.959-16.646,1.989-1.651,12.466.91,16.036a124.529,124.529,0,0,0-35.2,30.233l-2.289,1.462L50.671,97.487s-4.03-2.562-3.974-.557,3.127,4.584,3.127,4.584l54.128,45.493.062,1.241s-16.489,28.041-19.028,44.227,1.077,27.206,7.864,28.195S111,212.888,111,212.888l-4.879,20.264a436.711,436.711,0,0,0-72.086,9.73C-3.337,251.377-.971,269.414,4.605,276.313s36.868,31.661,106.763,58.569c0,0,13.347,52.176,55.172,89.024,0,0,42.724,40.9,98.3,53.074s106.345-5.965,117.841-9.54,60.858-24.754,87.528-63.767l5.449-8.866s73.976-.259,112.66-16.719-11.077-45.951-11.077-45.951-37.581-22.21-62.983-31.47l.408-8.245s28.906-23.725,44.9-56.287l.438,1.16,59.851,25.462s-.72,9.968,8.253,9.65,10.129-7.9,8.788-11.893-6.552-9.325-14.682-3.824L565.35,224.5s13.473-26.424,16.437-57.629-2.3-25.965-11.414-21.951S538.6,162.373,518.391,181.2L504.7,194.621l-2.467.917-3.125-3.08S485.625,145.7,429.99,105.5l38-47.727-6.7-1.155-35.7,45.569L402.5,89.072l2.373-16.991Z" fill="#97acad"/>
    <path id="Path_162" data-name="Path 162" d="M185.542,370.849s-.605,78.04,95.692,108.9c0,0-122.932-13.178-166.673-134.862Z" fill="#f0e4cd"/>
    <path id="Path_163" data-name="Path 163" d="M141.445,261.084s-97.508,13.681-74.527,53.591c0,0-34.2-12.332-53.447-30.35S.453,265.447,9.288,254s77.673-22.988,96.833-20.847,35.324,27.932,35.324,27.932" fill="#f0e4cd"/>
    <path id="Path_164" data-name="Path 164" d="M282.941,52.758,281.073,63.12c.006.034.02.065.025.1a4.7,4.7,0,0,1-.238,2.3l.751,2.022c-.758.083-1.509.181-2.262.276a5.142,5.142,0,0,1-3.033,1.422,31.064,31.064,0,0,0-3.325.63c-.525.1-1.057.167-1.584.257-.273.042-.544.1-.815.148-.067.027-.2.076-.463.159a5.977,5.977,0,0,1-1.307.3,78.806,78.806,0,0,0,6.105,9.4,56.35,56.35,0,0,1,5.115,7.169,168.109,168.109,0,0,1,24.415-8.343l3.982-15.5c-12.563-1.874-25.5-10.7-25.5-10.7" fill="#f0e4cd"/>
    <path id="Path_165" data-name="Path 165" d="M264.7,71.546c-.025.01-.047.027-.072.037a41.713,41.713,0,0,1-5.078,1.224c-1.456.358-3.4.892-5.079,1.278a4.1,4.1,0,0,1-2.691-.338c-42.218,12.774-71.721,38.484-72.818,39.449a86.639,86.639,0,0,1,8.414,10.909,42.945,42.945,0,0,1,4.994-3.494,101.416,101.416,0,0,1,13.993-6.431,1.723,1.723,0,0,1,1.644.147,1.818,1.818,0,0,1,1.63-1.456,4.839,4.839,0,0,0,2.659-1.147,2,2,0,0,1,2.752.507,1.791,1.791,0,0,1,.112.266c1.527-.567,3.061-1.136,4.607-1.718,6.944-2.616,15.9-5.376,23.445-4.205A242.912,242.912,0,0,1,276.4,88.853a77.741,77.741,0,0,0-5.735-7.72c-2.35-2.987-3.976-6.373-5.966-9.587" fill="#f0e4cd"/>
    <path id="Path_166" data-name="Path 166" d="M147.955,229.1c-4.136-3.277-5.844-9.452-7.817-14.1-1.69-3.98-3.521-8.109-3.865-12.475-.314-3.977.952-7.85.818-11.834a1.881,1.881,0,0,1,.678-1.557,38.994,38.994,0,0,1,1.6-7.061c.98-3.368,1.634-6.8,3.194-9.9a1.923,1.923,0,0,1,.06-.389c4.015-10.892,11.3-20.939,19.528-29.042,4.494-4.425,10.921-12.478,17.728-13.621-2-1.5-3.358-3.8-4.784-5.928a52.772,52.772,0,0,1-3.656-5.718c-62.87,59.879-65.116,114.347-66.009,119.771s.848,7.636.848,7.636c6.767,6.344,33.409,15.425,33.409,15.425a265.2,265.2,0,0,1,8.273-31.207" fill="#f0e4cd"/>
    <path id="Path_167" data-name="Path 167" d="M486.471,54.266c1.884-11.347-58.45-30.817-134.76-43.487S212.013-2.962,210.129,8.385,268.578,39.2,344.888,51.873s139.7,13.741,141.583,2.393m-140.8-7.087C286.79,37.4,240.24,22.381,241.694,13.626S292.055,5.7,350.931,15.473s105.428,24.8,103.975,33.553-50.362,7.928-109.238-1.847" fill="#f0e4cd"/>
    <path id="Path_168" data-name="Path 168" d="M213.6,15.68q-4.315-3.627-3.79-6.824C212.147-5.2,285.16-.87,352.671,10.34c36.961,6.136,71.362,14.048,96.864,22.275,26.795,8.651,39.851,16.213,38.811,22.491C486.012,69.163,413,64.832,345.488,53.622c-36.961-6.136-71.361-14.048-96.864-22.275C230.918,25.63,219.207,20.39,213.6,15.68M483.249,50.114c-4.647-3.906-15.2-9.189-34.395-15.384-25.4-8.2-59.689-16.079-96.544-22.2C270.314-1.081,213.564-.173,212,9.223c-.617,3.654,8.878,10.829,37.3,20.009,25.4,8.2,59.689,16.079,96.544,22.2,82,13.611,138.746,12.7,140.306,3.307.2-1.188-.67-2.746-2.906-4.625" fill="#2c2d30"/>
    <path id="Path_169" data-name="Path 169" d="M244.407,19.578q-3.453-2.9-3.028-5.481c.828-4.984,12.331-7.321,34.2-6.95,20.686.347,47.788,3.151,76.314,7.888s55.085,10.844,74.773,17.194c20.811,6.722,30.936,12.658,30.115,17.637s-12.336,7.323-34.2,6.951c-20.687-.348-47.791-3.148-76.317-7.886s-55.086-10.844-74.771-17.2c-13.645-4.406-22.7-8.472-27.087-12.156M452.466,46.133c-3.508-2.948-11.616-6.992-26.484-11.79-19.588-6.318-46.029-12.4-74.453-17.117s-55.409-7.511-75.99-7.86c-22.884-.387-31.517,2.379-31.969,5.1s6.822,8.126,28.606,15.155c19.584,6.32,46.026,12.4,74.45,17.121s55.413,7.507,75.993,7.856c22.884.387,31.517-2.378,31.97-5.1.142-.86-.494-2-2.123-3.365" fill="#2c2d30"/>
    <path id="Path_170" data-name="Path 170" d="M405.634,72.12c-.832,5.01-28.82,4.537-62.513-1.057s-60.333-14.19-59.5-19.2,28.82-4.537,62.513,1.057,60.333,14.191,59.5,19.2" fill="#f0e4cd"/>
    <path id="Path_171" data-name="Path 171" d="M283.861,54.79c-2.089-1.756-1.9-2.921-1.8-3.5.192-1.159.779-4.7,20.046-4.373,11.862.2,27.4,1.8,43.742,4.518s31.571,6.214,42.858,9.857c18.336,5.922,17.754,9.458,17.557,10.623s-.78,4.7-20.047,4.374c-11.862-.2-27.4-1.8-43.742-4.518s-31.566-6.216-42.858-9.857c-9.211-2.975-13.648-5.349-15.756-7.121M402.948,70.027c-1.608-1.351-5.5-3.582-14.923-6.625-11.186-3.608-26.293-7.084-42.537-9.78s-31.662-4.29-43.418-4.489c-17.152-.291-17.813,2.492-17.819,2.522s-.284,2.867,16.051,8.139c11.188,3.61,26.295,7.086,42.534,9.784s31.663,4.29,43.419,4.489c17.151.291,17.813-2.492,17.818-2.522,0-.011.053-.528-1.125-1.518" fill="#2c2d30"/>
    <path id="Path_172" data-name="Path 172" d="M603.666,366.357c.924-5.051-.612-10.457-4.559-16.076-11.157-15.851-41.75-33.2-84.847-49.614a11.761,11.761,0,0,1-.725,2c33.075,12.583,58.679,25.693,73.593,38.228A57.975,57.975,0,0,1,597.29,351.56c3.592,5.111,5,9.956,4.189,14.4-3.946,21.6-140.9,43.328-310.373,15.193C121.147,352.927-1.227,288.141,2.292,266.493c.731-4.488,3.709-8.634,8.852-12.326C26.565,243.1,60.212,236.732,105.1,235.1a11.106,11.106,0,0,1,.448-2.468c-45.579,1.63-79.651,8.22-95.7,19.736C4.209,256.41.929,261.044.1,266.135c-.834,5.12,3.619,11.725,12.573,19.25,36.356,30.558,146.835,76.164,278.072,97.956,160.156,26.588,308.314,8.222,312.922-16.984" fill="#2c2d30"/>
    <path id="Path_173" data-name="Path 173" d="M403.667,87.462q-1.218.164-2.441.291c-2.03,2.588-23.242,3.983-61.027-2.288-39.346-6.536-59.046-15.152-58.587-17.924l0-.009c-.659-.372-1.3-.774-1.947-1.166a2.7,2.7,0,0,0-.247.808c-.188,1.145.509,2.321,1.923,3.509,7.812,6.56,37.356,13.462,58.493,16.972,24.963,4.141,62.55,7.6,63.789.145.016-.1.031-.211.041-.338" fill="#2c2d30"/>
    <path id="Path_174" data-name="Path 174" d="M279.421,67.174l2.639-15.886,2.191.367-2.639,15.887Z" fill="#2c2d30"/>
    <path id="Path_175" data-name="Path 175" d="M292.48,75.531l2.638-15.888,2.19.368L294.671,75.9Z" fill="#2c2d30"/>
    <path id="Path_176" data-name="Path 176" d="M324.555,84.385,327.193,68.5l2.19.368-2.637,15.888Z" fill="#2c2d30"/>
    <path id="Path_177" data-name="Path 177" d="M401.435,87.433l2.638-15.888,2.19.368L403.626,87.8Z" fill="#2c2d30"/>
    <path id="Path_178" data-name="Path 178" d="M383.725,90.652l2.639-15.886,2.191.367L385.916,91.02Z" fill="#2c2d30"/>
    <path id="Path_179" data-name="Path 179" d="M356.751,89.113l2.639-15.886,2.191.367-2.639,15.887Z" fill="#2c2d30"/>
    <path id="Path_180" data-name="Path 180" d="M495.79,187.135a9.748,9.748,0,0,1,2.435-.058,207.608,207.608,0,0,0-96.27-99.541,12.739,12.739,0,0,1-1.7,1.627,205.389,205.389,0,0,1,95.533,97.972" fill="#2c2d30"/>
    <path id="Path_181" data-name="Path 181" d="M477.95,395.393a9.78,9.78,0,0,1-2.29-.586c-2.852,3.945-5.813,7.838-8.995,11.624C393.559,493.411,263.32,504.7,176.34,431.592a204.558,204.558,0,0,1-64.017-96.487,9.967,9.967,0,0,1-2.55-.811,206.742,206.742,0,0,0,65.137,99c87.919,73.895,219.562,62.484,293.456-25.433,3.407-4.053,6.552-8.234,9.584-12.467" fill="#2c2d30"/>
    <path id="Path_182" data-name="Path 182" d="M309.608,136.169c-7.943-16.052-24.236-26.753-45.88-30.122-21.5-3.346-45.747.945-68.262,12.081q-4.305,2.128-8.386,4.526c-.063.086-.145.154-.21.238-.4.55,1.477.074,1,.554,1.442-.632-.4.568,1.206.654,2.072-1.172,5.214-2.91,7.375-3.979,22.112-10.935,45.882-15.154,66.938-11.877,12.958,2.019,23.92,6.727,32.2,13.682a47.072,47.072,0,0,1,12.033,15.232c15.783,31.9-8.411,76.176-53.927,98.69-22.115,10.939-45.887,15.157-66.943,11.88-20.91-3.257-36.623-13.522-44.227-28.915s-6.24-34.1,3.863-52.7c7.414-13.643,18.9-25.988,33.122-35.929.615-1.208-.591-.769.376-1.727-.916.406.15-.808-.852-.679-14.884,10.235-26.879,23.071-34.6,37.274-10.46,19.25-11.849,38.693-3.907,54.749a49.375,49.375,0,0,0,12.6,15.951c8.578,7.21,19.911,12.087,33.282,14.171,21.5,3.346,45.747-.945,68.267-12.082,46.616-23.058,71.261-68.669,54.937-101.673" fill="#2c2d30"/>
    <path id="Path_183" data-name="Path 183" d="M307.615,137.158a47.059,47.059,0,0,0-12.033-15.232c-8.275-6.955-19.237-11.663-32.2-13.682-21.055-3.277-44.826.942-66.938,11.877-2.161,1.069-5.3,2.807-7.375,3.979l-.668.424a44.6,44.6,0,0,1,4.916,6.63c2.7,4.026,5.731,7.748,8.691,11.576,5.948,7.693,12.034,15.163,18.187,22.682,3.177,3.882,6.034,8.01,9.086,11.988,2.36,3.077,5.2,5.847,7.445,9a12.568,12.568,0,0,1,2.437,6.91c.411.457.806.929,1.225,1.378,1.919,2.056,1.582,6.571-2.025,6.574a8.382,8.382,0,0,1-4.176-1.12c-5.007,1.759-10.37-1.491-13.621-5.127-2.868-3.209-4.826-7.022-7.24-10.554-2.662-3.9-5.337-7.68-7.682-11.787-4.379-7.669-9.67-14.967-13.451-22.957-3.345-7.07-8.67-12.869-12.407-19.715l-.288.183c-14.224,9.941-25.708,22.286-33.121,35.93-10.1,18.6-11.476,37.311-3.864,52.7s23.317,25.658,44.227,28.915c21.056,3.277,44.828-.941,66.943-11.88,45.516-22.514,69.71-66.787,53.927-98.69" fill="#f0e4cd"/>
    <path id="Path_184" data-name="Path 184" d="M478.551,243.756c.308-7.449-.278-25.676-.879-26.257a8.14,8.14,0,0,1-1.775-2.536c-1.151.276-2.364.4-3.485.679-1.177.294-2.24.657-3.3.886-3.042,2.956-7.966,3.31-11.86,4.635-7.426,2.527-15.062,4.685-22.706,6.487-8.033,1.894-15.373,5.073-23.26,7.3-4.739,1.339-10.767,2.476-14.13-1.639-1.2.321-2.407.641-3.6.966-4.61,1.254-7.261-5.727-2.631-6.986,1.411-.384,2.833-.763,4.256-1.142a6.3,6.3,0,0,1,3.494-3.689,2.916,2.916,0,0,1,2.4-2.567c8.634-2.155,17.5-2.655,25.909-5.718,8.15-2.968,17.255-3.138,25.74-4.693,4.118-.755,9.674-2.959,13.932-2.653a6.571,6.571,0,0,1,1.443.266c.442-.187.89-.357,1.341-.5,1.731-.547,3.54-1.092,5.339-1.525,0-.062,0-.123,0-.185-6.151-19.859-19.16-42.945-32.464-50.757-18.25-10.717-34.009-15.731-49.641-8.635s-26.418,22.452-30.368,43.243c-3.975,20.935-.549,44.834,9.649,67.3,20.989,46.239,66.21,57.1,89.914,30.308,4.328-4.891,15.9-23.738,16.685-42.591" fill="#719094"/>
    <path id="Path_185" data-name="Path 185" d="M104.1,148.585l-58.061-48.8a2.446,2.446,0,0,1,2.747-4.017l67.03,36.669-1.066,1.95L47.719,97.718a.188.188,0,0,0-.29.068c-.114.17-.023.247.039.3l58.06,48.8Z" fill="#2c2d30"/>
    <path id="Path_186" data-name="Path 186" d="M169.145,120.9s-1.646-8.9-6.925-10.681-31.578,6.35-56.59,52.078c0,0,28.513-32.628,35.9-31.495s-23.7,25.431-16.6,47.72c0,0,17.674-35.04,44.211-57.622" fill="#2c2d30"/>
    <path id="Path_187" data-name="Path 187" d="M114.124,203.168s-11.78,7.645-16,8.931-11.277-4.424-3.006-24.91c0,0-2.44,12.11,2.629,12.985s22.151-11.236,22.151-11.236Z" fill="#2c2d30"/>
    <path id="Path_188" data-name="Path 188" d="M109.324,141.206l-43-29.11,39.893,33.531Z" fill="#2c2d30"/>
    <path id="Path_189" data-name="Path 189" d="M152.172,101.438A12.606,12.606,0,1,1,169.931,99.9a12.619,12.619,0,0,1-17.759,1.541m14.792-17.6a10.384,10.384,0,1,0,1.266,14.629,10.394,10.394,0,0,0-1.266-14.629" fill="#2c2d30"/>
    <path id="Path_190" data-name="Path 190" d="M171.071,95.2a22.264,22.264,0,0,1,9.936.694,6.9,6.9,0,0,1,4.61,6.634,16.868,16.868,0,0,1-.511,4.094l2.151.55a18.873,18.873,0,0,0,.581-4.636,9.1,9.1,0,0,0-6.126-8.748,24.375,24.375,0,0,0-10.56-.859Z" fill="#2c2d30"/>
    <path id="Path_191" data-name="Path 191" d="M110.37,211.61a132.439,132.439,0,0,1-13.3,7.484,6.742,6.742,0,0,1-9-2.827c-7.921-15.438,2.086-47.663,23.79-76.626,13.034-17.392,28.3-30.958,42.086-38.4l-1.749-1.66c-13.864,7.62-28.956,21.166-42.112,38.722-22.549,30.085-32.414,62.56-23.991,78.975a8.549,8.549,0,0,0,2.118,2.653,9.081,9.081,0,0,0,9.841,1.152,134.485,134.485,0,0,0,13.536-7.617Z" fill="#2c2d30"/>
    <path id="Path_192" data-name="Path 192" d="M220.154,195.249a10,10,0,0,1-2.031-2.331l-56.368-89.339,1.88-1.186L220,191.733a7.662,7.662,0,1,0,12.538-8.78L168.2,99.861l1.755-1.359L234.3,181.593a9.889,9.889,0,0,1-14.142,13.656" fill="#2c2d30"/>
    <path id="Path_193" data-name="Path 193" d="M490.575,214.3a12.206,12.206,0,1,1,4.545,2.392,12.164,12.164,0,0,1-4.545-2.392m14.243-16.943a9.964,9.964,0,1,0,2.264,2.742,9.973,9.973,0,0,0-2.264-2.742" fill="#2c2d30"/>
    <path id="Path_194" data-name="Path 194" d="M401.311,234.564a9.885,9.885,0,0,1,4.363-17.249l81.9-15.613.415,2.184-81.88,15.61a7.661,7.661,0,1,0,3.82,14.82l78.826-25.262.679,2.112-78.839,25.269a9.88,9.88,0,0,1-8.055-.995,9.72,9.72,0,0,1-1.225-.876" fill="#2c2d30"/>
    <path id="Path_195" data-name="Path 195" d="M622.133,271.314a10.074,10.074,0,0,1-1.889-2.116,9.906,9.906,0,1,1,1.889,2.116M633.545,257.7a7.769,7.769,0,1,0,2.633,7.473,7.756,7.756,0,0,0-2.633-7.473" fill="#2c2d30"/>
    <path id="Path_196" data-name="Path 196" d="M564.65,225.49l57.683,33.072,1.1-1.928-57.647-33.05a12.567,12.567,0,0,1-1.141,1.906" fill="#2c2d30"/>
    <path id="Path_197" data-name="Path 197" d="M620.295,261.719l-60.728-25.584a12.916,12.916,0,0,1-1.51,1.75c.044.02.078.057.123.076l61.249,25.807Z" fill="#2c2d30"/>
    <path id="Path_198" data-name="Path 198" d="M261.509,113.867s41.978-.511,45.312,40.986-59.158,84.581-90.833,89.08-40.414-17.522-33.448-28.112-8.829-20-18.7-6.527,11.883,19.934,2.066,18.318S148.931,216.6,155.073,203.86s20.3-19.218,37.612-10.469c0,0,2.247-4.4,11.387-2.038s11.937-1.048,11.937-1.048-.138-2.694,2.011.368,4.862,6.947,8.914,5.724,10.4-5.24,7.764-11.791-1.188-9.142,3.408-7.273,5.278.626,2.5-6.426-2.538-17.913,10.9-25.484,15-6.622,8.913-14.274-3.731-17.611,1.092-17.282" fill="#2c2d30"/>
    <path id="Path_199" data-name="Path 199" d="M405.615,148.525s-43.512,14.217-38.6,73.121,59.078,72.146,56.51,65.273,17.807-14.056,4.783-25-24.927-21.213-18.761-26.693c0,0-11.671-.228-10.7-8.718s10.649-9.412,10.649-9.412,4.238-6.789-5.538-11.56-3.233-13.419,3.85-19.256,11.929-12.466,4.356-16.836-8.342-5.378-5.2-9.991-1.344-10.926-1.344-10.926" fill="#2c2d30"/>
    <path id="Path_200" data-name="Path 200" d="M477.81,215.158c-.826-.811-1.228-.323-1.718-1.212-.076.7-.436.06-.647.737,7.659,39.742-7.515,76.511-35.705,83.905-29.917,7.846-63.316-20.31-74.444-62.768s4.148-83.373,34.066-91.219c14.926-3.914,30.715,1.131,44.177,12.447,12.885,10.829,23.577,27.445,29.384,47.395.735.75,1.4.717,1.854,1.53a5.015,5.015,0,0,1,.444-1.6c-12.076-42.255-45.916-69.92-76.422-61.923-31.1,8.158-47.1,50.294-35.653,93.931,5.691,21.711,17.114,39.757,30.987,51.418,14.017,11.78,30.54,17.036,46.168,12.939,29.11-7.637,44.976-45.041,37.509-85.581" fill="#2c2d30"/>
    <path id="Path_201" data-name="Path 201" d="M493.879,178.13s6.722,11.68,7.241,16.456l-2.538-.211s-1.872-5.4-3.563-8.889a14.264,14.264,0,0,1-1.14-7.356" fill="#2c2d30"/>
    <path id="Path_202" data-name="Path 202" d="M584.335,148.766a7.3,7.3,0,0,0-3.392-6.468,7.2,7.2,0,0,0-7.177-.381c-15.825,7.967-46.039,25.42-70.606,52.8l1.656,1.482c24.32-27.111,54.263-44.406,69.947-52.3a5,5,0,0,1,4.981.27,5.08,5.08,0,0,1,2.37,4.52c-2.982,85.3-57.949,134.511-67.546,142.463a15.694,15.694,0,0,1-.309,2.628l.222.293c.665-.5,66.563-51.208,69.854-145.308" fill="#2c2d30"/>
    <path id="Path_203" data-name="Path 203" d="M505.528,196.505s26.209-25.27,53.652-39.535a3.4,3.4,0,0,1,5.027,3.076c-.518,16.448-5.7,66.887-47.4,117.066l-4.938-43.727L506.544,212.5s7.058-9.378-1.016-15.991" fill="#2c2d30"/>
    <path id="Path_204" data-name="Path 204" d="M116.968,348.476s177.384,79.453,349.7,57.955l10.6-11.156s-97.385,1.977-180.212-10.908l-77.425-16.508s-55.189-13.043-77.1-22-31.162-10.982-31.162-10.982,1.156,8.564,5.6,13.6" fill="#2c2d30"/>
    <path id="Path_205" data-name="Path 205" d="M256.723,475.466s3.745,11.06,13.083,14.193,19.659-9.671,19.659-9.671Z" fill="#2c2d30"/>
    <path id="Path_206" data-name="Path 206" d="M173.2,293.178l15.357-11.811,2.995.48-14.342,11.047c14.458,7.9,133.15,69.7,255.074,42.284L427.845,320.3l2.531.432,4.7,16.092-1.149.265C303.2,367.078,175.908,294.74,174.636,294.007Z" fill="#2c2d30"/>
    <path id="Path_207" data-name="Path 207" d="M196.323,304l-1.7-1.429L207,287.838l2.718.22Z" fill="#2c2d30"/>
    <rect id="Rectangle_23" data-name="Rectangle 23" width="25.961" height="2.221" transform="matrix(0.143, -0.99, 0.99, 0.143, 303.331, 337.522)" fill="#2c2d30"/>
    <path id="Path_208" data-name="Path 208" d="M414.046,339.951l-6.225-18.929,2.389.151,5.947,18.081Z" fill="#2c2d30"/>
    <path id="Path_209" data-name="Path 209" d="M514.049,308.515s51.071,18.43,70.459,36.2,12.886,24.375-4.49,30.086-71.939,15.959-121.284,13.665c0,0,48.59-3.724,67.86-17.727s-37.675-55.78-37.675-55.78Z" fill="#2c2d30"/>
    <path id="Path_210" data-name="Path 210" d="M103.79,238.543a164.814,164.814,0,0,0-41.244,4.724c-20.786,5.385,1.117,5.655-14.05,10.32s-25.375,5.156-29.536,13.992,4.009,18.969,25.305,28.161.674-.884-7.965-13.224-9.626-19.336,17.394-20.207,44.355-5.527,27.736-10.788,22.914-6.287,22.914-6.287Z" fill="#2c2d30"/>
    <path id="Path_211" data-name="Path 211" d="M110.462,247.625s-14.317.022-22.319,1.737,9.313.573,8.078,6.79-17.456,7.82-25.052,8.873,12.652,1.564,23.757-1.073,16.251-4.661,10.439-9.184,17.225-.424,17.225-.424Z" fill="#2c2d30"/>
    <path id="Path_212" data-name="Path 212" d="M54.412,267.266s-15.829.118-16.7,5.551S42.881,286.6,55.935,293.94s-12.875-7.556-11.384-15.373,9.861-11.3,9.861-11.3" fill="#2c2d30"/>
    <path id="Path_213" data-name="Path 213" d="M498.462,216.2a10.556,10.556,0,0,1-6.4-2.631,11.246,11.246,0,0,1-2.613-3.2L478.034,213.8c-.009.038-.005.077-.015.115,13.186,53.886,1.068,96.37,1.068,96.37l24.447-3.893c4.953-34.935,2.1-64.824-5.072-90.19" fill="#2c2d30"/>
    <path id="Path_214" data-name="Path 214" d="M488.893,201.912a12.682,12.682,0,0,1,3.1-4.753c-27.357-68.177-85.224-97.049-85.224-97.049,38.79,33.707,58.834,70.848,68.717,104.426Z" fill="#2c2d30"/>
    <path id="Path_215" data-name="Path 215" d="M227.684,443.009l-.237-.233c-.273-.269-27.318-27.484-25.321-74.128l2.22.1c-1.857,43.412,21.861,69.52,24.437,72.218l15.463,3.116c-13.843-36.558-11.377-62.918-11.349-63.184l2.209.225c-.026.267-2.51,27.042,11.938,64.041l.738,1.9Z" fill="#2c2d30"/>
    <path id="Path_216" data-name="Path 216" d="M302.381,458.79l1.269-1.654c18.289-23.865,28.536-55.894,28.639-56.216l2.118.67c-.1.318-10,31.264-27.746,55.237l19.153,1.19c3.043-3.377,24.948-28.255,34.033-54.289l2.1.733c-9.881,28.312-34.605,55.186-34.854,55.452l-.359.39Z" fill="#2c2d30"/>
    <path id="Path_217" data-name="Path 217" d="M390.39,453.082l3.771-3.077c27.739-22.638,41.138-43.941,41.272-44.158l1.888,1.173c-.127.205-12.281,19.545-37.335,41.011,10.742-4.009,35.478-15.777,55.013-44.183l1.834,1.258c-26.081,37.92-61.359,46.756-61.711,46.841Z" fill="#2c2d30"/>
    <path id="Path_218" data-name="Path 218" d="M281.383,87.024,243.41,28.677a18.662,18.662,0,0,1-3.152-.77L279.52,88.236a1.376,1.376,0,0,1,.2,1.036,1.377,1.377,0,0,1-2.5.466L235.7,25.95q-1.074-.557-2.128-1.139a13.828,13.828,0,0,1-2.367-1.694L275.351,90.95a3.6,3.6,0,0,0,6.032-3.926" fill="#2c2d30"/>
    <path id="Path_219" data-name="Path 219" d="M430.537,105.955l35.008-43.4a15.972,15.972,0,0,1-3.285.533L429.049,104.26a9.4,9.4,0,0,1,1.488,1.695" fill="#2c2d30"/>
    <path id="Path_220" data-name="Path 220" d="M426.8,102.664l32.085-39.778a17.19,17.19,0,0,1-2.421-.538l-31.8,39.421a12.131,12.131,0,0,1,2.133.9" fill="#2c2d30"/>
    <path id="Path_221" data-name="Path 221" d="M270.041,71.661c4.051-.773,8.116-1.471,12.2-2a10.162,10.162,0,0,1-1.545-2.033c-3.984.542-7.946,1.24-11.9,2.011Z" fill="#2c2d30"/>
    <path id="Path_222" data-name="Path 222" d="M180.353,112.851a205.159,205.159,0,0,1,84.58-40.173l-1.23-2a207.394,207.394,0,0,0-84.909,40.571,12.5,12.5,0,0,1,1.559,1.6" fill="#2c2d30"/>
    <path id="Path_223" data-name="Path 223" d="M514.049,308.515a213.148,213.148,0,0,0-6.47-96.571,12.836,12.836,0,0,1-1.7,1.957,207.806,207.806,0,0,1,6.275,92.518,2.88,2.88,0,0,1-2.24,2.351C315.8,349.783,136.138,259.976,108.2,245.081a4.73,4.73,0,0,1-2.448-4.926,204.846,204.846,0,0,1,67.115-121.021c.063-.122.109-.269.167-.4a11.823,11.823,0,0,1-1.334-1.525,206.845,206.845,0,0,0-68.407,124.365,4.594,4.594,0,0,0,2.39,4.779c24.967,13.257,209.065,106.4,405.806,64.351-.008.047.234.017.6-.053a2.778,2.778,0,0,0,1.963-2.139" fill="#2c2d30"/>
    <path id="Path_224" data-name="Path 224" d="M401.605,95.889S379.074,102.41,332.567,93a103.107,103.107,0,0,0,40.065,17.439c23.984,4.766,22.969,15.9,19.042,20.573s4.972-.3,11.8-14.036-1.866-21.087-1.866-21.087" fill="#2c2d30"/>
  </g>
</svg>
