<svg id="Group_630" data-name="Group 630" xmlns="http://www.w3.org/2000/svg" xmlns:xlink="http://www.w3.org/1999/xlink" width="562.829" height="537.817" viewBox="0 0 562.829 537.817">
  <defs>
    <clipPath id="clip-path">
      <rect id="Rectangle_527" data-name="Rectangle 527" width="562.829" height="537.817" fill="none"/>
    </clipPath>
  </defs>
  <g id="Group_629" data-name="Group 629" clip-path="url(#clip-path)">
    <path id="Path_4768" data-name="Path 4768" d="M83.526,524.232c0,4.223-3.7,7.251-9.829,9.285a67.255,67.255,0,0,1-13.65,2.685,164.687,164.687,0,0,1-17.909.864c-15.554,0-29.109-1.562-36.171-5.548-3.324-1.857-5.216-4.27-5.216-7.286,0-9.463,18.535-21.445,41.387-21.445.686,0,1.384.012,2.059.035,21.894.687,39.329,12.231,39.329,21.41" fill="#97acad"/>
    <path id="Path_4769" data-name="Path 4769" d="M73.69,533.518A67.3,67.3,0,0,1,60.04,536.2a15.155,15.155,0,0,0-1.952-6.707c-3.548-5.145-20.143-12.751-20.143-12.751l5.393-2.685c20.854,6.3,28.27,13.591,30.352,19.458" fill="#2c2d30"/>
    <path id="Path_4770" data-name="Path 4770" d="M45.2,503.237S8.516,514.32,6.718,526.255c-.284,1.916-.544,3.667-.757,5.264-3.312-1.858-5.2-4.271-5.2-7.287,0-9.462,18.535-21.444,41.387-21.444q1.029,0,2.058.035c.639.272.994.414.994.414" fill="#f0e4cd"/>
    <path id="Path_4771" data-name="Path 4771" d="M42.142,537.817C22.917,537.817,0,535.462,0,524.238c0-10.059,18.8-22.207,42.142-22.207s42.142,12.148,42.142,22.207c0,11.224-22.917,13.579-42.142,13.579m0-34.273c-21.88,0-40.628,11.379-40.628,20.694,0,7.781,14.429,12.066,40.628,12.066s40.627-4.285,40.627-12.066c0-9.315-18.747-20.694-40.627-20.694" fill="#2c2d30"/>
    <path id="Path_4772" data-name="Path 4772" d="M81.846,523.055a13.828,13.828,0,0,1-3.953,3.253,29.771,29.771,0,0,1-4.721,2.073,62.646,62.646,0,0,1-10.019,2.345,145.175,145.175,0,0,1-20.473,1.416,151.117,151.117,0,0,1-20.481-1.27,68.4,68.4,0,0,1-10.053-2.178c-3.24-1.06-6.539-2.413-8.975-4.856a18.451,18.451,0,0,0,4.358,2.587,33.828,33.828,0,0,0,4.822,1.556,68.827,68.827,0,0,0,10,1.736,172.77,172.77,0,0,0,20.329.913,164.755,164.755,0,0,0,20.317-1.053,63.062,63.062,0,0,0,9.958-1.9,29.246,29.246,0,0,0,4.757-1.723,15.077,15.077,0,0,0,4.138-2.9" fill="#2c2d30"/>
    <path id="Path_4773" data-name="Path 4773" d="M172.727,314.791H131.268l-5.086,6.754-12.124,16.1L51.9,420.206l-16.465,91.15a5.153,5.153,0,0,0,5.075,6.079,5.1,5.1,0,0,0,2.992-.958,5.152,5.152,0,0,0,1.881-2.507l28.991-83.781,101.914-81.84Zm-129.734,188,13.661-75.619L67.6,431.668Zm26.874-76.577-11.521-4.731,25.526-33.9L99.319,402.57Zm51-40.95-16.9,13.567L87.456,382.816l32.894-43.694.521-.7Zm5.914-4.755V330.57l3.8-5.05,3.631-4.814H167.4l2.661,25.052Z" fill="#f0e4cd"/>
    <path id="Path_4774" data-name="Path 4774" d="M173.155,318.835q-2.781,2.448-5.411,5.08l2.321,21.844-43.28,34.751V361.392q-2.943,2.139-5.915,4.244v19.63l-16.9,13.566L91.335,386.58l-4.91,3.481L99.319,402.57,69.866,426.216l-3.733-1.533q-1.515,2.569-3.042,5.135l4.5,1.85-24.6,71.124,6.693-37.043c-2.88,5.075-5.849,10.1-8.752,15.163l-5.5,30.445a5.153,5.153,0,0,0,5.074,6.079,5.1,5.1,0,0,0,2.993-.958,5.158,5.158,0,0,0,1.881-2.507L74.373,430.19l101.913-81.841Z" fill="#97acad"/>
    <path id="Path_4775" data-name="Path 4775" d="M130.582,325.52l-3.8,5.051v10.042c-2.058-.461-4.045-.934-5.914-1.36v-.828l-.521.7c-2.342-.544-4.471-1.053-6.292-1.479l12.124-16.1c1.431,1.265,2.91,2.6,4.4,3.974" fill="#2c2d30"/>
    <path id="Path_4776" data-name="Path 4776" d="M40.511,518.187a5.909,5.909,0,0,1-5.818-6.972l16.5-91.326.108-.143,79.6-105.715H173.41l3.676,34.644L75.02,430.638,46.1,514.212a5.907,5.907,0,0,1-2.16,2.879,5.825,5.825,0,0,1-3.43,1.1m12.1-97.674L36.182,511.485a4.4,4.4,0,0,0,4.329,5.189,4.331,4.331,0,0,0,2.55-.814,4.4,4.4,0,0,0,1.61-2.147l29.061-83.982,101.761-81.719-3.445-32.468h-40.4Zm-9.236,81.7a.882.882,0,0,1-.226-.03.865.865,0,0,1-.637-1l13.562-75.072,12.47,5.122L44.2,501.625a.867.867,0,0,1-.82.589m.627-.763v0m13.23-73.227-11.754,65.06,21.167-61.192ZM70,427.08l-12.841-5.274,26.632-35.369,16.678,16.182Zm-10.452-5.93,10.2,4.19L98.18,402.513,83.964,388.719Zm44.38-21.314L86.452,382.891l35.179-46.735v49.466Zm-15.458-17.1,15.553,15.086,16.1-12.922V340.684Zm37.566-.649V330.313l7.807-10.368h34.249l2.777,26.14Zm1.514-51.265v48.107l41.726-33.5-2.546-23.964H134.593Z" fill="#2c2d30"/>
    <path id="Path_4777" data-name="Path 4777" d="M43.5,501.8a.917.917,0,0,1-.236-.031.9.9,0,0,1-.663-1.038l13.481-74.619,12.469,5.122-24.2,69.954a.9.9,0,0,1-.853.612m13.739-73.576L45.481,493.286l21.168-61.2Z" fill="#2c2d30"/>
    <path id="Path_4778" data-name="Path 4778" d="M70,427.079l-12.841-5.273,26.632-35.37,16.679,16.182ZM59.543,421.15l10.2,4.19,28.435-22.828L83.963,388.719Z" fill="#2c2d30"/>
    <path id="Path_4779" data-name="Path 4779" d="M103.923,399.836,86.452,382.89l35.179-46.735v49.467Zm-15.458-17.1,15.553,15.086,16.1-12.923V340.683Z" fill="#2c2d30"/>
    <path id="Path_4780" data-name="Path 4780" d="M43.826,502.7l-.775-.124a.831.831,0,0,1-.613-.961l13.641-75.5,12.469,5.122Zm-1.2-1.158,0,0Zm14.611-73.319L45.483,493.281l21.166-61.19Z" fill="#2c2d30"/>
    <path id="Path_4781" data-name="Path 4781" d="M70,427.079l-12.841-5.273,26.632-35.37,16.679,16.182ZM59.543,421.15l10.2,4.19,28.435-22.828L83.963,388.719Z" fill="#2c2d30"/>
    <path id="Path_4782" data-name="Path 4782" d="M103.923,399.836,86.452,382.89l35.179-46.735v49.467Zm-15.458-17.1,15.553,15.086,16.1-12.923V340.683Z" fill="#2c2d30"/>
    <path id="Path_4783" data-name="Path 4783" d="M562.073,524.232c0,3.016-1.893,5.429-5.2,7.286a24.119,24.119,0,0,1-2.65,1.266,55.916,55.916,0,0,1-13.485,3.17,159.413,159.413,0,0,1-20.049,1.112c-22.852,0-41.387-3.36-41.387-12.834,0-9.179,17.435-20.723,39.329-21.41q1.029-.034,2.058-.035c22.853,0,41.388,11.982,41.388,21.445" fill="#97acad"/>
    <path id="Path_4784" data-name="Path 4784" d="M554.219,532.784a55.916,55.916,0,0,1-13.485,3.17c-1.573-13.378-20.415-18.523-20.415-18.523l5.819-5.063c24.142,7.275,28.2,15.531,28.081,20.416" fill="#2c2d30"/>
    <path id="Path_4785" data-name="Path 4785" d="M523.737,503.237s-36.68,11.083-38.478,23.018c-.284,1.916-.544,3.667-.757,5.264-3.312-1.858-5.2-4.271-5.2-7.287,0-9.462,18.535-21.444,41.387-21.444q1.029,0,2.058.035c.639.272.994.414.994.414" fill="#f0e4cd"/>
    <path id="Path_4786" data-name="Path 4786" d="M520.688,537.817c-19.225,0-42.142-2.355-42.142-13.579,0-10.059,18.8-22.207,42.142-22.207s42.142,12.148,42.142,22.207c0,11.224-22.917,13.579-42.142,13.579m0-34.273c-21.88,0-40.628,11.379-40.628,20.694,0,7.781,14.429,12.066,40.628,12.066s40.627-4.285,40.627-12.066c0-9.315-18.747-20.694-40.627-20.694" fill="#2c2d30"/>
    <path id="Path_4787" data-name="Path 4787" d="M480.984,523.055a15.092,15.092,0,0,0,4.138,2.9,29.245,29.245,0,0,0,4.757,1.723,63.063,63.063,0,0,0,9.958,1.9,164.755,164.755,0,0,0,20.317,1.053,172.77,172.77,0,0,0,20.329-.913,68.827,68.827,0,0,0,10-1.736,33.828,33.828,0,0,0,4.822-1.556,18.451,18.451,0,0,0,4.358-2.587c-2.436,2.443-5.735,3.8-8.975,4.856a68.4,68.4,0,0,1-10.053,2.178,151.107,151.107,0,0,1-20.481,1.27,145.175,145.175,0,0,1-20.473-1.416,62.647,62.647,0,0,1-10.019-2.345,29.77,29.77,0,0,1-4.721-2.073,13.828,13.828,0,0,1-3.953-3.253" fill="#2c2d30"/>
    <path id="Path_4788" data-name="Path 4788" d="M527.389,511.356l-16.465-91.15-54.316-72.141-25.052-33.273H390.1l-3.56,33.557,9.167,7.369,92.746,74.471,28.992,83.781a5.158,5.158,0,0,0,9.947-2.614M436.039,380.51l-31.7-25.455-11.58-9.3,2.661-25.052h33.19l7.429,9.864Zm5.914,4.755v-46.84l8.185,10.87,25.23,33.521-16.512,16.016Zm21.551,17.3,15.448-14.986,25.526,33.9-11.521,4.731Zm31.724,29.1,10.941-4.495,13.662,75.619Z" fill="#97acad"/>
    <path id="Path_4789" data-name="Path 4789" d="M456.608,348.065c-2.129.426-4.294.84-6.47,1.23l-8.185-10.87v12.254c-1.976.308-3.951.6-5.915.876V330.571l-7.428-9.865H395.42l-2.662,25.053,11.58,9.3c-3.146.26-6.056.485-8.634.662l-9.167-7.369,3.56-33.557h41.459Z" fill="#2c2d30"/>
    <path id="Path_4790" data-name="Path 4790" d="M522.318,518.187a5.922,5.922,0,0,1-5.587-3.97l-28.922-83.578L385.743,348.675l3.676-34.644h42.517l79.7,105.858.032.178,16.465,91.15a5.91,5.91,0,0,1-5.819,6.97M387.336,348.012,489.1,429.731l29.064,83.987a4.374,4.374,0,0,0,1.6,2.137,4.33,4.33,0,0,0,2.555.819,4.4,4.4,0,0,0,4.33-5.187l-16.434-90.974L431.181,315.544h-40.4Zm132.115,154.2a.864.864,0,0,1-.82-.591l-24.35-70.388,12.47-5.122,13.563,75.072a.877.877,0,0,1-.863,1.029M496.18,432.092l21.168,61.192-11.755-65.06Zm-3.345-5.012-30.47-24.461,16.679-16.182,26.631,35.369ZM464.65,402.513l28.435,22.827,10.2-4.19-24.42-32.431Zm-5.744-2.677L441.2,385.622V336.156l35.179,46.735ZM442.713,384.9l16.1,12.922,15.553-15.086-31.651-42.049Zm-5.914-2.813-44.834-36,2.777-26.14h34.249l7.808,10.368Zm-43.241-36.662,41.726,33.5V330.819l-7.048-9.361H396.1Z" fill="#2c2d30"/>
    <path id="Path_4791" data-name="Path 4791" d="M519.332,501.8a.9.9,0,0,1-.852-.612l-24.2-69.954,12.47-5.122,13.48,74.617a.9.9,0,0,1-.664,1.04.909.909,0,0,1-.235.031M496.18,432.091l21.168,61.192-11.755-65.059Z" fill="#2c2d30"/>
    <path id="Path_4792" data-name="Path 4792" d="M492.835,427.079l-30.47-24.461,16.68-16.182,26.63,35.37ZM464.65,402.512l28.436,22.827,10.2-4.189-24.419-32.431Z" fill="#2c2d30"/>
    <path id="Path_4793" data-name="Path 4793" d="M458.906,399.836,441.2,385.622V336.156l35.179,46.735ZM442.713,384.9l16.1,12.922,15.553-15.085-31.651-42.05Z" fill="#2c2d30"/>
    <path id="Path_4794" data-name="Path 4794" d="M519.562,502.6a.83.83,0,0,1-.787-.564l-24.494-70.806,12.47-5.122,13.766,76.2-.739.269a.8.8,0,0,1-.216.028M496.18,432.091l21.168,61.193-11.755-65.06Z" fill="#2c2d30"/>
    <path id="Path_4795" data-name="Path 4795" d="M492.835,427.079l-30.47-24.461,16.68-16.182,26.63,35.37ZM464.65,402.512l28.436,22.827,10.2-4.189-24.419-32.431Z" fill="#2c2d30"/>
    <path id="Path_4796" data-name="Path 4796" d="M458.906,399.836,441.2,385.622V336.156l35.179,46.735ZM442.713,384.9l16.1,12.922,15.553-15.085-31.651-42.05Z" fill="#2c2d30"/>
    <path id="Path_4797" data-name="Path 4797" d="M229.929,99.569l-3.08.729.423,12.388-8.355,2.69L189.134,82.961l-3.712,1.992,29.694,31.736s-31.25,12.212-53.057,36.04l-.92-.539s.27-5.669-4.683-6.912a14.181,14.181,0,0,0-8.3.152s1.283-4.533-3.969-7.681-9.843-.608-12.243,3.624.355,9.571,2.736,11.923a94.83,94.83,0,0,0-22.56,27.2l-1.531,1.391L58.2,163.61s-3.353-1.408-3.054.09,2.935,3.041,2.935,3.041l46.458,27.225.207.924s-8.79,23.162-8.625,35.638,4.291,20.287,9.513,20.16,12.629-8.165,12.629-8.165l-1.069,15.838a332.6,332.6,0,0,0-52.872,16.532c-26.969,11.161-22.884,24.4-17.814,28.864s31.731,19.05,87.648,30.3c0,0,16.7,37.463,52.816,59.772,0,0,37.309,25.239,80.591,27.261S346.637,403,354.81,398.848s42.52-26.374,57.548-59.076l2.956-7.354s55.5-9.663,82.438-26.972-14.2-33.079-14.2-33.079S452.5,260.5,432.242,256.8l-.749-6.242s18.664-21.511,26.5-48.005l.477.816,48.192,11.454s.734,7.575,7.431,6.188,6.592-7.229,5.074-10.053-6.113-6.163-11.512-.992l-46.81-16.89s6.732-21.562,4.963-45.369-5.054-19.2-11.378-15.018-21.622,17.174-34.382,33.894l-8.563,11.828-1.734,1.005-2.74-1.913s-16.106-33.38-63.019-56.439l22.417-40.694-5.181-.009L340.26,119.145l-19.006-6.889L320.861,99.2Z" fill="#97acad"/>
    <path id="Path_4798" data-name="Path 4798" d="M194.445,351.569s9.535,58.665,85.78,69.509c0,0-93.977,5.843-142.391-79.911Z" fill="#f0e4cd"/>
    <path id="Path_4799" data-name="Path 4799" d="M147.289,274.809S75.837,297.562,98.2,324.582c0,0-27.254-4.88-44.009-15.944S42,296.132,47.167,286.407s55.369-27.2,70.027-28.046,30.1,16.448,30.1,16.448" fill="#f0e4cd"/>
    <path id="Path_4800" data-name="Path 4800" d="M226.85,100.3l-.076,8.018c.009.025.023.046.032.071a3.58,3.58,0,0,1,.115,1.758l.823,1.421c-.559.16-1.11.33-1.663.5a3.924,3.924,0,0,1-2.1,1.456,23.441,23.441,0,0,0-2.416.9c-.381.144-.771.26-1.156.4-.2.067-.4.141-.593.216-.046.029-.144.083-.327.179a4.509,4.509,0,0,1-.943.39,59.877,59.877,0,0,0,5.786,6.274A43.1,43.1,0,0,1,229.1,126.6a128.043,128.043,0,0,1,17.261-9.388l1.006-12.145c-9.672.2-20.512-4.768-20.512-4.768" fill="#f0e4cd"/>
    <path id="Path_4801" data-name="Path 4801" d="M215.559,116.739c-.018.011-.032.027-.049.037a31.818,31.818,0,0,1-3.656,1.569c-1.047.455-2.437,1.1-3.65,1.609a3.112,3.112,0,0,1-2.062.091,163.826,163.826,0,0,0-49.618,38.937,66.08,66.08,0,0,1,7.713,7.113,32.711,32.711,0,0,1,3.3-3.263,77.163,77.163,0,0,1,9.682-6.618,1.309,1.309,0,0,1,1.253-.1,1.385,1.385,0,0,1,1.037-1.3,3.673,3.673,0,0,0,1.849-1.2,1.519,1.519,0,0,1,2.131.029,1.309,1.309,0,0,1,.118.185q1.611-.932,3.239-1.88c4.878-2.852,11.249-6.071,17.063-6.157a185.02,185.02,0,0,1,22.648-17.553,59.5,59.5,0,0,0-5.294-5.062,75.887,75.887,0,0,1-5.706-6.433" fill="#f0e4cd"/>
    <path id="Path_4802" data-name="Path 4802" d="M148.082,249.96c-3.524-1.931-5.6-6.348-7.674-9.585-1.777-2.771-3.68-5.637-4.5-8.871-.744-2.945-.29-6.015-.9-8.989a1.435,1.435,0,0,1,.31-1.255,29.657,29.657,0,0,1,.294-5.5,43.576,43.576,0,0,1,1.13-7.841,1.505,1.505,0,0,1,0-.3c1.619-8.69,5.8-17.165,10.943-24.3,2.807-3.9,6.6-10.765,11.565-12.5a17.544,17.544,0,0,1-4.35-3.838,40.09,40.09,0,0,1-3.477-3.825c-39.534,53-34.248,94.18-34.224,98.366s1.614,5.625,1.614,5.625c5.892,3.9,27.056,7.3,27.056,7.3a201.937,201.937,0,0,1,2.216-24.487" fill="#f0e4cd"/>
    <path id="Path_4803" data-name="Path 4803" d="M379.84,75.378c-.038-8.76-47.826-15.654-106.736-15.4s-106.636,7.567-106.6,16.327,47.825,15.654,106.736,15.4,106.636-7.566,106.6-16.327m-106.614,12.7c-45.453.2-82.323-5.121-82.352-11.88s36.793-12.4,82.245-12.6,82.324,5.121,82.353,11.88-36.793,12.4-82.246,12.6" fill="#f0e4cd"/>
    <path id="Path_4804" data-name="Path 4804" d="M170.049,81.338q-3.7-2.17-3.719-4.638c-.047-10.852,55.321-16.946,107.439-17.172,28.534-.125,55.372,1.412,75.571,4.324,21.223,3.064,31.993,7.07,32.016,11.917.046,10.851-55.321,16.945-107.44,17.172-28.533.124-55.371-1.412-75.57-4.324-14.025-2.025-23.487-4.46-28.3-7.279M376.89,72.673C372.9,70.336,364.3,67.72,349.1,65.526c-20.121-2.9-46.869-4.43-75.321-4.308-63.3.278-105.788,8.224-105.756,15.477,0,2.822,8.051,6.994,30.564,10.247,20.121,2.9,46.87,4.431,75.321,4.308,63.3-.277,105.788-8.223,105.757-15.477,0-.917-.855-1.976-2.774-3.1" fill="#2c2d30"/>
    <path id="Path_4805" data-name="Path 4805" d="M193.673,80.322q-2.964-1.737-2.975-3.727c-.016-3.848,8.321-7.075,24.784-9.6,15.574-2.387,36.28-3.751,58.3-3.846s42.742,1.089,58.336,3.337c16.484,2.382,24.845,5.543,24.866,9.385s-8.324,7.077-24.784,9.6c-15.574,2.387-36.281,3.754-58.3,3.849s-42.743-1.09-58.335-3.34c-10.807-1.561-18.129-3.453-21.891-5.658m159.6-6.7c-3.011-1.764-9.616-3.762-21.392-5.461-15.514-2.236-36.142-3.415-58.085-3.32s-42.56,1.454-58.055,3.826c-17.229,2.639-23.356,5.82-23.348,7.92s6.162,5.227,23.416,7.716c15.511,2.238,36.14,3.418,58.084,3.323s42.561-1.457,58.056-3.829c17.229-2.639,23.357-5.82,23.348-7.92,0-.665-.626-1.435-2.024-2.255" fill="#2c2d30"/>
    <path id="Path_4806" data-name="Path 4806" d="M321.438,99.129c.017,3.868-21.055,7.1-47.066,7.209s-47.111-2.931-47.127-6.8,21.055-7.1,47.066-7.209,47.11,2.931,47.127,6.8" fill="#f0e4cd"/>
    <path id="Path_4807" data-name="Path 4807" d="M227.8,101.707c-1.793-1.051-1.8-1.951-1.8-2.4-.005-.895-.017-3.63,14.489-5.85a238.983,238.983,0,0,1,33.418-2.207,239.124,239.124,0,0,1,33.436,1.914c14.524,2.1,14.54,4.827,14.54,5.728s.017,3.629-14.489,5.849a239.121,239.121,0,0,1-33.418,2.208,239.976,239.976,0,0,1-33.437-1.914c-7.295-1.054-10.93-2.269-12.74-3.329M319.153,97.9c-1.38-.809-4.59-1.985-12.051-3.063a237.729,237.729,0,0,0-33.186-1.9,238.075,238.075,0,0,0-33.171,2.188c-12.914,1.977-13.054,4.151-13.054,4.174s.154,2.189,13.092,4.056a238.014,238.014,0,0,0,33.184,1.9,237.936,237.936,0,0,0,33.171-2.187c12.913-1.978,13.054-4.151,13.054-4.174s-.028-.4-1.039-1" fill="#2c2d30"/>
    <path id="Path_4808" data-name="Path 4808" d="M507.772,294.675c.047-3.91-1.8-7.772-5.48-11.485-10.406-10.472-35.593-19.577-70.05-26.387a8.81,8.81,0,0,1-.287,1.6C458.4,263.613,479.3,270.178,492.1,277.68a44.168,44.168,0,0,1,8.993,6.7c3.351,3.377,5.029,6.835,4.988,10.274-.2,16.717-100.231,50.563-231.064,51.134-131.208.567-231.371-32.406-231.5-49.108-.026-3.463,1.679-6.957,5.068-10.387,10.16-10.28,34.605-19.37,68.1-26.344a8.481,8.481,0,0,1,.02-1.91c-34.009,7.058-58.745,16.367-69.319,27.066-3.716,3.76-5.585,7.659-5.556,11.587.029,3.95,4.217,8.339,11.9,12.843,31.206,18.286,119.985,38.382,221.3,37.944,123.638-.54,232.515-33.293,232.748-52.806" fill="#2c2d30"/>
    <path id="Path_4809" data-name="Path 4809" d="M321.925,110.9q-.894.279-1.8.531c-1.192,2.2-16.938,5.965-46.108,6.094-30.375.13-46.267-3.817-46.277-5.957v-.007c-.543-.195-1.075-.415-1.611-.626a2.026,2.026,0,0,0-.082.638c.005.884.679,1.677,1.893,2.388,6.7,3.925,29.767,5.325,46.085,5.255,19.271-.087,47.932-2.3,47.907-8.057,0-.073,0-.163-.012-.259" fill="#2c2d30"/>
    <path id="Path_4810" data-name="Path 4810" d="M226.052,111.572,226,99.308l1.692-.005.052,12.265Z" fill="#2c2d30"/>
    <path id="Path_4811" data-name="Path 4811" d="M236.926,116.174l-.054-12.265,1.692-.005.054,12.266Z" fill="#2c2d30"/>
    <path id="Path_4812" data-name="Path 4812" d="M262.139,118.715l-.054-12.265,1.692-.005.054,12.266Z" fill="#2c2d30"/>
    <path id="Path_4813" data-name="Path 4813" d="M320.246,111.162,320.192,98.9l1.692-.005.054,12.266Z" fill="#2c2d30"/>
    <path id="Path_4814" data-name="Path 4814" d="M307.362,115.846l-.052-12.264,1.692-.005.052,12.265Z" fill="#2c2d30"/>
    <path id="Path_4815" data-name="Path 4815" d="M286.915,118.143l-.052-12.264,1.692-.005.052,12.265Z" fill="#2c2d30"/>
    <path id="Path_4816" data-name="Path 4816" d="M403.844,173.935a7.412,7.412,0,0,1,1.82-.355,158.092,158.092,0,0,0-85.015-62.407,9.686,9.686,0,0,1-1.066,1.439,156.427,156.427,0,0,1,84.261,61.323" fill="#2c2d30"/>
    <path id="Path_4817" data-name="Path 4817" d="M417.109,332.565a7.423,7.423,0,0,1-1.8-.147c-1.636,3.327-3.36,6.629-5.264,9.878-43.75,74.657-140.08,99.8-214.738,56.053a155.8,155.8,0,0,1-60.41-64.242,7.613,7.613,0,0,1-2.019-.283,157.452,157.452,0,0,0,61.574,65.984c75.463,44.222,172.832,18.8,217.053-56.656,2.038-3.479,3.865-7.021,5.6-10.587" fill="#2c2d30"/>
    <path id="Path_4818" data-name="Path 4818" d="M257.546,159.505c-8.018-11.034-21.619-16.982-38.3-16.741-16.57.241-34.222,6.566-49.7,17.807q-2.96,2.151-5.716,4.472c-.036.072-.089.134-.128.206-.229.464,1.119-.134.821.287,1-.658-.229.478.989.337,1.406-1.145,3.542-2.852,5.027-3.931,15.2-11.04,32.506-17.25,48.733-17.485,9.986-.142,18.819,1.988,25.921,6.15a35.838,35.838,0,0,1,10.983,9.9c15.933,21.93,3.437,58.264-27.852,80.993-15.2,11.043-32.509,17.252-48.736,17.487-16.115.232-29.225-5.463-36.9-16.045s-9.05-24.8-3.845-40.058c3.819-11.191,10.86-21.93,20.266-31.213.307-.986-.542-.5.062-1.345-.636.422.009-.626-.727-.4-9.864,9.589-17.226,20.761-21.2,32.412-5.388,15.79-3.942,30.565,4.076,41.6a37.6,37.6,0,0,0,11.5,10.362c7.363,4.315,16.495,6.526,26.8,6.379,16.57-.241,34.223-6.565,49.7-17.809,32.045-23.277,44.708-60.674,28.229-83.362" fill="#2c2d30"/>
    <path id="Path_4819" data-name="Path 4819" d="M256.176,160.5a35.84,35.84,0,0,0-10.984-9.9c-7.1-4.162-15.934-6.293-25.921-6.151-16.226.236-33.532,6.446-48.733,17.486-1.485,1.078-3.621,2.786-5.027,3.93l-.447.4a33.9,33.9,0,0,1,4.539,4.348c2.54,2.677,5.294,5.083,8.007,7.578,5.45,5.014,10.976,9.843,16.557,14.7,2.882,2.508,5.555,5.241,8.356,7.837,2.165,2.008,4.654,3.723,6.741,5.8a9.577,9.577,0,0,1,2.714,4.876c.367.29.724.594,1.1.878,1.7,1.3,2.029,4.73-.679,5.194a6.378,6.378,0,0,1-3.278-.306c-3.534,1.961-7.976.208-10.882-2.106-2.564-2.041-4.522-4.653-6.786-7-2.5-2.584-4.991-5.082-7.277-7.866-4.269-5.2-9.175-10-13.036-15.513-3.416-4.879-8.156-8.551-11.838-13.212l-.193.174c-9.406,9.284-16.448,20.022-20.266,31.213-5.205,15.255-3.84,29.481,3.845,40.058s20.789,16.277,36.9,16.046c16.227-.235,33.534-6.445,48.736-17.488,31.289-22.728,43.785-59.062,27.852-80.993" fill="#f0e4cd"/>
    <path id="Path_4820" data-name="Path 4820" d="M398.15,218.649c-.722-5.632-3.495-19.24-4.021-19.6a6.21,6.21,0,0,1-1.657-1.677c-.829.354-1.724.6-2.53.956-.846.371-1.6.779-2.361,1.087-1.906,2.608-5.557,3.5-8.31,5-5.252,2.848-10.709,5.446-16.216,7.777-5.789,2.45-10.892,5.776-16.528,8.459-3.386,1.612-7.766,3.237-10.818.578-.862.395-1.725.789-2.579,1.185-3.3,1.532-6.183-3.369-2.868-4.907,1.009-.469,2.028-.936,3.048-1.4a4.8,4.8,0,0,1,2.152-3.217,2.218,2.218,0,0,1,1.469-2.234c6.206-2.723,12.8-4.232,18.719-7.609,5.739-3.272,12.553-4.565,18.723-6.818,3-1.094,6.885-3.459,10.121-3.775a4.985,4.985,0,0,1,1.117.015c.307-.2.622-.382.943-.546,1.229-.632,2.517-1.273,3.812-1.829-.008-.046-.016-.092-.025-.138-7.16-14.121-19.882-29.788-30.87-33.95-15.073-5.709-27.545-7.456-38.372-.128s-16.959,20.237-17.263,36.351c-.3,16.226,5.327,33.729,15.858,49.29,21.676,32.027,57.015,34.39,71.382,11.244,2.623-4.225,8.9-19.857,7.074-34.11" fill="#719094"/>
    <path id="Path_4821" data-name="Path 4821" d="M104.853,195.132l-49.835-29.2a1.862,1.862,0,0,1,1.548-3.367l55.015,18.948-.55,1.6L56.015,164.161a.143.143,0,0,0-.209.088c-.064.143.015.189.067.219l49.835,29.2Z" fill="#2c2d30"/>
    <path id="Path_4822" data-name="Path 4822" d="M150.141,166.026s-2.376-6.474-6.566-7.132-22.894,8.809-35.818,46.341c0,0,17.229-28.145,22.923-28.241s-14.534,22.125-6.354,37.95c0,0,8.783-28.568,25.815-48.918" fill="#2c2d30"/>
    <path id="Path_4823" data-name="Path 4823" d="M119.366,234.826s-7.865,7.247-10.873,8.754-9.031-1.878-5.445-18.317c0,0-.281,9.4,3.636,9.412s15.192-11.27,15.192-11.27Z" fill="#2c2d30"/>
    <path id="Path_4824" data-name="Path 4824" d="M107.83,188.923l-36.007-16.35,34.242,20.066Z" fill="#2c2d30"/>
    <path id="Path_4825" data-name="Path 4825" d="M134.908,153.583a9.6,9.6,0,1,1,13.135-3.429,9.609,9.609,0,0,1-13.135,3.429m8.852-15.1a7.908,7.908,0,1,0,2.823,10.82,7.916,7.916,0,0,0-2.823-10.82" fill="#2c2d30"/>
    <path id="Path_4826" data-name="Path 4826" d="M148.3,146.479a16.952,16.952,0,0,1,7.548-.751,5.253,5.253,0,0,1,4.31,4.391,12.8,12.8,0,0,1,.141,3.139l1.685.137a14.359,14.359,0,0,0-.158-3.555,6.93,6.93,0,0,0-5.719-5.783,18.575,18.575,0,0,0-8.037.706Z" fill="#2c2d30"/>
    <path id="Path_4827" data-name="Path 4827" d="M117.628,241.645a100.7,100.7,0,0,1-9.03,7.321,5.134,5.134,0,0,1-7.119-.97c-7.923-10.575-4.536-36.049,8.052-60.571,7.558-14.725,17.281-26.863,26.68-34.212l-1.525-1.023c-9.433,7.5-19.029,19.6-26.659,34.461-13.077,25.472-16.326,51.115-7.9,62.36a6.5,6.5,0,0,0,1.929,1.721,6.917,6.917,0,0,0,7.536-.395,102.455,102.455,0,0,0,9.187-7.451Z" fill="#2c2d30"/>
    <path id="Path_4828" data-name="Path 4828" d="M197.952,215.309a7.6,7.6,0,0,1-1.823-1.49l-53.754-59.855,1.26-1.131,53.754,59.855a5.835,5.835,0,1,0,8.288-8.2l-58.936-54.144,1.143-1.245,58.937,54.144a7.531,7.531,0,0,1-8.869,12.062" fill="#2c2d30"/>
    <path id="Path_4829" data-name="Path 4829" d="M403.407,195a9.3,9.3,0,1,1,3.718,1.214A9.276,9.276,0,0,1,403.407,195m8.524-14.543a7.581,7.581,0,0,0-11.378,5.746,7.576,7.576,0,1,0,11.378-5.746" fill="#2c2d30"/>
    <path id="Path_4830" data-name="Path 4830" d="M338.986,221.635a7.528,7.528,0,0,1,1.067-13.508l59.485-22.205.59,1.587-59.472,22.2a5.834,5.834,0,1,0,4.765,10.636l55.944-29.055.78,1.5-55.953,29.061a7.545,7.545,0,0,1-7.206-.216" fill="#2c2d30"/>
    <path id="Path_4831" data-name="Path 4831" d="M509.471,220.958a7.676,7.676,0,0,1-1.69-1.346,7.556,7.556,0,1,1,1.69,1.346m6.824-11.682a5.916,5.916,0,1,0,2.933,5.273,5.91,5.91,0,0,0-2.933-5.273" fill="#2c2d30"/>
    <path id="Path_4832" data-name="Path 4832" d="M460.449,193.915l47.538,17.445.583-1.589-47.508-17.433a9.57,9.57,0,0,1-.613,1.577" fill="#2c2d30"/>
    <path id="Path_4833" data-name="Path 4833" d="M506.862,213.99,458,202.556a9.818,9.818,0,0,1-.909,1.508c.035.009.066.032.1.041l49.285,11.534Z" fill="#2c2d30"/>
    <path id="Path_4834" data-name="Path 4834" d="M218.582,148.918s31.449-5.757,39.264,24.97-33.585,71.07-56.789,78.5-32.584-7.982-28.71-16.824-9.187-13.882-14.873-2.506,11.473,13.443,3.9,13.488-14.155-6.1-11.174-16.446,12.778-17.025,26.9-12.673c0,0,1.123-3.591,8.288-2.988s8.827-2.315,8.827-2.315-.448-2.005,1.556.019,4.54,4.593,7.425,3.156,7.139-5.265,4.319-9.846-2.062-6.711,1.629-5.9,4.042-.205,1.053-5.144-4.2-13.124,4.92-20.527,10.411-6.891,4.865-11.857-5.056-12.743-1.393-13.114" fill="#2c2d30"/>
    <path id="Path_4835" data-name="Path 4835" d="M331.2,156.491s-30.845,16.243-19.621,59.836,53.586,46.6,50.78,41.769,11.568-12.831.39-19.382-21.429-12.734-17.5-17.637c0,0-8.791,1.322-9.15-5.176s6.79-8.429,6.79-8.429,2.312-5.639-5.638-7.969-4.144-9.66.426-14.949,7.36-10.886,1.115-13.2-6.951-2.97-5.181-6.836-2.409-8.03-2.409-8.03" fill="#2c2d30"/>
    <path id="Path_4836" data-name="Path 4836" d="M393.932,197.274c-.723-.5-.963-.085-1.444-.69.033.535-.319.1-.392.636,10.837,28.856,4.152,58.4-16.065,67.562-21.455,9.719-50.133-7.144-63.923-37.594s-7.557-63.123,13.9-72.842c10.706-4.849,23.2-3.083,34.76,3.689,11.059,6.481,21.213,17.587,28.127,31.82.646.469,1.142.36,1.587.912a3.78,3.78,0,0,1,.129-1.257c-14.476-30.177-43.422-46.615-65.3-36.706-22.306,10.1-28.918,43.786-14.743,75.082,7.053,15.57,17.938,27.656,29.846,34.634,12.03,7.049,25.108,8.88,36.316,3.8,20.876-9.459,28-39.571,17.2-69.05" fill="#2c2d30"/>
    <path id="Path_4837" data-name="Path 4837" d="M401.257,167.419s6.541,7.908,7.543,11.427l-1.933.167s-2.1-3.814-3.813-6.218a10.863,10.863,0,0,1-1.8-5.376" fill="#2c2d30"/>
    <path id="Path_4838" data-name="Path 4838" d="M465.407,133.795a5.563,5.563,0,0,0-3.375-4.422,5.483,5.483,0,0,0-5.436.633c-10.861,8.007-31.309,24.977-46.247,48.68l1.433.9c14.787-23.466,35.052-40.283,45.816-48.22a3.807,3.807,0,0,1,3.774-.435,3.871,3.871,0,0,1,2.358,3.09c8.68,64.42-26.287,108.4-32.474,115.6a11.983,11.983,0,0,1,.1,2.012l.2.192c.435-.462,43.417-46.964,33.842-118.03" fill="#2c2d30"/>
    <path id="Path_4839" data-name="Path 4839" d="M412.354,179.723S428.8,157.4,447.572,143.175a2.593,2.593,0,0,1,4.168,1.666c1.716,12.414,4.284,50.944-20.6,93.953l-9.3-32.2-6.67-15s4.1-7.943-2.81-11.875" fill="#2c2d30"/>
    <path id="Path_4840" data-name="Path 4840" d="M140.1,343.551S283.44,380.493,410.05,342.3l6.533-9.732s-72.857,13.949-136.688,14.878l-60.239-2.482s-43.1-2.728-60.7-6.644-24.8-4.255-24.8-4.255,1.965,6.281,5.945,9.489" fill="#2c2d30"/>
    <path id="Path_4841" data-name="Path 4841" d="M261.275,421s4.228,7.824,11.64,8.98,13.52-9.776,13.52-9.776Z" fill="#2c2d30"/>
    <path id="Path_4842" data-name="Path 4842" d="M175.236,294.839l10.018-10.833,2.31-.023-9.353,10.129c11.865,4.08,108.883,35.286,196.9-.906l-5.234-10.6h1.954l5.589,11.479-.829.346c-94.3,39.252-199.127,1.239-200.175.851Z" fill="#2c2d30"/>
    <path id="Path_4843" data-name="Path 4843" d="M193.982,300l-1.46-.855,7.41-12.645,2.068-.183Z" fill="#2c2d30"/>
    <rect id="Rectangle_526" data-name="Rectangle 526" width="1.692" height="19.771" transform="matrix(1, -0.026, 0.026, 1, 278.098, 291.707)" fill="#2c2d30"/>
    <path id="Path_4844" data-name="Path 4844" d="M362.037,299.123l-7.1-13.414,1.814-.192,6.778,12.812Z" fill="#2c2d30"/>
    <path id="Path_4845" data-name="Path 4845" d="M433.089,262.722s40.7,7.3,57.53,18.156,12.8,16.65.481,23.162-51.965,21.189-89.3,25.783c0,0,36-9.015,48.676-21.994s-35.425-37.054-35.425-37.054Z" fill="#2c2d30"/>
    <path id="Path_4846" data-name="Path 4846" d="M116.136,262.706a125.54,125.54,0,0,0-30.359,8.826c-14.915,6.7,1.562,4.1-9.227,9.546S58.161,288.2,56.167,295.363s5.438,13.727,22.6,17.9.394-.751-7.672-8.909-9.7-13.284,10.472-17.4,32.592-9.827,19.442-11.65,16.4-7.652,16.4-7.652Z" fill="#2c2d30"/>
    <path id="Path_4847" data-name="Path 4847" d="M122.307,268.671s-10.745,1.849-16.534,4.161,7.066-.762,6.934,4.064S100.6,285,95.036,286.763s9.7-.445,17.7-3.846,11.6-5.58,6.662-8.231,12.877-2.523,12.877-2.523Z" fill="#2c2d30"/>
    <path id="Path_4848" data-name="Path 4848" d="M82.742,290.59S70.874,292.7,70.913,296.9s5.647,9.682,16.387,13.525-10.633-4.026-10.515-10.084,5.957-9.747,5.957-9.747" fill="#2c2d30"/>
    <path id="Path_4849" data-name="Path 4849" d="M409.57,195.412a8.037,8.037,0,0,1-5.139-1.157,8.543,8.543,0,0,1-2.372-2.07l-8.133,4.039c0,.029.006.058,0,.088,16.8,38.766,13.137,72.212,13.137,72.212l17.855-6.052c-.753-26.861-6.725-48.934-15.352-67.06" fill="#2c2d30"/>
    <path id="Path_4850" data-name="Path 4850" d="M400.558,185.911a9.668,9.668,0,0,1,1.715-3.964c-29.265-47.682-76.4-61.95-76.4-61.95,33.436,20.34,53.238,45.658,64.956,69.6Z" fill="#2c2d30"/>
    <path id="Path_4851" data-name="Path 4851" d="M235.32,400.348l-.208-.145c-.239-.167-24.026-17.136-28.5-52.409l1.679-.211c4.163,32.828,25.311,49.392,27.59,51.088l12.008.36c-15.072-25.674-16.6-45.778-16.608-45.981l1.687-.115c.015.2,1.577,20.623,17.16,46.55l.8,1.329Z" fill="#2c2d30"/>
    <path id="Path_4852" data-name="Path 4852" d="M293.418,402.634l.741-1.4c10.675-20.257,14.268-45.615,14.3-45.869l1.677.231c-.035.252-3.5,24.751-13.76,45.02l14.531-1.558c1.852-2.925,15.113-24.406,18.6-45.113l1.669.281c-3.793,22.52-18.915,45.86-19.068,46.092l-.219.339Z" fill="#2c2d30"/>
    <path id="Path_4853" data-name="Path 4853" d="M358.759,387.082l2.437-2.793c17.927-20.546,25.259-38.254,25.332-38.434l1.568.639c-.069.171-6.718,16.245-22.779,35.568,7.55-4.385,24.615-16.386,35.645-40.212l1.537.71c-14.726,31.806-40.08,42.956-40.333,43.064Z" fill="#2c2d30"/>
    <path id="Path_4854" data-name="Path 4854" d="M230.066,126.223,194.09,87.28a14.171,14.171,0,0,1-2.465-.174l37.2,40.265a1.048,1.048,0,1,1-1.539,1.423L187.953,86.22q-.878-.281-1.743-.583a10.494,10.494,0,0,1-1.994-.968l41.824,45.273a2.74,2.74,0,0,0,4.026-3.719" fill="#2c2d30"/>
    <path id="Path_4855" data-name="Path 4855" d="M344.464,121.343,365.19,84.279a12.078,12.078,0,0,1-2.4.82L343.13,120.261a7.185,7.185,0,0,1,1.334,1.082" fill="#2c2d30"/>
    <path id="Path_4856" data-name="Path 4856" d="M341.238,119.35l19-33.97a12.94,12.94,0,0,1-1.887-.094l-18.825,33.665a9.275,9.275,0,0,1,1.716.4" fill="#2c2d30"/>
    <path id="Path_4857" data-name="Path 4857" d="M219.584,116.141c2.943-1.1,5.9-2.143,8.9-3.065a7.709,7.709,0,0,1-1.42-1.329c-2.922.917-5.807,1.949-8.674,3.033Z" fill="#2c2d30"/>
    <path id="Path_4858" data-name="Path 4858" d="M157.525,158.544a156.254,156.254,0,0,1,58.355-40.986l-1.179-1.342a157.951,157.951,0,0,0-58.551,41.327,9.464,9.464,0,0,1,1.375,1" fill="#2c2d30"/>
    <path id="Path_4859" data-name="Path 4859" d="M433.089,262.722a162.3,162.3,0,0,0-17.218-71.671,9.845,9.845,0,0,1-1.027,1.687A158.251,158.251,0,0,1,431.4,261.391a2.2,2.2,0,0,1-1.382,2.052c-140.479,55.637-286.854,11.214-309.736,3.607a3.6,3.6,0,0,1-2.468-3.384,156,156,0,0,1,34.895-99.447c.031-.1.047-.215.074-.319a8.907,8.907,0,0,1-1.2-.974,157.553,157.553,0,0,0-35.436,102.122,3.5,3.5,0,0,0,2.406,3.282c20.44,6.756,170.574,53.121,312.891-3.634,0,.036.179-.018.443-.117a2.111,2.111,0,0,0,1.2-1.857" fill="#2c2d30"/>
    <path id="Path_4860" data-name="Path 4860" d="M321.456,117.489s-16.08,7.78-52.2,6.669a78.533,78.533,0,0,0,32.311,7.963c18.616.508,19.28,9,16.93,13.007s3.693-.861,7.059-12.047-4.1-15.592-4.1-15.592" fill="#2c2d30"/>
    <path id="Path_4861" data-name="Path 4861" d="M280.776,99.934a7.565,7.565,0,0,1-5.8,2.126A7.516,7.516,0,0,1,268,94.176l3.947-80.352,7.469.209-.055,1.951,3.67,78.206a7.484,7.484,0,0,1-2.256,5.744" fill="#f0e4cd"/>
    <path id="Path_4862" data-name="Path 4862" d="M268.247,96.52A7.62,7.62,0,0,1,268,94.178l3.946-80.352,1.691.084-3.946,80.352a5.835,5.835,0,1,0,11.657.012L277.592,14.33l1.688-.08,3.757,79.944a7.531,7.531,0,0,1-14.79,2.326" fill="#2c2d30"/>
    <path id="Path_4863" data-name="Path 4863" d="M286.246,12.228A10.729,10.729,0,1,1,275.518,1.5a10.728,10.728,0,0,1,10.728,10.728" fill="#f0e4cd"/>
    <path id="Path_4864" data-name="Path 4864" d="M286.246,12.228A10.729,10.729,0,1,1,275.518,1.5,10.728,10.728,0,0,1,286.246,12.228Z" fill="none" stroke="#221f20" stroke-miterlimit="10" stroke-width="3"/>
  </g>
</svg>
