<svg id="Group_564" data-name="Group 564" xmlns="http://www.w3.org/2000/svg" xmlns:xlink="http://www.w3.org/1999/xlink" width="268.165" height="202.657" viewBox="0 0 268.165 202.657">
  <defs>
    <clipPath id="clip-path">
      <rect id="Rectangle_493" data-name="Rectangle 493" width="268.165" height="202.657" fill="none"/>
    </clipPath>
  </defs>
  <g id="Group_563" data-name="Group 563" clip-path="url(#clip-path)">
    <path id="Path_4289" data-name="Path 4289" d="M66.773,70.264l-.786,1.309L70.4,75.6l-1.888,3.79-21.225-.648L46.727,80.7l20.961.45s-6.319,14.9-5.447,30.458l-.5.136s-1.865-2-3.964-.714a6.847,6.847,0,0,0-2.745,2.916s-1.132-1.971-3.989-1.22-3.527,3.192-2.875,5.447,3.422,3.1,5.036,3.074A45.753,45.753,0,0,0,54.991,138.2l-.036,1L30.988,151.113s-1.616.682-1,1.084,2.039.012,2.039.012l25.054-6.855.389.24s5.03,10.84,9.391,14.988,8.447,5.358,10.164,3.513,1.439-7.11,1.439-7.11l5.1,5.707A160.438,160.438,0,0,0,71.455,186.51c-5.239,13.069.706,16.122,3.956,15.877s17.27-4.529,40-20.032c0,0,18.557,6.865,38.429,1.921,0,0,21.286-4.368,36.573-18.622s20.411-33.386,21.732-37.607,5.231-23.563-.989-39.773l-1.542-3.5s15.374-22.411,18.48-37.541-16.2-6.25-16.2-6.25S197.332,47.7,189.227,53.446L186.821,51.6s-1.133-13.692-7.633-25.327l.442.11,20.2-12.77s2.862,2.3,4.64-.478A3.24,3.24,0,0,0,202.708,8c-1.486-.428-4.187.032-4.223,3.639l-21.607,10.46a66.1,66.1,0,0,0-13.983-17c-8.812-7.415-8.328-4.727-9.018-1.136a81.688,81.688,0,0,0,.108,23.29l1.195,6.942-.238.937-1.583.3s-16.948-5.694-40.719,2.723l-6.487-21.453L104.4,18.479l6.314,20.309-8.784,4.237-4.639-4.266Z" fill="#97acad"/>
    <path id="Path_4290" data-name="Path 4290" d="M141.776,167.451s23.459,16.484,52.9-6.172c0,0-29.661,34.4-75.572,22.2Z" fill="#f0e4cd"/>
    <path id="Path_4291" data-name="Path 4291" d="M99.391,157.85s-16.232,32.327.629,33.718c0,0-10.871,7.76-20.336,9.813s-8.425-.009-10.039-5.07,9.277-28.276,13.926-33.62,15.82-4.841,15.82-4.841" fill="#f0e4cd"/>
    <path id="Path_4292" data-name="Path 4292" d="M65.987,71.572,68.729,74.3c.011,0,.023.007.035.013a1.73,1.73,0,0,1,.645.552l.768.2c-.133.246-.261.494-.389.741a1.893,1.893,0,0,1-.2,1.214,11.4,11.4,0,0,0-.5,1.136c-.079.18-.17.354-.253.532-.044.092-.085.185-.126.278,0,.026-.02.077-.048.173a2.173,2.173,0,0,1-.184.457,28.8,28.8,0,0,0,4.116.118,20.853,20.853,0,0,1,3.235-.048A61.843,61.843,0,0,1,78.4,70.541L74.546,66.1c-3.19,3.4-8.559,5.471-8.559,5.471" fill="#f0e4cd"/>
    <path id="Path_4293" data-name="Path 4293" d="M67.854,81.01c0,.01,0,.02,0,.03a15.3,15.3,0,0,1-.691,1.79c-.2.515-.44,1.213-.674,1.8a1.5,1.5,0,0,1-.665.742,79.034,79.034,0,0,0-3.287,30.248,31.844,31.844,0,0,1,5.054-.265,15.783,15.783,0,0,1-.013-2.239,37.247,37.247,0,0,1,.98-5.572.629.629,0,0,1,.387-.466.668.668,0,0,1-.1-.8,1.777,1.777,0,0,0,.208-1.043.734.734,0,0,1,.729-.726.57.57,0,0,1,.1.022c.148-.58.3-1.163.443-1.751.66-2.645,1.7-5.929,3.627-7.964a89.11,89.11,0,0,1,1.577-13.732,28.7,28.7,0,0,0-3.532.12,36.532,36.532,0,0,1-4.143-.2" fill="#f0e4cd"/>
    <path id="Path_4294" data-name="Path 4294" d="M91.084,149.2c-1.855.565-4.077-.208-5.895-.583a15,15,0,0,1-4.577-1.437c-1.268-.736-2.174-1.928-3.406-2.719a.694.694,0,0,1-.328-.531,14.223,14.223,0,0,1-1.8-1.957,20.988,20.988,0,0,1-2.324-3.033.7.7,0,0,1-.106-.1,30.035,30.035,0,0,1-4.7-11.968c-.4-2.282-1.49-5.907-.414-8.2a8.47,8.47,0,0,1-2.791.207,19.408,19.408,0,0,1-2.491-.089c4.963,31.508,20.957,43.564,22.408,44.967a3.734,3.734,0,0,0,2.485,1.339c3.332-.72,11.64-6.875,11.64-6.875a97.428,97.428,0,0,1-7.7-9.019" fill="#f0e4cd"/>
    <path id="Path_4295" data-name="Path 4295" d="M108.956,10.377C105.92,7.437,87.433,21.6,67.665,42.02s-33.333,39.35-30.3,42.29S58.89,73.082,78.659,52.666s33.333-39.35,30.3-42.289M77.4,51.45C62.15,67.2,47.887,78.133,45.545,75.865S53.668,58.988,68.92,43.236s29.516-26.683,31.859-24.414S92.655,35.7,77.4,51.45" fill="#f0e4cd"/>
    <path id="Path_4296" data-name="Path 4296" d="M40.3,84.783q-2,.546-2.854-.28c-3.761-3.642,12.8-24.8,30.289-42.865A261.294,261.294,0,0,1,94.7,17.017c8.212-6.291,13.224-8.658,14.9-7.032,3.761,3.642-12.8,24.8-30.288,42.865A261.168,261.168,0,0,1,52.348,77.471c-5.426,4.158-9.456,6.6-12.05,7.312m66.73-74.3c-2.151.589-5.953,2.675-11.834,7.181A260.572,260.572,0,0,0,68.319,42.205C47.078,64.143,35.5,81.483,38.013,83.918c.975.949,5.127-.422,13.838-7.094A260.572,260.572,0,0,0,78.726,52.283c21.241-21.937,32.821-39.278,30.307-41.712-.318-.308-.97-.371-2-.088" fill="#2c2d30"/>
    <path id="Path_4297" data-name="Path 4297" d="M47.91,76.287a2.312,2.312,0,0,1-2.288-.229c-1.334-1.291.363-5.257,5.042-11.787A201.341,201.341,0,0,1,68.988,42.855,201.538,201.538,0,0,1,89.8,23.849c6.378-4.886,10.287-6.706,11.621-5.418s-.365,5.258-5.042,11.786A201.4,201.4,0,0,1,78.056,51.635,201.413,201.413,0,0,1,57.242,70.641c-4.182,3.2-7.3,5.091-9.332,5.646M99.395,18.954C97.771,19.4,94.855,21,90.3,24.5A201.287,201.287,0,0,0,69.575,43.422,200.784,200.784,0,0,0,51.326,64.745c-4.9,6.836-5.863,10.023-5.137,10.728s3.881-.366,10.557-5.48A200.773,200.773,0,0,0,77.47,51.068,200.98,200.98,0,0,0,95.718,29.743c4.9-6.835,5.864-10.022,5.136-10.727-.23-.222-.706-.267-1.459-.062" fill="#2c2d30"/>
    <path id="Path_4298" data-name="Path 4298" d="M97.466,38.536c1.34,1.3-4.649,9.658-13.377,18.672S67.2,72.478,65.858,71.18s4.648-9.658,13.377-18.672,16.891-15.27,18.231-13.972" fill="#f0e4cd"/>
    <path id="Path_4299" data-name="Path 4299" d="M66.792,71.719c-.967.265-1.279-.037-1.434-.188-.311-.3-1.258-1.217,2.865-6.972a115.4,115.4,0,0,1,10.5-12.276A115.285,115.285,0,0,1,90.657,41.39c5.619-4.305,6.566-3.39,6.877-3.087s1.258,1.217-2.865,6.972a115.494,115.494,0,0,1-10.5,12.276A115.982,115.982,0,0,1,72.236,68.445c-2.823,2.162-4.468,3.007-5.444,3.274m29.48-32.808c-.744.2-2.232.915-5.119,3.126A114.678,114.678,0,0,0,79.313,52.85,114.7,114.7,0,0,0,68.886,65.034c-3.67,5.123-2.968,5.9-2.96,5.912s.808.685,5.813-3.151A114.645,114.645,0,0,0,83.58,56.984,114.8,114.8,0,0,0,94.006,44.8c3.671-5.123,2.968-5.9,2.96-5.912s-.149-.126-.694.023" fill="#2c2d30"/>
    <path id="Path_4300" data-name="Path 4300" d="M227.755,40.147a7.812,7.812,0,0,0-5.811-1.98c-7.121.061-18.753,5.684-32.717,15.279a4.216,4.216,0,0,1,.454.638c10.712-7.368,20.022-12.368,26.926-14.256a21.308,21.308,0,0,1,5.344-.845,7.039,7.039,0,0,1,5.227,1.742c5.7,5.7-16.336,51.632-60.239,96.974-44.031,45.47-89.172,68.921-94.979,63.336a7.183,7.183,0,0,1-1.876-5.25c-.123-6.971,4.98-18.471,13.861-32.379a4.1,4.1,0,0,1-.652-.651c-9.028,14.116-14.153,25.79-14.025,33.045a7.954,7.954,0,0,0,2.126,5.823c1.373,1.322,4.3,1.355,8.444.221,16.829-4.6,53.689-28.468,87.687-63.578,41.489-42.849,66.885-91.461,60.23-98.119" fill="#2c2d30"/>
    <path id="Path_4301" data-name="Path 4301" d="M101.692,42.336q-.206.4-.422.8c.358,1.153-3.651,7.856-13.439,17.965C77.637,71.626,70.919,75.78,70.177,75.062l0,0c-.25.121-.506.231-.759.345a.984.984,0,0,0,.192.243,1.484,1.484,0,0,0,1.462.152c3.615-.991,11.872-8.478,17.348-14.133,6.466-6.679,15.362-17.316,13.368-19.248-.026-.025-.058-.053-.094-.083" fill="#2c2d30"/>
    <path id="Path_4302" data-name="Path 4302" d="M69.608,75.647l-4.25-4.116.569-.585,4.25,4.116Z" fill="#2c2d30"/>
    <path id="Path_4303" data-name="Path 4303" d="M74.862,73.446,70.61,69.33l.569-.585,4.251,4.116Z" fill="#2c2d30"/>
    <path id="Path_4304" data-name="Path 4304" d="M84.237,65.6l-4.251-4.116.569-.585,4.251,4.116Z" fill="#2c2d30"/>
    <path id="Path_4305" data-name="Path 4305" d="M101.217,43l-4.251-4.116.569-.585,4.251,4.116Z" fill="#2c2d30"/>
    <path id="Path_4306" data-name="Path 4306" d="M98.491,49.029l-4.25-4.116.569-.585,4.25,4.116Z" fill="#2c2d30"/>
    <path id="Path_4307" data-name="Path 4307" d="M92.391,56.859l-4.25-4.116.569-.585,4.25,4.116Z" fill="#2c2d30"/>
    <path id="Path_4308" data-name="Path 4308" d="M151.058,35.314a3.614,3.614,0,0,1,.491-.748,76.274,76.274,0,0,0-50.192,8.3,4.639,4.639,0,0,1,.137.853,75.458,75.458,0,0,1,49.564-8.408" fill="#2c2d30"/>
    <path id="Path_4309" data-name="Path 4309" d="M210.271,84.206a3.637,3.637,0,0,1-.656.57c.6,1.686,1.155,3.394,1.635,5.146a75.629,75.629,0,0,1-95.571,92.191,3.627,3.627,0,0,1-.778.6,76.434,76.434,0,0,0,97.136-93.007c-.513-1.877-1.12-3.7-1.766-5.5" fill="#2c2d30"/>
    <path id="Path_4310" data-name="Path 4310" d="M96.765,80.936c-6.51-.952-13.148,1.737-18.687,7.574-5.5,5.8-9.27,14.023-10.607,23.154q-.256,1.746-.384,3.479c.013.037.016.077.028.114.083.235.331-.431.376-.186.11-.568.088.24.449-.228.079-.871.21-2.184.338-3.06,1.314-8.967,5-17.032,10.393-22.711A23.89,23.89,0,0,1,89.531,82.2a17.283,17.283,0,0,1,7.117-.455c12.938,1.894,21.265,18.453,18.562,36.912-1.314,8.968-5,17.034-10.393,22.713-5.352,5.639-11.736,8.244-17.977,7.327s-11.61-5.238-15.119-12.176a39.392,39.392,0,0,1-3.941-17.514c-.236-.439-.355.018-.443-.475-.069.362-.213-.214-.383.116a40.343,40.343,0,0,0,4.038,18.241c3.633,7.182,9.219,11.663,15.731,12.617a18.121,18.121,0,0,0,7.452-.476,24.7,24.7,0,0,0,11.234-7.1c5.5-5.8,9.27-14.023,10.608-23.156,2.769-18.9-5.868-35.88-19.252-37.84" fill="#2c2d30"/>
    <path id="Path_4311" data-name="Path 4311" d="M96.648,81.745a17.283,17.283,0,0,0-7.117.455,23.9,23.9,0,0,0-10.86,6.872c-5.388,5.679-9.078,13.744-10.392,22.711-.129.876-.259,2.189-.338,3.06l-.011.29a16.386,16.386,0,0,1,3.03-.1c1.78.025,3.539-.114,5.314-.209,3.567-.191,7.1-.47,10.654-.759,1.837-.149,3.681-.15,5.521-.242,1.423-.07,2.854-.351,4.275-.37a4.623,4.623,0,0,1,2.6.707c.224-.029.449-.05.672-.082,1.023-.151,2.317.894,1.564,1.985a3.085,3.085,0,0,1-1.21,1.028c-.515,1.881-2.617,2.823-4.395,3.046a36.167,36.167,0,0,1-4.7-.017c-1.733-.009-3.436.009-5.167-.14-3.232-.279-6.543-.2-9.747-.73-2.836-.466-5.7-.068-8.55-.369l-.005.126a39.378,39.378,0,0,0,3.94,17.514c3.51,6.939,8.879,11.262,15.12,12.176s12.624-1.688,17.976-7.327c5.389-5.679,9.08-13.745,10.393-22.713,2.7-18.459-5.623-35.018-18.562-36.912" fill="#f0e4cd"/>
    <path id="Path_4312" data-name="Path 4312" d="M164.569,52.35c-2.187-1.648-7.818-5.278-8.119-5.218a3,3,0,0,1-1.137.007c-.157.4-.373.8-.523,1.194-.157.418-.269.815-.421,1.181.258,1.537-.664,3.1-1.076,4.554-.788,2.772-1.731,5.53-2.783,8.217-1.1,2.822-1.678,5.706-2.652,8.555-.585,1.711-1.5,3.771-3.446,3.927-.155.43-.309.861-.46,1.289-.584,1.655-3.248,1-2.661-.664.178-.506.361-1.014.544-1.524a2.313,2.313,0,0,1-.385-1.826,1.074,1.074,0,0,1-.276-1.261c1.152-3.06,2.853-5.842,3.684-9.024.8-3.083,2.656-5.87,3.958-8.76.632-1.4,1.127-3.541,2.109-4.765a2.485,2.485,0,0,1,.381-.38c.036-.172.078-.344.13-.51.2-.636.409-1.3.654-1.931l-.057-.039c-7.286-2.289-16.981-3.179-22.12-.791-7.051,3.278-11.858,6.994-12.979,13.2S118.2,70.454,123.66,75.99c5.5,5.574,13.435,9.531,22.355,11.142,18.358,3.315,31.086-8.083,27.941-20.842-.574-2.33-3.852-9.765-9.387-13.94" fill="#719094"/>
    <path id="Path_4313" data-name="Path 4313" d="M57.591,145.638l-26.876,7.354a.9.9,0,0,1-.64-1.669l25.083-12.6.366.73-25.083,12.6a.069.069,0,0,0-.04.1c.028.07.07.058.1.051l26.876-7.354Z" fill="#2c2d30"/>
    <path id="Path_4314" data-name="Path 4314" d="M62.813,120.2s-3.036-1.362-4.676-.137-4.676,10.869,3.919,27.979c0,0-3.9-15.432-2.019-17.429s2.736,12.473,10.956,14.984c0,0-6.9-12.659-8.18-25.4" fill="#2c2d30"/>
    <path id="Path_4315" data-name="Path 4315" d="M76.181,154.009a42.661,42.661,0,0,1-.644,6.7c-.494,1.544-3.692,2.483-8.156-4.3,0,0,3.15,3.268,4.473,1.918s1.232-9.042,1.232-9.042Z" fill="#2c2d30"/>
    <path id="Path_4316" data-name="Path 4316" d="M56.452,142.518l-17.779,6.915,18.466-5.053Z" fill="#2c2d30"/>
    <path id="Path_4317" data-name="Path 4317" d="M53.384,121.261a4.631,4.631,0,1,1,3.244-5.688,4.635,4.635,0,0,1-3.244,5.688m-2.229-8.146a3.815,3.815,0,1,0,4.686,2.673,3.819,3.819,0,0,0-4.686-2.673" fill="#2c2d30"/>
    <path id="Path_4318" data-name="Path 4318" d="M55.445,114.247a8.181,8.181,0,0,1,2.285-2.858,2.533,2.533,0,0,1,2.968-.007,6.2,6.2,0,0,1,1.131,1.009l.615-.535a6.924,6.924,0,0,0-1.28-1.144,3.342,3.342,0,0,0-3.923.024,8.964,8.964,0,0,0-2.466,3.012Z" fill="#2c2d30"/>
    <path id="Path_4319" data-name="Path 4319" d="M77.949,156.908a48.845,48.845,0,0,1-.517,5.584,2.478,2.478,0,0,1-2.735,2.13c-6.32-.831-13.969-10.586-18.188-23.2-2.534-7.572-3.446-15.018-2.813-20.739l-.867.182c-.593,5.782.348,13.172,2.906,20.815,4.382,13.1,12.136,22.864,18.857,23.747a3.156,3.156,0,0,0,1.244-.086,3.335,3.335,0,0,0,2.4-2.734,49.268,49.268,0,0,0,.526-5.682Z" fill="#2c2d30"/>
    <path id="Path_4320" data-name="Path 4320" d="M95.936,120.311a3.665,3.665,0,0,1-1.129.127l-38.774-1.625.035-.816,38.774,1.625A2.815,2.815,0,1,0,94.807,114l-38.55,2.088-.045-.814,38.551-2.088a3.633,3.633,0,0,1,1.173,7.126" fill="#2c2d30"/>
    <path id="Path_4321" data-name="Path 4321" d="M158.179,42.565a4.493,4.493,0,0,1-1.6.138,4.445,4.445,0,1,1,1.6-.138m-2.145-7.844a3.657,3.657,0,0,0-1.852,5.863,3.621,3.621,0,0,0,2.475,1.305,3.656,3.656,0,1,0-.623-7.168" fill="#2c2d30"/>
    <path id="Path_4322" data-name="Path 4322" d="M145.657,73.774a3.632,3.632,0,0,1-4.3-4.922L153.743,40.84l.747.332L142.1,69.178a2.814,2.814,0,1,0,5.276,1.941l8.831-29.1.78.236-8.831,29.1a3.631,3.631,0,0,1-1.983,2.227,3.562,3.562,0,0,1-.521.187" fill="#2c2d30"/>
    <path id="Path_4323" data-name="Path 4323" d="M202.889,14.713a3.712,3.712,0,0,1-1.034.129,3.64,3.64,0,1,1,1.034-.129M201.158,8.42a2.854,2.854,0,1,0,2.808.765,2.856,2.856,0,0,0-2.808-.765" fill="#2c2d30"/>
    <path id="Path_4324" data-name="Path 4324" d="M177.033,22.514l22.044-10.525-.352-.737L176.7,21.771a4.566,4.566,0,0,1,.338.743" fill="#2c2d30"/>
    <path id="Path_4325" data-name="Path 4325" d="M199.6,13.264,179.188,26.273a4.812,4.812,0,0,1,.214.823c.015-.009.033-.013.048-.021l20.593-13.121Z" fill="#2c2d30"/>
    <path id="Path_4326" data-name="Path 4326" d="M79.978,90.814s8.614-12.793,21.852-5.133,13.205,35.546,7.948,46.059-13.737,8.554-15.482,4.236-7.888-1.509-5.879,4.288,8.507.572,5.968,3.2-6.876,2.829-9.442-1.687-1.568-10.149,4.693-13.554c0,0-.86-1.6,1.763-3.867s2.176-3.827,2.176-3.827-.843-.521.531-.53,3.116-.019,3.592-1.5.59-4.238-1.942-4.809-3.011-1.551-1.486-2.55,1.292-1.464-1.42-2.1-5.944-2.975-5.425-8.617,1.131-5.915-2.452-5.675-6.1-2.551-5-3.94" fill="#2c2d30"/>
    <path id="Path_4327" data-name="Path 4327" d="M120.553,54.5s-4.792,16.12,14.035,26.94S168.732,78.658,166.119,78s-.529-8.318-6.557-6.668-11.618,3.1-11.986.094c0,0-2.507,3.48-4.87,1.413s-.62-5.184-.62-5.184-1.167-2.7-4.651-.741-4.731-1.826-5.015-5.185-1.276-6.209-4.179-4.833-3.367,1.4-4.1-.516-3.583-1.876-3.583-1.876" fill="#2c2d30"/>
    <path id="Path_4328" data-name="Path 4328" d="M155.771,46.6c-.417.08-.354.3-.725.266.2.169-.073.144.088.349,13.61,5.987,21.553,18.253,17.9,28.317-3.877,10.68-19.363,14.893-34.519,9.388s-24.331-18.669-20.453-29.349c1.935-5.329,6.758-9.047,12.99-10.752a35.846,35.846,0,0,1,20.461,1.019c.38-.065.509-.273.85-.24a1.843,1.843,0,0,1-.391-.468c-15.293-5.177-30.722-.728-34.677,10.162-4.031,11.1,5.363,24.738,20.941,30.4a36.926,36.926,0,0,0,22.012,1.375c6.488-1.775,11.528-5.672,13.554-11.25,3.772-10.393-4.218-23-18.03-29.212" fill="#2c2d30"/>
    <path id="Path_4329" data-name="Path 4329" d="M147.937,34.01s4.934.408,6.486,1.249l-.594.723s-2.023-.562-3.431-.78a5.239,5.239,0,0,1-2.461-1.192" fill="#2c2d30"/>
    <path id="Path_4330" data-name="Path 4330" d="M157.957.539a2.683,2.683,0,0,0-2.663-.326A2.643,2.643,0,0,0,153.68,2.3c-.9,6.446-1.935,19.223,1.21,32.368l.794-.191c-3.114-13.013-2.086-25.675-1.2-32.065A1.834,1.834,0,0,1,155.609.967a1.867,1.867,0,0,1,1.861.227,73.182,73.182,0,0,1,28.946,50.172,5.706,5.706,0,0,1,.73.642l.135-.006c-.013-.306-1.572-30.813-29.324-51.463" fill="#2c2d30"/>
    <path id="Path_4331" data-name="Path 4331" d="M155.923,34.328s-2.163-13.2-.741-24.473a1.249,1.249,0,0,1,1.979-.876c4.863,3.592,19.025,15.693,25.479,38.778l-14.247-7.641-7.425-2.755s-1.36-4.092-5.045-3.033" fill="#2c2d30"/>
    <path id="Path_4332" data-name="Path 4332" d="M120.691,183.5s61.064-37.013,90.559-93.58l-1.156-5.535s-19.744,29.844-40.939,52.185l-21.162,19.952s-15.469,13.954-22.752,18.707a81.946,81.946,0,0,0-9.828,7.124,10.994,10.994,0,0,0,5.278,1.147" fill="#2c2d30"/>
    <path id="Path_4333" data-name="Path 4333" d="M188.261,167.791s4.125,1.178,7.022-.99,1.184-7.961,1.184-7.961Z" fill="#2c2d30"/>
    <path id="Path_4334" data-name="Path 4334" d="M115.724,154.957l-.362-7.109.771-.805.343,6.642c5.407-2.719,48.878-25.679,66.058-68.255l-5.424-1.769.659-.674,5.845,1.94-.16.4c-18.241,45.774-66.692,69.135-67.179,69.366Z" fill="#2c2d30"/>
    <path id="Path_4335" data-name="Path 4335" d="M123.824,150.229l-.787.215-1.866-6.819.634-.775Z" fill="#2c2d30"/>
    <rect id="Rectangle_492" data-name="Rectangle 492" width="0.816" height="9.537" transform="translate(149.315 118.405) rotate(-47.15)" fill="#2c2d30"/>
    <path id="Path_4336" data-name="Path 4336" d="M180.167,91.938l-7.021-2.072.545-.691,6.706,1.979Z" fill="#2c2d30"/>
    <path id="Path_4337" data-name="Path 4337" d="M191.555,55.149s16.237-11.585,25.657-13.733,10.059,1.2,8.155,7.641-10.2,25.075-21.2,39.509c0,0,9.024-15.463,8.818-24.212s-24.728-.265-24.728-.265Z" fill="#2c2d30"/>
    <path id="Path_4338" data-name="Path 4338" d="M84.714,164.522a60.546,60.546,0,0,0-7.187,13.452c-2.715,7.406,1.942.843.184,6.4s-3.742,8.746-1.941,11.849,6.57,2.751,13.8-1.765-.127-.389-5.661-.355-7.854-1.13-2.474-9.478,7.6-14.559,2.534-10.636,2.886-8.238,2.886-8.238Z" fill="#2c2d30"/>
    <path id="Path_4339" data-name="Path 4339" d="M88.852,164.4a52.238,52.238,0,0,0-4.137,7.108c-1.153,2.777,2.118-2.7,3.739-1.023s-1.282,6.909-2.551,9.425,3.116-3.5,4.638-7.4,1.986-5.885-.6-5.074,3.47-5.294,3.47-5.294Z" fill="#2c2d30"/>
    <path id="Path_4340" data-name="Path 4340" d="M83.08,185.445s-3.271,4.809-1.811,6.207,5.244,1.316,10.191-1.1-4.973,2.313-7.024.23-1.356-5.341-1.356-5.341" fill="#2c2d30"/>
    <path id="Path_4341" data-name="Path 4341" d="M160.4,40.577a3.882,3.882,0,0,1-2.132,1.384,4.131,4.131,0,0,1-1.515.12l-1.347,4.168c.011.011.022.018.032.028,19.041,7.271,29.348,19.807,29.348,19.807l3.93-8.2A79.523,79.523,0,0,0,160.4,40.577" fill="#2c2d30"/>
    <path id="Path_4342" data-name="Path 4342" d="M154.083,40.484a4.657,4.657,0,0,1-.79-1.927,72.4,72.4,0,0,0-47.132,5.485c18.29-4.683,33.7-2.982,45.913,1.045Z" fill="#2c2d30"/>
    <path id="Path_4343" data-name="Path 4343" d="M172.387,169.787l-.12.023c-.138.026-14.012,2.515-27.692-7.831l.493-.651c12.732,9.629,25.577,7.914,26.93,7.7l4.172-4.022c-13.94-3.453-21.392-9.7-21.466-9.768l.529-.62c.075.063,7.649,6.407,21.848,9.769l.728.172Z" fill="#2c2d30"/>
    <path id="Path_4344" data-name="Path 4344" d="M192.758,150.508l-.235-.728c-3.392-10.512-10.932-20.3-11.007-20.4l.645-.5c.075.1,7.36,9.552,10.9,19.923l4.36-5.54c-.385-1.625-3.328-13.441-9.3-21.625l.66-.481c6.493,8.9,9.451,21.985,9.479,22.116l.043.19Z" fill="#2c2d30"/>
    <path id="Path_4345" data-name="Path 4345" d="M209.417,122.718l-.143-1.782c-1.047-13.112-4.687-21.612-4.725-21.7l.749-.326a74.155,74.155,0,0,1,4.6,19.85,43.672,43.672,0,0,0-1.862-25.855l.763-.292c6.013,15.8,1.313,28.311,1.265,28.435Z" fill="#2c2d30"/>
    <path id="Path_4346" data-name="Path 4346" d="M76.017,79.2,50.452,78.49a6.885,6.885,0,0,1-.891.792l26.433.735a.5.5,0,0,1,.354.158.506.506,0,0,1-.381.853l-27.95-.778c-.261.139-.525.274-.789.4a5.128,5.128,0,0,1-1.006.362l29.722.827a1.322,1.322,0,0,0,.073-2.643" fill="#2c2d30"/>
    <path id="Path_4347" data-name="Path 4347" d="M112.893,38.078l-5.8-19.646a5.82,5.82,0,0,1-.526,1.1l5.507,18.638a3.434,3.434,0,0,1,.823-.1" fill="#2c2d30"/>
    <path id="Path_4348" data-name="Path 4348" d="M111.118,38.519,105.8,20.513a6.217,6.217,0,0,1-.668.62L110.4,38.977a4.382,4.382,0,0,1,.716-.458" fill="#2c2d30"/>
    <path id="Path_4349" data-name="Path 4349" d="M69,79.419c.613-1.385,1.251-2.759,1.944-4.106a3.673,3.673,0,0,1-.937.042c-.669,1.318-1.285,2.661-1.877,4.015Z" fill="#2c2d30"/>
    <path id="Path_4350" data-name="Path 4350" d="M62.72,115.129a75.368,75.368,0,0,1,5.525-33.953l-.861-.045a76.2,76.2,0,0,0-5.474,34.135,4.573,4.573,0,0,1,.81-.137" fill="#2c2d30"/>
    <path id="Path_4351" data-name="Path 4351" d="M191.555,55.149a78.289,78.289,0,0,0-30.537-18.216,4.658,4.658,0,0,1,.236.922,76.344,76.344,0,0,1,29.272,17.429,1.055,1.055,0,0,1,.242,1.168c-28.151,67.232-92.82,102.771-103.158,108.1a1.739,1.739,0,0,1-2-.288A75.253,75.253,0,0,1,63.054,118.7c-.024-.044-.058-.089-.085-.133a4.421,4.421,0,0,1-.74.085,76,76,0,0,0,23.3,46.651,1.69,1.69,0,0,0,1.944.276c9.221-4.777,75.827-40.959,104.212-109.2.013.012.055-.067.109-.192a1.02,1.02,0,0,0-.236-1.04" fill="#2c2d30"/>
    <path id="Path_4352" data-name="Path 4352" d="M103.808,44.719S101.072,52.89,88.514,64.98a37.876,37.876,0,0,0,13.64-8.465c6.45-6.254,9.6-3.621,10.194-1.458s.949-1.565-1.777-6.5-6.763-3.841-6.763-3.841" fill="#2c2d30"/>
    <path id="Path_4353" data-name="Path 4353" d="M31.753,29.958A61.055,61.055,0,0,0,.051,80.7,67.951,67.951,0,0,0,1.294,96.366a63.426,63.426,0,0,0,5.2,14.793,61.361,61.361,0,0,0,20.4,23.13l.282-.384A64.513,64.513,0,0,1,3,80.837,63.378,63.378,0,0,1,5.451,66.042a59.427,59.427,0,0,1,5.8-13.881c4.794-8.918,12.071-16.362,20.5-22.2" fill="#f5ecce"/>
    <path id="Path_4354" data-name="Path 4354" d="M23.35,50.836A49.257,49.257,0,0,0,13.379,69.4,50.332,50.332,0,0,0,34.44,125.616l.282-.384a56.421,56.421,0,0,1-19.192-55.3,58.518,58.518,0,0,1,7.82-19.1" fill="#f5ecce"/>
    <path id="Path_4355" data-name="Path 4355" d="M32.976,55.695a35.9,35.9,0,0,0-6.825,10.267,36.4,36.4,0,0,0-3.065,12.112,37,37,0,0,0,6.1,23.747l.421-.221a53.684,53.684,0,0,1-3.579-23.3,54.274,54.274,0,0,1,2.195-11.561,56.506,56.506,0,0,1,4.749-11.046" fill="#f5ecce"/>
  </g>
</svg>
